<?xml version="1.0" encoding="utf-8" ?>
<svg xmlns="http://www.w3.org/2000/svg" xmlns:xlink="http://www.w3.org/1999/xlink" width="1024" height="1024">
	<path fill="#166281" transform="scale(2 2)" d="M263.123 453.689C153.913 457.508 62.2729 372.097 58.4064 262.889C54.5399 153.681 139.91 62.0037 249.117 58.0893C358.391 54.1725 450.137 139.607 454.006 248.883C457.875 358.159 372.4 449.868 263.123 453.689ZM72.7632 217.946C68.7826 237.105 67.8301 256.769 69.9406 276.222C80.291 371.63 161.11 443.761 257.076 443.242C353.043 442.722 433.075 369.719 442.392 274.205C443.613 261.682 443.569 249.068 442.26 236.554C432.661 144.786 357.631 73.6948 265.478 69.054C173.326 64.4132 91.5333 127.606 72.7632 217.946Z"/>
	<path fill="#8CD0EC" transform="scale(2 2)" d="M442.26 236.554C440.541 234.405 438.201 223.36 437.247 220.156C406.775 117.722 299.795 52.8111 195.682 89.7295C154.468 104.344 126.175 127.771 101.865 162.956C90.9343 181.522 79.0869 200.861 75.3009 222.58L75.1902 222.692L75.0814 223.247C74.0113 218.454 87.8751 186.673 90.1875 181.693C91.7358 178.359 91.9722 180.564 90.9819 177.551C90.6762 176.621 91.1554 175.588 90.7185 174.621L89.9177 174.268C89.8871 173.278 89.9272 172.879 90.4429 172.014L90.1552 172.283L90.7243 172.046L91.0554 173.17L91.4579 173.338C92.2192 173.021 92.6563 173.184 93.4007 173.038L94.0159 172.512L94.2977 172.769L93.661 173.738L94.0422 173.795C94.0671 174.011 94.089 174.227 94.1053 174.444L94.1546 174.138C95.1398 173.239 95.4208 171.465 96.2897 170.683C93.4259 170.55 94.108 164.66 95.1375 162.553L94.6512 162.283L94.7544 162.303C90.4385 166.6 79.8165 193.534 77.8928 199.602C75.9278 205.799 74.7823 212.127 73.0296 218.349L72.7632 217.946C91.5333 127.606 173.326 64.4132 265.478 69.054C357.631 73.6948 432.661 144.786 442.26 236.554Z"/>
	<path fill="#4CB6E1" transform="scale(2 2)" d="M101.865 162.956C126.175 127.771 154.468 104.344 195.682 89.7295C299.795 52.8111 406.775 117.722 437.247 220.156C438.201 223.36 440.541 234.405 442.26 236.554C443.569 249.068 443.613 261.682 442.392 274.205C441.634 276.818 442.118 274.48 442.116 273.632C440.406 275.752 439.063 285.015 438.426 287.942C429.697 328.028 409.629 358.969 379.342 385.701C350.141 411.475 316.166 428.493 277.006 432.697C214.004 439.461 151.666 413.572 112.355 364.152C94.8693 342.169 81.1358 317.732 74.1211 290.323C73.0248 286.039 72.7518 279.82 69.9406 276.222C67.8301 256.769 68.7826 237.105 72.7632 217.946L73.0296 218.349C74.7823 212.127 75.9278 205.799 77.8928 199.602C79.8165 193.534 90.4385 166.6 94.7544 162.303L94.6512 162.283L95.1375 162.553C94.108 164.66 93.4259 170.55 96.2897 170.683C95.4208 171.465 95.1398 173.239 94.1546 174.138L94.1053 174.444C94.089 174.227 94.0671 174.011 94.0422 173.795L93.661 173.738L94.2977 172.769L94.0159 172.512L93.4007 173.038C92.6563 173.184 92.2192 173.021 91.4579 173.338L91.0554 173.17L90.7243 172.046L90.1552 172.283L90.4429 172.014C89.9272 172.879 89.8871 173.278 89.9177 174.268L90.7185 174.621C91.1554 175.588 90.6762 176.621 90.9819 177.551C91.9722 180.564 91.7358 178.359 90.1875 181.693C87.8751 186.673 74.0113 218.454 75.0814 223.247L75.1902 222.692L75.3009 222.58C79.0869 200.861 90.9343 181.522 101.865 162.956ZM409.21 272.622C408.259 267.376 409.309 260.483 409.223 254.991C407.899 170.453 338.614 99.4564 253.171 100.828C169.012 102.179 101.448 173.076 102.847 256.941C102.918 261.189 103.268 265.422 103.335 269.669C101.994 306.358 118.729 342.367 143.403 368.935C193.065 422.407 276.469 431.842 338.449 394.187C375.406 371.734 406.601 327.024 408.012 282.964C408.127 279.38 409.247 275.141 409.21 272.622Z"/>
	<defs>
		<linearGradient id="gradient_0" gradientUnits="userSpaceOnUse" x1="276.22537" y1="407.80441" x2="235.3119" y2="102.09209">
			<stop offset="0" stop-color="#EF7701"/>
			<stop offset="1" stop-color="#FDB442"/>
		</linearGradient>
	</defs>
	<path fill="url(#gradient_0)" transform="scale(2 2)" d="M103.335 269.669C103.268 265.422 102.918 261.189 102.847 256.941C101.448 173.076 169.012 102.179 253.171 100.828C338.614 99.4564 407.899 170.453 409.223 254.991C409.309 260.483 408.259 267.376 409.21 272.622L408.661 274.365C407.918 276.706 407.638 279.148 407.201 281.558C395.899 343.903 349.297 394.344 286.07 406.408C205.769 421.731 130.046 373.2 108.352 294.966C106.031 286.598 104.937 278.17 103.335 269.669ZM239.741 151.914L239.741 182.373L272.21 182.373C272.785 179.831 272.231 176.296 272.219 173.614L272.21 151.914L239.741 151.914ZM216.504 210.344L215.532 210.516C214.812 212.214 215.318 226.867 215.323 229.918L239.741 229.918L239.741 332.001L216.504 332.001L216.504 355.825L272.977 355.825L296.246 355.825L296.246 332.001L272.977 332.001L272.977 210.344L216.504 210.344ZM114.217 258.128C112.03 290.306 128.989 329.397 149.609 353.079C199.496 410.374 293.823 414.809 350.798 364.932C353.818 362.289 357.874 358.863 360.152 355.616C354.902 359.903 349.268 365.578 343.831 370.221C342.986 370.583 340.246 373.708 341.26 371.355C340.996 369.617 339.398 369.05 338.367 367.736L338.112 368.231L337.631 367.72C336.101 368.751 333.362 369.101 331.544 369.622C335.64 364.943 343.884 361.719 348.445 355.806C345.406 357.457 341.568 361.514 338.712 363.784C334.76 366.924 330.207 369.572 325.843 372.103C254.968 413.204 169.341 384.391 131.467 314.526C123.292 299.447 117.083 282.372 115.023 265.255C114.77 263.147 115.002 260.03 114.217 258.128Z"/>
	<path fill="white" transform="scale(2 2)" d="M239.741 182.373L239.741 151.914L272.21 151.914L272.219 173.614C272.231 176.296 272.785 179.831 272.21 182.373L239.741 182.373Z"/>
	<path fill="white" transform="scale(2 2)" d="M215.323 229.918C215.318 226.867 214.812 212.214 215.532 210.516L216.504 210.344L272.977 210.344L272.977 332.001L296.246 332.001L296.246 355.825L272.977 355.825L216.504 355.825L216.504 332.001L239.741 332.001L239.741 229.918L215.323 229.918Z"/>
	<path fill="#F06900" transform="scale(2 2)" d="M343.831 370.221C349.268 365.578 354.902 359.903 360.152 355.616C357.874 358.863 353.818 362.289 350.798 364.932C293.823 414.809 199.496 410.374 149.609 353.079C128.989 329.397 112.03 290.306 114.217 258.128C115.002 260.03 114.77 263.147 115.023 265.255C117.083 282.372 123.292 299.447 131.467 314.526C169.341 384.391 254.968 413.204 325.843 372.103C330.207 369.572 334.76 366.924 338.712 363.784C341.568 361.514 345.406 357.457 348.445 355.806C343.884 361.719 335.64 364.943 331.544 369.622C333.362 369.101 336.101 368.751 337.631 367.72L338.112 368.231L338.367 367.736C339.398 369.05 340.996 369.617 341.26 371.355C340.246 373.708 342.986 370.583 343.831 370.221Z"/>
	<path fill="#1E85AE" transform="scale(2 2)" d="M103.335 269.669C104.937 278.17 106.031 286.598 108.352 294.966C130.046 373.2 205.769 421.731 286.07 406.408C349.297 394.344 395.899 343.903 407.201 281.558C407.638 279.148 407.918 276.706 408.661 274.365L409.21 272.622C409.247 275.141 408.127 279.38 408.012 282.964C406.601 327.024 375.406 371.734 338.449 394.187C276.469 431.842 193.065 422.407 143.403 368.935C118.729 342.367 101.994 306.358 103.335 269.669Z"/>
	<path fill="#1E85AE" transform="scale(2 2)" d="M69.9406 276.222C72.7518 279.82 73.0248 286.039 74.1211 290.323C81.1358 317.732 94.8693 342.169 112.355 364.152C151.666 413.572 214.004 439.461 277.006 432.697C316.166 428.493 350.141 411.475 379.342 385.701C409.629 358.969 429.697 328.028 438.426 287.942C439.063 285.015 440.406 275.752 442.116 273.632C442.118 274.48 441.634 276.818 442.392 274.205C433.075 369.719 353.043 442.722 257.076 443.242C161.11 443.761 80.291 371.63 69.9406 276.222Z"/>
</svg>
