<?xml version="1.0" encoding="utf-8" ?>
<svg xmlns="http://www.w3.org/2000/svg" xmlns:xlink="http://www.w3.org/1999/xlink" width="1024" height="1024">
	<path fill="#166281" transform="scale(2 2)" d="M398.199 436.998L122.058 437.014C117.754 437.014 113.284 437.131 109.016 436.527C89.7545 433.805 75.2861 416.694 74.6408 397.492C74.4356 391.386 74.7452 385.176 74.7531 379.054L74.7471 119.299C74.7477 115.34 74.4891 111.129 74.9958 107.2C77.7375 85.9426 94.7198 73.433 115.544 72.8823L391.175 72.8558C414.113 72.7175 435.187 82.5879 437.402 108.475C437.982 115.249 437.647 122.242 437.638 129.047L437.647 385.207C437.653 390.874 437.93 396.712 437.274 402.344C434.901 422.74 417.943 435.388 398.199 436.998ZM422.019 232.478L422.028 128.7C422.03 123.214 422.35 117.403 421.343 111.999C418.382 96.1293 404.878 87.7618 389.383 87.8406L125.613 87.8873C109.101 87.8606 93.9544 92.3203 90.6046 111.678C89.8237 116.19 90.2271 121.147 90.2296 125.729L90.2091 233.686C90.2115 234.029 90.2262 234.37 90.2407 234.712C89.8442 247.848 90.2418 261.118 90.2412 274.266L90.2407 354.15L90.2402 377.739C90.2493 390.33 88.5009 403.033 98.2986 412.827C109.924 424.448 130.478 421.09 145.772 421.079L390.625 421.08C411.447 420.968 424.666 409.805 422.019 387.895C422.247 382.34 422.019 376.699 422.018 371.134L422.019 232.478Z"/>
	<path fill="#8CD0EC" transform="scale(2 2)" d="M422.019 232.478C417.951 233.876 404.703 242.734 402.259 242.776C395.7 166.992 332.273 108.812 256.206 108.804C180.139 108.797 116.7 166.966 110.127 242.748C108.312 243.578 93.4388 235.511 90.2407 234.712C90.2262 234.37 90.2115 234.029 90.2091 233.686L90.2296 125.729C90.2271 121.147 89.8237 116.19 90.6046 111.678C93.9544 92.3203 109.101 87.8606 125.613 87.8873L389.383 87.8406C404.878 87.7618 418.382 96.1293 421.343 111.999C422.35 117.403 422.03 123.214 422.028 128.7L422.019 232.478Z"/>
	<path fill="#1E85AE" transform="scale(2 2)" d="M110.127 242.748C116.7 166.966 180.139 108.797 256.206 108.804C332.273 108.812 395.7 166.992 402.259 242.776C407.037 297.979 380.285 351.16 333.114 380.232C285.943 409.303 226.412 409.297 179.247 380.217C132.081 351.137 105.339 297.951 110.127 242.748ZM117.663 246.374C117.451 288.455 126.142 320.648 157.248 352.101C206.494 401.896 285.645 407.354 341.358 365.279C376.265 338.916 395.439 296.801 395.471 253.278L395.464 247.796C394.348 241.802 394.137 235.654 392.958 229.652C381.5 171.339 331.725 124.612 272.616 117.173C198.177 107.805 133.7 160.323 119.657 232.388C118.756 237.014 118.246 241.7 117.663 246.374Z"/>
	<defs>
		<linearGradient id="gradient_0" gradientUnits="userSpaceOnUse" x1="256.09152" y1="261.2168" x2="258.82993" y2="116.63787">
			<stop offset="0" stop-color="#FA7F00"/>
			<stop offset="1" stop-color="#FCBB23"/>
		</linearGradient>
	</defs>
	<path fill="url(#gradient_0)" transform="scale(2 2)" d="M117.663 246.374C118.246 241.7 118.756 237.014 119.657 232.388C133.7 160.323 198.177 107.805 272.616 117.173C331.725 124.612 381.5 171.339 392.958 229.652C394.137 235.654 394.348 241.802 395.464 247.796C385.683 250.517 365.547 262.228 358.019 262.033L357.81 261.736L357.84 247.983C357.859 233.266 356.281 234.681 343.531 234.698L274.772 234.712L274.78 183.619C274.78 179.896 275.794 155.715 273.886 153.843C271.12 151.128 259.803 152.486 256.1 152.466C250.269 152.434 242.495 150.443 237.862 154.827C237.618 157.409 237.827 160.146 237.838 162.744L237.871 178.241C237.873 197.057 238.076 215.899 237.862 234.712C210.875 234.645 183.851 234.44 156.867 234.712C152.397 237.588 153.704 241.33 153.711 246.107L153.74 259.733C152.363 260.148 122.2 249.748 118.153 248.473C117.712 247.866 117.756 247.112 117.663 246.374Z"/>
	<path fill="#4CB6E1" transform="scale(2 2)" d="M153.74 259.733L153.711 246.107C153.704 241.33 152.397 237.588 156.867 234.712C183.851 234.44 210.875 234.645 237.862 234.712C238.076 215.899 237.873 197.057 237.871 178.241L237.838 162.744C237.827 160.146 237.618 157.409 237.862 154.827C242.495 150.443 250.269 152.434 256.1 152.466C259.803 152.486 271.12 151.128 273.886 153.843C275.794 155.715 274.78 179.896 274.78 183.619L274.772 234.712L343.531 234.698C356.281 234.681 357.859 233.266 357.84 247.983L357.81 261.736C357.897 273.692 350.44 271.182 340.226 271.187L274.772 271.181L274.781 341.109C274.78 346.146 276.714 355.531 269.422 355.797C263.369 356.017 248.622 356.373 243.558 355.568C236.24 354.405 237.838 344.627 237.844 339.23L237.862 271.181L186.264 271.16C181.329 271.146 158.664 272.644 155.388 269.385C153.041 267.05 153.703 262.791 153.74 259.733ZM244.332 158.734L244.335 229.998C244.333 233.783 244.525 237.655 243.919 241.403C242.558 242.712 216.449 241.94 212.935 241.938L161.184 241.934L161.184 263.551L212.904 263.543C221.8 263.544 230.806 263.259 239.69 263.585C242.732 263.697 244.283 263.221 244.372 266.656C244.472 270.551 244.327 274.492 244.327 278.391L244.33 305.672C244.333 319.75 244.691 333.926 244.332 347.992L267.999 347.992C268.565 346.855 267.996 328.76 267.996 326.51L267.95 270.341C267.94 268.882 267.538 264.354 269.055 263.87C271.581 263.063 287.933 263.548 292.037 263.548L350.618 263.551L350.618 241.934L280.453 241.943C278.283 241.943 270.206 242.841 268.64 241.195C267.181 239.663 267.997 214.018 267.997 210.545L267.999 158.734L244.332 158.734Z"/>
	<path fill="white" transform="scale(2 2)" d="M161.184 241.934L212.935 241.938C216.449 241.94 242.558 242.712 243.919 241.403C244.525 237.655 244.333 233.783 244.335 229.998L244.332 158.734L267.999 158.734L267.997 210.545C267.997 214.018 267.181 239.663 268.64 241.195C270.206 242.841 278.283 241.943 280.453 241.943L350.618 241.934L350.618 263.551L292.037 263.548C287.933 263.548 271.581 263.063 269.055 263.87C267.538 264.354 267.94 268.882 267.95 270.341L267.996 326.51C267.996 328.76 268.565 346.855 267.999 347.992L244.332 347.992C244.691 333.926 244.333 319.75 244.33 305.672L244.327 278.391C244.327 274.492 244.472 270.551 244.372 266.656C244.283 263.221 242.732 263.697 239.69 263.585C230.806 263.259 221.8 263.544 212.904 263.543L161.184 263.551L161.184 241.934Z"/>
	<defs>
		<linearGradient id="gradient_1" gradientUnits="userSpaceOnUse" x1="255.89938" y1="412.38379" x2="256.07755" y2="233.08588">
			<stop offset="0" stop-color="#159FD1"/>
			<stop offset="1" stop-color="#63B9DE"/>
		</linearGradient>
	</defs>
	<path fill="url(#gradient_1)" transform="scale(2 2)" d="M402.259 242.776C404.703 242.734 417.951 233.876 422.019 232.478L422.018 371.134C422.019 376.699 422.247 382.34 422.019 387.895C420.56 389.537 420.018 392.302 419.131 394.318C411.302 412.12 400.654 412.462 383.766 412.476L140.455 412.783C122.719 412.707 106.566 414.836 95.5217 396.675C94.214 394.524 92.6266 388.775 90.2407 387.895L90.2525 366.096C90.2647 362.134 90.4441 358.105 90.2407 354.15L90.2412 274.266C90.2418 261.118 89.8442 247.848 90.2407 234.712C93.4388 235.511 108.312 243.578 110.127 242.748C105.339 297.951 132.081 351.137 179.247 380.217C226.412 409.297 285.943 409.303 333.114 380.232C380.285 351.16 407.037 297.979 402.259 242.776Z"/>
	<path fill="#F06900" transform="scale(2 2)" d="M395.464 247.796L395.471 253.278C395.439 296.801 376.265 338.916 341.358 365.279C285.645 407.354 206.494 401.896 157.248 352.101C126.142 320.648 117.451 288.455 117.663 246.374C117.756 247.112 117.712 247.866 118.153 248.473C122.2 249.748 152.363 260.148 153.74 259.733C153.703 262.791 153.041 267.05 155.388 269.385C158.664 272.644 181.329 271.146 186.264 271.16L237.862 271.181L237.844 339.23C237.838 344.627 236.24 354.405 243.558 355.568C248.622 356.373 263.369 356.017 269.422 355.797C276.714 355.531 274.78 346.146 274.781 341.109L274.772 271.181L340.226 271.187C350.44 271.182 357.897 273.692 357.81 261.736L358.019 262.033C365.547 262.228 385.683 250.517 395.464 247.796Z"/>
	<path fill="#1E85AE" transform="scale(2 2)" d="M90.2407 354.15C90.4441 358.105 90.2647 362.134 90.2525 366.096L90.2407 387.895C92.6266 388.775 94.214 394.524 95.5217 396.675C106.566 414.836 122.719 412.707 140.455 412.783L383.766 412.476C400.654 412.462 411.302 412.12 419.131 394.318C420.018 392.302 420.56 389.537 422.019 387.895C424.666 409.805 411.447 420.968 390.625 421.08L145.772 421.079C130.478 421.09 109.924 424.448 98.2986 412.827C88.5009 403.033 90.2493 390.33 90.2402 377.739L90.2407 354.15Z"/>
</svg>
