<?xml version="1.0" encoding="utf-8" ?>
<svg xmlns="http://www.w3.org/2000/svg" xmlns:xlink="http://www.w3.org/1999/xlink" width="1024" height="1024">
	<path fill="#166281" transform="scale(2 2)" d="M154.76 104.444C165.493 82.6929 187.258 66.0866 212.078 65.4988C228.089 64.327 243.553 69.8336 255.854 79.989C257.22 79.0285 258.533 77.9817 259.893 77.008C288.9 56.2322 328.33 64.2483 349.723 91.7936C352.524 95.4009 354.589 99.4439 357.211 103.172C387.631 111.205 404.637 128.343 407.607 161.079C428.553 177.358 437.004 198.197 430.065 224.756C436.187 233.459 439.737 237.004 441.519 248.621C443.977 264.642 440.239 277.033 430.829 289.924C437.312 314.739 428.597 333.597 408.895 349.63C406.332 378.894 386.845 400.783 357.211 405.078C344.358 426.984 326.251 441.499 299.35 441.746C276.943 442.073 272.004 435.173 255.854 425.774C250.805 429.688 245.724 433.233 239.848 435.834C206.705 450.505 170.013 437.568 155.505 404.257C128.677 405.401 103.297 375.944 103.5 349.63C83.9953 337.79 74.8168 311.586 80.4206 289.924C68.7247 267.925 66.7809 246.416 81.9288 224.756C78.2322 212.753 78.0335 199.289 82.6218 187.47C86.024 178.707 94.659 164.967 103.5 161.079C105.134 130.606 124.953 108.843 154.76 104.444ZM264.125 95.4061L261.44 97.839C257.947 98.1251 254.338 97.8992 250.832 97.839C249.925 97.2016 248.449 96.348 247.879 95.4061C245.461 91.7078 237.402 86.932 233.343 85.0891C219.145 78.6424 201.154 80.7114 188.303 89.2352C179.295 95.2104 167.441 108.843 166.129 120.294C144.147 117.435 123.165 132.847 120.383 155.155C119.833 159.566 120.072 164.189 120.219 168.625C99.102 181.621 87.517 204.571 100.507 227.746C91.7512 235.942 86.7813 248.476 87.3051 260.45C87.9831 270.732 91.184 279.006 98.8972 286.053C89.3757 308.958 97.5931 330.3 120.219 340.438C119.696 345.286 119.404 350.23 120.104 355.077C123.43 378.104 144.526 391.294 166.802 388.008C171.659 412.659 193.27 428.342 218.335 425.584C228.61 424.453 241.308 418.803 247.879 410.611C248.1 408.543 247.932 406.373 247.913 404.292L247.894 185.915C247.896 179.536 247.484 172.973 247.879 166.623C248.463 171.073 247.831 177.694 247.868 182.347L248.367 389.655C248.369 394.505 247.947 404.346 249.054 408.702L249.231 408.805C251.853 406.502 253.973 403.399 255.854 400.481C258.629 403.83 261.442 407.189 264.125 410.611C263.797 405.695 264.103 400.862 264.117 395.949L264.123 320.592C264.122 316.933 263.367 291.551 264.64 289.924L264.615 365.899C264.609 368.193 264.32 370.878 264.64 373.114C264.443 377.616 264.633 382.184 264.634 386.693L264.64 411.521C290.382 437.798 335.911 425.438 345.818 389.594C376.055 392.266 394.131 368.472 393.253 339.81C395.179 338.445 397.315 337.38 399.339 336.168C412.886 328.052 418.279 312.969 415.536 297.663C415.056 294.171 413.667 288.965 411.673 286.053C420.101 276.614 427.889 271.742 425.97 255.824L425.97 254.445C425.025 242.229 420.49 237.462 411.673 229.751C412.36 226.802 413.766 224.055 414.713 221.183C422.189 198.514 410.555 181.567 391.257 170.23C392.097 142.456 376.629 116.996 345.818 119.001C344.566 116.299 343.641 113.46 342.423 110.741C329.218 81.2613 283.625 70.3423 264.125 95.4061Z"/>
	<path fill="#FDDC8C" transform="scale(2 2)" d="M166.129 120.294C167.441 108.843 179.295 95.2104 188.303 89.2352C201.154 80.7114 219.145 78.6424 233.343 85.0891C237.402 86.932 245.461 91.7078 247.879 95.4061C247.399 98.5938 247.586 112.559 247.879 115.937C226.959 77.7389 180.269 93.1588 173.666 131.682C162.258 130.718 153.405 131.044 144.215 138.781C131.408 149.561 127.825 163.297 132.107 178.82C111.827 185.148 101.311 204.373 107.828 224.791C109.21 229.12 111.344 233.118 113.418 237.143C103.279 240.054 97.3395 253.069 87.3051 260.45C86.7813 248.476 91.7512 235.942 100.507 227.746C87.517 204.571 99.102 181.621 120.219 168.625C120.072 164.189 119.833 159.566 120.383 155.155C123.165 132.847 144.147 117.435 166.129 120.294Z"/>
	<path fill="#FDDC8C" transform="scale(2 2)" d="M264.125 95.4061C283.625 70.3423 329.218 81.2613 342.423 110.741C343.641 113.46 344.566 116.299 345.818 119.001C376.629 116.996 392.097 142.456 391.257 170.23C410.555 181.567 422.189 198.514 414.713 221.183C413.766 224.055 412.36 226.802 411.673 229.751C420.49 237.462 425.025 242.229 425.97 254.445C417.232 249.563 408.981 242.382 399.405 237.143C405.178 224.273 409.984 214.154 403.215 199.368C398.422 188.898 392.298 185.624 381.913 181.808C383.326 170.893 384.546 161.706 378.837 151.626C370.896 137.603 361.74 135.468 348.117 131.682C345.897 131.31 343.264 131.877 340.917 131.682C334.339 106.519 306.524 83.1057 280.775 98.0233C275.886 100.856 266.057 110.725 264.64 115.937C264.631 111.377 265.273 98.8418 264.125 95.4061Z"/>
	<path fill="#FFAF02" transform="scale(2 2)" d="M264.64 115.937C266.057 110.725 275.886 100.856 280.775 98.0233C306.524 83.1057 334.339 106.519 340.917 131.682C343.264 131.877 345.897 131.31 348.117 131.682C339.621 133.378 341.346 133.965 338.883 127.135C330.436 103.709 303.076 83.4738 279.33 99.4241C278.45 100.015 273.139 103.256 275.532 104.243C268.755 115.793 265.369 106.932 265.356 122.872C265.351 128.659 265.399 151.007 264.64 153.31C264.372 149.099 264.724 144.776 264.64 140.547C264.771 132.35 264.653 124.136 264.64 115.937Z"/>
	<path fill="#FC9E02" transform="scale(2 2)" d="M173.666 131.682C180.269 93.1588 226.959 77.7389 247.879 115.937C247.691 122.084 247.353 131.735 247.879 137.831C247.725 147.416 247.809 157.035 247.879 166.623C247.484 172.973 247.896 179.536 247.894 185.915L247.913 404.292C247.932 406.373 248.1 408.543 247.879 410.611C241.308 418.803 228.61 424.453 218.335 425.584C193.27 428.342 171.659 412.659 166.802 388.008C144.526 391.294 123.43 378.104 120.104 355.077C119.404 350.23 119.696 345.286 120.219 340.438C97.5931 330.3 89.3757 308.958 98.8972 286.053C91.184 279.006 87.9831 270.732 87.3051 260.45C97.3395 253.069 103.279 240.054 113.418 237.143C111.344 233.118 109.21 229.12 107.828 224.791C101.311 204.373 111.827 185.148 132.107 178.82C127.825 163.297 131.408 149.561 144.215 138.781C153.405 131.044 162.258 130.718 173.666 131.682ZM232.385 137.066C228.01 127.952 216.013 129.01 207.173 130.362C199.815 131.487 193.322 138.162 191.966 145.445C190.618 152.651 191.431 160.413 191.299 167.733C179.614 166.234 165.728 170.585 161.89 182.831C159.739 188.51 159.696 207.598 160.271 214.983C160.484 217.305 160.977 219.523 161.489 221.792C165.955 227.029 176.054 226.306 176.779 218.672L176.427 217.982C178.621 212.53 177.724 199.472 177.71 193.225C181.407 188.664 188.287 189.738 193.491 189.739L214.82 189.784C226.427 189.846 233.687 191.12 232.385 176.951C232.444 175.859 232.364 174.741 232.385 173.644C236.695 164.328 212.94 166.184 209.302 167.078C210.031 162.516 209.263 157.909 209.302 153.31C217.522 153.487 236.182 155.528 232.385 140.547C232.245 139.422 232.363 138.202 232.385 137.066ZM232.385 214.122L232.92 213.936C235.216 209.849 230.06 205.123 225.296 204.602C217.773 203.779 192.131 200.381 194.782 214.122C194.511 215.419 194.245 216.646 194.26 217.982C194.151 220.274 194 222.466 194.26 224.756C199.189 231.807 216.073 229.723 223.581 229.09C230.447 228.51 233.191 224.734 232.385 217.982C232.355 216.692 232.338 215.412 232.385 214.122ZM161.489 239.156C159.992 241.216 160.286 244.465 160.651 246.875C163.54 265.932 180.463 267.965 195.672 267.997L214.471 267.985C221.192 268.034 227.928 270.143 232.385 263.756C232.259 261.929 232.286 260.164 232.385 258.336L232.385 252.48C232.922 251.988 232.931 251.57 232.961 250.865C233.385 240.98 221.721 243.082 215.38 243.078L192.248 243.093C188.105 243.109 183.92 243.33 179.784 243.09C179.267 242.723 178.794 242.317 178.314 241.905L177.71 241.96C175.468 233.404 166.244 232.203 161.489 239.156ZM177.71 283.494C174.84 275.769 164.614 273.651 161.035 281.935C159.672 285.09 160.23 289.316 160.271 292.678C160.257 301.544 159.919 316.853 164.144 324.931C165.827 329.544 168.972 333.318 172.789 336.347C177.6 340.293 183.436 342.411 189.549 343.418C189.543 346.656 189.1 357.898 189.549 360.161C189.556 360.355 193.325 374.316 193.631 374.986C197.313 383.055 207.669 383.444 215.324 383.485C224.093 383.533 232.588 383.358 232.385 372.444C232.422 371.323 232.391 370.195 232.385 369.073C233.786 351.714 225.536 358.335 214.128 355.623C211.917 355.098 210.455 353.298 208.445 352.353C208.04 340.999 222.487 347.392 229.869 342.024C232.278 339.61 232.472 336.861 232.385 333.596C232.426 332.406 232.398 331.215 232.385 330.025C234.284 328.24 233.051 324.754 232.039 322.824C225.225 309.844 193.852 329.769 181.414 301.971C180.217 299.297 179.338 296.527 177.938 293.939L177.71 293.525C177.564 295.943 177.97 298.333 177.71 300.767C177.088 295.103 178.239 289.187 177.71 283.494ZM232.385 291.639C239.333 275.774 196.529 282.77 196.259 282.975C194.171 284.566 193.21 289.487 194.782 291.639L194.782 291.639C193.939 307.123 200.476 306.159 213.603 306.042C219.823 305.987 235.759 307.818 232.385 295.721C232.237 294.419 232.369 292.957 232.385 291.639ZM119.39 221.792C128.807 230.524 143.121 227.37 154.76 227.746L154.686 227.441C145.913 226 137.04 227.859 128.196 225.53C124.989 224.685 122.438 222.861 119.39 221.792Z"/>
	<path fill="#FC9E02" transform="scale(2 2)" d="M264.64 153.31C265.399 151.007 265.351 128.659 265.356 122.872C265.369 106.932 268.755 115.793 275.532 104.243C273.139 103.256 278.45 100.015 279.33 99.4241C303.076 83.4738 330.436 103.709 338.883 127.135C341.346 133.965 339.621 133.378 348.117 131.682C361.74 135.468 370.896 137.603 378.837 151.626C384.546 161.706 383.326 170.893 381.913 181.808C392.298 185.624 398.422 188.898 403.215 199.368C409.984 214.154 405.178 224.273 399.405 237.143C408.981 242.382 417.232 249.563 425.97 254.445L425.97 255.824C422.076 258.334 416.317 265.006 411.929 268.475C409.524 270.377 402.619 273.237 401.447 275.662C405.118 278.309 411.03 285.765 411.673 286.053C413.667 288.965 415.056 294.171 415.536 297.663C415.514 299.719 412.966 304.72 412.016 306.928C404.343 324.761 387.412 324.342 384.891 327.886C385.231 340.849 386.389 347.076 375.926 358.107C363.025 371.708 351.011 372.336 334.212 370.306C332.474 383.251 331.065 392.139 319.406 400.986C305.007 411.912 282.959 409.994 271.875 395.301C268.871 391.318 267.817 386.115 264.64 382.423C264.75 379.544 265.196 375.914 264.64 373.114C264.32 370.878 264.609 368.193 264.615 365.899L264.64 289.924L264.64 198.28C264.641 183.452 264.221 168.075 264.64 153.31ZM320.692 145.445C320.944 136.3 311.616 130.596 303.453 130.25C294.152 129.856 280.175 127.401 279.695 140.547C278.307 156.501 293.116 153.344 303.783 153.31C303.416 157.829 303.816 162.533 303.783 167.078C300.098 165.913 276.133 163.528 280.302 173.644C279.823 175.026 279.723 176.277 279.695 177.732C279.125 185.665 280.845 189.607 289.388 189.779C299.125 189.974 308.91 189.767 318.652 189.744C323.188 189.734 330.676 188.164 334.212 191.79C334.393 199.831 334.206 207.904 334.212 215.948C335.298 228.683 350.841 226.036 351.42 215.948C351.792 208.523 352.131 189.341 350.916 182.94C349.412 175.02 343.222 169.064 335.244 167.733C330.638 166.639 325.401 167.007 320.692 167.078C320.835 163.392 321.304 148.593 320.692 145.445ZM315.204 213.028C317.737 209.572 312.66 204.661 309.303 204.272C305.88 203.876 302.316 204.44 298.875 204.454C292.689 204.478 277.336 201.949 279.695 213.028C279.669 214.236 279.638 215.435 279.695 216.643C278.869 223.092 280.787 227.489 287.739 228.323C297.784 229.527 316.026 232.027 315.765 217.982C315.927 216.133 315.787 214.796 315.204 213.028ZM337.173 239.156C333.504 239.362 332.876 241.262 330.695 243.733L302.188 243.726C294.489 243.728 276.286 240.989 279.695 254.445L279.695 255.824C277.257 271.031 293.967 267.991 303.502 267.974C317.656 267.949 340.465 271.806 348.926 256.871C350.647 253.833 352.342 248.569 351.42 245.135C347.628 239.734 345.016 234.539 337.173 239.156ZM337.173 280.01C324.459 283.708 337.919 301.484 319.561 314.062C311.489 319.592 301.835 317.723 292.579 317.898C285.171 318.037 276.499 320.868 279.695 330.025L279.695 333.596C277.915 356.666 308.297 330.574 303.783 357.078C303.264 353.928 300.444 355.795 297.828 355.961C282.846 356.908 279.858 352.931 279.695 369.073C279.663 370.199 279.612 371.319 279.695 372.444C279.6 375.849 280.305 381.784 284.69 382.423C287.476 384.075 295.894 383.699 299.35 383.48C322.178 384.624 321.456 370.059 321.413 351.491C321.388 340.365 323.074 344.792 332.136 341.037C341.829 337.022 350.703 327.865 351.747 317.081C351.938 315.11 352.297 287.349 351.77 286.053C349.183 278.708 344.059 276.53 337.173 280.01ZM315.204 289.924C319.713 278.813 290.654 281.845 286.607 282.363C281.477 283.02 278.161 286.418 279.695 291.639L279.695 294.715C279.512 300.265 280.885 304.779 286.837 305.807C289.873 306.331 305.134 306.35 308.211 305.931C315.767 304.904 316.155 296.815 315.204 290.615L315.204 289.924Z"/>
	<path fill="#4CB6E1" transform="scale(2 2)" d="M261.44 97.839L264.125 95.4061C265.273 98.8418 264.631 111.377 264.64 115.937C264.653 124.136 264.771 132.35 264.64 140.547C264.724 144.776 264.372 149.099 264.64 153.31C264.221 168.075 264.641 183.452 264.64 198.28L264.64 289.924C263.367 291.551 264.122 316.933 264.123 320.592L264.117 395.949C264.103 400.862 263.797 405.695 264.125 410.611C261.442 407.189 258.629 403.83 255.854 400.481C253.973 403.399 251.853 406.502 249.231 408.805L249.054 408.702C247.947 404.346 248.369 394.505 248.367 389.655L247.868 182.347C247.831 177.694 248.463 171.073 247.879 166.623C247.809 157.035 247.725 147.416 247.879 137.831C247.353 131.735 247.691 122.084 247.879 115.937C247.586 112.559 247.399 98.5938 247.879 95.4061C248.449 96.348 249.925 97.2016 250.832 97.839C254.338 97.8992 257.947 98.1251 261.44 97.839Z"/>
	<path fill="#4CB6E1" transform="scale(2 2)" d="M191.966 145.445C193.322 138.162 199.815 131.487 207.173 130.362C216.013 129.01 228.01 127.952 232.385 137.066C232.363 138.202 232.245 139.422 232.385 140.547C231.313 152.806 215.287 145.246 208.445 150.212C209.498 155.827 209.301 161.394 209.302 167.078L209.638 167.601C217.477 169.121 227.989 164.291 232.385 173.644C232.364 174.741 232.444 175.859 232.385 176.951C230.332 187.119 221.698 184.913 213.708 184.872L193.355 184.828C185.54 184.828 178.059 183.299 177.71 193.225C177.724 199.472 178.621 212.53 176.427 217.982C169.947 223.282 164.943 220.822 160.271 214.983C159.696 207.598 159.739 188.51 161.89 182.831C165.728 170.585 179.614 166.234 191.299 167.733C191.431 160.413 190.618 152.651 191.966 145.445Z"/>
	<path fill="#4CB6E1" transform="scale(2 2)" d="M279.695 140.547C280.175 127.401 294.152 129.856 303.453 130.25C311.616 130.596 320.944 136.3 320.692 145.445C320.485 152.08 321.436 161.593 320.692 167.733C324.548 168.171 329.425 168.558 333.285 168.107L332.762 168.03C333.437 168.014 334.111 167.999 334.786 168.004L335.244 167.733C343.222 169.064 349.412 175.02 350.916 182.94C352.131 189.341 351.792 208.523 351.42 215.948C348.097 224.301 337.345 225.23 334.212 215.948C334.206 207.904 334.393 199.831 334.212 191.79C333.931 183.635 326.713 184.809 320.906 184.82L298.645 184.858C292.286 184.887 280.769 186.908 279.695 177.732C279.723 176.277 279.823 175.026 280.302 173.644C283.592 162.691 300.927 169.009 303.783 167.078C303.816 162.533 303.416 157.829 303.783 153.31C304.62 141.785 281.287 154.806 279.695 140.547Z"/>
	<path fill="white" transform="scale(2 2)" d="M232.385 140.547C236.182 155.528 217.522 153.487 209.302 153.31C209.263 157.909 210.031 162.516 209.302 167.078C209.301 161.394 209.498 155.827 208.445 150.212C215.287 145.246 231.313 152.806 232.385 140.547Z"/>
	<path fill="white" transform="scale(2 2)" d="M279.695 140.547C281.287 154.806 304.62 141.785 303.783 153.31C293.116 153.344 278.307 156.501 279.695 140.547Z"/>
	<path fill="#8CD0EC" transform="scale(2 2)" d="M320.692 145.445C321.304 148.593 320.835 163.392 320.692 167.078C325.401 167.007 330.638 166.639 335.244 167.733L334.786 168.004C334.111 167.999 333.437 168.014 332.762 168.03L333.285 168.107C329.425 168.558 324.548 168.171 320.692 167.733C321.436 161.593 320.485 152.08 320.692 145.445Z"/>
	<path fill="#F06900" transform="scale(2 2)" d="M280.302 173.644C276.133 163.528 300.098 165.913 303.783 167.078C300.927 169.009 283.592 162.691 280.302 173.644Z"/>
	<path fill="#F06900" transform="scale(2 2)" d="M209.302 167.078C212.94 166.184 236.695 164.328 232.385 173.644C227.989 164.291 217.477 169.121 209.638 167.601L209.302 167.078Z"/>
	<path fill="white" transform="scale(2 2)" d="M177.71 193.225C178.059 183.299 185.54 184.828 193.355 184.828L213.708 184.872C221.698 184.913 230.332 187.119 232.385 176.951C233.687 191.12 226.427 189.846 214.82 189.784L193.491 189.739C188.287 189.738 181.407 188.664 177.71 193.225Z"/>
	<path fill="white" transform="scale(2 2)" d="M334.212 191.79C330.676 188.164 323.188 189.734 318.652 189.744C308.91 189.767 299.125 189.974 289.388 189.779C280.845 189.607 279.125 185.665 279.695 177.732C280.769 186.908 292.286 184.887 298.645 184.858L320.906 184.82C326.713 184.809 333.931 183.635 334.212 191.79Z"/>
	<path fill="#F06900" transform="scale(2 2)" d="M315.204 213.028C314.338 211.056 313.537 209.32 311.425 208.41C309.322 207.504 286.837 207.454 284.653 208.367C282.446 209.289 280.96 211.066 279.695 213.028C277.336 201.949 292.689 204.478 298.875 204.454C302.316 204.44 305.88 203.876 309.303 204.272C312.66 204.661 317.737 209.572 315.204 213.028Z"/>
	<path fill="#F06900" transform="scale(2 2)" d="M194.782 214.122C192.131 200.381 217.773 203.779 225.296 204.602C230.06 205.123 235.216 209.849 232.92 213.936L232.385 214.122C230.184 204.432 204.625 206.922 200.141 208.486C197.409 209.439 195.986 211.668 194.782 214.122Z"/>
	<path fill="#1E85AE" transform="scale(2 2)" d="M279.695 213.028C280.96 211.066 282.446 209.289 284.653 208.367C286.837 207.454 309.322 207.504 311.425 208.41C313.537 209.32 314.338 211.056 315.204 213.028C315.787 214.796 315.927 216.133 315.765 217.982C314.933 220.033 313.741 222.152 311.412 222.705C307.57 223.616 285.986 223.858 283.029 222.037C281.178 220.896 280.222 218.656 279.695 216.643C279.638 215.435 279.669 214.236 279.695 213.028Z"/>
	<defs>
		<linearGradient id="gradient_0" gradientUnits="userSpaceOnUse" x1="214.28596" y1="224.69859" x2="212.10178" y2="207.41309">
			<stop offset="0" stop-color="#1C95C6"/>
			<stop offset="1" stop-color="#32B0DE"/>
		</linearGradient>
	</defs>
	<path fill="url(#gradient_0)" transform="scale(2 2)" d="M194.782 214.122C195.986 211.668 197.409 209.439 200.141 208.486C204.625 206.922 230.184 204.432 232.385 214.122C232.338 215.412 232.355 216.692 232.385 217.982C231.332 220.356 229.876 222.324 227.416 223.375C224.781 224.501 201.835 224.563 199.142 223.421C196.775 222.418 195.458 220.113 194.26 217.982C194.245 216.646 194.511 215.419 194.782 214.122Z"/>
	<path fill="#F06900" transform="scale(2 2)" d="M160.271 214.983C164.943 220.822 169.947 223.282 176.427 217.982L176.779 218.672C176.054 226.306 165.955 227.029 161.489 221.792C160.977 219.523 160.484 217.305 160.271 214.983Z"/>
	<path fill="white" transform="scale(2 2)" d="M334.212 215.948C337.345 225.23 348.097 224.301 351.42 215.948C350.841 226.036 335.298 228.683 334.212 215.948Z"/>
	<path fill="white" transform="scale(2 2)" d="M279.695 216.643C280.222 218.656 281.178 220.896 283.029 222.037C285.986 223.858 307.57 223.616 311.412 222.705C313.741 222.152 314.933 220.033 315.765 217.982C316.026 232.027 297.784 229.527 287.739 228.323C280.787 227.489 278.869 223.092 279.695 216.643Z"/>
	<path fill="white" transform="scale(2 2)" d="M194.26 217.982C195.458 220.113 196.775 222.418 199.142 223.421C201.835 224.563 224.781 224.501 227.416 223.375C229.876 222.324 231.332 220.356 232.385 217.982C233.191 224.734 230.447 228.51 223.581 229.09C216.073 229.723 199.189 231.807 194.26 224.756C194 222.466 194.151 220.274 194.26 217.982Z"/>
	<path fill="#F06900" transform="scale(2 2)" d="M154.76 227.746C143.121 227.37 128.807 230.524 119.39 221.792C122.438 222.861 124.989 224.685 128.196 225.53C137.04 227.859 145.913 226 154.686 227.441L154.76 227.746Z"/>
	<path fill="#1E85AE" transform="scale(2 2)" d="M161.489 239.156C166.244 232.203 175.468 233.404 177.71 241.96C181.446 251.389 208.336 247.384 217.777 247.32C223.725 247.28 229.164 246.179 232.385 252.48L232.385 258.336C227.692 266.219 214.346 263.729 206.171 263.745C199.188 263.758 191.995 264.132 185.04 263.629C172.969 262.757 157.542 253.003 161.489 239.156Z"/>
	<path fill="#1E85AE" transform="scale(2 2)" d="M337.173 239.156C345.016 234.539 347.628 239.734 351.42 245.135C348.468 255.027 341.53 261.416 331.252 262.726C327.88 263.156 286.906 262.983 285.053 262.475C282.17 261.684 280.654 258.423 279.695 255.824L279.695 254.445C283.093 246.511 287.975 247.32 295.566 247.327L318.031 247.368C322.982 247.388 328.69 248.36 333.35 246.323C334.46 243.412 334.718 241.406 337.173 239.156Z"/>
	<path fill="#F06900" transform="scale(2 2)" d="M330.695 243.733C332.876 241.262 333.504 239.362 337.173 239.156C334.718 241.406 334.46 243.412 333.35 246.323C328.69 248.36 322.982 247.388 318.031 247.368L295.566 247.327C287.975 247.32 283.093 246.511 279.695 254.445C276.286 240.989 294.489 243.728 302.188 243.726L330.695 243.733Z"/>
	<path fill="white" transform="scale(2 2)" d="M232.385 263.756C227.928 270.143 221.192 268.034 214.471 267.985L195.672 267.997C180.463 267.965 163.54 265.932 160.651 246.875C160.286 244.465 159.992 241.216 161.489 239.156C157.542 253.003 172.969 262.757 185.04 263.629C191.995 264.132 199.188 263.758 206.171 263.745C214.346 263.729 227.692 266.219 232.385 258.336C232.286 260.164 232.259 261.929 232.385 263.756Z"/>
	<path fill="#F06900" transform="scale(2 2)" d="M177.71 241.96L178.314 241.905C178.794 242.317 179.267 242.723 179.784 243.09C183.92 243.33 188.105 243.109 192.248 243.093L215.38 243.078C221.721 243.082 233.385 240.98 232.961 250.865C232.931 251.57 232.922 251.988 232.385 252.48C229.164 246.179 223.725 247.28 217.777 247.32C208.336 247.384 181.446 251.389 177.71 241.96Z"/>
	<path fill="white" transform="scale(2 2)" d="M351.42 245.135C352.342 248.569 350.647 253.833 348.926 256.871C340.465 271.806 317.656 267.949 303.502 267.974C293.967 267.991 277.257 271.031 279.695 255.824C280.654 258.423 282.17 261.684 285.053 262.475C286.906 262.983 327.88 263.156 331.252 262.726C341.53 261.416 348.468 255.027 351.42 245.135Z"/>
	<path fill="#F06900" transform="scale(2 2)" d="M425.97 255.824C427.889 271.742 420.101 276.614 411.673 286.053C411.03 285.765 405.118 278.309 401.447 275.662C402.619 273.237 409.524 270.377 411.929 268.475C416.317 265.006 422.076 258.334 425.97 255.824Z"/>
	<path fill="#1E85AE" transform="scale(2 2)" d="M160.271 292.678C160.23 289.316 159.672 285.09 161.035 281.935C164.614 273.651 174.84 275.769 177.71 283.494C177.522 287.173 177.733 290.894 177.718 294.58C177.653 309.519 178.888 322.966 197.366 323.753C209.792 324.282 223.687 319.943 232.385 328.394C232.362 328.948 232.337 329.471 232.385 330.025C232.398 331.215 232.426 332.406 232.385 333.596C231.773 335.053 230.967 336.223 229.869 337.356C223.694 341.628 215.543 340.16 208.445 339.81C208.431 343.977 208.28 348.192 208.445 352.353C208.415 355.314 208.248 358.363 208.445 361.315C215.683 365.875 223.743 359.283 231.228 365.917C232.128 366.887 232.256 367.791 232.385 369.073C232.391 370.195 232.422 371.323 232.385 372.444C229.222 379.981 223.048 378.703 216.401 378.809C204.444 379.001 192.394 377.116 191.966 362.67L191.966 339.123C184.736 337.31 180.888 336.766 174.505 332.329C171.378 329.708 168.689 326.931 166.129 323.763C159.816 310.997 161.217 306.68 160.271 292.678Z"/>
	<path fill="#1E85AE" transform="scale(2 2)" d="M337.173 280.01C344.059 276.53 349.183 278.708 351.77 286.053L351.788 300.927C351.797 321.123 341.626 336.397 320.692 339.123C320.149 358.116 326.51 371.798 305.343 378.793C299.005 378.766 292.611 379.057 286.284 378.793C283.15 377.618 280.801 375.733 279.695 372.444C279.612 371.319 279.663 370.199 279.695 369.073C279.798 367.952 279.879 366.975 280.302 365.917C285.256 361.173 296.442 362.781 303.783 362.162C303.941 360.451 303.888 358.79 303.783 357.078C304.153 352.159 303.801 346.969 303.783 342.024L303.783 339.81C295.357 338.558 284.233 343.546 279.695 333.596L279.695 330.025C280.156 328.851 280.586 327.738 281.288 326.68C290.507 318.819 316.51 329.506 328.015 319.46C337.326 311.33 333.34 298.977 334.171 288.193L334.212 287.697C334.041 284.096 334.851 282.655 337.173 280.01Z"/>
	<path fill="#F06900" transform="scale(2 2)" d="M279.695 330.025C276.499 320.868 285.171 318.037 292.579 317.898C301.835 317.723 311.489 319.592 319.561 314.062C337.919 301.484 324.459 283.708 337.173 280.01C334.851 282.655 334.041 284.096 334.212 287.697L334.128 287.985C331.451 297.491 335.961 304.615 329.132 314.161C316.409 331.948 286.802 317.914 281.288 326.68C280.586 327.738 280.156 328.851 279.695 330.025Z"/>
	<path fill="#F06900" transform="scale(2 2)" d="M194.782 291.639C193.21 289.487 194.171 284.566 196.259 282.975C196.529 282.77 239.333 275.774 232.385 291.639C231.785 289.576 230.411 287.414 228.338 286.611C225.979 285.697 200.755 285.627 198.396 286.754C196.494 287.662 195.5 289.777 194.782 291.639Z"/>
	<path fill="#F06900" transform="scale(2 2)" d="M315.204 289.924C311.271 283.501 292.2 285.331 285.8 286.125C282.66 286.514 281.121 289.072 279.695 291.639C278.161 286.418 281.477 283.02 286.607 282.363C290.654 281.845 319.713 278.813 315.204 289.924Z"/>
	<path fill="white" transform="scale(2 2)" d="M177.71 283.494C178.239 289.187 177.088 295.103 177.71 300.767C183.283 338.01 224.265 313.544 232.385 328.394C223.687 319.943 209.792 324.282 197.366 323.753C178.888 322.966 177.653 309.519 177.718 294.58C177.733 290.894 177.522 287.173 177.71 283.494Z"/>
	<path fill="#1E85AE" transform="scale(2 2)" d="M194.782 291.639C195.5 289.777 196.494 287.662 198.396 286.754C200.755 285.627 225.979 285.697 228.338 286.611C230.411 287.414 231.785 289.576 232.385 291.639C232.369 292.957 232.237 294.419 232.385 295.721C228.804 303.285 221.84 301.607 214.788 301.469C206.666 301.309 195.177 303.715 194.782 291.639L194.782 291.639Z"/>
	<path fill="#1E85AE" transform="scale(2 2)" d="M279.695 291.639C281.121 289.072 282.66 286.514 285.8 286.125C292.2 285.331 311.271 283.501 315.204 289.924L315.204 290.615C315.119 294.91 315.287 299.827 310.209 301.103C306.886 301.938 292.399 301.699 288.388 301.457C283.669 301.173 280.779 299.45 279.695 294.715L279.695 291.639Z"/>
	<path fill="white" transform="scale(2 2)" d="M351.77 286.053C352.297 287.349 351.938 315.11 351.747 317.081C350.703 327.865 341.829 337.022 332.136 341.037C323.074 344.792 321.388 340.365 321.413 351.491C321.456 370.059 322.178 384.624 299.35 383.48C295.894 383.699 287.476 384.075 284.69 382.423C280.305 381.784 279.6 375.849 279.695 372.444C280.801 375.733 283.15 377.618 286.284 378.793C292.611 379.057 299.005 378.766 305.343 378.793C326.51 371.798 320.149 358.116 320.692 339.123C341.626 336.397 351.797 321.123 351.788 300.927L351.77 286.053Z"/>
	<path fill="white" transform="scale(2 2)" d="M281.288 326.68C286.802 317.914 316.409 331.948 329.132 314.161C335.961 304.615 331.451 297.491 334.128 287.985L334.212 287.697L334.171 288.193C333.34 298.977 337.326 311.33 328.015 319.46C316.51 329.506 290.507 318.819 281.288 326.68Z"/>
	<path fill="white" transform="scale(2 2)" d="M315.204 290.615C316.155 296.815 315.767 304.904 308.211 305.931C305.134 306.35 289.873 306.331 286.837 305.807C280.885 304.779 279.512 300.265 279.695 294.715C280.779 299.45 283.669 301.173 288.388 301.457C292.399 301.699 306.886 301.938 310.209 301.103C315.287 299.827 315.119 294.91 315.204 290.615Z"/>
	<path fill="white" transform="scale(2 2)" d="M232.385 295.721C235.759 307.818 219.823 305.987 213.603 306.042C200.476 306.159 193.939 307.123 194.782 291.639C195.177 303.715 206.666 301.309 214.788 301.469C221.84 301.607 228.804 303.285 232.385 295.721Z"/>
	<path fill="white" transform="scale(2 2)" d="M160.271 292.678C161.217 306.68 159.816 310.997 166.129 323.763L166.105 324.596L165.64 324.975L165.669 325.896C165.249 325.455 165.326 325.059 165.255 326.08L164.918 326.008C164.688 325.621 164.462 325.256 164.144 324.931C159.919 316.853 160.257 301.544 160.271 292.678Z"/>
	<path fill="#F06900" transform="scale(2 2)" d="M177.71 300.767C177.97 298.333 177.564 295.943 177.71 293.525L177.938 293.939C179.338 296.527 180.217 299.297 181.414 301.971C193.852 329.769 225.225 309.844 232.039 322.824C233.051 324.754 234.284 328.24 232.385 330.025C232.337 329.471 232.362 328.948 232.385 328.394C224.265 313.544 183.283 338.01 177.71 300.767Z"/>
	<path fill="#F06900" transform="scale(2 2)" d="M415.536 297.663C418.279 312.969 412.886 328.052 399.339 336.168C397.315 337.38 395.179 338.445 393.253 339.81C394.131 368.472 376.055 392.266 345.818 389.594C335.911 425.438 290.382 437.798 264.64 411.521L264.634 386.693C264.633 382.184 264.443 377.616 264.64 373.114C265.196 375.914 264.75 379.544 264.64 382.423C267.817 386.115 268.871 391.318 271.875 395.301C282.959 409.994 305.007 411.912 319.406 400.986C331.065 392.139 332.474 383.251 334.212 370.306C351.011 372.336 363.025 371.708 375.926 358.107C386.389 347.076 385.231 340.849 384.891 327.886C387.412 324.342 404.343 324.761 412.016 306.928C412.966 304.72 415.514 299.719 415.536 297.663Z"/>
	<path fill="white" transform="scale(2 2)" d="M174.505 332.329C180.888 336.766 184.736 337.31 191.966 339.123L191.966 362.67C191.718 361.885 191.689 361.01 191.607 360.191C190.922 362.23 192.159 364.606 191.751 365.98C190.138 364.738 190.336 361.918 189.549 360.161C189.1 357.898 189.543 346.656 189.549 343.418C183.436 342.411 177.6 340.293 172.789 336.347C173.25 336.321 173.609 336.361 174.053 336.476L174.537 336.604C175.569 335.154 175.43 333.848 174.505 332.329Z"/>
	<path fill="white" transform="scale(2 2)" d="M229.869 337.356C230.967 336.223 231.773 335.053 232.385 333.596C232.472 336.861 232.278 339.61 229.869 342.024C222.487 347.392 208.04 340.999 208.445 352.353C210.096 370.439 225.217 354.453 231.228 365.917C223.743 359.283 215.683 365.875 208.445 361.315C208.248 358.363 208.415 355.314 208.445 352.353C208.28 348.192 208.431 343.977 208.445 339.81C215.543 340.16 223.694 341.628 229.869 337.356Z"/>
	<path fill="white" transform="scale(2 2)" d="M279.695 333.596C284.233 343.546 295.357 338.558 303.783 339.81C302.915 339.922 302.28 339.864 301.589 340.417L301.405 340.908C302.001 341.811 302.8 341.927 303.783 342.024C303.801 346.969 304.153 352.159 303.783 357.078L303.783 357.078L303.783 357.078C308.297 330.574 277.915 356.666 279.695 333.596Z"/>
	<path fill="#F06900" transform="scale(2 2)" d="M208.445 352.353C210.455 353.298 211.917 355.098 214.128 355.623C225.536 358.335 233.786 351.714 232.385 369.073C232.256 367.791 232.128 366.887 231.228 365.917C225.217 354.453 210.096 370.439 208.445 352.353Z"/>
	<path fill="#F06900" transform="scale(2 2)" d="M279.695 369.073C279.858 352.931 282.846 356.908 297.828 355.961C300.444 355.795 303.264 353.928 303.783 357.078L303.783 357.078C299.758 366.915 285.078 355.764 280.302 365.917C279.879 366.975 279.798 367.952 279.695 369.073Z"/>
	<defs>
		<linearGradient id="gradient_1" gradientUnits="userSpaceOnUse" x1="293.81107" y1="358.48233" x2="293.56195" y2="363.02441">
			<stop offset="0" stop-color="#FFFEFE"/>
			<stop offset="1" stop-color="#DFF"/>
		</linearGradient>
	</defs>
	<path fill="url(#gradient_1)" transform="scale(2 2)" d="M303.783 357.078L303.783 357.078C303.888 358.79 303.941 360.451 303.783 362.162C296.442 362.781 285.256 361.173 280.302 365.917C285.078 355.764 299.758 366.915 303.783 357.078Z"/>
</svg>
