<?xml version="1.0" encoding="utf-8" ?>
<svg xmlns="http://www.w3.org/2000/svg" xmlns:xlink="http://www.w3.org/1999/xlink" width="1024" height="1024">
	<path fill="#1E85AE" transform="scale(2 2)" d="M216.501 97.1782L216.482 74.9275C216.472 51.9453 219.701 56.9312 241.226 56.9281L282.966 56.9343L286.655 56.8347C298.422 56.5985 296.003 66.2806 296.002 74.595L295.984 97.1782C307.898 100.31 330.186 107.322 339.313 115.457C342.509 111.402 361.562 91.6144 365.028 89.856C372.433 86.0994 380.116 97.7505 385.062 102.68L403.627 121.226C409.328 126.885 416.513 133.084 421.658 139.037C427.446 145.731 416.343 153.163 411.803 157.779C406.73 162.937 401.849 168.351 396.403 173.117C404.481 186.16 412.233 201.65 415.116 216.826L437.135 216.81C458.288 216.808 455.3 217.18 455.213 235.673L455.217 281.186C455.217 298.34 453.46 295.952 438.23 295.917L416.149 295.895C409.427 312.062 406.629 322.372 397.126 338.752C403.948 344.578 414.852 355.806 421.051 362.464C427.62 369.52 415 378.115 410.571 382.587L380.648 412.694C365.626 427.982 368.343 426.03 352.385 410.568C348.98 407.269 340.835 401.433 339.313 397.127C324.291 403.852 313.151 411.454 295.984 414.959L295.991 440.254C296.019 453.894 297.942 456.137 284.156 456.002L229.625 455.981C213.336 456.279 215.947 451.458 215.947 438.284L215.964 414.959C198.658 411.562 187.685 404.624 172.791 397.127C167.912 399.295 159.051 409.462 155.141 413.463C143.604 425.271 142.48 424.481 130.315 411.97C126.999 408.559 123.611 405.212 120.231 401.864L99.6225 381.312C95.4209 377.079 85.6653 370.352 90.8341 363.466C92.9652 360.627 113.016 340.218 115.25 338.752C108.204 323.884 100.753 313.552 97.4902 295.895C89.285 295.522 80.8933 295.909 72.6719 295.925C52.6873 295.961 56.2476 291.974 56.2407 274.354L56.223 230.992C56.1949 212.397 60.696 216.812 76.7701 216.824C81.3572 216.828 93.59 216.107 97.4902 216.826C101.3 201.619 107.243 186.61 115.25 173.117C109.901 168.307 92.9721 151.542 89.6461 146.71C84.9948 139.952 100.26 129.252 104.625 125.014C112.159 117.699 119.474 110.191 127.08 102.938C140.757 89.8936 139.66 82.9136 155.168 98.1556C161.039 103.926 166.8 109.81 172.791 115.457C179.992 109.601 207.467 98.5298 216.501 97.1782ZM107.672 143.324C110.164 146.07 112.865 148.599 115.25 151.447C119.073 154.823 129.589 165.112 131.937 168.963C135.439 174.706 127.694 183.153 125.033 187.902C119.568 197.657 115.612 208.78 112.836 219.617C110.261 229.665 111.209 232.321 99.7806 232.681C90.6515 232.968 81.4496 232.735 72.3119 232.729L72.3119 245.435L72.3119 280.258L95.1945 280.245C113.951 280.204 107.965 279.149 113.689 297.137C117.202 308.174 121.634 318.673 127.431 328.7C130.144 333.393 135.169 338.672 131.037 343.951C125.991 350.398 118.87 355.793 113.439 362.143L132.886 381.771C138.051 376.39 143.568 371.36 148.757 366.01L162.929 351.683C165.409 349.215 167.864 346.454 170.597 344.279C215.795 382.74 277.5 389.379 327.38 354.782C332.068 351.531 336.164 347.431 340.873 344.279C346.221 348.041 350.894 353.095 355.519 357.696L374.157 376.3C376.877 379 383.179 384.198 384.832 387.063C391.159 380.372 397.514 373.939 404.304 367.719C397.88 360.963 386.495 351.633 381.318 344.757C376.73 338.664 385.098 329.399 388.007 324.125C392.483 316.011 396.049 307.399 398.822 298.561C404.491 280.493 399.487 280.224 417.427 280.235L439.007 280.258L439.007 246.201L439.007 232.729C433.756 232.734 408.04 233.387 404.725 232.153C401.977 229.033 401.487 223.854 400.45 219.996C396.729 206.156 390.787 192.586 383.004 180.57C375.894 169.593 377.706 170.235 386.696 161.197L396.403 151.447C398.903 148.851 401.417 146.375 404.304 144.203L382.039 121.641C377.448 116.95 373.017 111.842 367.805 107.825C362.659 113.622 357.013 119.077 351.509 124.534C338.121 137.807 342.893 134.815 326.431 125.679C316.772 120.318 305.715 115.725 294.929 113.051C278.503 108.98 280.148 111.647 280.145 94.7451L280.154 72.433L231.99 72.433L232.011 93.6683C232.021 115.036 231.092 109.192 211.85 114.875C201.627 117.894 192.213 122.384 183.084 127.87C177.734 131.085 172.975 136.42 166.933 131.619C161.496 127.298 148.09 114.152 144.022 108.833C138.748 113.317 133.804 118.242 128.806 123.03L107.672 143.324Z"/>
	<path fill="#8CD0EC" transform="scale(2 2)" d="M115.25 151.447C112.865 148.599 110.164 146.07 107.672 143.324L128.806 123.03C133.804 118.242 138.748 113.317 144.022 108.833C148.09 114.152 161.496 127.298 166.933 131.619C172.975 136.42 177.734 131.085 183.084 127.87C192.213 122.384 201.627 117.894 211.85 114.875C231.092 109.192 232.021 115.036 232.011 93.6683L231.99 72.433L280.154 72.433L280.145 94.7451C280.148 111.647 278.503 108.98 294.929 113.051C305.715 115.725 316.772 120.318 326.431 125.679C342.893 134.815 338.121 137.807 351.509 124.534C357.013 119.077 362.659 113.622 367.805 107.825C373.017 111.842 377.448 116.95 382.039 121.641L404.304 144.203C401.417 146.375 398.903 148.851 396.403 151.447L386.696 161.197C377.706 170.235 375.894 169.593 383.004 180.57C390.787 192.586 396.729 206.156 400.45 219.996C401.487 223.854 401.977 229.033 404.725 232.153C408.04 233.387 433.756 232.734 439.007 232.729L439.007 246.201C430.814 245.76 422.431 246.091 414.213 246.083L367.411 246.044C362.258 188.06 313.45 143.747 255.239 144.202C197.028 144.657 148.919 189.729 144.673 247.786L96.5321 247.811C88.7123 247.817 80.7598 248.165 72.9558 247.832C72.4221 247.19 72.4378 246.257 72.3119 245.435L72.3119 232.729C81.4496 232.735 90.6515 232.968 99.7806 232.681C111.209 232.321 110.261 229.665 112.836 219.617C115.612 208.78 119.568 197.657 125.033 187.902C127.694 183.153 135.439 174.706 131.937 168.963C129.589 165.112 119.073 154.823 115.25 151.447Z"/>
	<path fill="#1E85AE" transform="scale(2 2)" d="M144.673 247.786C148.919 189.729 197.028 144.657 255.239 144.202C313.45 143.747 362.258 188.06 367.411 246.044C371.136 287.958 350.998 328.41 315.31 350.703C279.622 372.996 234.436 373.349 198.404 351.617C162.372 329.885 141.604 289.753 144.673 247.786ZM248.815 159.768C195.735 163.833 156.008 210.171 160.096 263.249C164.185 316.328 210.541 356.034 263.617 351.922C316.66 347.812 356.336 301.492 352.25 248.447C348.164 195.402 301.862 155.706 248.815 159.768Z"/>
	<path fill="#FC9E02" transform="scale(2 2)" d="M263.617 351.922C210.541 356.034 164.185 316.328 160.096 263.249C156.008 210.171 195.735 163.833 248.815 159.768C301.862 155.706 348.164 195.402 352.25 248.447C356.336 301.492 316.66 347.812 263.617 351.922ZM328.28 256.489C328.515 216.403 296.123 183.762 256.036 183.689C215.95 183.616 183.44 216.139 183.529 256.226C183.617 296.084 215.915 328.369 255.773 328.441C295.631 328.514 328.046 296.347 328.28 256.489Z"/>
	<path fill="#FFAF02" transform="scale(2 2)" d="M183.529 256.226C183.44 216.139 215.95 183.616 256.036 183.689C296.123 183.762 328.515 216.403 328.28 256.489L312.241 256.265C311.052 253.914 310.365 250.887 309.476 248.369C296.335 211.17 257.164 194.973 224.081 218.106C212.517 226.193 201.029 241.942 198.492 256.265C193.543 256.008 188.489 256.214 183.529 256.226Z"/>
	<path fill="#F88C01" transform="scale(2 2)" d="M198.492 256.265C201.029 241.942 212.517 226.193 224.081 218.106C257.164 194.973 296.335 211.17 309.476 248.369C310.365 250.887 311.052 253.914 312.241 256.265C315.207 291.281 281.233 317.463 247.628 312.719C222.949 309.235 204.181 289.607 199.229 265.725C198.583 262.608 198.033 259.441 198.492 256.265Z"/>
	<path fill="#4CB6E1" transform="scale(2 2)" d="M72.3119 245.435C72.4378 246.257 72.4221 247.19 72.9558 247.832C80.7598 248.165 88.7123 247.817 96.5321 247.811L144.673 247.786C141.604 289.753 162.372 329.885 198.404 351.617C234.436 373.349 279.622 372.996 315.31 350.703C350.998 328.41 371.136 287.958 367.411 246.044L414.213 246.083C422.431 246.091 430.814 245.76 439.007 246.201L439.007 280.258L417.427 280.235C399.487 280.224 404.491 280.493 398.822 298.561C396.049 307.399 392.483 316.011 388.007 324.125C385.098 329.399 376.73 338.664 381.318 344.757C386.495 351.633 397.88 360.963 404.304 367.719C397.514 373.939 391.159 380.372 384.832 387.063C383.179 384.198 376.877 379 374.157 376.3L355.519 357.696C350.894 353.095 346.221 348.041 340.873 344.279C336.164 347.431 332.068 351.531 327.38 354.782C277.5 389.379 215.795 382.74 170.597 344.279C167.864 346.454 165.409 349.215 162.929 351.683L148.757 366.01C143.568 371.36 138.051 376.39 132.886 381.771L113.439 362.143C118.87 355.793 125.991 350.398 131.037 343.951C135.169 338.672 130.144 333.393 127.431 328.7C121.634 318.673 117.202 308.174 113.689 297.137C107.965 279.149 113.951 280.204 95.1945 280.245L72.3119 280.258L72.3119 245.435Z"/>
	<path fill="#F06900" transform="scale(2 2)" d="M183.529 256.226C188.489 256.214 193.543 256.008 198.492 256.265C198.033 259.441 198.583 262.608 199.229 265.725C204.181 289.607 222.949 309.235 247.628 312.719C281.233 317.463 315.207 291.281 312.241 256.265L328.28 256.489C328.046 296.347 295.631 328.514 255.773 328.441C215.915 328.369 183.617 296.084 183.529 256.226Z"/>
</svg>
