<?xml version="1.0" encoding="UTF-8" standalone="no"?>
<svg
   width="1024"
   height="1024"
   version="1.1"
   id="svg107"
   sodipodi:docname="cyberplume.svg"
   inkscape:version="1.4 (1:1.4+202410161351+e7c3feb100)"
   xmlns:inkscape="http://www.inkscape.org/namespaces/inkscape"
   xmlns:sodipodi="http://sodipodi.sourceforge.net/DTD/sodipodi-0.dtd"
   xmlns="http://www.w3.org/2000/svg"
   xmlns:svg="http://www.w3.org/2000/svg">
  <defs
     id="defs107" />
  <sodipodi:namedview
     id="namedview107"
     pagecolor="#ffffff"
     bordercolor="#666666"
     borderopacity="1.0"
     inkscape:showpageshadow="2"
     inkscape:pageopacity="0.0"
     inkscape:pagecheckerboard="0"
     inkscape:deskcolor="#d1d1d1"
     inkscape:zoom="0.390625"
     inkscape:cx="513.28"
     inkscape:cy="512"
     inkscape:window-width="1280"
     inkscape:window-height="648"
     inkscape:window-x="0"
     inkscape:window-y="0"
     inkscape:window-maximized="1"
     inkscape:current-layer="svg107" />
  <path
     d="M804.003 522.003L804.5 522.5L805.202 523.327C806.995 527.238 808.446 532.179 811.228 535.469L811.497 535.927L811.228 535.469C810.512 532.822 809.17 530.225 808.283 527.606C820.688 542.79 825.263 579.822 834.29 589.304C835.878 590.971 838.002 591.51 840.229 591.757C844.13 592.19 848.16 591.533 852.065 591.365C852.721 593.049 853.21 595.005 854.768 596.05C856.187 596.359 856.2 596.385 857.496 595.743L857.958 594.717C857.086 593.142 856.172 593.402 855.15 592.267L856.47 591.653C856.358 590.515 856.242 589.983 855.258 589.201C850.297 585.262 836.752 593.546 834.245 584.866C833.14 581.037 835.904 575.389 837.979 572.237C839.744 569.555 841.902 567.043 845.178 566.425C848.134 565.867 852.035 566.042 854.622 564.561C854.895 563.856 855.161 563.714 854.783 562.966C853.801 561.018 850.989 559.715 848.954 559.244C846.074 558.577 843.226 559.305 840.835 560.981C835.546 564.688 834.089 570.739 830.825 575.916L830.471 575.262C826.063 567.039 825.872 556.548 822.755 547.692C817.222 531.974 808.592 517.313 804.223 501.175C803.059 496.879 802.051 492.41 801.691 487.964C801.472 485.268 801.763 482.362 801.283 479.714C801.07 478.543 800.613 477.861 799.748 477.08C798.88 476.994 798.729 476.786 797.986 477.349C796.134 478.754 795.035 481.801 794.145 483.906C786.252 502.585 784.402 524.801 782.916 544.886C780.322 579.939 783.337 615.903 787.069 650.76C788.14 660.766 788.769 670.95 790.304 680.888C771.336 677.896 752.62 673.676 733.602 670.847C715.077 668.092 696.279 666.571 677.649 664.641C649.94 661.772 622.342 658.822 594.483 657.896C601.596 653.454 608.123 647.699 614.76 642.559C623.08 636.116 631.525 629.76 639.573 622.979C652.726 611.898 665.29 600.072 678.165 588.67C686.503 581.285 694.753 573.869 702.919 566.29C707.037 562.469 711.573 558.701 715.165 554.368C699.643 545.802 684.343 536.698 668.384 528.957C648.024 519.08 626.612 511.388 605.146 504.33C612.875 510.453 622.373 515.198 631.127 519.691C640.056 524.272 688.336 545.951 691.389 550.991C689.533 551.874 686.191 550.555 684.3 549.893C673.984 546.283 664.141 541.983 653.498 539.222C664.382 545.554 675.737 551.112 686.606 557.45C683.777 560.05 680.952 562.559 677.9 564.895C666.891 560.527 643.72 551.971 632.615 550.318L632.003 550.101L632.615 550.318C638.545 553.589 644.855 556.316 650.973 559.232C658.475 562.809 665.993 566.675 673.795 569.551C671.508 571.866 669.247 574.198 666.808 576.355C648.697 572.911 630.555 567.385 612.042 566.377C628.192 572.702 644.147 578.124 661.01 582.282C654.906 587.006 648.712 591.653 642.825 596.645C628.486 592.784 614.526 588.71 600.012 585.448C611.597 591.704 624.772 598.037 637.479 601.431C633.027 605.386 628.442 609.394 623.572 612.829C617.047 608.383 597.783 601.193 590.041 600.292L589.541 600.021L590.041 600.292C597.602 607.039 609.505 612.257 618.872 616.212C615.076 619.351 611.311 622.458 607.809 625.931C598.971 622.626 584.234 621.517 574.736 621.491C584.442 623.992 593.786 627.682 603.435 630.423C597.303 635.438 591.318 640.48 585.521 645.882C578.917 644.123 572.421 642.458 565.684 641.283C571.051 644.24 576.773 646.448 582.488 648.633C579.43 651.341 576.303 654.001 573.436 656.911C566.011 656.373 558.542 655.813 551.093 655.93C558.09 632.641 566.3 609.73 573.998 586.67C581.995 562.4 589.794 538.065 597.396 513.668C603.135 495.596 609.65 477.65 614.105 459.207C604.706 474.688 594.643 489.732 585.873 505.598C579.57 517.002 574.614 529.759 567.368 540.545C561.166 528.099 555.798 512.872 546.759 502.313C542.174 515.093 536.127 525.763 527.616 536.387C537.213 572.382 540.951 618.1 539.828 655.389L534.184 655.339C533.935 616.041 531.721 576.336 522.643 537.955C515.641 537.991 508.704 537.862 501.712 537.439C497.595 562.59 495.367 588.014 495.049 613.498C494.826 627.47 495.387 641.399 495.539 655.362L489.154 655.562C487.635 615.711 489.71 575.805 495.353 536.327C489.938 530.511 492.051 518.055 491.253 510.536C485.505 507.945 480.245 504.833 474.919 501.48C470.675 508.02 466.25 514.538 462.471 521.358C459.524 526.677 457.088 532.306 454.096 537.578C447.238 522.462 437.74 509.343 429.817 494.838C422.431 481.314 416.732 466.833 410.252 452.865C412.096 462.973 414.733 472.95 417.252 482.907C424.226 510.462 432.665 537.411 441.613 564.377C451.752 594.932 462.039 625.713 473.933 655.63C466.52 655.845 459.08 656.385 451.672 656.455C448.433 652.218 443.74 648.905 439.678 645.464C434.059 640.706 428.387 635.888 423.055 630.811C431.614 627.254 440.489 624.968 449.383 622.439C438.536 622.879 429.95 622.28 420.505 628.592C413.714 623.099 407.019 617.487 400.424 611.759C409.271 609.751 423.063 607.188 430.213 601.885L430.498 601.625L430.213 601.885C419.565 603.539 407.921 605.411 398.078 609.904C380.716 596.552 364.859 582.671 349.924 566.645C346.451 562.92 342.37 559.137 339.474 554.958C359.524 535.994 386.815 526.759 410.953 514.366C401.818 515.824 392.416 516.042 383.435 518.287C366.281 522.574 322.906 542.404 310.71 555.154C318.618 565.388 329.768 573.053 339.568 581.394C356.412 595.732 372.707 610.735 390.488 623.934C399.652 630.736 408.992 637.52 418.485 643.851C425.302 648.397 432.427 652.497 438.981 657.425C429.017 657.769 419.042 658.591 409.074 658.591C400.344 652.23 390.848 646.407 382.423 639.739C370.59 630.374 353.991 611.82 340.647 606.121C337.889 604.943 334.909 604.474 331.975 603.939C330.173 600.135 328.449 596.21 325.151 593.445L324.247 593.355C323.55 595.515 325.02 598.158 325.992 600.068C327.077 602.201 328.285 604.198 329.906 605.969C334.096 607.264 339.065 608.027 342.848 610.211C351.679 615.31 358.743 623.003 366.245 629.746C370.586 633.648 375.518 637.217 380.144 640.791C388.419 647.184 398.074 651.78 406.088 658.671C387.197 660.331 368.025 662.327 349.075 662.986C354.048 659.498 358.465 655.364 359.531 649.073C360.539 643.122 358.308 637.059 354.741 632.352C349.732 625.744 342.21 620.85 333.886 619.904C329.027 619.351 324.137 620.236 320.306 623.417C315.742 627.206 313.14 634.707 312.826 640.525C312.474 647.056 315.406 653.765 319.786 658.549C321.359 660.266 325.96 663.334 326.328 665.355C324.428 667.045 318.372 667.055 315.856 666.791C309.74 666.15 310.727 661.109 302.776 666.297C301.588 667.073 300.502 668.12 299.491 669.11C288.641 670.599 277.571 673.229 266.674 673.866C262.367 666.177 260.602 654.818 262.861 646.165C263.625 643.24 265.269 640.559 267.989 639.105C271.991 636.965 277.279 637.915 281.41 639.287C285.971 640.802 289.727 643.685 291.883 648.049C293.931 652.148 294.185 656.914 292.583 661.207C291.565 663.889 289.835 666.446 289.449 669.307L289.787 669.411C293.832 666.051 296.037 661.29 296.603 656.1C297.19 650.712 295.832 645.351 292.281 641.191C288.023 636.205 281.883 634.194 275.51 633.891C271.171 633.685 266.553 634.168 263.213 637.23C259.502 640.633 258.766 645.878 258.72 650.662C258.641 658.734 260.099 667.213 263.024 674.746L181.49 690.351C182.496 685.451 184.839 668.925 189.208 666.053C194.969 662.265 200.749 670.583 205.693 657.004C210.75 643.112 209.348 622.29 203.171 608.967L203.181 609.643C203.278 614.206 204.187 618.76 204.845 623.269C206.428 634.122 206.962 645.11 204.015 655.801C203.44 657.889 202.838 660.88 201.259 662.427C199.914 663.746 197.864 664.318 196.014 664.223C194.361 664.138 193.203 663.571 191.864 662.658C191.37 661.621 191.417 661.153 191.622 660.033C193.233 658.953 194.935 657.89 196.127 656.33C204.264 645.687 201.384 615.488 199.866 602.718C200.883 602.798 201.884 602.801 202.901 602.714C207.925 602.287 212.872 599.231 216.061 595.42L215.248 594.184L215.322 594.242C210.868 595.303 206.885 601.815 201.885 600.609C199.762 600.097 198.142 598.231 197.117 596.405C192.711 588.557 195.274 575.247 197.482 567.1C199.43 572.152 200.787 579.195 204.253 583.371C206.592 586.189 212.214 587.137 212.963 588.343C212.433 589.088 211.96 589.785 211.567 590.611C211.872 590.634 212.178 590.708 212.484 590.68C220.473 589.936 230.731 572.125 236.343 566.566C236.464 566.446 236.59 566.33 236.713 566.212C237.747 570.169 238.589 574.486 238.093 578.574C237.42 584.121 234.374 587.69 230.095 590.946C234.872 613.228 230.068 652.541 226.978 675.54L227.286 674.665C231.262 663.173 233.606 650.832 235.758 638.891C243.253 597.298 244.347 556.399 235.529 514.955C232.692 501.618 229.415 489.057 223.417 476.713C222.05 477.579 220.784 478.586 219.498 479.567C221.3 487.847 221.468 495.317 220.009 503.692C217.651 517.219 206.809 544.66 196.994 554.509C194.986 556.524 191.901 558.048 189.556 559.689L188.791 560.165L188.349 560.575L187.193 561.158L187.045 561.373C186.905 561.43 186.764 561.485 186.625 561.544C184.713 562.354 183.883 563.264 182.669 564.949L181.374 565.483C180.382 564.699 180.45 564.533 180.146 563.283C180.997 561.466 183.012 560.886 183.778 558.98C183.193 558.016 183.58 558.249 182.523 558.005C181.123 557.681 179.844 558.084 178.644 558.821C178.449 558.941 178.268 559.083 178.08 559.214C176.853 561.003 175.574 562.516 176.062 564.808C176.388 566.339 177.144 567.822 178.507 568.649C179.733 568.946 180.556 568.914 181.688 568.261C183.83 567.026 185.497 563.345 187.045 561.373L187.193 561.158L188.349 560.575L188.791 560.165L189.556 559.689C192.108 558.903 194.368 557.616 196.713 556.361C194.34 563.019 192.79 570.681 189.406 576.848C187.383 580.537 184.543 583.949 182.056 587.339C182.875 587.825 183.552 587.972 184.484 588.143C183.677 588.822 183.384 589.022 182.349 589.137C180.561 589.336 179.063 589.443 177.528 590.431L177.346 591.445C178.147 592.507 178.529 592.97 179.805 593.398C181.947 593.216 183.154 592.248 184.545 590.677C187.835 586.958 190 581.956 192.261 577.56C191.838 583.233 190.524 588.78 190.101 594.421C189.642 600.557 190.537 606.932 188.99 612.945C188.168 616.139 186.569 619.012 184.004 621.126C179 625.252 168.496 627.881 162.138 627.16C159.718 626.886 156.865 626.196 155.181 624.307C154.582 623.634 154.82 623.408 154.9 622.585C155.801 622.274 155.551 622.156 156.303 622.525C157.102 622.916 157.466 623.279 158.095 623.864C159.236 624.926 160.142 625.285 161.651 625.673L161.998 625.886L161.651 625.673C158.752 623.299 157.587 622.269 156.782 618.462C156.457 616.927 156.58 616.385 155.23 615.474C154.183 615.468 153.607 615.381 152.845 616.272C151.514 617.827 151.361 620.435 151.788 622.341C152.357 624.882 154.097 626.871 156.338 628.123C161.722 631.13 168.954 630.14 174.607 628.343C177.531 627.413 180.371 626.07 183.157 624.79C180.934 631.614 178.686 638.31 179.272 645.611C180.242 657.694 190.952 664.638 174.862 672.831C167.224 676.72 160.865 678.716 152.404 675.984C149.765 675.132 147.043 673.665 145.703 671.121C144.648 669.117 144.688 666.565 145.45 664.464C146.231 662.312 148.319 661.485 148.574 659.203C147.609 658.327 147.07 658.035 145.723 658.087C144.427 658.137 143.274 658.718 142.456 659.709C141.106 661.345 140.338 663.76 139.587 665.728C140.661 670.989 141.959 675.305 146.653 678.521C153.282 683.061 162.932 682.789 170.474 681.247C174.529 680.653 177.788 679.339 181.408 677.534C180.774 682.023 180.054 686.5 179.249 690.962C158.494 697.547 137.056 701.609 116.267 708.23C116.912 697.896 120.387 686.794 122.923 676.75C134.132 631.418 150.207 587.431 170.867 545.553C179.565 527.805 204.26 484.135 219.395 471.542C227.479 464.815 239.422 460.658 249.074 456.543C276.37 444.906 304.734 435.634 331.745 423.408C343.054 418.288 351.347 404.912 362.412 398.275C368.143 394.837 375.868 393.385 382.282 391.659C391.464 389.188 400.675 386.902 409.677 383.822C404.428 369.321 398.823 354.951 392.867 340.726C355.265 334.992 304.602 314.932 276.905 288.678C270.42 282.531 260.497 272.606 260.523 262.871C260.531 259.936 261.801 257.439 263.981 255.508C268.824 251.217 276.619 249.554 282.8 248.351C309.326 243.192 337.195 246.209 363.795 249.496C371.955 250.504 380.248 252.139 388.447 252.574L389.093 252.603C390.06 235.826 391.866 219.044 393.276 202.299C394.724 185.095 397.696 126.125 405.483 114.895C414.918 101.287 448.843 92.1922 465.261 89.0505C504.069 81.624 542.848 84.6706 580.527 96.205C591.135 99.4521 602.208 102.912 611.428 109.277C614.666 111.513 617.923 114.498 619.388 118.231C622.834 127.014 623.659 140.157 624.979 149.738C626.87 163.464 628.166 177.227 629.845 190.975C630.912 199.722 632.46 208.4 633.448 217.159C634.847 229.567 635.43 242.445 637.653 254.71C669.014 249.199 717.625 239.431 747.863 250.148C752.444 251.771 757.725 254.295 759.775 258.992C761.472 262.883 760.416 267.339 758.791 271.063C747.847 296.143 690.001 322.201 665.095 331.773C652.857 336.476 640.07 339.656 627.801 344.309C623.043 358.003 620.919 372.347 615.043 385.666C630.693 387.386 649.207 390.799 662.202 400.15C667.369 403.869 671.736 408.57 675.893 413.359C678.312 416.145 680.918 421.075 684.26 422.612C687.518 424.111 691.05 425.201 694.384 426.536C704.197 430.465 713.99 434.285 723.887 438.002C740.478 444.377 757.014 450.893 773.494 457.549C783.878 461.793 795.973 465.771 805.118 472.319C817.791 481.394 826.614 496.904 834.396 510.161C867.762 566.998 895.132 642.713 905.513 707.588C887.352 702.36 868.748 697.435 850.3 693.334C831.295 689.11 812.113 685.61 793.09 681.429C793.24 662.554 791.471 643.238 790.405 624.366C789.953 616.385 787.945 603.365 789.722 596.006C790.938 590.975 795.131 585.369 799.678 582.89C803.673 580.711 808.549 581.236 812.728 582.637C816.898 584.035 820.767 586.849 822.734 590.861C825.429 596.358 824.939 609.193 822.328 614.849C820.837 618.081 818.015 621.152 817.005 624.538C815.192 630.614 815.455 642.533 818.43 648.214C821.52 654.117 827.388 658.978 833.855 660.762C835.937 661.337 837.328 661.236 839.209 660.209L839.31 659.523C838.568 659.123 837.906 658.723 837.237 658.209C838.087 658.017 838.802 657.889 839.678 657.83C841.152 663.778 838.285 669.294 842.576 674.786C843.838 676.401 843.95 675.554 845.527 676.029C848.027 676.781 847.878 680.811 856.432 681.857L856.908 681.432L856.209 680.672C854.963 680.563 853.88 680.478 852.781 679.824C852.529 679.674 852.283 679.514 852.035 679.359C855.318 679.861 858.567 680.463 861.84 681.006C863.231 681.236 864.983 681.602 866.16 680.766L865.209 681.158C864.497 680.973 864.21 680.61 863.674 680.128C864.541 679.35 867.004 679.708 868.254 679.691C872.404 679.632 876.918 677.963 879.747 674.836C880.956 673.499 881.777 671.711 881.468 669.875C881.102 667.694 879.146 665.703 877.364 664.551C876.571 664.038 876.34 663.752 875.378 663.944C874.786 666.227 876.539 668.736 876.319 671.205C875.026 672.446 873.741 673.46 872.143 674.29C866.379 677.284 860.859 677.047 854.866 675.035C851.794 674.003 847.906 672.657 845.997 669.889C840.518 661.943 853.941 641.511 849.805 634.528C849.4 633.845 848.961 633.881 848.262 633.646C844.801 636.954 847.159 650.407 840.935 654.382C838.91 655.676 836.428 655.429 834.223 654.794C828.837 653.242 823.892 649.55 821.303 644.522C819.071 640.189 818.829 635.123 820.275 630.506C822.379 627.797 825.602 623.644 826.538 620.407C825.639 620.538 825.243 620.721 824.499 621.292C821.888 623.295 820.581 627.377 820.275 630.506L819.897 629.609C820.333 624.732 822.623 621.009 824.668 616.687C825.468 614.997 826.421 613.156 826.779 611.315C828.665 601.643 827.759 580.345 824.386 570.976L824 570L823.609 569.003L824 570L824.386 570.976C825.407 578.205 825.419 585.079 825.652 592.35C821.896 586.786 818.712 581.119 811.558 579.671C808.431 579.039 805.23 579.231 802.074 579.481C806.522 578.128 810.699 578.373 815.219 579.081L815.456 579.39L815.219 579.081C815.127 578.997 815.038 578.909 814.942 578.829C811.974 576.372 807.698 575.185 803.885 575.518C796.658 576.15 793.187 580.247 788.977 585.502C788.899 576.169 787.45 558.222 793.959 550.976C795.567 549.186 797.711 548.067 800.143 548.05C805.516 548.011 810.7 552.674 814.381 556.152C813.298 551.73 812.235 549.363 808.549 546.444C805.495 544.025 800.632 541.855 796.652 542.515C793.269 543.076 793.131 545.222 791.44 547.509C791.395 547.376 791.338 547.245 791.304 547.109C790.409 543.498 792.454 529.376 794.441 526.26C798.57 523.905 802.218 530.249 806.149 529.935C805.653 529.059 805.908 529.2 805.252 528.821C802.939 527.486 801.49 525.431 799.834 523.383L799.959 523.042C802.078 524.244 803.605 525.749 805.304 527.455L805.308 526.955C803.543 523.918 801.466 522.296 798.825 520.08L798.839 520.056L794.466 519.11C795.518 512.512 796.645 505.99 798.02 499.449C799.192 504.713 800.39 510.075 802.489 515.061C803.546 517.57 806.097 521.013 806.284 523.649L805.202 523.327L804.5 522.5L804.003 522.003ZM366.757 292.827L366.27 293.279C360.191 294.996 339.742 305.394 335.285 309.212L335.002 309.455L335.285 309.212C341.836 307.435 361.532 297.869 366.27 293.279L366.757 292.827L367.498 292.605L366.757 292.827ZM366.531 319.745L365.817 320.145L365.503 320.394L365.817 320.145L366.531 319.745C370.883 318.701 376.727 315.243 380.031 312.246C375.757 313.487 369.859 316.844 366.531 319.745ZM416.601 382.502L416.853 382.789C419.768 391.026 432.414 413.32 437.412 419.921C440.505 424.006 444.376 427.37 447.818 431.146C453.16 437.004 458.212 443.184 463.972 448.641C464.068 433.495 462.015 397.347 457.743 383.709C455.279 382.757 452.827 381.739 450.294 380.983C452.897 400.384 453.882 420.097 456.808 439.404C452.07 433.553 447.415 427.636 442.845 421.654L442.514 421.502L442.845 421.654C443.087 422.637 443.297 423.618 443.506 424.609L443.154 424.912C441.619 421.841 441.054 418.15 440.189 414.823C436.723 401.481 434.125 388.002 431.44 374.486C429.535 373.813 427.652 373.059 425.763 372.339C426.863 377.531 427.274 382.998 427.989 388.266C428.857 394.263 429.847 400.241 430.957 406.198C427.092 398.34 422.534 389.485 416.853 382.789L416.601 382.502ZM650.005 426.594L650.296 426.842C650.449 426.972 650.601 427.103 650.755 427.231C655.21 430.921 660.261 433.82 665.233 436.745C683.238 447.337 684.271 453.691 691.134 472.391C683.515 466.928 655.852 449.448 647.755 447.407L647.507 447.121L647.755 447.407C654.613 455.193 666.021 462.785 674.675 468.603C680.494 472.515 690.148 476.697 694.073 482.322C697.457 487.172 699.221 494.851 700.849 500.546C689.475 492.777 677.976 485.716 666.073 478.793C662.344 476.623 658.15 473.585 654.104 472.207L653.634 472.002L654.104 472.207C664.867 482.923 678.019 492.042 686.939 504.418C681.096 503.868 675.1 503.589 669.23 503.597C662.519 498.711 655.716 495.044 648.304 491.371L648.073 491.124L648.304 491.371C651.804 495.494 655.048 499.707 657.908 504.301C647.379 502.85 636.211 502.247 625.583 501.947L625.003 501.628L625.583 501.947C630.821 503.625 636.617 504.406 642.012 505.546C657.109 508.737 672.197 511.345 687.387 514.024C700.617 516.357 713.047 519.918 726.543 520.939C723.433 507.442 713.418 486.867 707.004 474.289C697.228 455.12 676.255 420.472 658.582 408.492C651.347 403.588 642.307 400.672 634.038 397.984C639.215 400.977 644.703 403.615 649.612 407.036C661.062 415.017 669.721 427.72 676.897 439.52C668.831 434.796 659.347 429.234 650.296 426.842L650.005 426.594ZM381.263 448.447C381.108 448.451 380.953 448.452 380.799 448.459C373.523 448.815 359.353 456.418 353.307 453.327C352.432 452.075 352.118 451.261 352.441 449.719C353.744 443.51 359.142 437.088 364.392 433.927C368.784 431.284 373.846 429.726 378.433 427.442C373.208 428.756 365.13 432.402 360.001 430.134C359.916 430.331 359.833 430.53 359.745 430.725C357.828 434.999 346.369 452.061 347.936 455.257C348.91 457.244 351.733 458.438 353.609 459.488C347.803 462.789 336.703 473.617 334.901 480.052C334.708 480.742 334.797 481.345 334.928 482.03C337.114 484.53 348.359 485.766 351.715 485.982C351.893 485.994 352.073 485.994 352.252 485.999C346.614 490.833 333.175 497.293 325.889 498.9C324.261 499.259 322.813 499.504 321.334 498.592L321.17 497.739C325.788 488.544 328.811 478.468 332.668 468.92C337.173 457.77 343.136 446.106 349.233 435.708C355.913 424.315 365.402 415.32 372.781 404.517L373.259 403.81C372.805 404.013 372.349 404.214 371.904 404.437C362.366 409.194 353.918 418.291 347.295 426.462C330.589 447.073 315.291 475.197 303.57 499.035C300.129 506.034 296.301 513.196 293.788 520.586C307.336 519.927 320.91 516.761 334.428 515.323C352.815 513.367 371.652 513.215 389.852 509.931C373.989 502.032 353.152 499.342 335.538 498.358C342.419 495.221 348.905 490.731 355.888 488.012C364.467 484.67 374.153 482.805 382.352 478.665C373.142 480.414 364.144 481.871 355.025 484.171C349.863 482.549 344.802 482.013 340.134 479.074C343.784 470.588 350.953 466.631 354.3 459.818C363.068 455.47 372.355 452.434 381.263 448.447L381.498 448.125L381.263 448.447ZM281.032 454.665L280.186 455.102C279.065 455.258 278.004 455.747 276.943 456.139C276.954 456.962 279.711 459.747 280.318 460.674C282.139 463.454 283.542 466.617 285.01 469.595C283.552 471.199 282.354 472.843 281.169 474.657C285.339 470.843 290.737 467.941 295.546 464.947C296.805 465.412 298.06 465.812 299.101 466.687C299.353 466.898 299.593 467.125 299.853 467.326C300.958 468.181 301.534 468.472 302.912 468.333C303.831 467.519 304.013 467.598 304.308 466.34C303.394 464.993 300.504 464.44 298.966 463.827C299.545 462.22 307.428 456.427 309.256 454.778C305.861 455.519 302.515 456.658 299.188 457.666C298.247 454.418 297.989 452.689 295.152 450.544C295.017 450.442 294.879 450.343 294.743 450.242L295.033 449.543C295.403 449.387 295.592 449.277 296.034 449.261C297.736 449.202 300.15 450.167 301.366 451.324C302.012 451.94 302.477 452.266 303.259 452.678L304.059 451.996C303.569 449.9 301.357 449.112 300.971 447.093C303.64 446.56 309.141 451.119 311.932 452.309L312.563 451.555C311.388 449.627 308.377 447.264 308.17 445.134C313.8 441.244 314.213 446.959 317.843 446.394L318.552 445.298C318.127 442.453 317.42 442.021 315.361 440.144C304.634 445.939 291.078 448.385 281.032 454.665ZM546.323 456.758L546.093 456.963L546.323 456.758C546.892 456.556 546.907 456.567 547.541 456.246C551.198 454.395 556.775 450.593 557.89 446.592C553.712 449.948 549.037 451.838 546.323 456.758ZM719.996 459.068L720.973 459.063C720.608 457.958 720.236 457.334 719.155 456.771C716.372 455.322 712.682 455.733 709.664 455.89C710.271 457.739 710.697 460.04 712.003 461.487C714.656 460.764 713.391 458.381 717.903 460.853C737.485 471.581 741.257 513.147 750.588 520.311L751.361 520.095C751.789 517.376 747.01 509.123 746.18 505.46C746.85 500.218 743.677 496.057 743.184 490.803C740.091 487.769 738.586 484.124 736.863 480.24C736.946 480.068 737.026 479.894 737.111 479.723C738.134 477.665 739.489 475.701 741.775 474.932C743.903 474.217 745.762 474.725 747.714 475.662C746.615 474.423 745.531 473.215 744.585 471.855L742.828 473.173L741.947 472.93C741.504 471.975 741.576 471.332 741.595 470.305C741.622 468.848 741.534 468.275 740.736 467.075C740.711 467.352 740.69 467.629 740.662 467.905C740.293 471.582 737.758 475.641 736.18 478.992C735.571 477.924 735.102 477.143 734.927 475.91C734.521 473.053 732.173 469.675 730.727 467.164C732.048 465.846 733.089 464.987 733.44 463.104C733.044 461.673 733.062 461.761 731.789 460.982C730.395 460.904 729.764 460.989 728.526 461.642C727.771 463.049 728.074 463.751 728.249 465.311C726.332 465.456 723.881 463.131 722.432 461.864C721.465 461.017 720.657 460.18 719.996 459.068ZM334.837 473.732L334.609 474.498L334.837 473.732L335.396 473.502L334.837 473.732ZM334.127 475.222C333.247 476.165 332.643 476.626 332.345 477.925L333.302 477.868C333.661 476.98 333.923 476.158 334.127 475.222L334.404 475.002L334.127 475.222ZM751.894 479.768L750.258 478.47L749.935 478.982C751.739 482.804 755.165 485.655 757.234 489.331C765.316 503.69 762.642 510.257 763.396 525.214C752.241 527.215 744.43 530.336 734.101 534.617C732.447 535.303 729.663 535.958 728.457 537.273C727.409 538.418 727.937 540.883 727.132 541.93C726.115 543.25 724.119 542.235 722.985 543.792C724.28 547.672 732.002 551.005 735.331 553.396C733.941 550.28 732.898 547.369 732.098 544.044C741.8 534.279 754.01 532.135 767.223 530.939L767.433 529.973C768.657 524.248 768.336 518.584 768.868 512.798C769.831 502.333 774.112 492.959 778.432 483.526C780.635 479.519 783.208 475.846 785.838 472.116C780.808 470.44 765.904 464.904 761.173 465.477C757.925 468.624 757.456 473.711 755.719 477.756C748.791 465.774 738.975 451.311 724.843 447.451C720.476 446.259 715.802 445.685 711.619 443.934C707.625 442.26 702.477 436.527 698.343 436.697L697.893 437.562C699.295 441.329 707.877 445.054 711.409 446.675C715.976 448.772 720.637 449.159 725.202 450.922C735.538 454.913 742.081 461.879 747.429 471.424C748.954 474.146 750.115 477.227 751.894 479.768ZM271.202 485.59C274.151 485.999 276.119 486.259 278.635 488.056C279.566 485.817 280.496 482.819 282.865 481.714C288.867 478.912 291.71 480.171 296.615 473.789C296.104 472.731 295.101 472.128 293.993 471.749C292.931 471.386 292.155 471.343 291.074 471.583C290.686 473.795 293.561 473.835 290.255 476.108C282.567 481.393 271.194 483.304 262.277 481.175C258.027 480.149 253.859 478.813 249.804 477.177C248.488 475.229 247.395 473.221 244.951 472.628C244.122 472.427 243.801 472.713 243.047 473.005C241.883 474.841 242.041 476.408 242.505 478.461C243.736 483.914 246.492 489.88 251.414 492.841C254.169 494.498 256.792 494.591 259.894 494.623C256.207 503.129 252.968 512.579 256.576 521.752C258.269 526.055 260.93 528.439 265.061 530.296C267.618 530.637 270.184 531.041 272.755 531.244C270.073 536.763 262.147 544.145 260.952 549.22C260.481 551.22 260.521 553.46 260.433 555.507C260.362 557.144 259.95 559.733 260.501 561.247C260.554 561.392 260.64 561.522 260.709 561.659C261.937 560.904 262.48 560.198 262.857 558.781C263.521 556.284 262.685 552.864 262.35 550.317C266.89 545.866 270.671 541.154 273.668 535.523C274.33 535.639 275.153 535.999 275.757 535.629C281.182 532.307 282.718 521.124 283.955 515.312C281.51 519.85 279.019 525.518 273.55 526.972C270.434 527.8 266.695 527.264 264.002 525.467C260.598 523.194 258.833 518.872 258.262 514.956C256.93 505.831 261.895 497.041 267.26 490.066C268.394 488.591 270.413 487.187 271.202 485.59ZM478.956 496.026L476.613 499.083L476.458 499.656L476.099 499.998L476.458 499.656L476.613 499.083C477.138 498.792 477.606 498.357 478.188 498.21C481.077 497.479 487.35 506.409 490.944 506.324L490.956 505.47C487.969 501.761 482.809 500.223 479.612 496.765C479.389 496.524 479.175 496.272 478.956 496.026C482.864 496.371 486.775 497.7 490.556 498.733C490.62 497.553 490.661 491.335 491.45 490.773C492.198 490.24 492.711 490.625 493.542 489.811C492.921 489.352 492.433 488.957 491.934 488.357C491.344 487.649 491.594 487.397 491.677 486.528C492.846 484.775 494.264 483.733 496.379 483.355C499.065 482.875 499.88 483.42 501.957 484.936C506.632 488.348 517.343 486.676 523.279 487.651C527.432 488.333 531.313 489.769 535.293 491.083C533.028 487.765 533.441 483.218 530.48 480.309C529.194 479.045 527.64 479.058 525.928 479.113C521.402 479.26 516.777 480.294 512.23 480.654C494.386 482.068 491.547 482.244 478.956 496.026ZM817.087 553.545L817.394 553.711C818.26 556.391 819.542 559.679 821.18 561.976L821.469 562.497L821.18 561.976C820.581 558.846 819.689 556.014 817.394 553.711L817.087 553.545ZM290 602.5L289.286 604.483L289.002 604.997L289.286 604.483L290 602.5L290.376 602.003L290 602.5ZM288.475 605.983L288.178 606.383C285.888 607.611 283.795 608.574 281.209 607.552C279.223 606.768 277.988 605.013 277.38 603.033C276.365 599.725 277.049 596.023 278.757 593.068C280.39 590.242 283.14 588.485 286.272 587.708C288.622 587.125 291.175 587.218 293.297 588.48C296.074 590.131 297.349 593.276 297.973 596.303C299.244 602.464 298.319 608.858 294.636 614.042C292.156 617.533 288.394 620.631 284.044 621.252C279.503 621.899 275.326 619.765 271.892 616.983C267.033 613.047 263.365 607.327 262.687 601.03C262.065 595.243 263.853 589.027 267.547 584.522C272.581 578.384 281.809 574.085 289.716 573.592C296.532 573.167 303.762 576.235 308.768 580.829C312.421 584.182 313.448 587.183 314.294 591.863C313.403 593.296 312.508 594.668 311.492 596.016C310.173 597.768 309.132 599.642 309.08 601.871C309.453 602.351 309.575 602.787 310.225 602.872C311.518 603.04 313.492 602.506 314.558 601.759C313.261 601.254 312.03 600.715 310.781 600.101L310.401 599.234C310.883 598.43 311.023 598.087 311.849 597.598C311.723 598.363 311.619 599.131 311.536 599.902C312.866 599.941 313.792 599.382 314.765 598.518C317.633 595.969 318.523 593.172 318.597 589.395C318.604 588.998 318.604 588.601 318.596 588.205C316.191 582.184 308.329 574.738 302.4 572.14C294.81 568.816 285.701 571.048 278.381 574.068C270.545 577.301 263.319 581.687 259.882 589.875C257.271 596.094 257.473 602.533 260.092 608.696C263.072 615.709 269.181 623.728 276.385 626.657C280.222 628.218 284.054 627.885 287.791 626.178C293.803 623.431 298.234 617.992 300.358 611.81C302.594 605.301 302.782 596.696 299.572 590.49C298.139 587.718 295.889 585.571 292.88 584.617C289.159 583.436 285.072 584.294 281.709 586.112C277.965 588.137 274.836 591.516 273.728 595.689C272.799 599.185 273.458 602.538 275.288 605.619C276.611 607.846 278.435 609.323 280.444 610.885C282.855 610.195 286.136 609.667 287.614 607.456C287.836 607.124 288.007 606.744 288.178 606.383L288.475 605.983L288.884 605.503L288.475 605.983ZM749.799 647.487C746.703 644.873 743.504 643.235 740.186 641.005C738.168 639.649 736.012 637.774 735.786 635.172C735.681 633.963 736.105 632.573 736.935 631.689C738.166 630.378 742.37 630.834 744.078 630.861L744.029 630.459C739.332 627.422 736.803 630.017 732.565 628.423C731.395 627.346 731.037 626.788 730.545 625.276C730.83 624.179 730.811 623.744 731.908 623.189C733.575 622.347 735.583 623.139 737.268 623.57L737.497 623.874L737.268 623.57C735.646 622.162 732.48 620.308 730.258 620.546C728.97 620.684 728.767 621.323 728.143 622.302C728.097 624.431 729.023 626.264 730.168 628.012C731.5 630.047 732.376 630.646 734.677 631.165C734.648 631.394 734.641 631.628 734.591 631.853C733.955 634.694 734.74 639.819 734.419 640.013C732.92 640.916 731.712 640.655 730.773 642.235C732.402 646.704 741.537 648.706 745.597 651.118C747.404 652.191 748.926 653.657 750.445 655.095C750.755 659.051 750.442 662.866 749.922 666.786C742.5 665.301 735.188 663.234 727.759 661.763C725.63 661.342 723.455 661.684 721.441 661.189C722.97 660.54 723.907 660.914 725.529 661.157C726.811 660.449 727.81 658.946 728.76 657.819C732.202 657.119 735.559 655.142 739.076 655.059C741.549 655.001 743.802 656.687 746.221 656.38L745.829 655.665C741.134 653.368 735.534 652.386 730.377 651.828C725.84 657.794 719.389 659.326 713.554 663.533C718.688 664.438 723.873 664.977 729.001 665.896C741.032 668.051 752.306 670.403 764.601 670.512C765.402 667.973 765.9 665.364 766.262 662.729C770.522 631.664 765.652 594.319 746.3 568.838C745.172 567.483 743.077 564.555 741.477 563.902C740.217 563.389 739.393 563.446 738.156 563.962C736.593 564.614 734.996 564.829 733.363 565.257C732.183 565.565 730.838 565.866 729.783 566.501C726.225 568.639 710.679 581.719 708.738 585.111C713.378 587.659 720.86 586.893 727.755 591.03L728.352 591.395C726.086 591.793 721.932 591.964 720.204 593.445L720.557 594.225C721.577 594.708 722.116 594.919 723.25 594.825L723.316 593.607C725.458 592.891 727.648 593.139 729.874 593.215C733.537 595.352 737.055 597.733 740.598 600.061C744.452 608.105 747.475 615.893 749.714 624.518C745.004 619.123 740.669 616.305 734.14 613.501C731.916 612.545 729.547 611.588 727.611 610.117C726.103 608.971 724.784 607.445 724.632 605.478C724.542 604.316 724.918 603.038 725.715 602.201C728.579 601.598 732.959 602.534 736.02 602.63C731.898 600.962 727.773 599.85 723.842 597.686C723.307 598.854 722.662 600.121 722.403 601.383C721.997 603.364 722.483 606.035 722.704 608.037C723.822 618.166 729.263 617.171 737.069 620.38C742.536 622.626 748.289 627.75 751.405 632.642C750.458 637.478 750.273 642.581 749.799 647.487ZM739.003 623.611L739.753 624.129L740.497 624.374L739.753 624.129L739.003 623.611ZM177.839 635.852L177.441 636.818L177.191 636.978C172.746 640.391 166.531 647.063 165.9 652.888C165.843 653.418 165.867 653.704 165.873 654.268C167.708 654.437 168.53 654.677 170.24 653.922C173.173 650.519 172.822 645.683 174.356 641.666C174.991 640.004 176.182 638.43 177.191 636.978L177.441 636.818L177.839 635.852L178.498 635.61L177.839 635.852ZM636.497 646.41C639.548 644.817 642.024 642.394 644.806 640.397C646.239 639.369 647.915 638.047 649.723 638.34L650.598 640.193C650.513 640.933 645.648 652.375 644.892 654.53L651.374 654.121C653.183 653.964 655.012 653.512 656.798 653.177L651.995 650.815C652.092 647.045 651.918 643.788 650.598 640.193C650.356 638.218 650.419 636.897 651.494 635.198C657.711 625.367 678.738 613.804 688.766 607.193C693.652 603.972 698.331 600.467 703.292 597.353C707.012 595.017 711.956 593.363 714.691 589.844L714.366 589.443C709.428 590.044 705.356 592.853 701.23 595.416C696.547 598.304 692.187 601.681 687.569 604.669C677.119 611.432 665.686 617.84 656.458 626.294C653.654 628.862 651.891 632.483 649.031 635.005C644.631 638.884 640.027 641.611 636.497 646.41ZM662.434 645.219C661.258 644.663 660.899 644.163 659.606 644.6C660.105 645.607 660.431 646.067 661.489 646.561C662.049 646.823 663.108 646.876 663.685 646.948C664.963 646.865 665.816 646.887 666.931 646.19C666.034 645.934 665.234 645.768 664.311 645.685C663.065 645.572 663.635 645.698 662.434 645.219C663.326 645.161 664.142 645.051 665.015 644.86L665.346 643.821C663.751 643.908 663.619 644.223 662.434 645.219ZM265.305 656.175L265.117 656.497L265.305 656.175C265.954 655.661 265.685 655.914 266.261 655.293C268.395 652.994 270.152 651.296 273.282 650.514C275.348 649.997 277.828 649.883 279.633 651.212C280.805 652.074 281.448 653.435 281.704 654.835C282.226 657.683 281.876 660.512 280.281 662.943C278.853 665.118 277.249 667.343 274.562 667.87C273.608 667.506 273.048 667.2 272.614 666.159C271.349 663.125 277.169 662.16 278.284 659.365C278.275 657.843 278.194 657.313 277.287 656.006C276.179 655.238 275.361 654.877 273.999 654.761C272.489 654.631 271.252 654.869 270.068 655.845L270.541 656.388C272.174 656.872 273.39 656.753 275.069 656.553C275.897 657.417 276.291 657.842 276.507 659.035C275.737 660.631 272.938 661.478 271.461 662.635C270.773 663.911 270.578 664.703 270.944 666.152C271.287 667.515 271.859 668.071 272.986 668.825C274.143 669.071 274.978 669.133 276.112 668.702C279.346 667.47 281.857 664.175 283.226 661.116C284.385 658.527 285.121 655.508 283.88 652.801C282.659 650.136 279.675 648.6 277.002 647.79C274.808 647.124 272.355 647.067 270.309 648.236C267.528 649.825 266.056 653.206 265.305 656.175ZM494.099 93.7415L489.815 94.2137C513.987 95.8196 545.228 95.9737 562.332 115.555C566.731 120.591 569.75 126.044 572.533 132.079C570.4 123.214 567.359 114.921 561.996 107.476C566.638 109.098 571.277 110.883 575.989 112.283C585.896 115.57 595.552 119.454 605.405 122.875C596.719 117.361 588.155 111.693 578.775 107.398C553.264 95.7159 521.907 92.6454 494.099 93.7415ZM505.099 178.243C475.708 179.129 445.097 182.577 416.873 191.147C409.438 193.405 402.325 196.474 395.063 199.208L394.411 205.138C401.651 202.318 408.898 199.328 416.298 196.959C448.718 186.582 482.599 183.48 516.499 183.445C554.537 183.744 592.163 193.409 628.547 203.638C628.523 202.081 628.86 197.961 627.554 196.927C624.729 194.69 618.726 194.054 615.153 193.014C579.838 182.735 541.91 177.232 505.099 178.243ZM494.812 188.711C488.191 189.093 481.44 189.245 474.857 190.056C473.777 212.889 473.357 236.191 473.623 259.048C476.275 259.302 478.896 259.549 481.563 259.569C487.526 260.039 493.516 260.518 499.499 260.62C499.62 236.605 500.805 212.515 500.424 188.51C498.58 188.573 496.64 188.511 494.812 188.711ZM525.694 188.467C525.937 212.475 525.934 236.586 526.7 260.581C535.112 260.508 543.498 259.868 551.879 259.166L552.771 258.393C553.021 250.699 552.466 242.855 552.247 235.157L550.922 190.92C542.573 189.677 534.102 189.192 525.694 188.467ZM449.932 192.629C444.191 193.866 438.455 195.179 432.684 196.267C431.499 215.436 430.516 234.617 429.735 253.806C430.743 254.266 431.427 254.382 432.532 254.419C437.808 255.176 443.096 255.845 448.395 256.426C449.431 245.482 449.643 234.478 450.037 223.497C450.401 213.333 450.973 203.147 451.141 192.98C450.224 192.574 450.639 192.632 449.932 192.629ZM574.486 194.682C575.013 215.254 575.047 236.156 577.003 256.645C583.636 256.025 590.262 255.333 596.881 254.569L597.839 254.157C598.896 250.062 595.142 206.074 594.127 199.138C587.587 197.675 581.052 196.003 574.486 194.682ZM409.543 204.527C405.582 205.857 401.502 207.116 397.938 209.357C397.235 214.329 393.803 245.815 395.377 249.137C396.124 249.309 396.855 249.505 397.618 249.588C401.192 250.025 404.855 250.327 408.337 251.269C408.691 244.652 411.649 207.491 409.928 204.681L409.543 204.527ZM614.808 205.112C615.131 220.152 615.591 235.657 616.853 250.639C621.717 250.4 626.491 249.904 631.319 249.309C631.343 239.736 628.625 217.891 626.718 208.316L614.808 205.112ZM293.885 251.701C287.346 252.268 280.674 252.599 274.225 253.828C286.725 253.953 299.023 253.888 311.508 254.947C336.286 257.049 361.462 262.81 385.316 269.742C394.811 272.501 403.827 276.549 413.191 279.666C445.18 290.312 478.388 299.048 512.301 299.324C545.216 299.593 578.144 291.201 609.163 280.896C619.622 277.421 629.864 273.242 640.387 269.979C667.983 261.423 696.522 255.035 725.457 254.113C727.559 254.147 744.02 255.273 744.046 255.264L744.173 254.873C737.123 252.567 728.449 252.299 721.072 252.059C669.015 250.369 627.117 271.711 578.344 284.792C558.132 290.213 535.906 294.127 514.943 294.318C481.824 294.62 447.048 285.278 415.864 274.997C405.263 271.502 394.856 267.278 384.152 264.121C363.94 258.017 343.151 254.023 322.116 252.202C313.045 251.473 302.944 250.536 293.885 251.701ZM389.98 251.405C389.912 252.927 389.681 253.705 390.438 255.053C398.704 257.698 407.963 258.625 416.483 260.448C461.673 269.832 507.993 272.556 553.972 268.536C580.036 266.132 605.778 261.488 631.377 256.161L632.25 255.65C632.265 254.264 632.357 253.944 631.636 252.788C624.066 253.787 616.605 255.379 609.051 256.455C589.423 259.249 569.553 261.712 549.785 263.27C496.415 267.473 442.401 261.583 389.98 251.405ZM745.38 255.75L746.245 255.75L745.38 255.75ZM749.38 259.453C738.998 271.067 710.263 275.922 695.459 276.759C690.076 277.063 684.144 276.536 678.854 277.236C691.497 279.621 705.035 278.844 717.897 279.641C710.328 287.374 700.592 292.296 690.623 296.248C680.805 300.026 671.057 302.279 660.972 305.046C690.093 304.169 724.003 290.16 744.076 268.949C746.079 266.833 749.354 263.215 749.454 260.198C749.462 259.949 749.405 259.702 749.38 259.453ZM310.673 272.07C302.582 274.339 294.238 276.786 286.684 280.491C287.235 281.012 286.902 280.867 287.699 280.889C291.454 279.738 310.235 274.039 311.747 272.01L310.673 272.07ZM351.633 278.25L352.245 278.25L351.633 278.25ZM350.249 278.484C337.905 283.45 318.452 290.612 307.845 298.41L307.974 298.887L308.267 298.956C322.516 292.783 337.276 286.654 350.756 278.941L350.79 278.548L350.249 278.484ZM625.945 283.453L620.254 285.923C626.802 299.674 626.811 314.519 621.661 328.834C615.641 345.568 601.899 359.371 585.861 366.822C580.203 369.45 573.761 371.147 567.704 368.751C561.577 366.327 557.112 360.445 552.808 355.676C541.534 343.185 523.827 320.485 504.751 327.963C487.888 334.573 468.637 364.017 455.842 367.561C449.204 369.4 441.873 367.418 435.682 364.852C422.011 359.185 409.199 350.051 403.409 336.018C398.288 323.606 396.199 305.914 401.447 293.201C402.2 291.375 403.227 289.786 403.278 287.761C402.707 286.635 402.41 285.964 401.067 285.572C400.018 285.266 398.956 285.423 398.09 286.067C393.35 289.59 392.352 303.858 392.403 309.321C392.563 326.216 397.156 344.373 409.627 356.436C414.872 361.502 420.938 365.64 427.567 368.676C442.271 375.254 458.794 376.724 470.097 389.499C474.901 413.107 476.39 437.395 479.666 461.248C481.799 462.447 483.904 463.652 486.154 464.624C485.782 458.781 485.296 452.946 484.698 447.121C483.181 429.09 480.994 411.324 478.961 393.367C485.268 396.511 491.994 398.368 498.376 401.261C498.567 425.253 501.192 449.189 501.557 473.133L509.378 472.984L507.938 402.964C512.833 402.811 517.799 402.67 522.642 401.884C522.189 413.614 521.217 425.315 520.721 437.04C520.234 448.573 520.134 460.158 519.842 471.701C521.401 471.246 523.149 470.961 524.357 469.817C525.959 464.899 526.156 459.109 526.809 453.954C529.076 436.073 530.914 417.963 531.652 399.951C536.384 398.46 541.135 397.032 545.584 394.806C545.52 402.737 544.305 410.652 543.311 418.51C541.3 434.408 539.178 450.349 534.495 465.722C542.096 461.163 543.423 459.138 545.58 450.556C550.41 431.334 552.415 410.966 555.403 391.363C560.936 388.373 564.408 382.231 570.064 378.995C575.336 375.979 581.487 374.261 587.041 371.761C607.979 362.335 622.484 349.521 629.237 327.052C632.948 314.706 634.816 297.626 628.3 285.834C627.716 284.776 627.382 283.961 626.218 283.496C626.133 283.461 626.036 283.467 625.945 283.453ZM615.405 288.006C576.183 303.136 542.71 308.987 500.677 307.297C488.852 306.822 476.939 306.082 465.285 303.909C445.977 300.307 427.302 294.103 408.669 288.053C401.613 298.9 401.528 312.273 404.191 324.605C407.128 338.209 414.726 347.971 426.397 355.345C429.581 357.357 432.986 359.237 436.456 360.711C443.019 363.222 449.249 365.999 456.184 362.98C461.436 360.692 465.6 356.377 469.649 352.452C474.692 347.503 479.8 342.621 484.971 337.807C495.443 328.055 506.049 318.214 521.591 324.042C534.722 328.965 545.636 342.082 554.725 352.38C558.486 356.641 562.748 362.563 568.119 364.789C573.526 367.029 579.792 365.279 584.912 363.04C599.239 356.773 612.191 342.139 617.675 327.611C621.782 316.73 623.163 301.816 618.192 290.965C617.653 289.789 617.142 288.9 616.103 288.091L615.405 288.006ZM380.136 312.25L380.745 312.25L380.136 312.25ZM604.135 367.46C601.681 368.962 599.153 370.398 596.842 372.113C594.926 377.809 582.914 418.572 583.388 421.316L583.867 421.167C594.496 408.529 602.568 384.405 604.747 368.056C604.554 367.847 604.403 367.556 604.135 367.46ZM575.969 380.513C573.274 381.744 570.543 382.911 567.981 384.405C566.099 396.243 564.522 408.128 563.251 420.047C562.27 429.265 561.939 439.112 559.63 448.102C567.234 440.393 574.769 432.786 580.762 423.712C581.715 418.993 582.932 414.288 584.185 409.639C578.021 419.184 574.229 429.916 567.131 439.011C571.419 420.226 571.815 400.746 575.895 381.912C576.086 381.033 576.053 381.399 575.969 380.513ZM412.18 390.869C410.632 404.343 408.926 423.007 411.032 436.229C412.219 443.683 415.873 450.994 418.889 457.86C424.443 470.504 430.146 483.251 437.028 495.241C442.476 504.731 448.738 513.732 454.386 523.098C457.951 516.363 461.774 509.767 465.848 503.326C472.176 493.39 478.84 484.212 486.509 475.264C486.376 475.129 486.246 474.991 486.111 474.858C480.362 469.221 471.894 465.109 465.314 460.301C453.792 451.881 442.973 440.642 433.776 429.743C429.205 424.325 425.56 417.558 422.331 411.239C420.21 407.089 414.675 393.202 412.18 390.869ZM610.557 397.292C592.246 429.495 568.629 458.183 534.271 474.028C544.008 483.901 551.403 494.404 558.453 506.266C562.091 512.723 565.17 519.414 568.217 526.164C577.246 509.708 584.726 492.753 595.016 476.952C599.697 469.765 612.63 453.678 614.574 446.556C617.363 436.338 614.191 408.031 610.887 398.152C610.789 397.861 610.667 397.579 610.557 397.292ZM634.634 398.25L635.245 398.25L634.634 398.25ZM322.755 437.524C321.289 437.892 319.187 438.132 318.202 439.317C319.015 440.625 319.999 440.81 321.376 441.449C322.495 440.377 324.207 439.152 324.667 437.698C323.422 437.365 324.059 437.426 322.755 437.524ZM270.055 465.429L270.797 465.629C270.14 465.367 270.39 465.311 270.055 465.429ZM266.726 466.175L269.199 468.368L269.023 468.776L267.552 468.561C266.415 469.479 266.309 469.653 265.818 471.032C266.24 472.332 266.148 472.274 267.358 472.897L269.549 472.563C271.085 471.415 272.308 470.831 273.047 468.996C272.688 468.058 272.647 467.829 271.686 467.364C270.284 466.687 268.281 466.327 266.726 466.175ZM259.236 468.778L258.806 469.498C259.552 470.279 260.225 470.789 261.152 471.342L259.941 468.65L259.236 468.778ZM749.807 487.871C748.772 490.558 747.146 493.684 746.558 496.463L747.22 497.368C749.335 497.034 750.363 495.704 752.167 494.784C753.502 494.064 754.674 493.687 755.259 492.13C755.717 490.912 755.086 490.267 754.49 489.287L753.922 489.217C753.692 490.271 753.456 491.314 753.174 492.356C751.564 491.594 750.819 489.457 749.897 487.961C749.875 487.924 749.837 487.901 749.807 487.871ZM278.569 488.789C281.5 493.5 284.613 498.767 283.261 504.571C282.581 507.492 280.612 509.756 277.997 511.165C276.524 511.96 275.355 512.15 273.694 511.793C272.241 510.889 271.552 509.998 271.196 508.325C270.768 506.315 271.064 503.79 272.26 502.076C272.883 501.183 273.651 500.548 274.742 500.378C275.632 500.856 276.51 501.325 277.361 501.871C277.736 500.638 277.498 500.391 277.181 499.184C276.267 498.224 275.784 497.907 274.499 497.574L273.652 498L273.094 498.541C270.566 501.012 268.409 504.127 268.491 507.842C268.532 509.684 269.233 511.572 270.642 512.802C272.106 514.079 273.966 514.503 275.872 514.305C278.568 514.025 280.978 512.468 282.576 510.314C285.212 506.763 286.207 501.055 285.365 496.762C284.863 494.205 283.355 491.666 281.195 490.163C280.397 489.608 279.474 489.146 278.569 488.789ZM513.632 490.213C508.463 490.537 502.695 491.77 498.317 494.653C498.103 495.01 497.77 495.319 497.674 495.725C497.156 497.904 497.991 502.481 498.055 504.863C498.281 513.335 498.145 521.792 498.546 530.263C506.882 532.556 516.32 532.662 524.91 532.172C527.18 527.798 534.765 517.083 533.168 512.815C531.667 508.804 525.209 506.659 521.504 505.322C513.609 503.14 508.344 503.81 500.686 506.293C500.588 507.89 500.627 509.67 500.18 511.202C499.933 507.25 498.336 498.308 500.972 495.291C503.71 492.159 510.201 492.635 514 492.733C521.752 492.931 530.089 494.882 536.479 499.42L536.945 499.247C536.696 498.724 536.451 498.202 536.215 497.673C537.041 497.71 537.681 497.839 538.469 498.09C538.547 497.234 538.719 497.341 538.194 496.742C534.416 492.429 519.92 490.166 514.081 490.203C513.931 490.204 513.782 490.21 513.632 490.213ZM496.548 495.858C495.238 497.635 494.675 498.91 495.015 501.151C495.274 502.864 496.053 504.457 496.994 505.891C496.471 503.081 496.759 496.565 496.548 495.858ZM511.87 496.585C508.183 497.405 504.499 498.713 500.781 499.248L500.359 499.788L500.533 498.96L501.235 500.247C504.013 499.946 506.453 498.963 509.158 498.452C514.582 497.43 521.76 499.007 527.035 500.358C530.855 501.756 534.447 502.907 538.48 503.546C530.141 498.55 521.62 496.133 511.87 496.585ZM507.182 500.559C505.35 501.007 502.971 501.277 501.547 502.567L501.693 503.144C504.265 503.1 506.785 502.072 509.326 501.675C517.148 500.453 525.175 502.786 531.71 507.014C532.688 508.219 533.112 509.037 534.574 509.612L535.195 509.204C534.505 506.801 531.776 505.354 529.633 504.229C522.695 500.587 514.854 500.024 507.182 500.559ZM274.476 501.272C273.928 502.711 273.267 503.903 273.776 505.451C274.326 505.953 274.875 506.503 275.464 506.961C276.177 504.629 275.307 503.454 274.476 501.272ZM533.936 504.583L534.835 505.195L535.396 505.005L535.181 504.13L533.936 504.583ZM738.498 505.38C738.582 510.201 740.216 514.706 743.778 518.078C744.793 519.038 745.736 519.599 747.027 520.105C744.556 516.172 741.007 508.295 738.498 505.38ZM530.354 507.461L530.807 507.623L530.354 507.461ZM259.004 532.311C258.988 533.918 258.765 535.592 259.551 537.046L260.492 537.534L262.182 536.945C262.281 535.457 262.565 534.799 261.384 533.676C260.799 533.12 259.73 532.685 259.004 532.311ZM280.967 533.306C283.597 545.605 286.17 555.663 296.455 563.66L296.767 563.899C294.699 560.33 289.956 554.122 289.985 550.066C291.499 547.168 300.567 544.904 303.803 543.541L304.398 543.041C299.35 542.414 291.551 548.238 287.329 544.598C287.085 543.582 286.996 543.242 287.212 542.188L287.488 542.39L288.059 541.83C294.404 540.119 301.011 538.975 307.239 536.915C300.259 537.006 292.937 537.7 286.017 536.875C284.408 535.439 283.031 534.058 280.967 533.306ZM390.809 543.279C381.058 544.127 354.859 548.49 347.288 553.202L346.83 554.041C347.761 555.803 349.64 556.668 351.463 557.259C354.588 558.272 357.843 558.867 360.966 559.886C367.466 562.007 373.946 566.624 379.277 570.818C374.859 572.627 371.345 575.811 367.701 578.824L367.644 579.454C372.117 579.385 377.193 576.751 381.313 575.056C387.646 579.066 393.707 583.991 400.488 587.203C396.295 588.335 385.645 591.441 383.216 595.122L383.604 595.441C391.41 594.339 399.278 591.237 407.071 589.56L422.571 585.922C406.264 586.213 400.399 584.673 387.446 574.432C397.597 571.348 407.939 569.212 418.084 565.975C409.701 566.285 401.132 566.35 392.795 567.326C390.057 567.646 385.883 569.798 383.323 569.205C381.156 568.702 375.819 563.816 373.349 562.372C367.184 558.767 360.919 556.828 354.189 554.669C362.669 550.797 371.52 547.792 380.604 545.701C384.103 544.86 387.691 544.47 391.151 543.483L390.809 543.279ZM751.374 545.564C750.574 546.18 749.987 546.745 749.363 547.54L749.432 548.41C751.19 549.765 754.506 549.768 756.682 550.138C756.75 551.008 756.73 551.799 756.654 552.668C758.612 555.397 761.47 558.323 762.82 561.361C766.584 569.835 770.756 592.495 769.318 601.501C769.147 602.574 768.784 603.579 768.469 604.611C768.42 604.77 768.382 604.931 768.339 605.091L770.327 611.353L770.9 611.826C772.091 610.784 772.025 609.298 772.13 607.751C773.003 594.936 769.198 557.781 760.203 548.054C758.424 546.129 756.404 545.558 753.842 545.526C753.019 545.521 752.197 545.534 751.374 545.564ZM821.661 563.455L822.245 563.75L821.661 563.455ZM612.131 566.25L612.745 566.25L612.131 566.25ZM822.71 566.25L823.049 566.25L822.71 566.25ZM163.385 588.878C161.923 590.4 160.636 591.708 160.667 593.967C160.678 594.792 161.051 595.551 161.614 596.159C163.457 598.149 167.759 598.254 170.211 597.979C172.768 597.692 174.72 597.384 176.489 595.417L176.094 595.205L175.403 595.556C172.06 596.521 169.696 595.788 166.372 595.544C165.182 595.457 164.655 595.039 163.682 594.398L163.662 593.799C165.437 593.17 168.109 592.931 169.378 591.652C168.889 590.653 168.086 589.975 167.024 589.629C165.868 589.254 164.584 589.072 163.385 588.878ZM282.859 592.346L281.667 594.371L281.916 594.683C282.091 594.644 282.265 594.603 282.44 594.565C283.964 594.238 284.874 594.12 286.381 594.521C287.346 595.267 287.892 595.879 288.087 597.139C288.548 600.128 286.307 603.862 284.51 606.091C285.559 606.135 285.749 606.111 286.599 605.387C288.385 603.867 289.342 601.069 289.504 598.792C289.636 596.93 289.286 594.978 287.916 593.605C286.482 592.169 284.719 592.333 282.859 592.346ZM835.198 594.272C831.035 598.568 829.023 604.421 829.081 610.38C829.139 616.313 831.813 621.901 836.069 625.984C840.741 630.465 846.59 632.499 853.013 632.225C857.722 632.024 865.43 630.776 868.679 627.144C869.593 626.122 870.157 624.789 869.892 623.401C869.667 622.229 868.893 620.876 867.884 620.204C867.189 619.742 866.619 619.535 865.856 619.797L865.724 620.602L867.393 621.301L867.393 621.696L865.631 622.208L865.544 622.89L866.911 624.318L866.319 624.895C865.869 624.356 865.462 623.815 865.068 623.234C862.184 624.727 860.7 626.924 857.422 628.06C849.827 628.869 842.474 625.734 836.592 621.043C833.877 618.878 831.659 616.109 831.322 612.54C830.989 609.007 833.051 602.086 835.743 599.535C836.863 598.473 837.767 598.298 839.27 598.412C847.066 599.003 855.228 602.842 862.499 597.802L862.638 596.985C860.664 596.103 850.76 597.714 847.379 597.522C843.165 597.282 839.176 594.385 835.198 594.272ZM280.384 603.25L281.017 603.25L280.384 603.25ZM694.644 616.642C686.08 618.116 679.183 620.936 674.073 628.407C671.529 632.125 670.06 636.41 668.954 640.744C667.703 639.368 665.609 636.32 663.772 636.024L663.103 636.761C663.557 638.098 664.637 638.646 665.743 639.409L664.926 639.141L666.362 639.8C664.643 641.033 662.873 642.144 661.072 643.253C663.696 642.836 667.021 641.875 669.348 643.614C672.661 646.089 673.303 650.946 677.014 653.773C682.133 656.815 687.473 659.086 693.542 657.566C700.287 655.876 707.462 650.339 710.857 644.314C713.752 639.177 714.374 632.858 712.735 627.207C711.666 623.522 709.331 620.404 705.895 618.628C702.9 617.079 697.991 616.199 694.644 616.642ZM741.139 624.25L741.745 624.25L741.139 624.25ZM455.692 642.244C452.718 642.487 444.604 642.907 442.617 645.205C442.527 645.309 442.471 645.438 442.397 645.555C442.814 646.493 442.687 646.486 443.62 647.096C447.923 646.164 452.413 644.832 456.209 642.552L455.895 642.234L455.692 642.244ZM637.891 645.381C634.567 647.517 627.424 651.625 626.513 655.751C626.39 656.306 626.426 656.348 626.476 656.833L627.152 656.66C630.626 652.898 635.211 650.294 638.505 646.442C638.32 645.609 638.522 645.964 637.891 645.381ZM861.304 647.174C860.939 650.323 856.829 656.182 858.276 658.42L859.797 658.588C861.782 657.505 863.136 656.664 863.815 654.411C864.364 652.593 863.947 650.581 862.906 649.01C862.473 648.356 861.873 647.701 861.304 647.174Z"
     id="path2" />
  <path
     d="M461.809 341.71C452.743 343.794 443.889 343.028 435.465 338.994C428.695 335.752 422.756 330.755 420.326 323.416C418.86 318.992 418.544 313.794 420.767 309.566C423.143 305.047 427.241 302.902 431.927 301.546C442.083 300.702 454.03 306.083 462.502 311.229C468.92 315.127 472.841 319.698 474.668 327.059C474.331 328.509 473.948 329.926 473.389 331.309C471.134 336.894 467.105 339.472 461.809 341.71ZM441.082 314.267C440.209 316.277 440.045 317.913 440.9 319.995C441.24 320.824 441.536 320.788 442.274 321.178C443.422 320.68 443.611 320.321 444.381 319.308L446.022 317.012L445.811 316.478C443.324 316.145 442.804 316.123 441.082 314.267Z"
     id="path3" />
  <path
     d="M572 342.172C567.401 342.641 562.016 341.38 558.026 339.142C554.261 337.031 551.212 333.611 550.156 329.363C549.287 325.864 549.978 322.373 551.916 319.353C557.833 310.132 573.525 304.702 583.77 302.607C589.776 302.229 596.129 302.228 601.13 306.126C604.168 308.493 605.822 311.933 606.16 315.735C606.649 321.239 604.273 326.313 600.667 330.349C593.149 338.762 582.907 341.61 572 342.172ZM580.589 312.181C579.259 314.031 579.409 315.645 579.401 317.834L580.285 319.423C581.177 317.267 581.875 315.339 581.575 312.982L580.589 312.181ZM569.473 315.882C569.796 318.821 570.735 321.499 572.935 323.608C573.916 324.547 574.564 324.499 575.839 324.389C577.402 323.204 578.029 321.454 579.501 320.347L580.726 320.527C580.53 320.443 580.332 320.364 580.139 320.274C578.856 319.678 577.675 318.887 576.486 318.126C575.254 317.337 574.719 317.316 573.302 317.289C571.78 317.259 570.751 316.61 569.473 315.882Z"
     id="path4" />
  <path
     d="M482.895 393.124C481.791 390.553 481.16 388.067 480.306 385.439C480.053 387.311 480.832 389.755 481.13 391.661L480.439 391.781C479.896 391.274 479.417 390.813 479.151 390.097C477.091 384.574 478.687 376.03 481.052 370.824C486.654 358.703 496.797 349.271 509.292 344.563C513.287 344.217 517.093 344.223 520.896 345.675C531.015 349.538 544.945 368.572 548.937 378.36C550.403 381.955 551.481 389.209 549.912 392.85C549.867 392.61 549.788 392.375 549.776 392.131C549.459 385.617 548.639 381.678 545.118 376.091C544.936 382.017 545.109 387.995 545.143 393.925L531.89 397.817C532.396 387.26 532.828 374.13 530.981 363.789C529.802 357.186 526.982 354.236 521.759 350.515C522.659 365.642 523.592 380.977 523.134 396.125C523.076 397.594 523.187 398.311 522.415 399.586C518.273 401.845 512.264 401.043 507.657 401.002C507.271 384.096 507.459 367.155 507.507 350.245C506.268 350.651 504.071 351.154 503.103 352.035C498.76 355.99 498.486 391.811 498.472 399.008C493.1 397.095 487.914 395.955 482.895 393.124Z"
     id="path5" />
  <path
     d="M297.261 458.041C296.428 458.72 296.16 459.021 295.077 459.218C292.845 457.09 291.447 454.06 289.603 451.572C290.808 451.787 292.04 451.648 293.223 451.906C294.622 452.212 296.136 453.03 296.871 454.279C297.603 455.521 297.544 456.669 297.261 458.041Z"
     id="path6" />
  <path
     d="M281.032 454.665C282.828 454.296 283.503 454.002 285.274 454.591C286.763 456.321 287.303 458.519 288.83 460.188L289.452 459.812C288.703 457.568 286.222 455.502 286.04 453.285C287.024 452.632 287.001 452.633 288.173 452.77C289.817 454.313 291.297 457.506 291.232 459.794C291.217 460.344 291.141 460.444 290.963 460.89L289.332 461.601C288.977 462.661 288.778 464.042 287.93 464.771C285.866 464.165 281.272 458.63 280.299 456.532C280.071 456.04 280.107 455.607 280.186 455.102L281.032 454.665Z"
     id="path7" />
  <path
     d="M719.996 459.068L719.503 458.585L719.996 459.068Z"
     id="path8" />
  <path
     d="M296.5 464L297.018 463.516L296.5 464Z"
     id="path9" />
  <path
     d="M296.127 464.498L296.5 464L296.127 464.498Z"
     id="path10" />
  <path
     d="M767.221 494.402C766.636 495.039 766.202 495.505 765.473 495.984C762.792 491.393 759.939 486.547 758.172 481.525C759.352 476.687 760.761 471.969 762.936 467.475C767.645 469.506 772.062 471.52 777.139 472.435L779.897 472.741L780.327 473.31C777.398 477.633 769.87 483.62 769.853 488.943L771.436 487.87L772.236 488.149C772.867 490.297 772.363 491.001 771.28 492.967C770.176 494.971 768.826 497.833 766.622 498.676C766.195 497.172 766.787 495.843 767.221 494.402L767.375 494.002L767.221 494.402Z"
     id="path11" />
  <path
     d="M267.93 471.313L267.686 471.492L267.461 471.033L267.909 470.854L267.93 471.313Z"
     id="path12" />
  <path
     d="M251.05 488.399C250.066 485.118 249.1 481.782 248.953 478.346C251.071 479.457 252.923 481.033 255.121 481.986C258.29 483.361 261.835 483.982 264.856 485.657C264.73 487.32 263.544 488.528 262.582 489.818C262.231 490.306 262.024 490.62 261.605 491.082C260.705 492.073 259.616 492.616 258.261 492.573C255.271 492.478 253.077 490.362 251.05 488.399Z"
     id="path13" />
  <path
     d="M751.894 479.768L752.085 480.765L751.894 479.768Z"
     id="path14" />
  <path
     d="M752.085 480.765L752.414 480.998L752.085 480.765Z"
     id="path15" />
  <path
     d="M774.87 487.205C774.041 486.278 774.138 485.996 774.01 484.736C774.596 483.051 775.375 482.115 776.576 480.812C776.841 481.076 777.028 481.509 777.217 481.835C776.801 483.913 775.941 485.392 774.87 487.205Z"
     id="path16" />
  <path
     d="M271.202 485.59L271.002 485.078L271.202 485.59Z"
     id="path17" />
  <path
     d="M352.252 485.999L352.498 485.627L352.252 485.999Z"
     id="path18" />
  <path
     d="M226.526 570.75C223.625 574.477 220.779 577.827 216.561 580.151C213.976 581.574 210.749 582.598 207.839 581.606C205.217 580.712 203.491 578.393 202.346 575.978C195.466 561.455 204.832 550.096 211.767 538.197C217.049 529.134 222.852 519.813 226.366 509.916L226.835 510.539C227.852 517.048 229.019 533.423 226.76 539.279C225.196 543.333 220.165 545.634 216.384 547.081C213.974 546.55 211.128 545.586 208.669 545.777L208.187 546.619C208.785 547.942 210.239 548.849 211.478 549.522C214.789 551.32 219.524 550.967 223 549.759C227.749 548.108 230.041 544.597 232.197 540.358C232.545 542.66 232.853 544.969 233.121 547.282C234.142 556.775 232.581 563.267 226.526 570.75ZM213.108 558.271C213.05 558.433 212.991 558.594 212.935 558.757C212.318 560.567 212.154 561.504 212.988 563.313C213.092 563.537 213.212 563.752 213.324 563.972C213.84 562.834 214.15 561.672 214.479 560.472L214.096 561.535L214.804 560.072C215.786 560.929 216.363 561.923 216.45 563.248C216.54 564.606 216.087 565.511 215.145 566.47C213.39 568.257 211.267 568.6 208.886 568.631C209.04 569.479 208.824 569.21 209.296 569.582L209.403 569.901C210.256 570.602 210.175 570.447 211.228 570.359C214.155 570.117 216.097 568.574 217.875 566.296C219.116 564.705 219.62 563.471 219.363 561.407C218.606 560.031 217.523 559.147 216.021 558.65C215.269 558.402 214.434 558.366 213.649 558.312L213.108 558.271Z"
     id="path19" />
  <path
     d="M808 527.015L807.503 526.503L808 527.015Z"
     id="path20" />
  <path
     d="M808 527.015L808.283 527.606L808 527.015Z"
     id="path21" />
  <path
     d="M811.817 550.825L811.378 550.908C808.923 548.852 805.305 547.563 803.159 545.472C803.928 545.169 804.165 545.301 804.926 545.569C807.345 546.421 810.664 548.472 811.817 550.825Z"
     id="path22" />
  <path
     d="M350.906 554.293L350.28 554.376L350.228 553.126L350.723 553.104L350.906 554.293Z"
     id="path23" />
  <path
     d="M196.713 556.361L196.888 556.003L196.713 556.361Z"
     id="path24" />
  <path
     d="M838.496 569.629C837.666 571.174 837.185 573.207 835.737 574.284L836.206 573.656L835.574 573.66C835.753 573.083 835.827 572.792 836.042 572.263C838.013 567.41 841.397 564.486 846.128 562.565C848.084 562.313 852.219 561.879 853.91 562.904C853.397 564.124 845.893 565.087 844.183 565.781C841.896 566.708 840.255 567.919 838.496 569.629Z"
     id="path25" />
  <path
     d="M731.317 570.869L735.355 567.285C736.42 567.931 736.999 567.879 738.207 567.959L738.748 567.992C745.118 572.339 750.069 581.706 753.152 588.571C762.502 609.391 764.673 629.523 762.655 652.001C762.276 656.224 762.563 661.226 761.053 665.198C759.062 667.205 756.154 667.011 753.515 667.162L751.809 666.65C752.685 663.356 754.609 657.392 754.341 654.058C753.969 649.441 752.021 646.814 753.109 641.805L753.311 640.914C753.816 638.595 754.354 637.264 755.845 635.39C753.948 629.477 752.737 623.361 751.084 617.377C748.062 606.439 743.975 594.854 739.202 584.565C737.081 579.994 733.857 575.945 731.588 571.421L731.317 570.869Z"
     id="path26" />
  <path
     d="M715.033 582.222C718.71 579.151 722.549 576.284 726.362 573.385C726.733 573.476 726.843 573.489 727.256 573.698C734.398 577.313 738.605 589.213 741.267 596.243C739.274 594.04 737.3 591.819 735.346 589.581C728.928 584.368 722.997 583.236 715.033 582.222Z"
     id="path27" />
  <path
     d="M801.503 579.903L802.074 579.481L801.503 579.903Z"
     id="path28" />
  <path
     d="M796.223 582.685L796.497 582.113L796.223 582.685Z"
     id="path29" />
  <path
     d="M795.503 582.886L796.223 582.685L795.503 582.886Z"
     id="path30" />
  <path
     d="M191.622 660.033C187.488 658.83 184.85 654.959 182.881 651.31C179.421 644.892 180.628 637.792 182.667 631.14C185.927 620.506 192.334 615.684 192.435 603.374L192.696 596.9C193.824 598.322 195.233 599.894 195.908 601.589C199.946 611.719 199.888 631.818 198.627 642.848C197.876 649.418 195.683 654.787 191.622 660.033Z"
     id="path31" />
  <path
     d="M517.271 617.207C513.822 618.014 510.205 616.904 507.804 614.299C505.404 611.695 504.59 608 505.675 604.628C506.761 601.256 509.576 598.729 513.046 598.013C518.311 596.928 523.472 600.275 524.628 605.525C525.784 610.776 522.506 615.981 517.271 617.207Z"
     id="path32" />
  <path
     d="M700.567 651.279C699.723 651.562 698.865 651.852 697.992 652.033C694.857 652.684 691.249 651.505 688.696 649.692C684.748 646.889 682.487 642.443 681.822 637.72C681.185 633.2 681.54 627.858 684.499 624.159C686.52 621.632 688.84 621.48 691.872 621.185C694.689 620.935 697.749 620.865 700.523 621.503C704.229 622.357 707.514 624.488 709.439 627.815C711.585 631.524 711.845 636.224 710.586 640.271C708.953 645.525 705.263 648.763 700.567 651.279ZM695.981 628.988C693.663 629.988 692.012 631.132 690.989 633.526C690.334 635.058 689.985 637.107 690.639 638.701C691.162 639.975 691.983 640.944 693.25 641.536C694.435 642.09 695.714 641.968 696.97 641.882C699.481 640.5 701.531 639.111 702.261 636.174C702.61 634.769 702.467 633.517 701.772 632.226C700.708 630.25 698.513 629.472 696.461 629.075C696.301 629.045 696.141 629.017 695.981 628.988Z"
     id="path33" />
  <path
     d="M840.174 626.244C837.651 625.113 835.878 623.742 834.667 621.194C836.744 622.322 838.861 624.268 840.174 626.244Z"
     id="path34" />
  <path
     d="M345.246 662.772C341.08 664.284 337.292 664.728 333.039 663.279C326.869 661.176 321.226 655.022 318.57 649.15C316.246 644.011 316.273 637.899 318.308 632.668C319.98 628.372 322.808 625.433 326.968 623.555C329.053 623.385 331.288 623.265 333.343 623.701C341.613 625.458 349.277 632.2 353.569 639.293C355.786 642.956 357.309 647.305 356.121 651.586C354.602 657.055 349.876 660.122 345.246 662.772ZM331.944 635.434C329.27 637.425 328.041 638.994 327.474 642.338C326.637 647.273 328.035 652.829 331.172 656.753C332.127 657.948 333.249 658.882 334.811 659.134C335.672 659.273 336.137 659.146 336.895 658.8C336.961 658.24 337.185 657.86 336.775 657.401C336.21 656.769 336.231 656.909 335.355 656.502C332.756 655.296 331.19 652.636 330.292 650.007C329.37 647.311 329.066 644.133 330.396 641.514C331.065 640.197 331.989 639.236 333.471 638.888C334.034 638.757 334.37 638.733 334.923 638.67C335.083 638.759 335.244 638.847 335.403 638.938C337.576 640.179 339.235 641.586 339.95 644.077C340.408 645.669 340.529 647.16 340.286 648.789L339.625 649.488C338.517 649.043 338.391 648.895 337.664 647.937C337.643 645.959 338.062 644.934 336.715 643.419L335.505 643.132C334.51 643.804 333.98 644.132 333.739 645.43C333.553 646.432 334.001 648.44 334.683 649.282C335.623 650.44 336.123 650.465 337.504 650.726C339.419 650.221 340.61 649.543 341.6 647.761C342.576 646.029 342.765 643.962 342.12 642.082C341.186 639.38 338.494 637.536 335.998 636.405C334.741 635.836 333.305 635.584 331.944 635.434Z"
     id="path35" />
  <path
     d="M840.405 626.386C848.202 629.207 852.239 631.414 860.371 627.593C861.904 626.872 863.348 626.052 865.022 625.715L865.711 626.043C861.726 629.689 856.156 630.991 850.833 630.708C847.227 630.517 842.858 629.213 840.405 626.386Z"
     id="path36" />
  <path
     d="M840.174 626.244L840.405 626.386L840.174 626.244Z"
     id="path37" />
  <path
     d="M676.513 649.796C674.73 647.386 673.437 644.814 673.281 641.774C673.021 636.715 675.442 630.606 678.823 626.852L679.341 627.556C677.69 633.873 678.633 639.946 679.836 646.258C679.14 647.729 678.603 649.077 677.353 650.175L676.513 649.796Z"
     id="path38" />
  <path
     d="M696.718 638.631C695.633 638.867 694.506 638.49 693.782 637.648C693.058 636.806 692.853 635.635 693.248 634.597C693.643 633.559 694.575 632.821 695.676 632.675C697.285 632.46 698.777 633.554 699.057 635.153C699.337 636.752 698.305 638.287 696.718 638.631Z"
     id="path39" />
  <path
     d="M739.206 645.238C737.39 644.303 736.204 643.626 735.106 641.84C736.996 642.712 737.967 643.582 739.206 645.238Z"
     id="path40" />
  <path
     d="M739.206 645.238L739.639 645.552L739.206 645.238Z"
     id="path41" />
  <path
     d="M336.399 646.528L335.966 646.15L336.399 646.528Z"
     id="path42" />
  <path
     d="M739.639 645.552L740.386 645.997L739.639 645.552Z"
     id="path43" />
  <path
     d="M837.448 658.441C835.121 658.447 832.858 657.925 830.701 657.06C825.733 655.069 821.554 651.761 819.464 646.768C820.191 647.244 819.922 647.018 820.527 647.605C825.74 652.663 830.694 655.789 837.448 658.441Z"
     id="path44" />
  <path
     d="M695.214 654.532C692.593 655.807 689.294 655.85 686.463 655.387C684.081 654.997 682.684 654.034 681.305 652.103C681.065 650.203 681.565 649.425 682.264 647.67C683.145 648.067 683.975 648.693 684.792 649.214L684.888 649.952L682.995 651.507L683.202 651.869C687.537 652.019 690.996 653.834 695.214 654.532Z"
     id="path45" />
  <path
     d="M169.171 651.693L169.036 651.216L169.171 651.693Z"
     id="path46" />
  <path
     d="M860.197 655.75L859.812 655.472L860.197 655.75Z"
     id="path47" />
  <path
     d="M311.524 668.188C310.428 668.177 309.005 668.458 308.154 667.761L309.407 666.822C310.572 666.858 311.717 666.824 312.835 667.192L311.524 668.188Z"
     id="path48" />
  <path
     d="M152.196 679.701C150.932 679.49 149.897 679.066 148.83 678.364C144.652 675.617 142.366 672.668 141.349 667.749C143.272 669.195 143.213 671.418 144.568 673.317C146.196 675.6 149.991 677.779 152.196 679.701Z"
     id="path49" />
  <path
     d="M870.792 677.204C872.628 675.384 874.699 673.828 876.721 672.22C875.849 674.456 875.151 675.445 872.933 676.458C872.2 676.793 871.576 676.993 870.792 677.204Z"
     id="path50" />
  <path
     d="M533.502 696.148C533.407 688.639 533.37 681.129 533.391 673.619C551.25 674.158 573.456 670.676 587.617 683.793C604.645 699.565 608.586 729.078 609.429 751.17C610.445 777.828 608.072 820.661 589.065 840.924C581.601 848.881 573.883 849.5 563.695 849.889C563.883 860.197 564.017 870.507 564.098 880.817C564.151 885.246 563.719 890.39 564.521 894.711L565.66 895.138C567.98 895.697 570.12 896.558 572.325 897.448C572.993 907.42 572.669 917.541 572.544 927.529C560.523 928.03 548.438 927.865 536.409 927.753C534.42 917.653 532.063 908.282 532.814 897.94C535.213 897.032 537.659 896.548 540.161 896.017C540.362 882.508 540.06 868.956 540.012 855.444C540.053 823.374 539.806 791.306 539.274 759.241L539.205 726.189C539.195 718.818 539.587 710.671 538.24 703.431C537.689 700.469 535.41 698.34 533.502 696.148ZM562.665 703.143C561.583 715.28 562.524 728.087 562.538 740.308C562.431 765.035 562.577 789.763 562.975 814.487C568.441 813.423 572.209 811.722 576.123 807.601C579.299 802.931 581.041 798.064 582.142 792.537C585.152 777.433 584.361 743.69 581.369 728.146C579.786 719.926 576.742 709.837 569.322 705.055C567.162 703.663 565.189 703.412 562.665 703.143Z"
     id="path51" />
  <path
     d="M449.963 675.476C461.248 674.272 472.845 674.645 484.194 674.218C485.891 674.103 487.622 674.093 489.322 674.11C496.438 674.178 503.157 677.696 508.017 682.757C526.14 701.636 526.235 741.282 525.503 765.933C524.96 784.263 522.632 808.459 508.609 821.703C514.127 841.708 517.259 862.095 521.115 882.457C524.013 897.764 527.703 912.92 529.841 928.366L505.228 927.99C502.867 910.122 499.683 892.26 496.881 874.449C494.867 861.645 493.567 848.197 490.138 835.691C489.88 835.147 489.685 834.673 489.307 834.183C488.073 832.581 484.844 831.049 482.818 831.261C481.673 831.381 480.695 831.905 480.095 832.901C479.309 834.205 479.726 888.401 480.346 893.484C481.102 899.673 485.091 896.146 488.547 898.873C490.718 904.28 489.63 921.254 489.636 928.096C476.214 927.93 462.765 928.188 449.341 928.272L449.264 899.709C451.762 898.539 454.283 897.751 456.917 896.955C457.352 886.192 457.039 875.3 457.073 864.521L457.121 804.432L456.633 749.403C456.562 739.593 456.827 729.738 456.426 719.936C456.121 712.481 456.222 703.659 450.372 698.298C449.841 690.724 449.996 683.068 449.963 675.476ZM479.955 700.376C479.573 713.745 479.812 727.168 479.815 740.543C479.692 760.743 479.761 780.944 480.023 801.142C486.173 800.43 491.736 799.987 496.077 795.023C504.91 781.533 503.546 735.807 500.144 719.617C498.884 713.621 496.617 706.921 491.19 703.486C487.931 701.423 483.778 700.512 479.955 700.376Z"
     id="path52" />
  <path
     d="M374.68 679.046C391.413 677.963 408.154 677.02 424.902 676.217C429.216 675.811 433.657 675.861 437.992 675.711C439.557 682.002 441.263 688.449 442.249 694.856C443.316 701.797 445.722 735.274 444.489 741.088L443.542 741.391C434.742 740.193 432.785 720.281 425.279 712.073C419.726 705.999 413.337 703.83 405.347 703.425L405.517 779.38C409.426 779.82 413.866 780.733 417.704 779.694C424.049 777.976 425.975 771.396 429.02 766.424C429.7 765.313 430.418 764.371 431.736 764.042C432.248 765.643 431.855 826.64 431.607 832.635C431.551 834 431.47 835.552 430.928 836.826C430.558 837.696 430.784 837.404 429.837 837.75C425.013 834.742 422.271 823.533 416.996 818.934C414.137 816.442 411.024 815.276 407.249 815.54C406.112 816.204 405.724 816.252 405.479 817.653C404.882 821.065 405.619 835.311 405.654 839.598C405.787 856.172 405.201 873.036 405.977 889.563C406.058 891.28 406.016 894.218 407.057 895.575C408.736 897.763 417.913 897.456 420.624 897.537C420.873 897.497 421.126 897.475 421.372 897.417C431.901 894.917 432.995 871.768 438.206 865.627C439.083 864.594 439.301 864.592 440.563 864.455L441.425 865.27C444.581 873.229 443.476 916.502 443.516 928.354C422.094 928.241 400.673 927.975 379.254 927.556C379.07 918.359 378.518 908.863 379.419 899.699L383.379 896.699C384.618 888.095 384.287 879.069 384.352 870.383L384.458 828.232L384.358 743.589C384.294 734.573 384.663 725.489 384.387 716.487C384.305 713.804 384.03 710.89 383.109 708.364C381.616 704.269 378.727 701.989 374.89 700.25C374.765 693.183 374.695 686.115 374.68 679.046Z"
     id="path53" />
  <path
     d="M170.474 681.247L170.05 680.336C171.725 679.043 173.427 677.787 175.156 676.567L175.325 677.343C173.87 678.933 172.237 680.035 170.474 681.247Z"
     id="path54" />
  <path
     d="M611.286 696.339C610.85 689.777 611.138 682.996 611.431 676.428C622.922 676.456 635.191 677.197 646.6 678.52C647.496 685.884 647.261 693.742 647.535 701.168C647.186 701.28 646.84 701.4 646.491 701.51C644.911 702.005 643.202 702.413 642.073 703.734C640.35 705.751 640.179 708.835 640.033 711.386C638.998 729.425 640.295 748.802 640.198 767.021L639.505 895.54C640.031 895.588 640.557 895.63 641.083 895.665C646.581 896.008 654.319 896.977 658.697 892.84C664.743 887.128 663.551 870.869 663.655 863.023C666.808 862.932 669.96 863.049 673.112 863.131C673.947 873.501 673.412 884.218 673.391 894.625L672.923 928.479L610.934 928.471C610.948 918.62 610.679 908.669 611.325 898.838L616.263 896.851C617.047 887.654 616.506 878.045 616.559 868.803L616.641 805.806C616.785 783.387 616.804 760.968 616.696 738.549C616.63 727.901 617.39 716.323 615.942 705.79C615.396 701.828 613.66 699.41 611.286 696.339Z"
     id="path55" />
  <path
     d="M870.559 677.389L870.792 677.204L870.559 677.389Z"
     id="path56" />
  <path
     d="M852.035 679.359L851.503 679.027L852.035 679.359Z"
     id="path57" />
  <path
     d="M761.154 714.417L761.295 715.289C760.233 717.484 755.604 715.555 754.301 719.6C752.394 725.521 753.458 743.413 753.34 750.585C752.775 778.314 752.38 806.046 752.153 833.78C752.002 855.289 753.384 878.043 749.597 899.266C747.928 908.616 744.696 919.579 737.805 926.493C732.924 931.39 726.412 933.595 719.585 933.601C712.028 933.608 705.28 931.083 699.972 925.621C693.767 919.236 689.952 910.595 688.02 902C681.902 874.784 683.804 845.233 683.756 817.482C683.67 784.951 683.398 752.422 682.942 719.894C682.865 716.355 683.24 710.745 682.085 707.447C681.189 704.892 679.357 702.532 678.832 699.866C677.652 693.871 678.409 686.865 678.48 680.76C690.165 681.764 701.83 682.994 713.468 684.451C713.529 688.556 714.708 706.056 712.538 708.862C711.754 709.15 710.692 709.437 710.008 709.903C708.939 710.631 708.452 711.635 708.31 712.895C707.54 719.761 708.356 732.361 708.247 739.836C707.771 763.016 707.499 786.2 707.432 809.385C707.388 822.744 707.231 836.102 706.96 849.459C706.811 856.86 706.088 864.565 706.737 871.934C707.399 879.451 708.926 887.035 713.396 893.3C714.606 894.997 716.124 896.333 718.265 896.628C720.536 896.941 722.864 895.633 724.593 894.29C729.652 890.36 731.561 882.52 732.434 876.455C734.311 863.404 733.506 849.486 733.507 836.309L733.418 769.707L733.476 734.938C733.5 728.357 734.03 721.23 733.137 714.711C732.708 711.573 731.291 709.592 729.463 707.132C729.253 700.283 729.499 693.389 729.596 686.537C740.053 687.838 750.466 689.465 760.82 691.418L761.154 714.417Z"
     id="path58" />
  <path
     d="M295.986 687.65C307.228 685.416 324.131 683.103 335.641 682.21C341.347 682.101 346.633 682.766 351.429 686.17C360.917 692.904 366.014 707.48 367.778 718.494C369.095 726.717 369.067 734.965 369.047 743.262C368.995 765.237 367.761 780.375 354.478 798.908C360.989 805.019 366.052 815.75 367.987 824.422C371.845 841.713 370.737 879.255 366.588 896.915C365.11 903.205 362.776 909.547 359.228 914.976C354.543 922.145 348.579 926.674 340.066 928.402C326.336 929.725 312.317 929.322 298.532 929.395C298.549 918.955 298.49 908.515 298.356 898.075L303.85 897.018C304.51 884.85 303.819 872.413 303.707 860.215L303.506 799.141L303.472 744.734C303.466 733.919 304.424 722.061 302.308 711.441C300.567 709.786 298.944 708.043 297.316 706.279C296.111 700.246 296.245 693.789 295.986 687.65ZM325.58 709.515L325.632 757.065C325.643 766.4 325.36 775.867 325.943 785.186C332.081 785.006 336.135 784.376 340.722 779.883C342.635 777.619 344.028 775.677 345.014 772.829C347.717 765.016 347.18 745.7 346.464 737.056C345.809 729.152 343.139 717.08 336.809 711.719C335.817 710.879 334.754 710.218 333.636 709.562C330.954 709.537 328.262 709.461 325.58 709.515ZM325.846 818.5C325.725 832.69 326.024 846.91 326.056 861.104C326.083 873.036 325.801 885.051 326.12 896.972C331.008 897.351 336.802 898.585 340.795 895.007C341.532 894.346 342.163 893.596 342.801 892.841C344.721 889.479 346.124 886.289 346.85 882.458C348.511 873.696 348.419 842.315 346.085 833.942C344.61 828.65 341.611 823.536 336.754 820.707C333.104 818.582 329.933 818.251 325.846 818.5Z"
     id="path59" />
  <path
     d="M653.055 709.981C654.367 701.602 653.56 692.18 653.498 683.668C653.662 683.767 653.841 683.845 653.991 683.964C654.853 684.652 655.192 685.209 655.424 686.279C656.875 692.953 654.983 707.148 655.387 714.969L655.432 715.791C652.817 716.035 650.208 716.471 647.607 716.84C646.666 731.26 646.896 745.864 646.774 760.317L646.63 847.837C646.587 861.171 647.156 874.85 646.234 888.136L645.818 888.054C645.321 887.14 645.354 887.44 645.28 886.494C644.682 878.861 645.275 870.831 645.251 863.151L645.232 812.704L645.408 755.136C645.439 742.633 645.17 730.016 645.903 717.534C646.048 715.067 646.017 712.101 647.667 710.138C649.224 709.307 651.341 709.804 653.055 709.981Z"
     id="path60" />
  <path
     d="M257.3 693.677C268.28 691.858 279.226 689.729 290.247 688.185C290.828 688.056 291.418 688.115 292.011 688.123C292.411 688.938 292.456 688.78 292.493 689.492C292.631 692.141 293.015 707.856 291.373 709.216C289.753 710.559 287.715 710.513 286.096 712.321C283.201 719.591 281.805 731.617 280.215 739.64C277.48 753.053 274.605 766.436 271.588 779.788C269.165 790.798 266.64 801.786 264.012 812.749C262.576 818.706 260.579 824.784 259.746 830.851C258.903 836.993 258.803 892.021 260.389 894.873C261.475 896.826 264.539 897.245 266.512 897.753C266.642 908.002 267.065 918.345 266.606 928.585C254.529 928.34 242.425 928.516 230.344 928.544C230.503 919.03 230.251 909.536 230.004 900.025C232.506 898.901 234.779 897.611 237.114 896.184C237.085 883.188 236.98 870.193 236.8 857.199C236.7 850.049 236.957 842.659 236.064 835.556C235.215 828.808 233.337 821.962 231.839 815.322L222.909 776.287C221.461 768.85 219.289 761.439 217.559 754.05C215.134 743.693 213.1 732.999 209.704 722.921C208.618 722.099 207.413 721.267 206.503 720.249C203.013 716.351 204.686 708.039 205.038 703.253C217.54 701.053 229.868 698.041 242.365 695.831C242.346 702.298 242.342 708.749 241.978 715.208C240.59 717.098 239.072 718.903 237.605 720.732C238.222 724.506 239.298 728.255 240.081 732.003C243.511 748.404 247.833 765.119 250.095 781.698C250.96 774.788 253.23 768.582 252.37 761.495C251.406 753.549 244.301 733.046 246.577 726.756C247.029 725.507 247.176 724.828 248.454 724.252L249.681 725.301C251.73 720.553 250.112 714.256 251.368 709.131C252.022 715.086 252.822 725.659 249.088 730.693C248.984 730.834 248.872 730.968 248.763 731.105C248.562 740.529 252.022 750.785 253.523 760.137C256.631 751.511 260.72 725.182 260.498 716.016L257.3 711.237C257.365 705.384 257.365 699.53 257.3 693.677Z"
     id="path61" />
  <path
     d="M773.216 895.088L770.963 728.47C770.847 721.346 769.423 714.609 768.778 707.56C768.303 702.356 768.493 697.006 768.5 691.78C778.384 694.676 789.261 696.15 799.392 698.358C800.464 709.197 802.311 720.071 803.78 730.869L809.302 774.608C811.22 789.804 812.318 809.344 815.429 823.781C816.224 818.019 817.133 812.143 817.131 806.318C817.129 795.385 815.192 783.904 813.794 773.05C812.162 760.125 810.643 747.187 809.236 734.236C808.503 727.537 806.531 718.227 806.864 711.741C809.565 716.041 815.596 789.919 818.241 803.564L818.373 804.227L834.129 704.645C844.004 706.069 853.722 708.392 863.591 709.865C863.841 715.949 864.415 722.345 863.683 728.398C863.227 732.179 861.929 735.874 861.171 739.605C860.31 743.844 860.253 748.237 860.132 752.545C858.985 800.795 858.207 849.052 857.797 897.313L864.194 897.556C863.992 908.022 864.086 918.518 864.041 928.988C850.662 928.922 837.283 929.056 823.908 929.39C824.909 916.703 826.279 904.126 827.519 891.472C828.346 883.032 828.559 873.93 830.85 865.769C831.001 870.452 828.845 891.924 829.985 894.405C830.484 895.466 831.462 896.223 832.614 896.44C833.788 896.662 834.309 896.396 835.225 895.8C837.498 890.089 836.63 877.298 836.953 870.625C838.209 848.165 838.02 825.549 838.511 803.059C838.84 788.042 840.336 772.706 839.176 757.719C833.286 804.18 826.42 850.512 818.582 896.684C817.488 902.585 816.524 908.51 815.69 914.453C814.866 920.477 814.405 926.755 812.754 932.605C810.109 921.186 809.17 903.936 807.695 891.681L796.955 803.227C795.039 788.018 793.779 772.3 790.631 757.296C790.09 769.36 790.506 781.615 790.473 793.701C790.266 814.699 790.194 835.697 790.256 856.695C790.27 865.586 788.874 887.241 790.711 894.823C792.564 897.109 794.931 897.347 797.667 897.902C798.184 908.08 797.992 918.348 798.278 928.543C787.797 929.114 777.204 929.194 766.709 929.236C766.537 919.135 766.466 909.032 766.496 898.93C768.623 897.481 770.958 896.319 773.216 895.088Z"
     id="path62" />
  <path
     d="M525.452 705.235L525.12 705.003L525.452 705.235Z"
     id="path63" />
  <path
     d="M525.452 705.235C528.029 710.949 528.937 717.657 529.919 723.826C534.346 751.627 534.283 784.445 524.311 811.019C522.273 816.451 519.608 821.412 516.331 826.187C521.379 841.814 523.888 857.718 526.782 873.835C527.801 879.511 529.532 885.743 529.574 891.474L528.687 891.127C526.668 885.43 526.039 878.575 524.945 872.608C522.076 856.962 519.833 840.962 515.34 825.686C532.564 801.592 533.614 754.457 528.806 725.699C527.726 719.24 525.459 711.704 525.452 705.235Z"
     id="path64" />
  <path
     d="M155.46 716.309C166.555 713.451 177.591 710.366 188.559 707.055L189.62 707.109C191.372 710.243 190.153 718.466 189.997 722.198C187.371 725.429 185.339 728.227 184.687 732.472C183.661 739.15 184.101 746.427 184.081 753.178L183.998 786.696L183.644 898.563C189.724 898.519 197.53 899.651 203.258 897.642C206.218 894.774 210.446 871.45 211.938 865.879C215.788 865.3 219.734 865.045 223.611 864.655C224.06 871.426 223.59 878.477 223.537 885.272C223.478 898.891 223.308 912.509 223.029 926.125C223.016 927.358 223.163 927.517 222.472 928.606C215.281 929.38 207.533 928.806 200.273 928.856C185.549 928.957 170.787 929.342 156.081 928.451L155.63 899.055C157.455 899.141 159.038 899.267 160.801 898.727C161.037 898.398 161.386 898.126 161.51 897.74C162.153 895.751 161.496 864.728 161.493 860.09C161.632 833.954 161.595 807.818 161.383 781.684C161.367 769.508 161.819 757.233 161.409 745.069C161.175 738.155 160.654 734.077 155.461 729.185L155.46 716.309Z"
     id="path65" />
  <path
     d="M449.897 745.942L449.569 707.309C452.845 714.666 451.074 740.287 450.865 749.494C446.669 749.594 442.473 749.65 438.276 749.661L437.929 747.187L438.417 746.544C442.029 745.79 446.159 746.199 449.897 745.942Z"
     id="path66" />
  <path
     d="M487.995 790.125C488.02 791.784 488.004 792.835 486.922 794.172L486.178 793.157L486.289 793.658C485.411 787.714 485.855 781.349 485.864 775.338L485.871 744.313C485.863 734.021 484.812 720.488 485.779 710.705C486.939 711.334 487.858 712.284 488.672 713.313C490.126 715.152 491.999 717.657 491.781 720.096C490.527 719.724 489.413 719.254 488.099 719.581C486.901 723.528 487.909 734.054 487.918 738.725L487.995 790.125Z"
     id="path67" />
  <path
     d="M871.172 897.238L871.576 897.221L872.248 897.183C873.713 897.111 875.148 897.288 876.334 896.296C877.557 888.491 876.999 879.811 877.053 871.914L877.193 824.312L877.609 769.359C877.671 760.868 878.103 752.228 877.746 743.75C877.474 737.298 874.99 731.364 873.864 725.06C873.1 720.776 873.414 716.203 873.494 711.864C892.171 717.111 910.882 721.729 929.473 727.376C929.4 732.605 929.78 767.541 928.754 769.622C927.202 768.564 925.846 768.397 924.127 767.808C917.293 765.467 918.081 756.615 915.248 751.279C912.605 746.301 904.761 745.021 899.767 743.659C899.134 749.971 899.336 756.532 899.296 762.881C899.235 775.046 899.306 787.211 899.511 799.375C903.357 799.617 910.697 801.802 913.957 800.273C916.657 797.545 916.53 791.286 916.938 787.533C920.802 788.124 924.659 788.756 928.508 789.432C928.641 812.461 927.942 835.558 927.926 858.605C925.075 858.056 922.134 858.148 919.238 858.023C915.476 854.025 915.722 843.489 912.764 838.24C909.896 835.932 903.649 835.847 900 835.381C900.018 844.38 899.917 853.379 899.697 862.375C899.499 868.256 898.136 890.878 900.5 895.186C901.032 896.155 902.43 896.557 903.417 896.811C906.866 897.701 912.312 898.846 915.436 896.751C919.233 894.204 919.552 886.245 920.283 882.01C923.689 882.242 927.061 882.738 930.441 883.199C930.298 898.653 930.659 914.11 930.252 929.563C910.68 929.44 891.108 929.431 871.537 929.536C871.25 918.782 871.287 907.996 871.172 897.238Z"
     id="path68" />
  <path
     d="M424.808 723.131C422.31 721.334 418.588 718.059 415.315 718.312C414.737 718.357 414.31 718.556 413.79 718.756L413.671 719.297L413.165 719.37L413.92 719.681C413.995 721.066 414.055 719.772 413.524 721.206C412.971 722.7 413.417 726.241 413.418 728.006C413.426 736.172 414.669 765.909 413.207 771.641L411.909 772.324C411.5 771.041 411.439 770.193 411.482 768.875L411.423 732.963C411.409 727.725 410.869 722.065 411.405 716.884C411.54 715.579 411.637 715.317 412.507 714.412C413.776 714.006 414.748 714.245 415.917 714.817C419.436 716.538 422.725 719.826 424.808 723.131Z"
     id="path69" />
  <path
     d="M571.377 798.346C571.356 799.779 571.364 801.151 570.896 802.523C570.53 803.595 570.844 803.284 570.013 803.68C569.126 802.444 569.045 800.712 568.966 799.233C568.677 793.815 569.129 788.179 569.15 782.74L569.087 746.98C569.093 740.931 569.045 734.881 568.943 728.833C568.835 724.663 568.247 720.406 568.717 716.255C572.292 718.761 573.759 722.838 575.404 726.699L571.054 723.054C571.544 748.148 571.651 773.248 571.377 798.346Z"
     id="path70" />
  <path
     d="M715.133 881.898C715.362 882.736 715.348 883.44 715.36 884.303L714.992 884.241C714.734 883.692 714.486 883.141 714.275 882.571C713.283 879.884 712.962 876.763 712.88 873.911C712.03 844.537 713.284 814.848 713.422 785.45L713.535 742.506C713.524 735.198 713.081 727.619 713.524 720.337C713.596 719.159 713.919 718.297 714.406 717.238C715.347 717.274 716.235 717.392 717.111 717.77C718.315 718.289 718.813 718.828 719.257 720.015C718.993 720.762 718.781 721.075 718.116 721.521C717.316 722.058 716.232 722.544 715.693 723.374C715.016 724.417 714.882 726.139 714.854 727.336C714.61 738.09 714.953 748.932 714.973 759.694C715.002 778.404 714.908 797.115 714.69 815.824L714.418 857.105C714.384 865.144 713.611 874.024 715.133 881.898Z"
     id="path71" />
  <path
     d="M152.262 890.29C150.476 901.562 147.558 911.746 141.327 921.437C137.175 927.894 131.638 933.874 123.776 935.424C118.552 936.453 113.429 934.999 109.115 931.989C94.0218 921.458 88.253 897.834 85.4026 880.738C83.0431 866.587 82.697 852.029 82.5364 837.712C82.1957 807.337 83.4332 758.234 101.948 732.715C107.409 725.188 114.253 719.603 123.62 718.142C125.79 717.906 128.06 717.752 130.245 717.884C136.552 718.265 141.902 721.28 146.065 725.946C151.433 731.964 154.539 739.195 153.962 747.381C153.195 758.239 148.58 765.964 140.511 773.014C140.133 771.608 139.733 770.209 139.311 768.815C137.292 762.107 133.723 749.878 126.934 746.53C125.101 745.627 122.999 745.393 121.056 746.083C117.62 747.302 115.557 750.771 114.217 753.951C105.307 775.111 104.153 868.796 112.912 889.683C114.322 893.044 116.648 897.142 120.287 898.464C122.053 899.105 123.86 898.89 125.485 897.971C132.742 893.868 137.206 880.469 139.374 873C142.241 875.808 144.438 879.296 146.728 882.578C148.689 885.078 150.48 887.662 152.262 890.29Z"
     id="path72" />
  <path
     d="M364.653 802.723C364.142 802.014 363.856 801.486 363.508 800.701C363.585 799.76 363.695 799.2 364.181 798.37C374.122 781.39 374.647 762.38 374.747 743.302C374.789 735.16 374.847 726.93 373.966 718.827C374.076 718.931 374.202 719.021 374.296 719.14C376.964 722.53 376.103 755.314 375.899 761.474C375.537 772.405 373.01 794.873 364.653 802.723Z"
     id="path73" />
  <path
     d="M333.888 777.298C333.816 778.202 333.627 779.04 333.42 779.922L332.752 780.264C330.868 775.82 331.931 728.858 331.917 720.097C333.415 720.723 334.802 721.259 335.787 722.62C336.426 723.504 336.491 724.461 336.375 725.5C335.5 725.444 334.785 725.446 333.924 725.613C332.776 728.367 333.872 770.276 333.888 777.298Z"
     id="path74" />
  <path
     d="M268.054 889.412L267.644 889.804L266.883 889.767C265.578 885.876 266.548 877.434 266.553 872.943C266.565 861.228 265.584 848.832 266.788 837.208C267.365 831.642 268.831 826.001 269.963 820.522C272.215 809.565 274.585 798.632 277.073 787.725C281.999 765.775 286.348 743.639 291.523 721.754L292.849 723.082C293.312 724.413 293.295 725.42 293.043 726.81C292.633 729.069 291.789 731.24 291.269 733.476L286.141 756.125C282.73 770.806 279.679 785.599 276.5 800.333C273.85 812.613 270.922 825.03 268.95 837.436C267.814 844.587 268.368 851.938 268.368 859.156C268.377 869.242 268.272 879.328 268.054 889.412Z"
     id="path75" />
  <path
     d="M424.808 723.131L424.998 723.405L424.808 723.131Z"
     id="path76" />
  <path
     d="M709.26 936.881C718.537 940.076 726.725 941.877 736.058 937.135C745.129 932.525 750.04 923.24 752.935 913.882C759.926 891.288 757.502 865.111 757.817 841.662C758.318 815.67 758.561 789.674 758.546 763.677L758.544 742.56C758.539 738.656 758.237 734.591 758.691 730.714C758.957 728.448 759.665 725.207 761.848 724.031C762.622 723.614 763.078 723.856 763.901 723.976C764.706 724.826 765.105 725.225 765.069 726.507C765.055 726.997 764.845 727.939 764.599 728.39C763.772 728.5 762.066 728.467 761.499 729.078C760.249 730.426 760.077 733.373 759.98 735.132C759.741 739.447 760.267 743.954 760.32 748.289C760.426 756.854 760.368 765.427 760.349 773.993L759.541 847.706C759.48 869.865 761.287 906.835 753.429 927.11C749.679 936.788 743.725 944.315 732.76 945.727C725.333 946.683 717.962 944.283 712.189 939.597C711.155 938.758 710.14 937.882 709.26 936.881Z"
     id="path77" />
  <path
     d="M191.239 889.384C191.018 888.961 190.893 888.773 190.754 888.341C190.602 887.868 189.908 744.045 190.765 738.669C191.316 735.207 195.181 732.793 196.783 729.508L197.107 728.832C197.182 729.11 197.3 729.38 197.331 729.667C197.775 733.764 195.142 738.526 192.741 741.606L192.521 837.021L192.464 868.695C192.458 874.423 192.722 880.318 192.343 886.022C192.247 887.468 192.089 888.214 191.239 889.384Z"
     id="path78" />
  <path
     d="M864.715 888.822C864.284 888.003 864.059 887.37 864.015 886.439C863.583 877.128 864.052 867.59 864.129 858.258C864.226 841.279 864.411 824.299 864.685 807.322C865.055 787.369 864.371 766.984 866.006 747.124C866.499 741.132 868.932 735.222 870.249 729.336C872.131 736.722 868.721 743.181 868.177 750.349C867.6 757.953 867.735 765.777 867.638 773.406L866.711 860.053C866.642 866.407 867.592 883.63 866.185 888.219L864.715 888.822Z"
     id="path79" />
  <path
     d="M934.17 779.077C935.54 766.681 934.941 750.057 934.724 737.309C935.443 737.756 936.289 738.008 936.591 738.843C937.377 741.013 937.402 779.677 936.58 781.499L935.566 781.192L934.006 778.963L934.17 779.077Z"
     id="path80" />
  <path
     d="M907.898 787.625L907.769 789.516C906.857 790.226 906.941 790.335 905.711 790.438C903.959 788.165 905.417 759.201 905.457 753.806C907.547 754.025 909.747 754.543 911.296 756.033L911.308 756.858L908.584 757.546C906.818 760.029 907.855 783.082 907.898 787.625Z"
     id="path81" />
  <path
     d="M117.351 883.296C117.061 882.641 117.024 882.601 116.786 881.798C112.08 865.866 113.995 798.97 116.21 780.724C117.238 772.26 118.543 762.329 122.761 754.781L123.585 755.405C124.02 756.331 124.046 756.98 123.917 757.972C123.52 761.018 122.316 763.998 121.689 767.019C120.318 773.721 119.224 780.477 118.409 787.269C116.03 807.698 116.261 828.374 116.554 848.909C116.637 854.703 118.19 880.073 117.351 883.296Z"
     id="path82" />
  <path
     d="M439.381 839.209C438.274 839.087 438.828 839.237 437.733 838.707C438.039 823.797 438.226 808.885 438.294 793.971C438.322 785.726 438.035 777.376 438.606 769.149L439.953 769.806C441.043 772.591 440.582 834.637 439.381 839.209Z"
     id="path83" />
  <path
     d="M142.757 782.76C147.776 780.432 150.965 777.676 154.421 773.444C154.711 773.84 154.832 773.942 154.968 774.485C155.626 777.104 155.138 782.649 153.683 784.98C151.796 788.004 147.531 788.561 144.339 789.337C143.897 787.133 143.291 784.944 142.757 782.76Z"
     id="path84" />
  <path
     d="M932.277 868.13L930.957 867.236C930.602 866.198 930.607 866.257 931.05 865.252C931.939 865.006 932.411 864.857 933.193 864.335C934.302 856.211 933.519 847.062 933.562 838.821C933.681 823.916 933.893 809.013 934.196 794.111L935.48 794.777C936.871 797.776 935.986 859.793 935.459 866.923C934.661 867.992 933.55 867.878 932.277 868.13Z"
     id="path85" />
  <path
     d="M570.12 857.77C575.481 856.22 580.279 856.511 585.267 853.484C599.039 845.127 604.991 829.752 608.696 814.868C608.774 815.352 608.81 815.463 608.795 816.023C608.434 829.166 600.879 847.47 591.188 856.457C585.551 861.686 579.629 863.658 572.03 863.344C571.983 867.129 572.972 885.913 571.245 887.695C568.877 883.318 570.09 864.058 570.12 857.77Z"
     id="path86" />
  <path
     d="M298.575 936.242C311.515 936.3 330.602 937.525 343.011 935.503C352.122 934.018 358.65 928.51 363.791 921.186C367.183 916.43 369.797 911.166 371.534 905.589C378.344 883.604 377.348 844.682 373.397 821.82C377.817 828.497 377.704 847.005 377.901 855.321C378.151 865.853 378.569 876.958 377.205 887.423C376.555 892.405 375.299 897.318 374.456 902.272C372.38 914.47 371.738 924.732 362.624 934.139C351.809 945.301 338.81 944.118 324.526 944.113C316.077 944.068 307.628 944.135 299.18 944.316C298.056 942.879 298.57 938.114 298.575 936.242Z"
     id="path87" />
  <path
     d="M413.938 886.625C413.968 887.901 413.792 888.888 413.515 890.12L412.904 890.152C412.096 888.522 411.928 886.506 411.859 884.698C411.662 879.559 411.985 874.264 411.993 869.103C412.099 854.751 412.041 840.399 411.819 826.049C413.812 827.008 415.594 827.795 417.193 829.372C417.638 830.615 417.692 830.748 417.38 832.021C416.686 832.195 416.063 832.309 415.346 832.376C415.112 832.397 414.877 832.413 414.643 832.431C413.215 834.976 413.97 880.55 413.938 886.625Z"
     id="path88" />
  <path
     d="M334.345 883.794C334.29 886.336 334.19 888.435 333.298 890.864L332.852 890.911L333.456 890.355L333.26 890.845C331.415 888.067 332.364 836.704 332.67 828.283C333.54 828.741 334.395 829.228 335.233 829.743C337.357 831.06 339.381 833.423 339.959 835.88L339.436 836.505C337.479 836.163 336.076 834.953 334.506 833.818C334.113 850.449 334.429 867.154 334.345 883.794Z"
     id="path89" />
  <path
     d="M493.755 895.89L492.41 895.082C492.159 894.606 491.917 894.125 491.645 893.66C490.48 891.667 489.525 891.649 487.476 891.073C485.771 888.847 485.64 845.734 485.528 839.749C486.462 840.557 486.461 840.805 486.721 841.973C487.925 847.392 488.206 853.326 488.893 858.857C490.336 871.224 491.956 883.57 493.755 895.89Z"
     id="path90" />
  <path
     d="M802.026 901.25C800.393 895.912 799.211 891.716 795.58 887.33C795.611 872.188 795.042 856.824 795.909 841.712C797.839 844.696 798.235 875.026 798.897 881.229C799.614 887.954 801.769 894.494 802.026 901.25Z"
     id="path91" />
  <path
     d="M907.898 885.625C907.723 887.232 907.836 887.359 906.699 888.471L905.944 888.291C903.928 884.814 905.39 850.721 905.525 844.327C906.91 844.462 908.717 844.562 910.013 845.026C911.321 845.494 911.428 845.832 911.92 846.999L911.514 847.624C910.468 847.851 909.598 848.058 908.648 848.558C906.922 854.39 907.892 878.108 907.898 885.625Z"
     id="path92" />
  <path
     d="M450.769 892.576L449.817 891.627C448.571 885.794 448.228 875.62 449.548 869.721L450.292 870.272C452.042 873.37 451.151 888.519 450.769 892.576Z"
     id="path93" />
  <path
     d="M679.612 935.547L679.679 898.515C679.705 891.123 679.491 883.629 679.961 876.253C682.96 881.842 681.944 934.016 681.928 943.03C658.081 943.409 634.232 943.586 610.383 943.563L609.359 943.158C608.63 940.878 608.988 938.158 609.043 935.781C632.493 935.036 656.141 935.574 679.612 935.547Z"
     id="path94" />
  <path
     d="M231.743 892.126C230.943 887.82 230.79 883.07 231.347 878.729C232.988 881.985 231.982 888.509 231.743 892.126Z"
     id="path95" />
  <path
     d="M935.571 936.701C935.802 926.454 935.914 916.204 935.906 905.954C935.942 900.523 935.38 894.061 936.583 888.785C937.094 889.033 937.491 889.394 937.934 889.747C939.101 894.792 938.246 901.543 938.207 906.811L937.77 944.304C899.672 943.681 861.481 943.924 823.375 943.863L821.817 943.721C820.339 941.789 820.9 938.867 821.007 936.526C859.195 936.294 897.384 936.352 935.571 936.701Z"
     id="path96" />
  <path
     d="M273.799 901.335L273.252 901.359L273.239 900.257L273.96 900.098L273.799 901.335Z"
     id="path97" />
  <path
     d="M802.026 901.25L802.378 901.497L802.026 901.25Z"
     id="path98" />
  <path
     d="M578.968 934.952C580.422 924.105 578.067 912.57 580 901.822C581.019 904.381 580.821 936.837 580.989 942.585C558.54 943.418 535.907 942.994 513.438 943.033L380.087 943.285L380.08 935.219L400.75 935.352L495.852 935.306C495.939 924.88 493.961 913.82 495.55 903.507C496.721 914.154 498.323 924.883 500.769 935.314C514.86 935.797 528.917 935.29 543.001 935.027C554.979 934.804 566.987 934.961 578.968 934.952Z"
     id="path99" />
  <path
     d="M273.076 936.055C273.052 929.099 273.108 922.143 273.244 915.188L274.515 916.073C276.425 918.991 275.057 938.954 275.043 943.53L231.875 943.859C230.786 943.844 231.338 943.969 230.247 943.382C229.504 941.245 229.88 938.586 229.952 936.339C244.28 935.857 258.727 936.219 273.076 936.055Z"
     id="path100" />
  <path
     d="M803.369 935.686C803.657 931.467 803.5 927.142 803.642 922.901C805.712 929.294 805.05 936.826 805.02 943.475C792.189 943.873 779.352 944.069 766.514 944.062L765.998 943.567C765.347 941.249 765.652 938.695 765.724 936.306C778.159 936.232 790.986 936.709 803.369 935.686Z"
     id="path101" />
  <path
     d="M104.816 937.442C112.631 941.702 119.307 944.569 128.473 941.838C135.708 939.681 140.618 934.565 145.601 929.198C146.663 930.726 147.837 932.246 148.722 933.883C146.22 939.487 142.192 943.013 136.476 945.258C129.458 948.014 121.936 947.872 115.027 944.851C111.329 943.234 107.32 940.624 104.816 937.442Z"
     id="path102" />
  <path
     d="M708.747 936.838L708.128 936.003L708.747 936.838Z"
     id="path103" />
  <path
     d="M104.237 937.347L103.635 936.503L104.237 937.347Z"
     id="path104" />
  <path
     d="M156.541 944.502L156.432 936.486L225.416 936.499C225.573 938.927 225.679 941.357 225.735 943.789C202.741 943.512 179.522 943.688 156.541 944.502Z"
     id="path105" />
  <path
     d="M708.747 936.838L709.26 936.881L708.747 936.838Z"
     id="path106" />
  <path
     d="M104.237 937.347L104.816 937.442L104.237 937.347Z"
     id="path107" />
</svg>
