<?xml version="1.0" encoding="utf-8" ?>
<svg xmlns="http://www.w3.org/2000/svg" xmlns:xlink="http://www.w3.org/1999/xlink" width="1024" height="1024">
	<path fill="#166281" transform="scale(2 2)" d="M340.875 435.029L134.174 435.038C127.027 435.04 116.808 435.672 109.937 434.503C83.8213 430.061 73.9933 407.316 73.978 383.677L73.9212 118.186C73.9383 98.4328 86.3382 79.8858 105.627 74.32C116.126 71.2907 128.342 72.3337 139.191 72.3347L172.08 72.3429L376.907 72.3493C395.844 72.3439 410.164 70.6147 425 85.317C434.757 94.9857 438.355 106.143 438.404 119.621L438.411 383.931C438.404 407.597 429.142 427.355 403.828 433.634C394.712 435.896 384.289 435.04 374.93 435.038L340.875 435.029ZM426.251 116.62C424.436 99.8684 413.135 87.1198 396.148 85.4707C390.427 84.9153 384.447 85.2303 378.7 85.2295L131.608 85.2294C100.248 85.2249 89.0109 91.4212 86.2787 122.974C85.9305 129.677 86.2849 136.562 86.294 143.282L86.2815 367.776C86.2818 372.063 85.603 385.313 86.2787 388.685C83.9974 406.312 100.923 422.825 118.338 423.029C139.621 423.277 160.94 423.03 182.226 423.03L383.729 423.032C408.281 423.006 425.917 413.588 426.251 386.857C426.526 382.05 426.257 377.09 426.255 372.263L426.246 130.882C426.245 126.171 426.512 121.315 426.251 116.62Z"/>
	<path fill="#8CD0EC" transform="scale(2 2)" d="M86.2787 122.974C89.0109 91.4212 100.248 85.2249 131.608 85.2294L378.7 85.2295C384.447 85.2303 390.427 84.9153 396.148 85.4707C413.135 87.1198 424.436 99.8684 426.251 116.62L426.251 121.257L426.11 121.005C424.89 118.801 424.022 116.443 422.728 114.272C411.417 95.303 395.405 97.9321 376.37 97.961L123.762 97.9604C107.01 97.9647 96.4187 97.8988 88.8947 117.006C88.1655 118.857 87.52 121.419 86.2787 122.974Z"/>
	<defs>
		<linearGradient id="gradient_0" gradientUnits="userSpaceOnUse" x1="249.89291" y1="93.043655" x2="262.06717" y2="414.90112">
			<stop offset="0" stop-color="#0098DF"/>
			<stop offset="1" stop-color="#45B7E9"/>
		</linearGradient>
	</defs>
	<path fill="url(#gradient_0)" transform="scale(2 2)" d="M426.251 116.62C426.512 121.315 426.245 126.171 426.246 130.882L426.255 372.263C426.257 377.09 426.526 382.05 426.251 386.857C425.65 391.804 418.447 400.999 414.54 404.075C404.834 411.715 394.085 410.265 382.541 410.243L129.355 410.238C114.551 410.236 102.556 410.871 92.1722 397.663C90.1499 395.09 88.3668 390.677 86.2787 388.685C85.603 385.313 86.2818 372.063 86.2815 367.776L86.294 143.282C86.2849 136.562 85.9305 129.677 86.2787 122.974C87.52 121.419 88.1655 118.857 88.8947 117.006C96.4187 97.8988 107.01 97.9647 123.762 97.9604L376.37 97.961C395.405 97.9321 411.417 95.303 422.728 114.272C424.022 116.443 424.89 118.801 426.11 121.005L426.251 121.257L426.251 116.62ZM320.316 127.854C308.176 128.647 303.687 133.33 295.9 141.566C284.07 154.077 272.477 167.093 260.673 179.731L161.498 287.147C152.737 296.81 154.467 298.326 152.324 310.748L143.888 362.138C140.921 380.305 142.915 381.934 159.908 376.798C168.793 374.113 177.549 371.054 186.438 368.388L208.855 361.173C228.151 354.942 224.867 356.672 238.295 342.062L356.402 213.833C361.472 208.423 368.153 203.026 371.549 196.323C382.356 174.986 367.586 161.622 354.033 148.77C344.761 139.979 334.286 127.48 320.316 127.854Z"/>
	<path fill="#166281" transform="scale(2 2)" d="M186.438 368.388C177.549 371.054 168.793 374.113 159.908 376.798C142.915 381.934 140.921 380.305 143.888 362.138L152.324 310.748C154.467 298.326 152.737 296.81 161.498 287.147L260.673 179.731C272.477 167.093 284.07 154.077 295.9 141.566C303.687 133.33 308.176 128.647 320.316 127.854C334.286 127.48 344.761 139.979 354.033 148.77C367.586 161.622 382.356 174.986 371.549 196.323C368.153 203.026 361.472 208.423 356.402 213.833L238.295 342.062C224.867 356.672 228.151 354.942 208.855 361.173L186.438 368.388ZM328.388 143.317C315.128 135.994 309.061 146.735 300.868 155.851C298.212 158.806 295.285 161.636 292.91 164.819C291.942 165.557 290.64 166.71 290.082 167.8C289.685 168.473 289.274 169.13 288.95 169.841C284.397 172.794 278.805 179.746 274.921 183.967L170.095 297.055C168.813 298.285 167.21 299.591 166.641 301.328C162.95 321.089 159.392 342.366 156.631 362.32C156.42 362.842 156.369 363.464 156.27 364.02L156.545 364.215C159.944 363.663 163.384 362.298 166.662 361.233L182.077 356.229C192.465 352.808 203.106 349.848 213.345 346.024C215.228 345.673 217.791 344.718 219.144 343.344C229.467 332.968 239.131 321.881 249 311.075L329.084 224.081C332.697 220.124 336.618 216.362 340.032 212.237C341.43 211.088 342.696 209.513 343.814 208.09C354.531 198.199 369.234 184.493 357.021 170.456C351.54 164.206 343.633 157.212 337.428 151.514C334.589 148.654 331.548 145.82 328.388 143.317Z"/>
	<path fill="#F88C01" transform="scale(2 2)" d="M292.91 164.819C295.285 161.636 298.212 158.806 300.868 155.851C309.061 146.735 315.128 135.994 328.388 143.317C324.702 148.56 309.682 165.297 304.646 169.572C304.32 169.848 303.911 170.136 303.629 170.456C300.016 168.804 296.757 165.798 292.91 164.819Z"/>
	<path fill="#FFAF02" transform="scale(2 2)" d="M328.388 143.317C331.548 145.82 334.589 148.654 337.428 151.514C334.657 155.623 329.944 160.158 326.558 163.897L317.956 173.25C316.421 174.9 314.881 176.761 313.164 178.211L313.164 178.211L304.769 171.76C304.355 171.346 303.997 170.91 303.629 170.456C303.911 170.136 304.32 169.848 304.646 169.572C309.682 165.297 324.702 148.56 328.388 143.317Z"/>
	<path fill="#F88C01" transform="scale(2 2)" d="M337.428 151.514C343.633 157.212 351.54 164.206 357.021 170.456C349.902 179.67 341.584 187.667 334.278 196.669C327.666 189.954 319.844 184.735 313.164 178.211C314.881 176.761 316.421 174.9 317.956 173.25L326.558 163.897C329.944 160.158 334.657 155.623 337.428 151.514Z"/>
	<path fill="#1E85AE" transform="scale(2 2)" d="M290.082 167.8C290.64 166.71 291.942 165.557 292.91 164.819C296.757 165.798 300.016 168.804 303.629 170.456C303.997 170.91 304.355 171.346 304.769 171.76C302.737 172.88 300.704 172.514 298.728 174.018C296.893 172.382 294.99 171.14 292.91 169.841C292.098 169.076 290.999 168.447 290.082 167.8Z"/>
	<path fill="#4CB6E1" transform="scale(2 2)" d="M288.95 169.841C289.274 169.13 289.685 168.473 290.082 167.8C290.999 168.447 292.098 169.076 292.91 169.841C294.99 171.14 296.893 172.382 298.728 174.018L300.071 174.018C299.494 174.416 299.156 174.747 298.728 175.302L298.728 175.302C296.436 173.55 293.907 172.032 291.49 170.456C290.662 170.196 289.796 170.033 288.95 169.841Z"/>
	<defs>
		<linearGradient id="gradient_1" gradientUnits="userSpaceOnUse" x1="298.57401" y1="176.12254" x2="170.79997" y2="296.78821">
			<stop offset="0" stop-color="#FF9101"/>
			<stop offset="1" stop-color="#FFAA02"/>
		</linearGradient>
	</defs>
	<path fill="url(#gradient_1)" transform="scale(2 2)" d="M170.095 297.055L274.921 183.967C278.805 179.746 284.397 172.794 288.95 169.841C289.796 170.033 290.662 170.196 291.49 170.456C293.907 172.032 296.436 173.55 298.728 175.302C295.558 180.17 289.367 185.924 285.335 190.331L208.341 273.659C204.026 278.431 183.478 302.269 178.933 304.975C176.027 302.301 173.161 299.545 170.095 297.055Z"/>
	<path fill="#F06900" transform="scale(2 2)" d="M357.021 170.456C369.234 184.493 354.531 198.199 343.814 208.09C340.857 204.082 337.573 200.394 334.278 196.669C341.584 187.667 349.902 179.67 357.021 170.456Z"/>
	<path fill="#03A1F9" transform="scale(2 2)" d="M304.769 171.76L313.164 178.211C311.936 179.049 310.521 179.87 309.56 181.023C306.242 178.941 303.52 176.062 300.071 174.018L298.728 174.018C300.704 172.514 302.737 172.88 304.769 171.76Z"/>
	<path fill="#8CD0EC" transform="scale(2 2)" d="M298.728 175.302C299.156 174.747 299.494 174.416 300.071 174.018C303.52 176.062 306.242 178.941 309.56 181.023L309.56 181.023C309.356 181.786 308.821 182.246 308.293 182.799L308.293 182.799C305.404 180.045 301.768 177.928 298.728 175.302Z"/>
	<path fill="#FFAF02" transform="scale(2 2)" d="M298.728 175.302L298.728 175.302C301.768 177.928 305.404 180.045 308.293 182.799C304.395 186.176 301.162 190.444 297.634 194.209L206.347 293.457C200.216 300.128 193.994 306.657 188.134 313.578C184.95 310.878 181.971 307.844 178.933 304.975C183.478 302.269 204.026 278.431 208.341 273.659L285.335 190.331C289.367 185.924 295.558 180.17 298.728 175.302Z"/>
	<path fill="#1E85AE" transform="scale(2 2)" d="M313.164 178.211L313.164 178.211C319.844 184.735 327.666 189.954 334.278 196.669C337.573 200.394 340.857 204.082 343.814 208.09C342.696 209.513 341.43 211.088 340.032 212.237C337.525 208.32 334.037 204.95 330.577 201.88L330.577 201.88C330.098 196.141 314.444 184.362 309.56 181.023L309.56 181.023C310.521 179.87 311.936 179.049 313.164 178.211Z"/>
	<path fill="#4CB6E1" transform="scale(2 2)" d="M309.56 181.023C314.444 184.362 330.098 196.141 330.577 201.88C327.738 199.539 325.031 197.03 322.211 194.661L308.293 182.799C308.821 182.246 309.356 181.786 309.56 181.023Z"/>
	<path fill="#F88C01" transform="scale(2 2)" d="M308.293 182.799L308.293 182.799L322.211 194.661C319.462 196.744 317.029 199.733 314.657 202.238C297.771 220.065 280.693 238.395 264.198 256.542L219.818 305.331C217.065 308.334 203.167 324.299 200.935 325.496C196.755 321.432 192.277 317.689 188.134 313.578C193.994 306.657 200.216 300.128 206.347 293.457L297.634 194.209C301.162 190.444 304.395 186.176 308.293 182.799Z"/>
	<path fill="#FFAF02" transform="scale(2 2)" d="M322.211 194.661C325.031 197.03 327.738 199.539 330.577 201.88L330.577 201.88C325.283 209.51 318.672 216.032 312.34 222.789L231.506 310.504C224.235 318.321 217.299 326.628 209.759 334.168C206.699 331.436 203.801 328.433 200.935 325.496C203.167 324.299 217.065 308.334 219.818 305.331L264.198 256.542C280.693 238.395 297.771 220.065 314.657 202.238C317.029 199.733 319.462 196.744 322.211 194.661Z"/>
	<path fill="#F88C01" transform="scale(2 2)" d="M330.577 201.88C334.037 204.95 337.525 208.32 340.032 212.237C336.618 216.362 332.697 220.124 329.084 224.081L249 311.075C239.131 321.881 229.467 332.968 219.144 343.344C215.984 340.322 212.772 337.337 209.759 334.168C217.299 326.628 224.235 318.321 231.506 310.504L312.34 222.789C318.672 216.032 325.283 209.51 330.577 201.88Z"/>
	<path fill="#4CB6E1" transform="scale(2 2)" d="M166.641 301.328C167.21 299.591 168.813 298.285 170.095 297.055C173.161 299.545 176.027 302.301 178.933 304.975C181.971 307.844 184.95 310.878 188.134 313.578C192.277 317.689 196.755 321.432 200.935 325.496C203.801 328.433 206.699 331.436 209.759 334.168C212.772 337.337 215.984 340.322 219.144 343.344C217.791 344.718 215.228 345.673 213.345 346.024C205.557 339.922 199.165 331.951 191.656 325.496C183.526 317.247 174.859 309.504 166.641 301.328Z"/>
	<path fill="#CCEAF6" transform="scale(2 2)" d="M156.631 362.32C159.392 342.366 162.95 321.089 166.641 301.328C174.859 309.504 183.526 317.247 191.656 325.496C199.165 331.951 205.557 339.922 213.345 346.024C203.106 349.848 192.465 352.808 182.077 356.229L166.662 361.233C163.384 362.298 159.944 363.663 156.545 364.215L156.27 364.02C156.369 363.464 156.42 362.842 156.631 362.32Z"/>
	<path fill="#4CB6E1" transform="scale(2 2)" d="M86.2787 388.685C88.3668 390.677 90.1499 395.09 92.1722 397.663C102.556 410.871 114.551 410.236 129.355 410.238L382.541 410.243C394.085 410.265 404.834 411.715 414.54 404.075C418.447 400.999 425.65 391.804 426.251 386.857C425.917 413.588 408.281 423.006 383.729 423.032L182.226 423.03C160.94 423.03 139.621 423.277 118.338 423.029C100.923 422.825 83.9974 406.312 86.2787 388.685Z"/>
</svg>
