<?xml version="1.0" encoding="utf-8" ?>
<svg xmlns="http://www.w3.org/2000/svg" xmlns:xlink="http://www.w3.org/1999/xlink" width="1024" height="1024">
	<path fill="#166281" transform="scale(2 2)" d="M375.062 439.176L159.094 439.171C150.115 439.172 140.612 439.894 131.738 438.553C101.412 433.968 76.9453 409.226 72.952 378.631C72.1346 372.368 72.3394 366.033 72.347 359.732L72.3558 149.534C72.3051 130.432 73.6367 116.108 86.0548 99.9908C99.4077 82.6607 116.412 74.9505 137.659 72.2068L349.285 72.2042C359.552 72.2039 370.168 71.5835 380.342 73.1106C411.794 77.8317 436.412 103.83 439.915 135.477C440.533 141.058 440.296 146.769 440.296 152.38L440.299 360.041C440.301 366.219 440.506 372.358 439.57 378.487C434.439 412.072 408.708 435.47 375.062 439.176ZM329.347 430.797C333.703 431.218 338.524 430.81 342.939 430.801C370.494 430.742 392.882 433.751 414.368 411.561C432.875 392.449 431.304 373.493 431.287 349.282L431.284 196.61C431.285 178.964 431.618 161.259 431.267 143.621C430.633 111.684 409.284 86.9462 378.061 81.7108C369.564 80.286 358.204 80.9986 349.35 80.9991L161.592 80.9971C155.243 80.9925 148.865 80.8624 142.52 81.0259C112.214 81.8065 87.0603 101.744 81.9467 131.841C80.503 140.338 81.2042 152.525 81.2081 161.357L81.2036 350.395C81.1844 375.27 80.2192 394.805 100.584 413.833C118.937 430.98 133.035 430.802 155.591 430.798C163.264 430.796 170.997 431.06 178.66 430.797L289.473 430.804C293.977 430.808 298.614 431.043 303.104 430.797L329.347 430.797Z"/>
	<defs>
		<linearGradient id="gradient_0" gradientUnits="userSpaceOnUse" x1="260.46735" y1="78.471786" x2="251.5748" y2="433.06689">
			<stop offset="0" stop-color="#0B74A0"/>
			<stop offset="1" stop-color="#22B4F7"/>
		</linearGradient>
	</defs>
	<path fill="url(#gradient_0)" transform="scale(2 2)" d="M91.8775 147.706C91.2751 151.809 92.1055 156.162 92.1028 160.296L90.7807 357.53C90.758 364.293 90.2435 371.054 90.9841 377.801C93.4641 400.392 113.354 418.662 135.457 421.643C141.101 422.404 146.847 422.223 152.529 422.219L182.226 422.194C186.873 422.189 191.752 421.85 196.371 422.206C189.604 422.859 177.161 422.796 170.158 422.811C165.082 436.355 172.299 428.039 178.66 430.797C170.997 431.06 163.264 430.796 155.591 430.798C133.035 430.802 118.937 430.98 100.584 413.833C80.2192 394.805 81.1844 375.27 81.2036 350.395L81.2081 161.357C81.2042 152.525 80.503 140.338 81.9467 131.841C87.0603 101.744 112.214 81.8065 142.52 81.0259C148.865 80.8624 155.243 80.9925 161.592 80.9971L349.35 80.9991C358.204 80.9986 369.564 80.286 378.061 81.7108C409.284 86.9462 430.633 111.684 431.267 143.621C431.618 161.259 431.285 178.964 431.284 196.61L431.287 349.282C431.304 373.493 432.875 392.449 414.368 411.561C392.882 433.751 370.494 430.742 342.939 430.801C338.524 430.81 333.703 431.218 329.347 430.797C332.614 427.99 331.728 427.748 330.04 422.642C326.258 421.72 308.256 421.878 303.104 422.206L296.931 422.206C299.399 421.997 301.927 422.167 304.404 422.183L363.662 422.206C391.321 421.958 414.754 408.673 419.915 379.194C421.414 370.63 420.989 361.754 420.993 353.09L420.835 157.856C420.815 155.095 421.028 152.334 420.984 149.574C418.494 136.641 415.736 126.573 406.985 116.245C389.14 95.1865 373.128 94.263 348.45 94.278L156.533 94.2752C151.653 94.2733 146.7 94.1227 141.864 94.8634C114.261 99.0903 94.1878 120.039 91.8775 147.706Z"/>
	<path fill="#8CD0EC" transform="scale(2 2)" d="M91.8775 147.706C94.1878 120.039 114.261 99.0903 141.864 94.8634C146.7 94.1227 151.653 94.2733 156.533 94.2752L348.45 94.278C373.128 94.263 389.14 95.1865 406.985 116.245C415.736 126.573 418.494 136.641 420.984 149.574L420.507 149.668C419.153 147.978 419.145 145.712 418.5 143.726C411.884 123.384 396.9 107.822 375.723 102.548C366.412 100.229 356.356 100.757 346.817 100.763L174.304 100.763C155.185 100.758 135.692 98.7096 118.581 109.089C98.5042 121.267 96.729 133.987 91.8775 153.728C91.8785 151.72 91.9284 149.715 91.8775 147.706Z"/>
	<defs>
		<linearGradient id="gradient_1" gradientUnits="userSpaceOnUse" x1="251.60886" y1="424.89227" x2="260.97134" y2="98.310692">
			<stop offset="0" stop-color="#177CAD"/>
			<stop offset="1" stop-color="#5FCCF0"/>
		</linearGradient>
	</defs>
	<path fill="url(#gradient_1)" transform="scale(2 2)" d="M196.371 422.206C191.752 421.85 186.873 422.189 182.226 422.194L152.529 422.219C146.847 422.223 141.101 422.404 135.457 421.643C113.354 418.662 93.4641 400.392 90.9841 377.801C90.2435 371.054 90.758 364.293 90.7807 357.53L92.1028 160.296C92.1055 156.162 91.2751 151.809 91.8775 147.706C91.9284 149.715 91.8785 151.72 91.8775 153.728C96.729 133.987 98.5042 121.267 118.581 109.089C135.692 98.7096 155.185 100.758 174.304 100.763L346.817 100.763C356.356 100.757 366.412 100.229 375.723 102.548C396.9 107.822 411.884 123.384 418.5 143.726C419.145 145.712 419.153 147.978 420.507 149.668L420.984 149.574C421.028 152.334 420.815 155.095 420.835 157.856L420.993 353.09C420.989 361.754 421.414 370.63 419.915 379.194C414.754 408.673 391.321 421.958 363.662 422.206L304.404 422.183C301.927 422.167 299.399 421.997 296.931 422.206L196.371 422.206ZM338.195 130.023C337.952 129.944 330.26 123.816 329.015 122.943C326.919 121.473 282.1 115.746 277.832 115.422C267.726 114.654 255.23 115.412 244.604 115.031C233.108 114.62 219.263 112.184 208.432 117.025C206.881 116.008 205.56 117.088 204.099 117.341L203.628 116.854L202.885 116.898C202.751 117.069 202.689 117.152 202.505 117.264L202.177 117.176C201.494 116.996 200.932 116.78 200.229 116.976L200.025 117.395L200.418 117.252L200.371 117.587C240.94 121.397 281.49 129.799 320.43 141.851C322.661 142.541 330.186 145.484 332.01 145.596L331.229 144.743C331.596 142.054 339.782 138.834 338.195 130.023C339.649 132.4 337.482 133.932 338.069 135.34L338.195 134.976C339.299 133.56 339.919 131.372 338.626 129.929L338.195 130.023ZM331.389 191.554C319.578 173.676 299.258 162.335 278.589 158.138C238.348 149.966 199.161 172.463 183.123 209.392C181.338 213.503 180.476 218.008 178.66 222.041C174.429 223.39 170.117 224.443 166.013 226.167C143.393 235.667 129.531 258.548 129.769 282.69C126.414 289.583 128.723 303.516 131.123 310.539C137.863 330.262 154.381 346.114 175.234 349.436C182.501 350.594 190.355 350.152 197.708 350.057C209.292 349.907 222.455 349.525 233.98 350.042L233.98 376.012C233.946 379.086 233.953 382.156 233.98 385.23L278.978 385.23C279.091 382.269 279.491 378.938 278.978 376.012C278.67 373.362 278.95 370.41 278.954 367.726L278.978 350.042C283.464 349.834 288.045 350.027 292.542 350.03L319.69 350.049C344.644 350.062 363.766 348.727 376.9 322.901C379.91 316.981 384.479 303.843 382.406 297.397C386.136 275.817 378.072 254.682 359.863 241.918C356.379 239.476 352.489 237.692 348.976 235.294C348.394 220.545 340.131 203.359 331.389 191.554ZM182.246 115.377L181.768 115.423C178.625 115.701 171.262 115.441 179.764 115.929C187.476 116.284 187.908 114.906 182.246 115.377ZM189.776 115.377L189.647 116.435C191.44 116.884 194.532 117.586 196.371 117.341C194.935 117.07 191.385 115.856 189.776 115.377Z"/>
	<path fill="#8CD0EC" transform="scale(2 2)" d="M204.099 117.341C205.56 117.088 206.881 116.008 208.432 117.025C219.263 112.184 233.108 114.62 244.604 115.031C255.23 115.412 267.726 114.654 277.832 115.422C282.1 115.746 326.919 121.473 329.015 122.943C330.26 123.816 337.952 129.944 338.195 130.023C339.782 138.834 331.596 142.054 331.229 144.743L332.01 145.596C330.186 145.484 322.661 142.541 320.43 141.851C281.49 129.799 240.94 121.397 200.371 117.587L200.418 117.252L200.025 117.395L200.229 116.976C200.932 116.78 201.494 116.996 202.177 117.176L202.505 117.264C202.689 117.152 202.751 117.069 202.885 116.898L203.628 116.854L204.099 117.341Z"/>
	<path fill="#8CD0EC" transform="scale(2 2)" d="M179.764 115.929C171.262 115.441 178.625 115.701 181.768 115.423L182.246 115.377C187.908 114.906 187.476 116.284 179.764 115.929Z"/>
	<path fill="#8CD0EC" transform="scale(2 2)" d="M196.371 117.341C194.532 117.586 191.44 116.884 189.647 116.435L189.776 115.377C191.385 115.856 194.935 117.07 196.371 117.341Z"/>
	<path fill="#8CD0EC" transform="scale(2 2)" d="M338.195 130.023L338.626 129.929C339.919 131.372 339.299 133.56 338.195 134.976L338.069 135.34C337.482 133.932 339.649 132.4 338.195 130.023Z"/>
	<defs>
		<linearGradient id="gradient_2" gradientUnits="userSpaceOnUse" x1="272.47086" y1="275.09076" x2="166.7003" y2="207.15273">
			<stop offset="0" stop-color="#FE9F20"/>
			<stop offset="1" stop-color="#FFC864"/>
		</linearGradient>
	</defs>
	<path fill="url(#gradient_2)" transform="scale(2 2)" d="M331.389 191.554C329.633 190.822 320.957 182.702 317.108 180.102C293.088 163.88 267.543 157.534 239.172 167.175C210.744 176.836 190.291 201.251 183.951 230.198C155.314 230.591 134.974 257.937 135.55 285.212C135.752 294.76 142.764 316.338 149.426 323.933C150.119 324.723 151.053 325.725 151.504 326.673C137.864 316.721 129.356 299.522 129.769 282.69C129.531 258.548 143.393 235.667 166.013 226.167C170.117 224.443 174.429 223.39 178.66 222.041C180.476 218.008 181.338 213.503 183.123 209.392C199.161 172.463 238.348 149.966 278.589 158.138C299.258 162.335 319.578 173.676 331.389 191.554Z"/>
	<path fill="#F88C01" transform="scale(2 2)" d="M183.951 230.198C190.291 201.251 210.744 176.836 239.172 167.175C267.543 157.534 293.088 163.88 317.108 180.102C320.957 182.702 329.633 190.822 331.389 191.554C340.131 203.359 348.394 220.545 348.976 235.294C352.489 237.692 356.379 239.476 359.863 241.918C378.072 254.682 386.136 275.817 382.406 297.397C376.58 319.242 361.665 335.525 339.07 339.11C331.812 340.262 323.898 339.705 316.555 339.698L278.978 339.691L278.978 350.042L278.954 367.726C278.95 370.41 278.67 373.362 278.978 376.012L233.98 376.012L233.98 350.042L233.98 339.691C222.561 339.553 211.125 339.696 199.704 339.703C180.714 339.716 166.905 340.033 151.504 326.673C151.053 325.725 150.119 324.723 149.426 323.933C142.764 316.338 135.752 294.76 135.55 285.212C134.974 257.937 155.314 230.591 183.951 230.198ZM259.934 173.74C226.721 177.16 191.62 206.865 192.215 241.59C170.171 237.273 150.751 253.801 146.721 275.026C142.385 297.864 156.41 322.869 180.206 327.13C187.085 328.362 194.594 327.846 201.575 327.845L233.98 327.839L233.98 299.283L214.875 299.307C209.807 299.318 199.543 300.963 200.013 293.002C200.251 288.97 208.565 282.338 211.32 279.563L244.484 245.96C247.449 242.974 252.852 234.804 257.799 236.332C260.643 238.2 263.141 241.284 265.55 243.701L281.712 260.118C291.337 269.952 301.503 279.356 310.82 289.479C312.726 291.549 313.128 294.31 311.503 296.777C309.267 300.171 303.275 299.322 299.84 299.316L285.693 299.269C283.329 299.258 280.857 299.077 278.505 299.283L278.505 327.839L312.344 327.849C321.519 327.852 333.951 328.774 342.617 326.337C381.139 315.508 381.894 256.755 338.195 245.782C338.291 204.928 304.285 173.791 264.286 173.709L259.934 173.74ZM255.875 252.158C244.47 263.19 232.993 274.277 222.081 285.796C230.16 286.099 238.465 285.944 246.553 285.796L246.553 363.8L255.875 363.8L265.402 363.8L265.402 285.796C273.31 285.329 281.396 285.809 289.329 285.796C286.567 282.631 256.733 252.389 255.875 252.158Z"/>
	<path fill="white" transform="scale(2 2)" d="M192.215 241.59C191.62 206.865 226.721 177.16 259.934 173.74L264.286 173.709C304.285 173.791 338.291 204.928 338.195 245.782C381.894 256.755 381.139 315.508 342.617 326.337C333.951 328.774 321.519 327.852 312.344 327.849L278.505 327.839L278.505 299.283C280.857 299.077 283.329 299.258 285.693 299.269L299.84 299.316C303.275 299.322 309.267 300.171 311.503 296.777C313.128 294.31 312.726 291.549 310.82 289.479C301.503 279.356 291.337 269.952 281.712 260.118L265.55 243.701C263.141 241.284 260.643 238.2 257.799 236.332C252.852 234.804 247.449 242.974 244.484 245.96L211.32 279.563C208.565 282.338 200.251 288.97 200.013 293.002C199.543 300.963 209.807 299.318 214.875 299.307L233.98 299.283L233.98 327.839L201.575 327.845C194.594 327.846 187.085 328.362 180.206 327.13C156.41 322.869 142.385 297.864 146.721 275.026C150.751 253.801 170.171 237.273 192.215 241.59Z"/>
	<path fill="#FFAF02" transform="scale(2 2)" d="M222.081 285.796C232.993 274.277 244.47 263.19 255.875 252.158C256.733 252.389 286.567 282.631 289.329 285.796C281.396 285.809 273.31 285.329 265.402 285.796L265.402 363.8L255.875 363.8L246.553 363.8L246.553 285.796C238.465 285.944 230.16 286.099 222.081 285.796Z"/>
	<path fill="#1E85AE" transform="scale(2 2)" d="M233.98 350.042C222.455 349.525 209.292 349.907 197.708 350.057C190.355 350.152 182.501 350.594 175.234 349.436C154.381 346.114 137.863 330.262 131.123 310.539C128.723 303.516 126.414 289.583 129.769 282.69C129.356 299.522 137.864 316.721 151.504 326.673C166.905 340.033 180.714 339.716 199.704 339.703C211.125 339.696 222.561 339.553 233.98 339.691L233.98 350.042Z"/>
	<path fill="#1E85AE" transform="scale(2 2)" d="M382.406 297.397C384.479 303.843 379.91 316.981 376.9 322.901C363.766 348.727 344.644 350.062 319.69 350.049L292.542 350.03C288.045 350.027 283.464 349.834 278.978 350.042L278.978 339.691L316.555 339.698C323.898 339.705 331.812 340.262 339.07 339.11C361.665 335.525 376.58 319.242 382.406 297.397Z"/>
	<path fill="#1E85AE" transform="scale(2 2)" d="M233.98 376.012L278.978 376.012C279.491 378.938 279.091 382.269 278.978 385.23L233.98 385.23C233.953 382.156 233.946 379.086 233.98 376.012Z"/>
	<path fill="#8CD0EC" transform="scale(2 2)" d="M196.371 422.206L296.931 422.206L303.104 422.206C308.256 421.878 326.258 421.72 330.04 422.642C331.728 427.748 332.614 427.99 329.347 430.797L303.104 430.797C298.614 431.043 293.977 430.808 289.473 430.804L178.66 430.797C172.299 428.039 165.082 436.355 170.158 422.811C177.161 422.796 189.604 422.859 196.371 422.206Z"/>
</svg>
