<?xml version="1.0" encoding="utf-8" ?>
<svg xmlns="http://www.w3.org/2000/svg" xmlns:xlink="http://www.w3.org/1999/xlink" width="1024" height="1024">
	<path fill="#166281" transform="scale(2 2)" d="M140.375 429.836C127.574 429.86 117.879 430.289 106.105 424.113C80.9758 410.931 77.9863 390.837 78.0341 366.13L78.0325 151.856C78.0268 142.993 77.311 130.256 78.8252 121.715C82.6059 100.389 99.8212 82.7825 121.191 78.9663C129.478 77.4865 140.763 78.221 149.396 78.2234L371.541 78.2199C376.783 78.2428 382.149 77.8853 387.371 78.2972C410.121 80.0916 429.804 98.5005 433.619 120.878C434.958 128.733 434.273 139.794 434.267 147.929L434.298 375.975C434.43 401.642 416.727 424.54 391.228 429.112C383.235 430.546 371.689 429.838 363.305 429.834L140.375 429.836ZM126.733 91.4956C107.826 94.0936 93.2793 108.526 91.3765 127.555C90.7827 133.492 91.0618 139.607 91.0667 145.57L91.0671 367.759C91.0687 384.176 91.7715 398.264 106.588 409.178C120.203 419.207 138.032 416.776 153.916 416.772L323.613 416.761C343.632 416.76 363.672 416.553 383.687 416.761C402.629 415.427 418.134 402.031 420.574 383.001C421.226 377.917 421.021 372.69 421.016 367.573L421.009 146.441C421.009 140.037 421.229 133.552 420.723 127.166C419.276 108.899 405.582 94.104 387.384 91.9232C382.136 91.2943 376.788 91.4827 371.509 91.4841L142.212 91.4844C137.134 91.4812 131.791 91.1436 126.733 91.4956Z"/>
	<path fill="#1E85AE" transform="scale(2 2)" d="M383.687 416.761C363.672 416.553 343.632 416.76 323.613 416.761L153.916 416.772C138.032 416.776 120.203 419.207 106.588 409.178C91.7715 398.264 91.0687 384.176 91.0671 367.759L91.0667 145.57C91.0618 139.607 90.7827 133.492 91.3765 127.555C93.2793 108.526 107.826 94.0936 126.733 91.4956C131.791 91.1436 137.134 91.4812 142.212 91.4844L371.509 91.4841C376.788 91.4827 382.136 91.2943 387.384 91.9232C405.582 94.104 419.276 108.899 420.723 127.166C421.229 133.552 421.009 140.037 421.009 146.441L421.016 367.573C421.021 372.69 421.226 377.917 420.574 383.001C418.134 402.031 402.629 415.427 383.687 416.761ZM389.366 128.221C383.47 118.872 377.68 119.471 367.803 119.474L153.21 119.485C141.684 119.473 123.364 116.165 120.043 131.384C118.942 136.429 119.535 149.999 119.536 155.786L119.538 349.992C119.528 360.086 116.822 375.511 126.733 381.902L126.733 381.902C134.503 385.106 142.812 384.281 151.067 384.281L200.631 384.283C204.585 384.288 208.702 384.54 212.633 384.271L299.083 384.271C301.5 384.553 304.24 384.283 306.689 384.282L352.302 384.273C363.2 384.271 378.468 386.399 386.284 377.849C391.911 371.695 391.027 364.279 391.027 356.553L391.022 149.466C391.035 143.821 391.245 138.1 391.017 132.461C390.59 131.012 389.943 129.616 389.366 128.221Z"/>
	<path fill="#8CD0EC" transform="scale(2 2)" d="M201.483 126.185L143.644 126.169C121.959 125.942 126.728 135.82 126.744 153.444L126.733 192.92C126.481 195.727 126.677 198.663 126.703 201.484L126.722 292.374C126.718 295.503 126.268 300.798 126.733 303.667L126.732 356.273C126.733 364.784 126.454 373.405 126.733 381.902C116.822 375.511 119.528 360.086 119.538 349.992L119.536 155.786C119.535 149.999 118.942 136.429 120.043 131.384C123.364 116.165 141.684 119.473 153.21 119.485L367.803 119.474C377.68 119.471 383.47 118.872 389.366 128.221C389.943 129.616 390.59 131.012 391.017 132.461C388.464 131.248 387.025 128.701 383.885 127.605C377.406 125.343 362.902 126.177 355.513 126.177L329.363 126.185C327.607 125.969 325.621 126.142 323.844 126.149L210.517 126.17C207.531 126.146 204.459 125.961 201.483 126.185Z"/>
	<path fill="#4CB6E1" transform="scale(2 2)" d="M201.483 126.185C204.459 125.961 207.531 126.146 210.517 126.17L323.844 126.149C325.621 126.142 327.607 125.969 329.363 126.185L329.049 126.204C322.666 126.54 316.241 125.976 309.833 126.373L309.784 126.524C315.464 127.088 321.24 126.134 326.863 126.61C330.32 126.903 343.386 138.923 349.644 138.126C350.535 138.013 352.267 136.673 353.025 136.863C354.721 137.289 353.459 139.88 357.293 136.957C359.125 135.56 360.805 135.014 362.886 134.221C363.199 133.226 361.987 132.133 363.464 131.96C366.042 131.657 368.536 133.129 371.037 133.045C374.704 132.922 377.613 130.334 381.402 131.52C384.482 132.483 386.816 135.505 390.274 137.399C391.723 141.027 390.776 150.632 390.74 155.001L390.695 173.205L389.955 172.35L389.57 172.346C388.698 174.172 388.518 179.36 386.177 184.643C384.518 188.388 387.439 203.329 390.679 205.185C390.942 208.209 390.734 211.302 390.754 214.341L391.015 290.492C391.003 298.616 390.395 306.774 390.714 314.895L390.596 314.514C388.578 316.158 386.527 324.44 386.242 327.121C385.656 332.63 388.695 334.088 389.219 339.23L389.536 339.406C390.283 338.946 390.486 338.852 390.383 337.987L390.639 337.947C391.009 343.222 391.762 362.958 390.361 367.856L389.753 367.41C389.224 367.504 389.065 367.758 388.703 368.126C385.803 371.069 368.747 375.384 364.699 373.597C364.254 371.654 366.831 371.56 367.304 370.09L367.255 369.9C365.092 369.801 363.366 367.942 362.608 365.908L362.148 365.697C360.869 366.224 360.448 368.315 359.356 368.51C358.331 368.693 357.032 367.547 355.77 367.907C352.996 368.697 350.429 370.672 347.712 371.715C343.13 373.474 332.733 374.628 329.911 377.761C323.966 378.272 320.747 382.883 317.037 383.824C313.362 384.757 301.395 382.796 299.083 384.271L212.633 384.271C208.503 382.363 201.273 385.866 191.899 381.814C183.133 378.024 167.776 376.047 159.469 381.059C154.969 383.775 139.109 376.904 135.972 374.486C134.194 373.116 132.03 369.009 131.728 366.802C134.324 364.793 130.944 361.018 130.286 358.402C128.481 351.227 132.132 343.103 131.167 335.759C130.758 332.649 129.9 329.693 129.073 326.672L129.446 326.308C129.549 325.818 127.111 322.129 126.869 320.415C126.128 315.17 128.695 308.579 126.733 303.667C126.268 300.798 126.718 295.503 126.722 292.374L126.703 201.484C126.677 198.663 126.481 195.727 126.733 192.92C126.958 196.043 126.409 199.299 126.864 202.375L127.034 202.5C127.33 197.105 127.073 191.476 127.055 186.062L127.083 159.229C127.081 153.422 125.979 136.174 128.26 131.462C130.822 126.167 144.533 127.64 148.58 127.732C151.826 127.806 149.908 126.392 153.637 127.74C153.843 127.814 158.268 126.49 159.898 126.934C160.707 127.153 161.355 127.226 162.177 126.99C165.746 125.964 171.84 128.933 175.81 129.157C179.941 129.389 183.017 126.895 186.953 126.477C191.598 125.984 198.555 127.518 202.984 126.342C202.488 126.269 201.983 126.235 201.483 126.185ZM300.322 184.203C292.827 179.217 284.89 174.866 277.209 170.174L263.569 161.938C261.131 160.498 258.636 158.821 255.994 157.8C252.802 159.115 249.799 161.181 246.859 162.981C222.032 178.179 196.818 192.765 171.879 207.79C162.28 213.573 152.813 219.831 142.9 225.06C146.216 228.009 150.093 229.546 153.799 231.877C151.755 232.99 149.794 234.208 147.826 235.448C157.483 240.771 167.078 246.318 176.89 251.343C177.123 258.613 176.869 265.952 176.874 273.232L176.89 319.177C178.675 320.178 181.229 321.331 182.64 322.781C182.566 324.567 182.633 326.379 182.64 328.168C188.22 331.852 194.209 335.054 199.979 338.434L226.514 354.224C237.253 360.641 250.653 369.809 261.493 375.059C271.727 369.354 281.706 363.271 291.836 357.395L342.231 328.168C342.234 301.169 341.861 274.118 342.231 247.125C346.77 241.266 359.013 230.813 364.712 225.992C361.754 223.606 358.755 221.344 355.904 218.822L358.641 216.571C355.443 212.434 350.759 208.865 346.868 205.349C335.687 195.242 318.943 182.091 309.393 170.945C306.674 174.954 303.517 181.238 300.322 184.203Z"/>
	<path fill="#04ACED" transform="scale(2 2)" d="M126.733 192.92L126.744 153.444C126.728 135.82 121.959 125.942 143.644 126.169L201.483 126.185C201.983 126.235 202.488 126.269 202.984 126.342C198.555 127.518 191.598 125.984 186.953 126.477C183.017 126.895 179.941 129.389 175.81 129.157C171.84 128.933 165.746 125.964 162.177 126.99C161.355 127.226 160.707 127.153 159.898 126.934C158.268 126.49 153.843 127.814 153.637 127.74C149.908 126.392 151.826 127.806 148.58 127.732C144.533 127.64 130.822 126.167 128.26 131.462C125.979 136.174 127.081 153.422 127.083 159.229L127.055 186.062C127.073 191.476 127.33 197.105 127.034 202.5L126.864 202.375C126.409 199.299 126.958 196.043 126.733 192.92Z"/>
	<path fill="#04ACED" transform="scale(2 2)" d="M299.083 384.271C301.395 382.796 313.362 384.757 317.037 383.824C320.747 382.883 323.966 378.272 329.911 377.761C332.733 374.628 343.13 373.474 347.712 371.715C350.429 370.672 352.996 368.697 355.77 367.907C357.032 367.547 358.331 368.693 359.356 368.51C360.448 368.315 360.869 366.224 362.148 365.697L362.608 365.908C363.366 367.942 365.092 369.801 367.255 369.9L367.304 370.09C366.831 371.56 364.254 371.654 364.699 373.597C368.747 375.384 385.803 371.069 388.703 368.126C389.065 367.758 389.224 367.504 389.753 367.41L390.361 367.856C391.762 362.958 391.009 343.222 390.639 337.947L390.383 337.987C390.486 338.852 390.283 338.946 389.536 339.406L389.219 339.23C388.695 334.088 385.656 332.63 386.242 327.121C386.527 324.44 388.578 316.158 390.596 314.514L390.714 314.895C390.395 306.774 391.003 298.616 391.015 290.492L390.754 214.341C390.734 211.302 390.942 208.209 390.679 205.185C387.439 203.329 384.518 188.388 386.177 184.643C388.518 179.36 388.698 174.172 389.57 172.346L389.955 172.35L390.695 173.205L390.74 155.001C390.776 150.632 391.723 141.027 390.274 137.399C386.816 135.505 384.482 132.483 381.402 131.52C377.613 130.334 374.704 132.922 371.037 133.045C368.536 133.129 366.042 131.657 363.464 131.96C361.987 132.133 363.199 133.226 362.886 134.221C360.805 135.014 359.125 135.56 357.293 136.957C353.459 139.88 354.721 137.289 353.025 136.863C352.267 136.673 350.535 138.013 349.644 138.126C343.386 138.923 330.32 126.903 326.863 126.61C321.24 126.134 315.464 127.088 309.784 126.524L309.833 126.373C316.241 125.976 322.666 126.54 329.049 126.204L329.363 126.185L355.513 126.177C362.902 126.177 377.406 125.343 383.885 127.605C387.025 128.701 388.464 131.248 391.017 132.461C391.245 138.1 391.035 143.821 391.022 149.466L391.027 356.553C391.027 364.279 391.911 371.695 386.284 377.849C378.468 386.399 363.2 384.271 352.302 384.273L306.689 384.282C304.24 384.283 301.5 384.553 299.083 384.271Z"/>
	<path fill="#F88C01" transform="scale(2 2)" d="M255.994 157.8C258.636 158.821 261.131 160.498 263.569 161.938L277.209 170.174C284.89 174.866 292.827 179.217 300.322 184.203C303.991 186.64 313.42 194.127 315.833 197.309C316.835 200.033 322.626 203.679 324.491 208.663C321.884 208.718 319.291 208.722 316.684 208.663C315.08 205.779 299.836 197.308 296.502 195.298L264.362 175.866C261.6 174.185 258.726 172.666 255.994 170.945C252.267 172.577 248.9 175.062 245.421 177.164L189.286 210.862C180.915 215.897 172.319 220.573 164.181 225.992C172.555 230.88 181.95 235.796 190.029 240.85C207.262 230.757 224.128 220.035 241.415 210.046C246.391 207.17 251.108 203.456 256.533 201.469C262.358 204.123 270.175 210.518 274.805 212.214L274.805 223.499C276.88 223.596 278.903 223.615 280.978 223.499C280.993 225.32 281.091 227.185 280.978 229C272.15 225.46 264.616 219.023 255.994 214.958C252.821 216.595 249.838 218.741 246.771 220.585L224.838 233.836C216.821 238.723 207.259 243.655 199.875 249.138C208.565 255.872 220.204 260.583 229.842 268.08C234.828 264.83 249.9 254.805 255.041 252.908C259.181 251.379 275.654 264.751 282.43 267.181C285.938 265.979 300.699 257.396 302.852 254.808C305.009 256.845 307.665 259.02 309.393 261.419C310.05 262 310.743 262.566 311.343 263.205C305.101 266.662 288.684 278.802 283.159 280.023C278.006 281.162 266.067 271.72 261.493 268.874L261.517 332.52C261.523 335.306 261.708 338.263 261.373 341.032C260.827 345.547 254.346 347.394 251.198 344.302C248.36 341.514 249.175 336.358 249.177 332.785L249.185 270.26C242.485 273.678 236.498 278.34 229.842 281.726C225.738 279.585 221.872 276.949 217.965 274.471L199.608 262.784C196.139 260.576 192.657 258.085 188.967 256.28L188.967 314.518C194.193 316.1 199.057 319.494 203.884 322.047C221.438 331.333 238.319 341.951 255.994 350.983C272.326 342.618 289.282 333.171 305.271 324.204C311.153 320.905 317.405 318.164 323.081 314.518C323.233 301.671 323.07 288.81 323.071 275.96C323.072 270.315 323.713 263.197 323.081 257.781C324.88 255.26 332.791 248.412 335.53 246.337L335.537 295.759C335.539 303.915 335.831 312.171 335.53 320.311C330.182 323.589 324.604 326.505 319.16 329.621L273.611 355.351C267.734 358.676 261.805 361.861 255.994 365.31L211.448 339.572C201.942 333.973 192.523 327.675 182.64 322.781C181.229 321.331 178.675 320.178 176.89 319.177L176.874 273.232C176.869 265.952 177.123 258.613 176.89 251.343C176.913 249.134 176.921 246.929 176.89 244.72C169.072 240.764 161.409 236.223 153.799 231.877C150.093 229.546 146.216 228.009 142.9 225.06C152.813 219.831 162.28 213.573 171.879 207.79C196.818 192.765 222.032 178.179 246.859 162.981C249.799 161.181 252.802 159.115 255.994 157.8Z"/>
	<path fill="#FFAF02" transform="scale(2 2)" d="M316.684 208.663L274.805 208.663L274.805 212.214C270.175 210.518 262.358 204.123 256.533 201.469C251.108 203.456 246.391 207.17 241.415 210.046C224.128 220.035 207.262 230.757 190.029 240.85C181.95 235.796 172.555 230.88 164.181 225.992C172.319 220.573 180.915 215.897 189.286 210.862L245.421 177.164C248.9 175.062 252.267 172.577 255.994 170.945C258.726 172.666 261.6 174.185 264.362 175.866L296.502 195.298C299.836 197.308 315.08 205.779 316.684 208.663Z"/>
	<path fill="#F06900" transform="scale(2 2)" d="M315.833 197.309C320.012 201.14 324.248 204.903 328.491 208.663L324.491 208.663C322.626 203.679 316.835 200.033 315.833 197.309Z"/>
	<path fill="#FFAF02" transform="scale(2 2)" d="M255.994 214.958C264.616 219.023 272.15 225.46 280.978 229C294.65 229.193 308.358 229.007 322.035 229C315.739 235.517 304.966 243.839 299.918 250.288L299.083 251.343L302.852 254.808C300.699 257.396 285.938 265.979 282.43 267.181C275.654 264.751 259.181 251.379 255.041 252.908C249.9 254.805 234.828 264.83 229.842 268.08C220.204 260.583 208.565 255.872 199.875 249.138C207.259 243.655 216.821 238.723 224.838 233.836L246.771 220.585C249.838 218.741 252.821 216.595 255.994 214.958Z"/>
	<path fill="#166281" transform="scale(2 2)" d="M335.53 236.958C341.094 231.481 349.911 223.549 355.904 218.822C358.755 221.344 361.754 223.606 364.712 225.992C359.013 230.813 346.77 241.266 342.231 247.125C341.861 274.118 342.234 301.169 342.231 328.168L291.836 357.395C281.706 363.271 271.727 369.354 261.493 375.059C250.653 369.809 237.253 360.641 226.514 354.224L199.979 338.434C194.209 335.054 188.22 331.852 182.64 328.168C182.633 326.379 182.566 324.567 182.64 322.781C192.523 327.675 201.942 333.973 211.448 339.572L255.994 365.31C261.805 361.861 267.734 358.676 273.611 355.351L319.16 329.621C324.604 326.505 330.182 323.589 335.53 320.311C335.831 312.171 335.539 303.915 335.537 295.759L335.53 246.337C335.922 243.344 335.88 239.955 335.53 236.958Z"/>
	<path fill="#F06900" transform="scale(2 2)" d="M280.978 223.499L328.491 223.499C326.471 225.206 324.266 227.631 322.035 229C308.358 229.007 294.65 229.193 280.978 229C281.091 227.185 280.993 225.32 280.978 223.499Z"/>
	<path fill="#166281" transform="scale(2 2)" d="M147.826 235.448C149.794 234.208 151.755 232.99 153.799 231.877C161.409 236.223 169.072 240.764 176.89 244.72C176.921 246.929 176.913 249.134 176.89 251.343C167.078 246.318 157.483 240.771 147.826 235.448Z"/>
	<path fill="#F06900" transform="scale(2 2)" d="M309.393 261.419C317.671 253.186 326.739 244.61 335.53 236.958C335.88 239.955 335.922 243.344 335.53 246.337C332.791 248.412 324.88 255.26 323.081 257.781C319.927 260.357 316.977 263.02 314.15 265.958L311.343 263.205C310.743 262.566 310.05 262 309.393 261.419Z"/>
	<path fill="#FFAF02" transform="scale(2 2)" d="M314.15 265.958C316.977 263.02 319.927 260.357 323.081 257.781C323.713 263.197 323.072 270.315 323.071 275.96C323.07 288.81 323.233 301.671 323.081 314.518C317.405 318.164 311.153 320.905 305.271 324.204C289.282 333.171 272.326 342.618 255.994 350.983C238.319 341.951 221.438 331.333 203.884 322.047C199.057 319.494 194.193 316.1 188.967 314.518L188.967 256.28C192.657 258.085 196.139 260.576 199.608 262.784L217.965 274.471C221.872 276.949 225.738 279.585 229.842 281.726C236.498 278.34 242.485 273.678 249.185 270.26L249.177 332.785C249.175 336.358 248.36 341.514 251.198 344.302C254.346 347.394 260.827 345.547 261.373 341.032C261.708 338.263 261.523 335.306 261.517 332.52L261.493 268.874C266.067 271.72 278.006 281.162 283.159 280.023C288.684 278.802 305.101 266.662 311.343 263.205L314.15 265.958Z"/>
	<path fill="#04ACED" transform="scale(2 2)" d="M126.733 303.667C128.695 308.579 126.128 315.17 126.869 320.415C127.111 322.129 129.549 325.818 129.446 326.308L129.073 326.672C129.9 329.693 130.758 332.649 131.167 335.759C132.132 343.103 128.481 351.227 130.286 358.402C130.944 361.018 134.324 364.793 131.728 366.802C132.03 369.009 134.194 373.116 135.972 374.486C139.109 376.904 154.969 383.775 159.469 381.059C167.776 376.047 183.133 378.024 191.899 381.814C201.273 385.866 208.503 382.363 212.633 384.271C208.702 384.54 204.585 384.288 200.631 384.283L151.067 384.281C142.812 384.281 134.503 385.106 126.733 381.902L126.733 381.902C126.454 373.405 126.733 364.784 126.732 356.273L126.733 303.667Z"/>
</svg>
