<?xml version="1.0" encoding="utf-8" ?>
<svg xmlns="http://www.w3.org/2000/svg" xmlns:xlink="http://www.w3.org/1999/xlink" width="1024" height="1024">
	<defs>
		<linearGradient id="gradient_0" gradientUnits="userSpaceOnUse" x1="260.30954" y1="437.30856" x2="251.84442" y2="70.53019">
			<stop offset="0" stop-color="#104666"/>
			<stop offset="1" stop-color="#0968A5"/>
		</linearGradient>
	</defs>
	<path fill="url(#gradient_0)" transform="scale(2 2)" d="M379.125 435.251L154.539 435.256C145.102 435.257 134.104 435.934 124.836 434.604C99.2361 430.93 78.5939 408.168 75.8207 382.723C75.2263 377.27 75.4991 371.591 75.5008 366.109L75.5023 141.597C75.5023 136.465 75.2457 131.133 75.9114 126.041C79.9942 94.8161 104.324 75.8653 134.285 72.7512C140.255 72.367 146.334 72.7381 152.317 72.7431L354.346 72.7485C379.114 72.7466 398.624 70.6989 418.092 89.776C433.437 104.814 437.047 120.032 437.236 140.711L437.241 355.223C437.242 365.283 438.031 375.917 436.28 385.846C431.45 413.226 407.403 435.173 379.125 435.251ZM84.3238 123.537C82.7554 130.624 83.0024 138.168 82.992 145.394L83.0004 165.87C82.9896 166.086 82.9886 166.303 82.9866 166.519L83.0002 356.78C83.0002 366.555 82.3058 376.956 84.1208 386.593C87.9436 406.89 104.872 423.169 125.105 426.83C134.584 428.545 145.356 427.773 155.021 427.765L376.134 427.841C401.487 428.003 424.106 411.864 428.806 386.417C430.02 379.844 429.846 373.149 429.868 366.5L429.968 138.926L429.968 138.926C430.266 111.964 414.622 88.3446 387.549 82.0096C379.701 80.173 371.63 80.7074 363.628 80.7157L146.577 80.7208C141.611 80.7197 136.58 80.5742 131.631 81.0311C107.831 83.2281 89.6637 100.262 84.3238 123.537Z"/>
	<defs>
		<linearGradient id="gradient_1" gradientUnits="userSpaceOnUse" x1="256.819" y1="131.59265" x2="258.02966" y2="78.243439">
			<stop offset="0" stop-color="#84BDD4"/>
			<stop offset="1" stop-color="#D0DEDF"/>
		</linearGradient>
	</defs>
	<path fill="url(#gradient_1)" transform="scale(2 2)" d="M84.3238 123.537C89.6637 100.262 107.831 83.2281 131.631 81.0311C136.58 80.5742 141.611 80.7197 146.577 80.7208L363.628 80.7157C371.63 80.7074 379.701 80.173 387.549 82.0096C414.622 88.3446 430.266 111.964 429.968 138.926C428.411 136.944 427.985 131.96 427.346 129.357C422.196 108.381 404.588 89.1007 382.264 87.1733C377.362 86.75 372.427 86.8364 367.512 86.8367L151.696 86.8397C124.521 86.8393 107.243 86.8924 91.005 113.58C89.7367 115.665 87.2544 123.42 84.8 123.955L84.3238 123.537Z"/>
	<path fill="#8CD0EC" transform="scale(2 2)" d="M124.962 100.646C115.116 102.892 104.83 111.776 101.912 121.732C98.3455 129.296 100.216 141.782 99.7902 150.091C99.2017 150.762 98.9072 164.652 99.339 166.983L99.3302 165.712L99.0016 165.456C97.8178 165.658 97.9239 166.358 97.1188 166.456C96.4387 162.861 96.2384 165.805 93.7065 165.539C90.2721 165.178 85.3478 167.307 83.3982 169.983C82.9124 169.186 83.2894 166.983 83.0004 165.87L82.992 145.394C83.0024 138.168 82.7554 130.624 84.3238 123.537L84.8 123.955C87.2544 123.42 89.7367 115.665 91.005 113.58C107.243 86.8924 124.521 86.8393 151.696 86.8397L367.512 86.8367C372.427 86.8364 377.362 86.75 382.264 87.1733C404.588 89.1007 422.196 108.381 427.346 129.357C427.985 131.96 428.411 136.944 429.968 138.926L429.968 138.926C429.067 141.932 428.542 138.9 426.983 138.486C425.782 138.845 425.417 140.201 424.36 140.798C422.671 139.132 422.49 139.804 421.295 141.127C418.293 141.426 415.568 141.088 414.779 144.341L414.458 144.133L414.646 144.712C413.125 144.365 411.984 143.94 411.114 145.514C410.749 139.211 410.846 132.973 410.825 126.67L410.425 126.558C407.885 112.385 396.564 100.271 381.589 99.5788C377.267 99.3789 372.89 99.5112 368.562 99.5102L182.003 99.5053C172.024 99.5055 132.494 97.8269 124.962 100.646Z"/>
	<defs>
		<linearGradient id="gradient_2" gradientUnits="userSpaceOnUse" x1="278.19894" y1="85.278526" x2="231.93298" y2="415.42807">
			<stop offset="0" stop-color="#1A516C"/>
			<stop offset="1" stop-color="#74A4B5"/>
		</linearGradient>
	</defs>
	<path fill="url(#gradient_2)" transform="scale(2 2)" d="M124.962 100.646C132.494 97.8269 172.024 99.5055 182.003 99.5053L368.562 99.5102C372.89 99.5112 377.267 99.3789 381.589 99.5788C396.564 100.271 407.885 112.385 410.425 126.558C410.571 138.459 410.421 150.382 410.424 162.285L410.42 267.724C410.41 271.968 409.983 277.989 410.425 282.076L410.419 311.75C410.342 330.548 411.138 350.264 409.897 368.784C409.51 374.569 408.346 394.064 401.062 393.955C405.143 385.895 403.97 380.163 403.985 371.505L403.992 229.773L404.006 140.861C404.009 136.539 404.31 131.976 403.494 127.721C400.139 110.249 385.687 107.207 371.042 107.213L137.606 107.226C112.204 107.439 107.476 121.363 107.476 143.64L107.479 214.048C107.476 222.13 107.33 230.24 107.486 238.319C107.117 270.085 107.493 301.902 107.49 333.672L107.481 366.039C107.475 375.367 106.44 383.224 110.141 391.975L109.945 392.385C110.21 392.876 110.467 393.368 110.716 393.867C107.046 394.208 105.575 397.196 103.816 398.011C93.2668 386.018 95.786 361.706 95.7929 346.998L95.7707 203.501L96.1472 203.397C97.4742 203.959 98.033 204.535 99.1971 203.43C100.191 211.981 99.7966 220.694 99.7958 229.296L99.7916 269.726C99.7938 274.121 99.0363 283.22 99.6275 286.918L99.7455 286.817C100.218 282.635 99.79 275.97 99.7894 271.596L99.7767 179.373C99.7806 169.649 100.161 159.803 99.7902 150.091C100.216 141.782 98.3455 129.296 101.912 121.732L102.01 121.775C102.455 121.624 103.956 118.181 104.365 117.311C105.764 117.472 106.492 117.593 106.279 116.008L106.872 115.294C108.656 115.072 111.228 117.833 111.501 115.432L111.156 115C107.766 113.781 109.029 111.46 110.892 112.793C111.44 113.185 111.676 113.286 112.341 113.417L112.568 113.459C112.719 114.148 112.388 114.699 112.131 115.324L111.994 115.652L112.242 115.9L112.432 115.692L112.787 115.913L113.214 115.732C115.001 113.674 114.419 111.8 111.645 112.368L111.557 112.082C112.407 111.776 113.3 111.581 114.175 111.355L114.047 111.445L114.573 111.443C114.766 111.914 114.823 112.061 115.212 112.414L115.534 112.154L115.593 111.527C114.596 110.293 111.379 110.875 112.21 108.341C113.197 105.328 122.313 101.761 125.004 100.975L124.962 100.646Z"/>
	<path fill="#166281" transform="scale(2 2)" d="M101.912 121.732C104.83 111.776 115.116 102.892 124.962 100.646L125.004 100.975C122.313 101.761 113.197 105.328 112.21 108.341C111.379 110.875 114.596 110.293 115.593 111.527L115.534 112.154L115.212 112.414C114.823 112.061 114.766 111.914 114.573 111.443L114.047 111.445L114.175 111.355C113.3 111.581 112.407 111.776 111.557 112.082L111.645 112.368C114.419 111.8 115.001 113.674 113.214 115.732L112.787 115.913L112.432 115.692L112.242 115.9L111.994 115.652L112.131 115.324C112.388 114.699 112.719 114.148 112.568 113.459L112.341 113.417C111.676 113.286 111.44 113.185 110.892 112.793C109.029 111.46 107.766 113.781 111.156 115L111.501 115.432C111.228 117.833 108.656 115.072 106.872 115.294L106.279 116.008C106.492 117.593 105.764 117.472 104.365 117.311C103.956 118.181 102.455 121.624 102.01 121.775L101.912 121.732Z"/>
	<defs>
		<linearGradient id="gradient_3" gradientUnits="userSpaceOnUse" x1="255.30724" y1="107.19299" x2="255.71036" y2="261.54449">
			<stop offset="0" stop-color="#FA8503"/>
			<stop offset="1" stop-color="#FBA73F"/>
		</linearGradient>
	</defs>
	<path fill="url(#gradient_3)" transform="scale(2 2)" d="M403.992 229.773C401.691 229.809 398.783 232.188 396.769 233.243C346.766 259.442 301.194 261.781 247.151 261.807C245.64 258.523 244.636 254.788 243.467 251.356L236.388 230.098C231.401 214.702 226.074 199.453 221.301 183.982L182.449 183.982C180.122 189.746 178.467 196.038 176.549 201.96L166.378 233.069C164.546 238.711 162.922 244.459 160.907 250.039L160.907 250.039C141.383 245.353 125.944 238.714 107.486 233.017C107.534 234.784 107.621 236.554 107.486 238.319C107.33 230.24 107.476 222.13 107.479 214.048L107.476 143.64C107.476 121.363 112.204 107.439 137.606 107.226L371.042 107.213C385.687 107.207 400.139 110.249 403.494 127.721C404.31 131.976 404.009 136.539 404.006 140.861L403.992 229.773Z"/>
	<defs>
		<linearGradient id="gradient_4" gradientUnits="userSpaceOnUse" x1="259.66193" y1="429.73425" x2="253.78349" y2="142.02379">
			<stop offset="0" stop-color="#2A647F"/>
			<stop offset="1" stop-color="#6AB1CA"/>
		</linearGradient>
	</defs>
	<path fill="url(#gradient_4)" transform="scale(2 2)" d="M410.425 126.558L410.825 126.67C410.846 132.973 410.749 139.211 411.114 145.514C411.984 143.94 413.125 144.365 414.646 144.712L414.458 144.133L414.779 144.341C415.568 141.088 418.293 141.426 421.295 141.127C422.49 139.804 422.671 139.132 424.36 140.798C425.417 140.201 425.782 138.845 426.983 138.486C428.542 138.9 429.067 141.932 429.968 138.926L429.868 366.5C429.846 373.149 430.02 379.844 428.806 386.417C424.106 411.864 401.487 428.003 376.134 427.841L155.021 427.765C145.356 427.773 134.584 428.545 125.105 426.83C104.872 423.169 87.9436 406.89 84.1208 386.593C82.3058 376.956 83.0002 366.555 83.0002 356.78L82.9866 166.519C82.9886 166.303 82.9896 166.086 83.0004 165.87C83.2894 166.983 82.9124 169.186 83.3982 169.983C85.3478 167.307 90.2721 165.178 93.7065 165.539C96.2384 165.805 96.4387 162.861 97.1188 166.456C97.9239 166.358 97.8178 165.658 99.0016 165.456L99.3302 165.712L99.339 166.983C98.9072 164.652 99.2017 150.762 99.7902 150.091C100.161 159.803 99.7806 169.649 99.7767 179.373L99.7894 271.596C99.79 275.97 100.218 282.635 99.7455 286.817L99.6275 286.918C99.0363 283.22 99.7938 274.121 99.7916 269.726L99.7958 229.296C99.7966 220.694 100.191 211.981 99.1971 203.43C98.033 204.535 97.4742 203.959 96.1472 203.397L95.7707 203.501L95.7929 346.998C95.786 361.706 93.2668 386.018 103.816 398.011C115.221 413.464 128.329 414.991 145.68 414.997L360.178 414.998C366.303 415.001 372.524 415.22 378.638 414.919C396.27 414.051 411.749 400.879 415.189 383.542C416.473 377.07 416.145 370.439 416.143 363.883L416.151 306.626C416.149 298.93 416.296 291.221 415.87 283.535C415.58 286.313 416.168 292.051 416.163 295.241L416.15 334.982C416.151 340.397 416.635 349.249 415.916 354.218L415.565 354.27L415.6 353.815L415.357 354.199C414.408 353.803 413.384 353.242 412.342 353.248L412.07 353.688C411.408 353.882 411.146 354.039 410.47 353.85C408.444 350.53 412.857 287.796 410.425 282.076C409.983 277.989 410.41 271.968 410.42 267.724L410.424 162.285C410.421 150.382 410.571 138.459 410.425 126.558Z"/>
	<path fill="#FFAF02" transform="scale(2 2)" d="M160.907 250.039L160.907 250.039C162.922 244.459 164.546 238.711 166.378 233.069L176.549 201.96C178.467 196.038 180.122 189.746 182.449 183.982L221.301 183.982C226.074 199.453 231.401 214.702 236.388 230.098L243.467 251.356C244.636 254.788 245.64 258.523 247.151 261.807C247.599 264.25 248.609 266.789 249.386 269.153L270.946 335.042C272.72 340.446 274.673 345.793 276.351 351.228C264.792 351.031 253.2 351.223 241.638 351.228C238.062 337.028 233.235 322.989 228.812 309.027L173.713 309.027C170.169 321.951 165.468 338.893 160.907 351.228C154.023 351.548 134.067 352.162 127.45 351.228C129.879 342.715 132.867 334.439 135.719 326.065L144.598 299.523C150.159 283.068 155.213 266.445 160.907 250.039ZM201.216 213.394C200.705 219.193 198.52 225.316 196.874 230.912L189.268 256.329L189.268 256.329C186.196 265.303 183.478 274.677 180.973 283.834L222.311 283.834C220.141 275.878 217.543 267.838 214.96 260.002L214.96 260.002L205.56 227.978C204.125 223.131 202.984 218.129 201.216 213.394Z"/>
	<path fill="#FC9E02" transform="scale(2 2)" d="M189.268 256.329L196.874 230.912C198.52 225.316 200.705 219.193 201.216 213.394C202.984 218.129 204.125 223.131 205.56 227.978L214.96 260.002C208.013 258.578 196.207 256.736 189.268 256.329Z"/>
	<path fill="#F88C01" transform="scale(2 2)" d="M247.151 261.807C301.194 261.781 346.766 259.442 396.769 233.243C398.783 232.188 401.691 229.809 403.992 229.773L403.985 371.505C403.97 380.163 405.143 385.895 401.062 393.955C391.408 408.553 383.704 407.739 368.992 407.7L151.174 407.72C132.857 407.718 121.343 409.181 110.141 391.975C106.44 383.224 107.475 375.367 107.481 366.039L107.49 333.672C107.493 301.902 107.117 270.085 107.486 238.319C107.621 236.554 107.534 234.784 107.486 233.017C125.944 238.714 141.383 245.353 160.907 250.039C155.213 266.445 150.159 283.068 144.598 299.523L135.719 326.065C132.867 334.439 129.879 342.715 127.45 351.228C134.067 352.162 154.023 351.548 160.907 351.228C165.468 338.893 170.169 321.951 173.713 309.027L228.812 309.027C233.235 322.989 238.062 337.028 241.638 351.228C253.2 351.223 264.792 351.031 276.351 351.228C274.673 345.793 272.72 340.446 270.946 335.042L249.386 269.153C248.609 266.789 247.599 264.25 247.151 261.807ZM316.367 261.807C316.598 273.781 316.363 285.803 316.367 297.783L282.046 297.783L282.046 330.409L316.367 330.409L316.367 363.797L347.014 363.797L349.489 363.797L349.489 330.409L381.166 330.409L381.166 297.783C370.635 297.507 360.03 297.786 349.489 297.783L349.489 261.807C338.462 261.712 327.392 261.67 316.367 261.807Z"/>
	<path fill="#F88C01" transform="scale(2 2)" d="M189.268 256.329C196.207 256.736 208.013 258.578 214.96 260.002L214.96 260.002C217.543 267.838 220.141 275.878 222.311 283.834L180.973 283.834C183.478 274.677 186.196 265.303 189.268 256.329L189.268 256.329Z"/>
	<path fill="#4CB6E1" transform="scale(2 2)" d="M316.367 297.783C316.363 285.803 316.598 273.781 316.367 261.807C327.392 261.67 338.462 261.712 349.489 261.807L349.489 297.783C360.03 297.786 370.635 297.507 381.166 297.783L381.166 330.409L349.489 330.409L349.489 363.797L347.014 363.797L316.367 363.797L316.367 330.409L282.046 330.409L282.046 297.783L316.367 297.783ZM326.407 320.239L326.407 350.403L326.407 354.147C328.702 354.154 337.794 354.656 339.394 353.791L339.395 353.151C339.724 342.223 339.4 331.178 339.395 320.239L371.537 320.239L371.537 307.713L339.395 307.713L339.395 272.143L326.407 272.143L326.407 307.713L291.232 307.713L291.232 320.239L326.407 320.239Z"/>
	<path fill="white" transform="scale(2 2)" d="M326.407 350.403L326.407 320.239L291.232 320.239L291.232 307.713L326.407 307.713L326.407 272.143L339.395 272.143L339.395 307.713L371.537 307.713L371.537 320.239L339.395 320.239C339.4 331.178 339.724 342.223 339.395 353.151L339.394 353.791C337.794 354.656 328.702 354.154 326.407 354.147L326.407 350.403Z"/>
	<defs>
		<linearGradient id="gradient_5" gradientUnits="userSpaceOnUse" x1="259.14975" y1="362.3967" x2="262.77979" y2="421.54108">
			<stop offset="0" stop-color="#7AA4B5"/>
			<stop offset="1" stop-color="#9FBDC0"/>
		</linearGradient>
	</defs>
	<path fill="url(#gradient_5)" transform="scale(2 2)" d="M410.425 282.076C412.857 287.796 408.444 350.53 410.47 353.85C411.146 354.039 411.408 353.882 412.07 353.688L412.342 353.248C413.384 353.242 414.408 353.803 415.357 354.199L415.6 353.815L415.565 354.27L415.916 354.218C416.635 349.249 416.151 340.397 416.15 334.982L416.163 295.241C416.168 292.051 415.58 286.313 415.87 283.535C416.296 291.221 416.149 298.93 416.151 306.626L416.143 363.883C416.145 370.439 416.473 377.07 415.189 383.542C411.749 400.879 396.27 414.051 378.638 414.919C372.524 415.22 366.303 415.001 360.178 414.998L145.68 414.997C128.329 414.991 115.221 413.464 103.816 398.011C105.575 397.196 107.046 394.208 110.716 393.867C110.467 393.368 110.21 392.876 109.945 392.385L110.141 391.975C121.343 409.181 132.857 407.718 151.174 407.72L368.992 407.7C383.704 407.739 391.408 408.553 401.062 393.955C408.346 394.064 409.51 374.569 409.897 368.784C411.138 350.264 410.342 330.548 410.419 311.75L410.425 282.076Z"/>
</svg>
