<?xml version="1.0" encoding="utf-8" ?>
<svg xmlns="http://www.w3.org/2000/svg" xmlns:xlink="http://www.w3.org/1999/xlink" width="1024" height="1024">
	<path fill="#166281" transform="scale(2 2)" d="M265.612 453.612C155.908 458.797 62.7497 374.117 57.4747 264.418C52.1998 154.719 136.804 61.4915 246.498 56.1269C356.32 50.7562 449.679 135.479 454.96 245.305C460.241 355.131 375.442 448.42 265.612 453.612ZM83.8635 186.138C60.2602 245.49 68.8746 312.812 106.662 364.307C120.311 382.908 137.313 398.798 156.793 411.16C203.768 440.968 261.648 448.102 314.455 430.593C353.246 417.731 386.699 392.411 409.611 358.571C440.479 312.982 449.485 256.031 434.19 203.142C412.18 127.034 344.235 73.3269 265.102 69.4859C185.968 65.6449 113.141 112.52 83.8635 186.138Z"/>
	<defs>
		<linearGradient id="gradient_0" gradientUnits="userSpaceOnUse" x1="265.69894" y1="149.57434" x2="269.63474" y2="69.214752">
			<stop offset="0" stop-color="#97C1D9"/>
			<stop offset="1" stop-color="#C8DFEE"/>
		</linearGradient>
	</defs>
	<path fill="url(#gradient_0)" transform="scale(2 2)" d="M83.8635 186.138C113.141 112.52 185.968 65.6449 265.102 69.4859C344.235 73.3269 412.18 127.034 434.19 203.142C432.627 201.734 432.328 197.901 431.692 195.908C427.71 183.42 421.595 171.592 415.057 160.262C414.535 159.358 409.912 150.467 409.469 154.857L409.06 155.215C408.327 154.947 403.226 155.957 402.169 156.254L401.997 156.49C402.94 158.521 404.452 160.372 405.56 162.364C409.953 170.26 427.124 205.61 426.309 213.154L426.017 213.193C420.444 193.805 414.143 176.591 403.121 159.372C364.975 99.7786 291.294 68.0738 221.821 82.2669C161.447 94.6008 116.987 135.429 93.0575 190.685L92.9682 190.597C91.437 184.808 118.646 145.364 123.557 139.791C125.77 137.279 130.446 133.146 131.69 130.216C128.49 130.024 124.23 130.805 121.58 128.609C117.235 128.798 96.0221 160.912 91.7429 169.449C90.3212 172.285 85.558 185.096 83.8635 186.138Z"/>
	<defs>
		<linearGradient id="gradient_1" gradientUnits="userSpaceOnUse" x1="225.22232" y1="81.900902" x2="286.11859" y2="425.95026">
			<stop offset="0" stop-color="#F38D0C"/>
			<stop offset="1" stop-color="#F8B125"/>
		</linearGradient>
	</defs>
	<path fill="url(#gradient_1)" transform="scale(2 2)" d="M400.932 176.626C381.82 139.412 346.452 110.848 306.802 98.1025C213.683 68.1677 114.465 127.16 95.3043 221.275C94.5393 225.033 94.1869 229.194 93.0575 232.834C81.7334 322.186 144.176 405.738 233.996 417.023C301.725 425.532 363.04 394.836 398.532 336.39C404.637 326.336 409.64 315.76 413.23 304.543C418.359 288.52 421.762 267.988 421.089 251.467C420.509 237.22 415.715 233.591 427.552 224.773C431.1 226.085 430.06 267.712 429.498 274.351C429.17 278.229 428.141 282.066 427.945 285.941L427.726 286.215C425.665 298.973 421.714 311.005 416.78 322.918L417.114 323.253C413.911 331.723 408.906 338.296 405.882 345.697C403.355 348.737 401.502 352.267 399.19 355.463C386.122 373.532 375.426 381.01 360.058 394.798C340.933 407.812 325.626 416.438 302.61 422.831C296.582 424.447 290.531 425.47 284.466 426.863C282.417 426.914 280.129 427.441 278.082 427.718C233.505 433.751 200.598 423.129 162.772 402.585C162.38 401.857 157.849 399.236 156.942 398.624C145.513 390.915 134.758 381.689 125.59 371.402C122.033 367.411 118.605 362.21 114.643 358.732C113.207 355.332 110.551 352.383 108.588 349.262C78.2096 300.972 72.368 244.366 93.0575 190.685C116.987 135.429 161.447 94.6008 221.821 82.2669C291.294 68.0738 364.975 99.7786 403.121 159.372C414.143 176.591 420.444 193.805 426.017 213.193L428.32 223.187C425.976 224.853 421.136 230.419 419.147 232.834C417.27 218.636 408.806 188.495 400.932 176.626Z"/>
	<defs>
		<linearGradient id="gradient_2" gradientUnits="userSpaceOnUse" x1="259.89783" y1="90.366821" x2="255.21886" y2="260.83408">
			<stop offset="0" stop-color="#F56712"/>
			<stop offset="1" stop-color="#F69C1A"/>
		</linearGradient>
	</defs>
	<path fill="url(#gradient_2)" transform="scale(2 2)" d="M371.561 155.156C364.213 138.355 329.444 142.653 314.458 142.653L193.12 142.65C172.439 142.65 148.822 138.195 137.746 160.815C137.142 162.176 136.496 163.523 136.065 164.951C134.472 170.787 134.951 177.1 134.951 183.109L134.957 259.898C134.451 257.67 133.102 257.867 131.081 257.17C117.231 252.392 111.925 245.801 101.168 239.8C98.3026 237.684 95.996 234.862 93.0575 232.834C94.1869 229.194 94.5393 225.033 95.3043 221.275C114.465 127.16 213.683 68.1677 306.802 98.1025C346.452 110.848 381.82 139.412 400.932 176.626L400.728 177.133C402.599 181.335 405.476 186.135 407.125 190.496C409.538 196.875 419.999 228.271 418.364 232.886C413.668 238.624 390.158 256.712 384.2 259.898C382.523 259.335 379.975 261.235 378.624 262.107L378.495 262.02L378.311 262.162C376.941 260.171 376.915 225.291 376.911 220.959L376.943 208.413C376.97 205.911 377.207 203.401 376.928 200.906C376.054 188.848 378.731 174.96 375.363 163.324L374.119 159.938C373.441 158.279 372.687 156.56 371.561 155.156Z"/>
	<path fill="#4CB6E1" transform="scale(2 2)" d="M106.662 364.307C68.8746 312.812 60.2602 245.49 83.8635 186.138C85.558 185.096 90.3212 172.285 91.7429 169.449C96.0221 160.912 117.235 128.798 121.58 128.609C124.23 130.805 128.49 130.024 131.69 130.216C130.446 133.146 125.77 137.279 123.557 139.791C118.646 145.364 91.437 184.808 92.9682 190.597L93.0575 190.685C72.368 244.366 78.2096 300.972 108.588 349.262C110.551 352.383 113.207 355.332 114.643 358.732C115.016 360.835 128.304 374.546 128.273 375.172C128.204 376.576 123.288 380.899 122.271 382.419C120.333 380.061 107.435 364.631 106.662 364.307Z"/>
	<path fill="#CCEAF6" transform="scale(2 2)" d="M371.561 155.156L371.452 155.547L372.661 158.063C372.059 158.372 371.573 157.873 371.191 158.498L371.334 158.89C369.771 159.304 368.445 158.149 366.968 157.829C356.693 149.163 353.924 149.182 341.125 149.186L177.435 149.182C162.983 149.157 152.107 148.519 143.801 163.791L143.541 163.845C144.382 160.208 142.33 161.371 137.746 160.815C148.822 138.195 172.439 142.65 193.12 142.65L314.458 142.653C329.444 142.653 364.213 138.355 371.561 155.156Z"/>
	<defs>
		<linearGradient id="gradient_3" gradientUnits="userSpaceOnUse" x1="261.09854" y1="365.65549" x2="255.56886" y2="147.2074">
			<stop offset="0" stop-color="#1098D1"/>
			<stop offset="1" stop-color="#5AC8EC"/>
		</linearGradient>
	</defs>
	<path fill="url(#gradient_3)" transform="scale(2 2)" d="M137.746 160.815C142.33 161.371 144.382 160.208 143.541 163.845L143.801 163.791C152.107 148.519 162.983 149.157 177.435 149.182L341.125 149.186C353.924 149.182 356.693 149.163 366.968 157.829C368.763 159.54 371.691 160.235 374.119 159.938L375.363 163.324C373.51 163.272 371.647 163.391 369.803 163.324C371.369 168.577 370.755 174.974 370.745 180.434L370.727 308.109C370.728 327.098 376.134 356.784 352.481 363.411C348.631 364.49 342.918 364.021 338.824 364.022L169.128 364.031C156.432 364.057 146.17 362.878 142.401 347.268C141.278 342.617 141.795 336.781 141.794 331.997L141.807 178.677C141.823 174.175 142.395 169.399 141.802 164.951C139.912 165.011 137.941 165.185 136.065 164.951C136.496 163.523 137.142 162.176 137.746 160.815ZM353.055 216.42L353.071 181.662C353.072 175.812 355.774 161.575 347.303 160.113C337.446 158.413 306.608 159.77 295.735 159.931C287.515 160.053 289.175 169.366 289.219 174.893L289.224 207.943C289.212 210.776 288.861 213.594 289.231 216.42C285.318 230.634 309.683 226.098 317.658 226.098C325.229 226.098 357.568 231.118 353.055 216.42ZM158.553 217.867C158.209 223.683 162.187 225.795 167.222 226.008C176.591 226.405 210.334 227.432 218.97 225.845C222.183 225.255 224.983 220.906 223.141 217.867C222.617 215.643 223.116 211.885 223.122 209.469L223.153 180.154C223.155 172.976 226.128 159.952 215.483 159.932L179.543 159.935C156.624 159.943 158.562 157.581 158.559 183.096L158.553 217.867ZM354.004 345.697L354.011 311.546C354.02 294.532 358.165 287.576 338.22 287.685L305.684 287.687C286.25 287.619 289.203 289.893 289.208 307.012L289.233 333.524C289.24 337.805 289.524 342.265 289.231 346.522C287.823 352.837 293.819 353.842 298.503 353.896C309.189 354.019 319.888 353.918 330.575 353.913C338.691 353.909 354.525 357.347 354.004 345.697ZM222.487 346.522C222.324 334.12 222.478 321.696 222.485 309.292C222.489 302.677 224.66 293.247 219.103 288.468C206.83 288.133 194.463 288.49 182.181 288.485L170.884 288.433C166.001 288.391 161.812 287.467 158.553 291.853L158.569 341.629C158.575 343.189 158.767 344.991 158.553 346.522C157.968 356.827 167.977 353.916 175.119 353.914L209.66 353.905C214.243 353.902 219.622 355.062 222.487 350.666C222.666 349.396 223.046 347.726 222.487 346.522ZM256.258 208.718C252.423 211.339 242.799 221.579 239.692 225.448L251.465 225.448L251.465 250.776L231.517 250.776L231.517 261.949L251.465 261.949L251.465 287.093C247.585 287.062 243.559 286.814 239.692 287.093C244.189 292.189 251.233 299.961 256.258 304.538C260.826 299.29 268.217 291.527 273.413 287.093C269.625 287.112 265.839 287.134 262.051 287.093C262.149 278.717 262.097 270.326 262.051 261.949L282.254 261.949L282.254 250.776C275.597 250.395 268.733 250.784 262.051 250.776L262.051 225.448C265.837 225.596 269.625 225.433 273.413 225.448C271.103 223.102 257.564 208.981 256.258 208.718ZM307.949 239.042C301.038 244.129 295.553 251.029 289.231 256.768C295.551 262.394 301.305 269.046 307.949 274.255L307.949 261.949L328.375 261.949L347.578 261.966C350.77 261.971 354.047 262.167 357.226 261.949L357.226 250.776L307.949 250.776C307.624 246.8 307.506 243.02 307.949 239.042ZM204.483 239.042L204.483 250.776C189.962 250.774 175.342 251.141 160.833 250.776C156.174 254.44 155.783 258.138 160.833 261.949L186.375 261.949L204.483 261.949L204.483 273.441C209.743 268.029 218.008 261.338 222.487 255.853C218.119 252.032 207.684 240.376 204.483 239.042Z"/>
	<path fill="#4CB6E1" transform="scale(2 2)" d="M434.19 203.142C449.485 256.031 440.479 312.982 409.611 358.571C408.283 359.187 408.038 360.858 406.901 361.706C404.406 359.957 405.182 355.978 403.828 353.483C400.995 348.265 405.906 349.497 405.882 345.697C408.906 338.296 413.911 331.723 417.114 323.253C431.033 294.183 433.52 254.448 428.32 223.187L426.017 213.193L426.309 213.154C427.124 205.61 409.953 170.26 405.56 162.364C404.452 160.372 402.94 158.521 401.997 156.49L402.169 156.254C403.226 155.957 408.327 154.947 409.06 155.215L409.469 154.857C409.912 150.467 414.535 159.358 415.057 160.262C421.595 171.592 427.71 183.42 431.692 195.908C432.328 197.901 432.627 201.734 434.19 203.142Z"/>
	<path fill="#8CD0EC" transform="scale(2 2)" d="M366.968 157.829C368.445 158.149 369.771 159.304 371.334 158.89L371.191 158.498C371.573 157.873 372.059 158.372 372.661 158.063L371.452 155.547L371.561 155.156C372.687 156.56 373.441 158.279 374.119 159.938C371.691 160.235 368.763 159.54 366.968 157.829Z"/>
	<path fill="white" transform="scale(2 2)" d="M289.231 216.42C288.861 213.594 289.212 210.776 289.224 207.943L289.219 174.893C289.175 169.366 287.515 160.053 295.735 159.931C306.608 159.77 337.446 158.413 347.303 160.113C355.774 161.575 353.072 175.812 353.071 181.662L353.055 216.42C351.897 219.642 349.192 221.633 345.833 221.883C340.23 222.299 296.041 222.411 293.191 221.449C290.85 220.659 289.848 218.606 289.231 216.42ZM341.013 174.76L341.013 171.52L301.157 171.52L301.157 174.76C300.81 186.765 301.15 198.878 301.157 210.896L341.013 210.896L341.013 174.76Z"/>
	<path fill="white" transform="scale(2 2)" d="M158.553 217.867L158.559 183.096C158.562 157.581 156.624 159.943 179.543 159.935L215.483 159.932C226.128 159.952 223.155 172.976 223.153 180.154L223.122 209.469C223.116 211.885 222.617 215.643 223.141 217.867C221.919 221.803 219.357 222.93 215.572 223.135C209.881 223.441 165.76 223.597 163.182 222.649C160.885 221.805 159.523 220.031 158.553 217.867ZM211.921 174.313C211.587 169.111 203.63 171.511 198.123 171.512L170.01 171.52L170.01 174.313C169.843 186.499 170.003 198.708 170.01 210.896L211.921 210.896L211.93 187.699C211.94 183.247 212.087 178.762 211.921 174.313Z"/>
	<defs>
		<linearGradient id="gradient_4" gradientUnits="userSpaceOnUse" x1="285.89893" y1="386.93906" x2="229.11476" y2="144.32352">
			<stop offset="0" stop-color="#07619A"/>
			<stop offset="1" stop-color="#0498DC"/>
		</linearGradient>
	</defs>
	<path fill="url(#gradient_4)" transform="scale(2 2)" d="M369.803 163.324C371.647 163.391 373.51 163.272 375.363 163.324C378.731 174.96 376.054 188.848 376.928 200.906C376.567 210.789 376.933 220.818 376.933 230.718L376.926 324.459C376.915 328.381 376.449 335.166 376.928 338.768C377.147 350.471 376.354 355.23 367.978 363.881C366.843 365.052 364.495 366.524 363.715 367.804C355.324 372.303 349.332 372.146 339.979 372.148L171.179 372.16C160.92 372.19 154.984 372.371 145.988 366.346C143.637 364.316 141.739 362.029 139.731 359.68C134.809 351.457 134.903 346.245 134.932 336.967L134.957 259.898L134.951 183.109C134.951 177.1 134.472 170.787 136.065 164.951C137.941 165.185 139.912 165.011 141.802 164.951C142.395 169.399 141.823 174.175 141.807 178.677L141.794 331.997C141.795 336.781 141.278 342.617 142.401 347.268C146.17 362.878 156.432 364.057 169.128 364.031L338.824 364.022C342.918 364.021 348.631 364.49 352.481 363.411C376.134 356.784 370.728 327.098 370.727 308.109L370.745 180.434C370.755 174.974 371.369 168.577 369.803 163.324Z"/>
	<path fill="#166281" transform="scale(2 2)" d="M211.921 174.313L184.02 174.324C179.37 174.326 174.651 174.523 170.01 174.313L170.01 171.52L198.123 171.512C203.63 171.511 211.587 169.111 211.921 174.313Z"/>
	<path fill="#1E85AE" transform="scale(2 2)" d="M341.013 174.76L301.157 174.76L301.157 171.52L341.013 171.52L341.013 174.76Z"/>
	<path fill="#4CB6E1" transform="scale(2 2)" d="M170.01 174.313C174.651 174.523 179.37 174.326 184.02 174.324L211.921 174.313C212.087 178.762 211.94 183.247 211.93 187.699L211.921 210.896L170.01 210.896C170.003 198.708 169.843 186.499 170.01 174.313Z"/>
	<path fill="#4CB6E1" transform="scale(2 2)" d="M301.157 174.76L341.013 174.76L341.013 210.896L301.157 210.896C301.15 198.878 300.81 186.765 301.157 174.76Z"/>
	<defs>
		<linearGradient id="gradient_5" gradientUnits="userSpaceOnUse" x1="178.43181" y1="169.2196" x2="346.00391" y2="391.27942">
			<stop offset="0" stop-color="#FC6E0B"/>
			<stop offset="1" stop-color="#F4900C"/>
		</linearGradient>
	</defs>
	<path fill="url(#gradient_5)" transform="scale(2 2)" d="M384.2 259.898C390.158 256.712 413.668 238.624 418.364 232.886C419.999 228.271 409.538 196.875 407.125 190.496C405.476 186.135 402.599 181.335 400.728 177.133L400.932 176.626C408.806 188.495 417.27 218.636 419.147 232.834C421.136 230.419 425.976 224.853 428.32 223.187C433.52 254.448 431.033 294.183 417.114 323.253L416.78 322.918C421.714 311.005 425.665 298.973 427.726 286.215L427.945 285.941C428.141 282.066 429.17 278.229 429.498 274.351C430.06 267.712 431.1 226.085 427.552 224.773C415.715 233.591 420.509 237.22 421.089 251.467C421.762 267.988 418.359 288.52 413.23 304.543C409.64 315.76 404.637 326.336 398.532 336.39C363.04 394.836 301.725 425.532 233.996 417.023C144.176 405.738 81.7334 322.186 93.0575 232.834C95.996 234.862 98.3026 237.684 101.168 239.8L100.827 239.915C100.385 239.578 99.9706 239.26 99.488 238.981C95.147 278.651 106.61 320.222 131.623 351.422C133.438 353.687 136.729 359.282 139.731 359.68C141.739 362.029 143.637 364.316 145.988 366.346C146.754 370.22 160.974 380.554 164.937 383.215C221.944 421.488 299.106 422.334 353.538 377.821C356.639 375.285 362.34 371.685 363.715 367.804C364.495 366.524 366.843 365.052 367.978 363.881C376.354 355.23 377.147 350.471 376.928 338.768C377.225 336.501 376.961 333.963 376.953 331.668L376.928 263.929C378.991 261.94 381.552 260.869 384.2 259.898Z"/>
	<path fill="#FC9E02" transform="scale(2 2)" d="M376.928 338.768C376.449 335.166 376.915 328.381 376.926 324.459L376.933 230.718C376.933 220.818 376.567 210.789 376.928 200.906C377.207 203.401 376.97 205.911 376.943 208.413L376.911 220.959C376.915 225.291 376.941 260.171 378.311 262.162L378.495 262.02L378.624 262.107C379.975 261.235 382.523 259.335 384.2 259.898C381.552 260.869 378.991 261.94 376.928 263.929L376.953 331.668C376.961 333.963 377.225 336.501 376.928 338.768Z"/>
	<path fill="#4CB6E1" transform="scale(2 2)" d="M239.692 225.448C242.799 221.579 252.423 211.339 256.258 208.718C257.564 208.981 271.103 223.102 273.413 225.448C269.625 225.433 265.837 225.596 262.051 225.448L262.051 250.776C268.733 250.784 275.597 250.395 282.254 250.776L282.254 261.949L262.051 261.949C262.097 270.326 262.149 278.717 262.051 287.093C265.839 287.134 269.625 287.112 273.413 287.093C268.217 291.527 260.826 299.29 256.258 304.538C251.233 299.961 244.189 292.189 239.692 287.093C243.559 286.814 247.585 287.062 251.465 287.093L251.465 261.949L231.517 261.949L231.517 250.776L251.465 250.776L251.465 225.448L239.692 225.448Z"/>
	<path fill="#1E85AE" transform="scale(2 2)" d="M353.055 216.42C357.568 231.118 325.229 226.098 317.658 226.098C309.683 226.098 285.318 230.634 289.231 216.42C289.848 218.606 290.85 220.659 293.191 221.449C296.041 222.411 340.23 222.299 345.833 221.883C349.192 221.633 351.897 219.642 353.055 216.42Z"/>
	<path fill="#1E85AE" transform="scale(2 2)" d="M223.141 217.867C224.983 220.906 222.183 225.255 218.97 225.845C210.334 227.432 176.591 226.405 167.222 226.008C162.187 225.795 158.209 223.683 158.553 217.867C159.523 220.031 160.885 221.805 163.182 222.649C165.76 223.597 209.881 223.441 215.572 223.135C219.357 222.93 221.919 221.803 223.141 217.867Z"/>
	<path fill="#F88C01" transform="scale(2 2)" d="M101.168 239.8C111.925 245.801 117.231 252.392 131.081 257.17C133.102 257.867 134.451 257.67 134.957 259.898L134.932 336.967C134.903 346.245 134.809 351.457 139.731 359.68C136.729 359.282 133.438 353.687 131.623 351.422C106.61 320.222 95.147 278.651 99.488 238.981C99.9706 239.26 100.385 239.578 100.827 239.915L101.168 239.8Z"/>
	<path fill="#4CB6E1" transform="scale(2 2)" d="M289.231 256.768C295.553 251.029 301.038 244.129 307.949 239.042C307.506 243.02 307.624 246.8 307.949 250.776L357.226 250.776L357.226 261.949C354.047 262.167 350.77 261.971 347.578 261.966L328.375 261.949L307.949 261.949L307.949 274.255C301.305 269.046 295.551 262.394 289.231 256.768Z"/>
	<path fill="#4CB6E1" transform="scale(2 2)" d="M204.483 250.776L204.483 239.042C207.684 240.376 218.119 252.032 222.487 255.853C218.008 261.338 209.743 268.029 204.483 273.441L204.483 261.949L186.375 261.949L160.833 261.949C155.783 258.138 156.174 254.44 160.833 250.776C175.342 251.141 189.962 250.774 204.483 250.776Z"/>
	<path fill="white" transform="scale(2 2)" d="M354.004 345.697C349.714 352.07 343.174 350.665 336.397 350.672L303.263 350.676C298.291 350.672 292.075 351.764 289.231 346.522C289.524 342.265 289.24 337.805 289.233 333.524L289.208 307.012C289.203 289.893 286.25 287.619 305.684 287.687L338.22 287.685C358.165 287.576 354.02 294.532 354.011 311.546L354.004 345.697ZM341.972 299.594L301.157 299.594L301.157 302.234L301.157 338.768L341.972 338.768L341.979 312.614C341.984 308.314 342.249 303.879 341.972 299.594Z"/>
	<path fill="white" transform="scale(2 2)" d="M219.103 288.468C224.66 293.247 222.489 302.677 222.485 309.292C222.478 321.696 222.324 334.12 222.487 346.522C221.269 349.282 219.434 350.553 216.503 350.687C201.338 351.38 179.089 351.447 164.058 350.54C161.267 350.372 159.823 348.948 158.553 346.522C158.767 344.991 158.575 343.189 158.569 341.629L158.553 291.853C161.812 287.467 166.001 288.391 170.884 288.433L182.181 288.485C194.463 288.49 206.83 288.133 219.103 288.468ZM210.932 301.659C210.91 301.019 210.974 300.481 210.651 299.912C203.013 299.074 178.459 298.686 170.166 299.646C169.982 300.326 170.003 300.962 170.01 301.659L170.01 338.768C174.492 339.02 179.112 338.784 183.611 338.782L210.932 338.768L210.924 313.77C210.917 309.79 210.619 305.619 210.932 301.659Z"/>
	<path fill="#166281" transform="scale(2 2)" d="M210.932 301.659C197.305 301.661 183.63 301.918 170.01 301.659C170.003 300.962 169.982 300.326 170.166 299.646C178.459 298.686 203.013 299.074 210.651 299.912C210.974 300.481 210.91 301.019 210.932 301.659Z"/>
	<path fill="#166281" transform="scale(2 2)" d="M301.157 299.594L341.972 299.594C341.395 304.253 331.872 302.235 326.947 302.236L301.157 302.234L301.157 299.594Z"/>
	<path fill="#1E85AE" transform="scale(2 2)" d="M341.972 299.594C342.249 303.879 341.984 308.314 341.979 312.614L341.972 338.768L301.157 338.768L301.157 302.234L326.947 302.236C331.872 302.235 341.395 304.253 341.972 299.594Z"/>
	<path fill="#1E85AE" transform="scale(2 2)" d="M170.01 301.659C183.63 301.918 197.305 301.661 210.932 301.659C210.619 305.619 210.917 309.79 210.924 313.77L210.932 338.768L183.611 338.782C179.112 338.784 174.492 339.02 170.01 338.768L170.01 301.659Z"/>
	<defs>
		<linearGradient id="gradient_6" gradientUnits="userSpaceOnUse" x1="342.17664" y1="438.16852" x2="344.87979" y2="349.99127">
			<stop offset="0" stop-color="#E34901"/>
			<stop offset="1" stop-color="#AB7D63"/>
		</linearGradient>
	</defs>
	<path fill="url(#gradient_6)" transform="scale(2 2)" d="M360.058 394.798C375.426 381.01 386.122 373.532 399.19 355.463C401.502 352.267 403.355 348.737 405.882 345.697C405.906 349.497 400.995 348.265 403.828 353.483C405.182 355.978 404.406 359.957 406.901 361.706C408.038 360.858 408.283 359.187 409.611 358.571C386.699 392.411 353.246 417.731 314.455 430.593L314.245 430.432C311.886 429.932 303.294 433.404 300.332 434.014C298.71 434.349 297.199 433.831 295.557 434.423C282.167 439.253 286.404 432.778 280.947 430.943C281.692 429.643 281.629 429.388 280.852 428.064C281.364 427.527 283.507 427.38 284.316 427.227L284.466 426.863C290.531 425.47 296.582 424.447 302.61 422.831C304.694 424.342 308.841 425.199 310.37 422.607L310.603 422.209L310.871 422.187L310.744 422.132C313.581 422.049 312.716 421.759 313.529 419.962C314.73 420.063 316.669 418.683 317.866 418.222C332.266 412.679 348.125 405.03 360.169 395.127L360.058 394.798Z"/>
	<path fill="#166281" transform="scale(2 2)" d="M289.231 346.522C292.075 351.764 298.291 350.672 303.263 350.676L336.397 350.672C343.174 350.665 349.714 352.07 354.004 345.697C354.525 357.347 338.691 353.909 330.575 353.913C319.888 353.918 309.189 354.019 298.503 353.896C293.819 353.842 287.823 352.837 289.231 346.522Z"/>
	<path fill="#166281" transform="scale(2 2)" d="M222.487 346.522C223.046 347.726 222.666 349.396 222.487 350.666C219.622 355.062 214.243 353.902 209.66 353.905L175.119 353.914C167.977 353.916 157.968 356.827 158.553 346.522C159.823 348.948 161.267 350.372 164.058 350.54C179.089 351.447 201.338 351.38 216.503 350.687C219.434 350.553 221.269 349.282 222.487 346.522Z"/>
	<defs>
		<linearGradient id="gradient_7" gradientUnits="userSpaceOnUse" x1="158.85944" y1="404.88312" x2="123.76007" y2="379.56039">
			<stop offset="0" stop-color="#E05E15"/>
			<stop offset="1" stop-color="#8B8684"/>
		</linearGradient>
	</defs>
	<path fill="url(#gradient_7)" transform="scale(2 2)" d="M114.643 358.732C118.605 362.21 122.033 367.411 125.59 371.402C134.758 381.689 145.513 390.915 156.942 398.624C157.849 399.236 162.38 401.857 162.772 402.585C161.905 402.558 161.545 402.168 160.833 401.692C159.08 404.317 157.449 407.174 155.481 409.629L155.775 409.92C156.156 410.299 156.497 410.71 156.793 411.16C137.313 398.798 120.311 382.908 106.662 364.307C107.435 364.631 120.333 380.061 122.271 382.419C123.288 380.899 128.204 376.576 128.273 375.172C128.304 374.546 115.016 360.835 114.643 358.732Z"/>
	<path fill="#FC9E02" transform="scale(2 2)" d="M145.988 366.346C154.984 372.371 160.92 372.19 171.179 372.16L339.979 372.148C349.332 372.146 355.324 372.303 363.715 367.804C362.34 371.685 356.639 375.285 353.538 377.821C299.106 422.334 221.944 421.488 164.937 383.215C160.974 380.554 146.754 370.22 145.988 366.346Z"/>
	<path fill="#F06900" transform="scale(2 2)" d="M302.61 422.831C325.626 416.438 340.933 407.812 360.058 394.798L360.169 395.127C348.125 405.03 332.266 412.679 317.866 418.222C316.669 418.683 314.73 420.063 313.529 419.962C312.716 421.759 313.581 422.049 310.744 422.132L310.871 422.187L310.603 422.209L310.37 422.607C308.841 425.199 304.694 424.342 302.61 422.831Z"/>
	<path fill="#F06900" transform="scale(2 2)" d="M160.833 401.692C161.545 402.168 161.905 402.558 162.772 402.585C200.598 423.129 233.505 433.751 278.082 427.718C280.129 427.441 282.417 426.914 284.466 426.863L284.316 427.227C283.507 427.38 281.364 427.527 280.852 428.064C281.629 429.388 281.692 429.643 280.947 430.943C286.404 432.778 282.167 439.253 295.557 434.423C297.199 433.831 298.71 434.349 300.332 434.014C303.294 433.404 311.886 429.932 314.245 430.432L314.455 430.593C261.648 448.102 203.768 440.968 156.793 411.16C156.497 410.71 156.156 410.299 155.775 409.92L155.481 409.629C157.449 407.174 159.08 404.317 160.833 401.692Z"/>
</svg>
