<?xml version="1.0" encoding="utf-8" ?>
<svg xmlns="http://www.w3.org/2000/svg" xmlns:xlink="http://www.w3.org/1999/xlink" width="1024" height="1024">
	<defs>
		<linearGradient id="gradient_0" gradientUnits="userSpaceOnUse" x1="333.53189" y1="461.9245" x2="178.08061" y2="45.62685">
			<stop offset="0" stop-color="#024D7E"/>
			<stop offset="1" stop-color="#036CA6"/>
		</linearGradient>
	</defs>
	<path fill="url(#gradient_0)" transform="scale(2 2)" d="M247.072 434.476L120.718 434.489C115.151 434.492 109.14 434.943 103.652 433.958C85.6959 430.735 72.3654 414.65 72.2082 396.414L72.1991 118.854C72.1935 98.1006 79.6912 78.5633 102.668 73.7174C110.079 72.1542 118.496 72.6961 126.04 72.6966L265.979 72.7026L390.57 72.6993C396.076 72.6897 401.661 72.2977 407.138 72.9642C424.23 75.044 437.892 91.4979 439.531 108.151C440.119 114.129 439.745 120.384 439.74 126.395L439.741 385.837C439.742 391.03 440.079 396.488 439.407 401.636C437.317 417.622 424.282 431.681 408.176 434.195C402.89 435.021 396.972 434.496 391.604 434.492L247.072 434.476ZM428.758 237.875L428.767 125.614C428.769 118.898 429.078 111.882 427.773 105.26C424.089 86.5605 408.069 84.02 392.752 84.0208L116.194 84.0327C87.3622 84.2883 83.2209 98.5171 83.2283 124.017L83.2413 244.406L83.231 382.15C83.2285 407.058 85.9515 423.729 115.452 423.984L392.313 424C408.261 424.023 425.161 421.971 428.461 401.95C429.333 396.657 428.765 390.733 428.755 385.365L428.758 237.875Z"/>
	<path fill="#4CB6E1" transform="scale(2 2)" d="M97.5162 113.697C97.0037 117.634 97.5105 123.354 97.5145 127.516L97.5126 216.527C97.511 225.617 97.108 235.425 97.5162 244.406C92.769 244.589 87.9432 243.8 83.2413 244.406L83.2283 124.017C83.2209 98.5171 87.3622 84.2883 116.194 84.0327L392.752 84.0208C408.069 84.02 424.089 86.5605 427.773 105.26C429.078 111.882 428.769 118.898 428.767 125.614L428.758 237.875C424.946 238.508 418.374 239.61 414.991 241.196L414.999 123.695C415.013 120.515 415.579 116.789 414.991 113.697C414.346 96.4402 398.057 97.8925 386.527 97.8978L174.689 97.9021C165.896 97.9019 112.457 96.597 107.633 98.828C101.386 101.717 97.3479 106.426 97.5162 113.697Z"/>
	<path fill="#CCEAF6" transform="scale(2 2)" d="M97.5162 113.697C97.3479 106.426 101.386 101.717 107.633 98.828C112.457 96.597 165.896 97.9019 174.689 97.9021L386.527 97.8978C398.057 97.8925 414.346 96.4402 414.991 113.697C414.943 114.615 415.023 115.783 414.609 116.613C408.415 110.156 381.526 111.127 373.528 111.09L358.166 111.051C345.729 111.037 333.567 112.286 321.206 112.98L303.978 113.952C287.916 114.775 268.612 115.744 252.747 115.808C252.18 116.708 252.323 116.63 251.465 115.793C246.349 114.923 237.062 115.688 231.356 115.358L206.729 114.092C196.219 113.59 185.84 114.722 175.334 114.847C167.909 114.935 160.547 114.198 153.121 114.606C146.7 114.959 140.249 116.275 133.848 116.982C123.123 118.166 115.618 117.349 105.071 120.672C96.0242 123.522 98.2947 123.687 97.5404 113.979L97.5162 113.697Z"/>
	<defs>
		<linearGradient id="gradient_1" gradientUnits="userSpaceOnUse" x1="257.78076" y1="254.40913" x2="254.61176" y2="112.23511">
			<stop offset="0" stop-color="#3EADD2"/>
			<stop offset="1" stop-color="#A6DDEB"/>
		</linearGradient>
	</defs>
	<path fill="url(#gradient_1)" transform="scale(2 2)" d="M97.5162 244.406C97.108 235.425 97.511 225.617 97.5126 216.527L97.5145 127.516C97.5105 123.354 97.0037 117.634 97.5162 113.697L97.5404 113.979C98.2947 123.687 96.0242 123.522 105.071 120.672C115.618 117.349 123.123 118.166 133.848 116.982C140.249 116.275 146.7 114.959 153.121 114.606C160.547 114.198 167.909 114.935 175.334 114.847C185.84 114.722 196.219 113.59 206.729 114.092L231.356 115.358C237.062 115.688 246.349 114.923 251.465 115.793C252.323 116.63 252.18 116.708 252.747 115.808C268.612 115.744 287.916 114.775 303.978 113.952L321.206 112.98C333.567 112.286 345.729 111.037 358.166 111.051L373.528 111.09C381.526 111.127 408.415 110.156 414.609 116.613C415.023 115.783 414.943 114.615 414.991 113.697C415.579 116.789 415.013 120.515 414.999 123.695L414.991 241.196C414.115 241.25 413.277 241.26 412.401 241.196C402.175 241.8 392.11 243.967 381.8 244.406C381.806 245.393 382.29 249.388 381.542 249.961C381.434 243.282 382.363 167.939 380.561 165.997C376.264 165.199 369.679 165.725 365.213 165.728L333.961 165.744C333.819 167.838 333.704 169.932 333.961 172.021L333.968 242.782C333.97 245.628 334.145 248.596 333.961 251.43C333.874 251.812 333.75 252.146 333.812 252.54L333.547 252.964L333.255 252.233C331.844 251.886 327.768 252.834 326.083 253.001C321.949 253.41 317.739 253.309 313.638 253.75C313.637 249.634 314.134 224.616 313.292 223.218L313.07 223.508L313.072 223.133C308.779 222.137 302.038 222.704 297.403 222.708L268.977 222.652C265.157 222.61 265.623 224.758 265.979 227.847L265.989 253.864C265.986 258.259 266.307 262.933 265.979 267.3C265.413 269.466 265.663 272.202 265.619 274.465C266.45 267.458 264.904 260.968 265.979 253.75C255.963 253.723 245.899 252.972 235.882 252.62C213.447 251.833 192.047 251.016 169.667 249.448L139.017 247.285C133.239 246.849 127.166 245.919 121.389 246.22C114.508 246.11 104.1 245.385 97.5162 244.406Z"/>
	<path fill="white" transform="scale(2 2)" d="M333.961 172.021C333.704 169.932 333.819 167.838 333.961 165.744L365.213 165.728C369.679 165.725 376.264 165.199 380.561 165.997C382.363 167.939 381.434 243.282 381.542 249.961L381.542 363.935L333.961 363.935L333.961 310.773C333.961 302.719 333.55 293.303 333.961 285.39L333.961 362.154L379.597 362.154L379.597 167.794C364.413 167.467 349.153 167.788 333.961 167.794L333.961 172.021Z"/>
	<path fill="#F06900" transform="scale(2 2)" d="M333.961 172.021L333.961 167.794C349.153 167.788 364.413 167.467 379.597 167.794L379.597 362.154L333.961 362.154L333.961 285.39L333.961 251.43C334.145 248.596 333.97 245.628 333.968 242.782L333.961 172.021ZM366.373 174.255L340.596 174.255C340.789 179.662 340.599 185.091 340.606 190.502L340.59 340.286C340.584 345.349 340.165 350.751 340.596 355.775C342.985 355.656 345.312 355.625 347.698 355.775C355.358 355.783 365.847 355.098 373.214 355.775L373.214 174.255C370.924 174.178 368.663 174.108 366.373 174.255Z"/>
	<path fill="#F88C01" transform="scale(2 2)" d="M340.596 174.255L366.373 174.255C368.663 174.108 370.924 174.178 373.214 174.255L373.214 355.775C365.847 355.098 355.358 355.783 347.698 355.775C345.312 355.625 342.985 355.656 340.596 355.775C340.165 350.751 340.584 345.349 340.59 340.286L340.606 190.502C340.599 185.091 340.789 179.662 340.596 174.255Z"/>
	<path fill="white" transform="scale(2 2)" d="M265.979 227.847C265.623 224.758 265.157 222.61 268.977 222.652L297.403 222.708C302.038 222.704 308.779 222.137 313.072 223.133L313.07 223.508L313.292 223.218C314.134 224.616 313.637 249.634 313.638 253.75L313.638 363.935C308.536 363.935 267.181 364.31 266.024 363.879C265.894 363.245 265.893 362.796 265.979 362.154C270.346 362.639 275.632 362.149 280.119 362.144L311.516 362.154L311.516 225.299L280.569 225.299C275.809 225.3 266.129 223.081 265.979 227.847Z"/>
	<path fill="#F06900" transform="scale(2 2)" d="M265.979 227.847C266.129 223.081 275.809 225.3 280.569 225.299L311.516 225.299L311.516 362.154L280.119 362.144C275.632 362.149 270.346 362.639 265.979 362.154C266.13 358.597 265.991 354.988 265.987 351.425L265.979 267.3C266.307 262.933 265.986 258.259 265.989 253.864L265.979 227.847ZM282.679 231.587C279.37 231.835 276.171 231.862 272.863 231.587C273.23 248.512 271.576 351.657 273.382 355.437L273.787 355.276L273.66 355.511C281.144 356.358 289.003 355.37 296.562 355.775C299.522 355.561 302.606 355.531 305.566 355.775C305.363 339.896 305.717 324.003 305.7 308.125L305.503 257.8C305.486 253.111 306.128 234.766 305.118 231.699C302.402 231.236 299.315 231.545 296.55 231.566L282.679 231.587Z"/>
	<path fill="#F88C01" transform="scale(2 2)" d="M272.863 231.587C276.171 231.862 279.37 231.835 282.679 231.587L296.55 231.566C299.315 231.545 302.402 231.236 305.118 231.699C306.128 234.766 305.486 253.111 305.503 257.8L305.7 308.125C305.717 324.003 305.363 339.896 305.566 355.775C302.606 355.531 299.522 355.561 296.562 355.775C289.003 355.37 281.144 356.358 273.66 355.511L273.787 355.276L273.382 355.437C271.576 351.657 273.23 248.512 272.863 231.587Z"/>
	<path fill="#1E85AE" transform="scale(2 2)" d="M414.991 241.196C418.374 239.61 424.946 238.508 428.758 237.875L428.755 385.365C428.765 390.733 429.333 396.657 428.461 401.95C425.161 421.971 408.261 424.023 392.313 424L115.452 423.984C85.9515 423.729 83.2285 407.058 83.231 382.15L83.2413 244.406C87.9432 243.8 92.769 244.589 97.5162 244.406C104.1 245.385 114.508 246.11 121.389 246.22C115.754 247.367 104.559 244.044 98.0265 245.182C97.0201 251.514 97.8099 257.759 97.7228 264.113L97.5011 384.483C97.5001 387.907 97.3623 391.429 97.7304 394.835C99.503 411.235 121.405 408.244 132.76 408.243L387.416 408.252C410.439 408.27 415.108 408.287 415.006 384.768L414.993 265.121C414.993 259.486 415.338 246.538 414.572 241.316L412.401 241.196C413.277 241.26 414.115 241.25 414.991 241.196Z"/>
	<path fill="#4CB6E1" transform="scale(2 2)" d="M381.8 244.406C392.11 243.967 402.175 241.8 412.401 241.196L414.572 241.316C415.338 246.538 414.993 259.486 414.993 265.121L415.006 384.768C415.108 408.287 410.439 408.27 387.416 408.252L132.76 408.243C121.405 408.244 99.503 411.235 97.7304 394.835C97.3623 391.429 97.5001 387.907 97.5011 384.483L97.7228 264.113C97.8099 257.759 97.0201 251.514 98.0265 245.182C104.559 244.044 115.754 247.367 121.389 246.22C127.166 245.919 133.239 246.849 139.017 247.285L169.667 249.448C192.047 251.016 213.447 251.833 235.882 252.62C245.899 252.972 255.963 253.723 265.979 253.75C264.904 260.968 266.45 267.458 265.619 274.465C265.663 272.202 265.413 269.466 265.979 267.3L265.987 351.425C265.991 354.988 266.13 358.597 265.979 362.154C265.893 362.796 265.894 363.245 266.024 363.879C267.181 364.31 308.536 363.935 313.638 363.935L313.638 253.75C317.739 253.309 321.949 253.41 326.083 253.001C327.768 252.834 331.844 251.886 333.255 252.233L333.547 252.964L333.812 252.54C333.75 252.146 333.874 251.812 333.961 251.43L333.961 285.39C333.55 293.303 333.961 302.719 333.961 310.773L333.961 363.935L381.542 363.935L381.542 249.961C382.29 249.388 381.806 245.393 381.8 244.406ZM208.009 265.11L198.968 265.11L198.952 352.276C198.936 356.138 198.721 360.085 198.968 363.935L237.874 363.935C240.94 363.914 244.006 363.886 247.072 363.935L247.072 265.11L208.009 265.11ZM131.231 309.494L131.238 345.979C131.24 351.934 131.512 357.995 131.231 363.935L163.846 363.95C168.986 363.952 174.45 364.338 179.554 363.935L179.554 309.494L131.231 309.494Z"/>
	<path fill="white" transform="scale(2 2)" d="M198.968 265.11L208.009 265.11L247.072 265.11L247.072 363.935C244.006 363.886 240.94 363.914 237.874 363.935L198.968 363.935C198.721 360.085 198.936 356.138 198.952 352.276L198.968 265.11ZM200.729 267.3L200.711 352.279C200.704 355.505 200.443 358.95 200.729 362.154L245.029 362.154C245.415 359.838 245.041 357.1 245.038 354.732L245.029 267.3L200.729 267.3Z"/>
	<path fill="#F88C01" transform="scale(2 2)" d="M200.729 362.154C200.443 358.95 200.704 355.505 200.711 352.279L200.729 267.3L245.029 267.3L245.038 354.732C245.041 357.1 245.415 359.838 245.029 362.154L200.729 362.154ZM205.957 272.974L205.957 355.775C217.016 355.767 228.093 355.638 239.15 355.775L239.15 272.974L205.957 272.974Z"/>
	<path fill="#FFAF02" transform="scale(2 2)" d="M205.957 355.775L205.957 272.974L239.15 272.974L239.15 355.775C228.093 355.638 217.016 355.767 205.957 355.775Z"/>
	<path fill="white" transform="scale(2 2)" d="M131.231 363.935C131.512 357.995 131.24 351.934 131.238 345.979L131.231 309.494L179.554 309.494L179.554 363.935C174.45 364.338 168.986 363.952 163.846 363.95L131.231 363.935ZM133.2 311.541L133.191 345.176C133.189 350.808 132.976 356.532 133.2 362.154L177.708 362.154L177.708 311.541L148.342 311.55C143.304 311.552 138.233 311.693 133.2 311.541Z"/>
	<path fill="#F88C01" transform="scale(2 2)" d="M133.2 362.154C132.976 356.532 133.189 350.808 133.191 345.176L133.2 311.541C138.233 311.693 143.304 311.552 148.342 311.55L177.708 311.541L177.708 362.154L133.2 362.154ZM142.033 317.301L138.35 317.301L138.363 342.799C138.366 347.105 138.539 351.477 138.35 355.775C148.266 355.945 158.206 355.771 168.125 355.775L171.853 355.775L171.853 317.301L142.033 317.301Z"/>
	<path fill="#FFAF02" transform="scale(2 2)" d="M138.35 317.301L142.033 317.301L171.853 317.301L171.853 355.775L168.125 355.775C158.206 355.771 148.266 355.945 138.35 355.775C138.539 351.477 138.366 347.105 138.363 342.799L138.35 317.301Z"/>
</svg>
