<?xml version="1.0" encoding="utf-8" ?>
<svg xmlns="http://www.w3.org/2000/svg" xmlns:xlink="http://www.w3.org/1999/xlink" width="1024" height="1024">
	<path fill="#166281" transform="scale(2 2)" d="M416.313 437.968C393.516 438.341 370.655 437.968 347.85 437.967L113.085 437.978C96.1576 437.993 77.0198 437.079 74.0753 414.775C73.5356 410.688 73.963 406.387 73.9741 402.269L73.972 120.162C73.9692 100.948 70.4701 77.2542 97.002 73.9816C118.751 73.6044 140.566 73.9785 162.324 73.979L398.12 73.9711C427.172 73.9686 438.366 76.8993 438.382 109.872L438.379 388.244C438.39 409.494 442.843 430.766 416.313 437.968ZM429.407 137.15L429.418 116.02C429.415 92.9938 431.327 82.9422 403.442 82.9264L102.055 82.9297C83.0857 83.1057 82.7236 94.0087 82.7462 110.176L82.7594 197.928C82.9817 203.048 82.7632 208.263 82.7625 213.394L82.7508 390.319C82.7519 404.499 79.3881 427.132 99.4754 428.989C104.515 429.455 109.742 429.188 114.804 429.18L389.76 429.18C399.906 429.193 417.708 431.718 424.939 423.712C430.728 417.302 429.414 409.226 429.414 401.264L429.412 153.15C429.416 147.843 429.651 142.448 429.407 137.15Z"/>
	<path fill="#1E85AE" transform="scale(2 2)" d="M82.7594 197.928L82.7462 110.176C82.7236 94.0087 83.0857 83.1057 102.055 82.9297L403.442 82.9264C431.327 82.9422 429.415 92.9938 429.418 116.02L429.407 137.15C429.651 142.448 429.416 147.843 429.412 153.15L429.414 401.264C429.414 409.226 430.728 417.302 424.939 423.712C417.708 431.718 399.906 429.193 389.76 429.18L114.804 429.18C109.742 429.188 104.515 429.455 99.4754 428.989C79.3881 427.132 82.7519 404.499 82.7508 390.319L82.7625 213.394C82.7632 208.263 82.9817 203.048 82.7594 197.928ZM421.76 199.788L422.469 199.788C421.35 189.252 421.754 178.604 421.759 168.019L421.774 106.782C421.79 97.0892 422.462 90.435 411.002 90.0781C402.727 89.8203 394.4 89.9954 386.119 89.9956L110.55 89.9952C88.0918 89.9992 89.6872 92.1917 89.7081 112.224L89.7195 200.544L89.7195 200.544L89.7249 387.025C89.7252 395.042 89.2104 403.444 90.0431 411.41C91.3507 423.919 107.803 420.635 116.419 420.634L396.037 420.632C405.291 420.654 420.988 424.215 421.634 412.449C422.089 404.153 421.763 395.693 421.764 387.384L421.76 199.788Z"/>
	<path fill="#4CB6E1" transform="scale(2 2)" d="M422.469 199.788L421.76 199.788L421.764 387.384C421.763 395.693 422.089 404.153 421.634 412.449C420.988 424.215 405.291 420.654 396.037 420.632L116.419 420.634C107.803 420.635 91.3507 423.919 90.0431 411.41C89.2104 403.444 89.7252 395.042 89.7249 387.025L89.7195 200.544L89.7195 200.544L89.7081 112.224C89.6872 92.1917 88.0918 89.9992 110.55 89.9952L386.119 89.9956C394.4 89.9954 402.727 89.8203 411.002 90.0781C422.462 90.435 421.79 97.0892 421.774 106.782L421.759 168.019C421.754 178.604 421.35 189.252 422.469 199.788ZM409.56 204.153C409.282 180.792 409.566 157.392 409.56 134.027L409.542 112.033C409.537 109.017 409.143 105.48 409.56 102.517C405.872 102.258 402.172 102.494 398.478 102.51L102.735 102.517L102.735 204.153C102.647 206.202 102.477 208.281 102.735 210.321C102.535 212.424 102.704 214.702 102.71 216.823L102.735 408.746L390.337 409.415C396.737 409.423 403.166 409.554 409.56 409.273L409.56 204.153L409.56 204.153Z"/>
	<path fill="#F88C01" transform="scale(2 2)" d="M409.56 102.517C409.143 105.48 409.537 109.017 409.542 112.033L409.56 134.027C409.566 157.392 409.282 180.792 409.56 204.153L409.56 204.153L409.56 409.273C403.166 409.554 396.737 409.423 390.337 409.415L102.735 408.746L102.71 216.823C102.704 214.702 102.535 212.424 102.735 210.321C102.477 208.281 102.647 206.202 102.735 204.153L102.735 102.517L398.478 102.51C402.172 102.494 405.872 102.258 409.56 102.517ZM324.823 173.264C322.797 175.02 323.194 179.088 324.919 180.901C328.521 184.687 351.463 180.956 357.072 182.229C347.62 192.737 333.418 205.078 322.849 215.162C318.727 219.094 313.927 222.835 310.538 227.424C306.394 230.529 302.718 234.63 298.996 238.243L277.979 258.813C275.026 261.679 272.15 264.676 269.089 267.424C257.576 255 243.094 241.082 230.643 229.713C226.345 226.552 220.616 219.764 216.05 215.82C211.178 219.092 207.77 223.826 203.221 227.424C193.818 236.917 184.002 245.984 174.314 255.181L142.905 285.368C138.172 289.807 136.446 289.295 136.19 295.97C136.121 298.475 138.034 300.629 140.752 300.22C144.736 299.622 148.986 294.923 151.255 291.827C153.216 290.275 154.878 288.103 156.74 286.397C166.952 277.042 176.74 266.253 186.96 257.625C197.104 249.875 207.265 237.199 216.712 230.838C225.668 239.932 234.515 248.314 243.556 257.197C251.537 265.039 259.561 274.319 269.089 280.175C272.503 282.193 280.094 271.492 282.41 269.222C294.116 257.748 305.279 246.053 316.879 234.62C318.675 232.802 326.712 226.725 327.408 225.259L328.703 224.272C331.403 221.011 335.244 218.534 338.269 215.56C344.918 209.024 350.695 202.75 357.762 196.167C359.126 194.896 364.627 187.957 366.457 189.797L366.457 216.664C366.142 228.621 375.872 226.52 375.639 218.913L375.609 218.126C374.548 205.655 376.112 190.756 375.56 177.709C375.222 169.711 368.784 170.983 362.945 171.008L349.396 171.06C343.802 171.063 328.358 169.04 324.823 173.264ZM368.314 242.19L335.93 242.19L335.926 361.811C335.927 367.09 335.689 372.498 336.023 377.764C336.389 383.528 338.423 384.308 343.937 384.308C349.966 384.631 370.476 384.982 374.832 383.542C376.305 379.16 375.632 367.827 375.636 362.829L375.609 242.19C373.199 241.985 370.728 242.05 368.314 242.19ZM287.192 270.958C287.6 279.587 287.19 288.328 287.187 296.975L287.191 366.875C287.205 384.676 285.917 384.28 304.815 384.319C308.469 384.327 320.405 385.296 323.207 383.542C325.782 379.159 324.815 373.237 324.824 368.356L324.816 296.884C324.814 288.26 324.574 279.574 324.823 270.958L287.192 270.958ZM237.083 295.97L237.083 384.308C241.973 385.075 271.122 385.786 274.267 383.542C278.016 379.618 275.926 363.324 275.965 357.64L276.017 295.97L237.083 295.97ZM190.253 319.486L186.96 319.486L186.96 384.308C198.547 384.045 210.198 384.314 221.793 384.308L225.424 384.308C224.9 377.432 225.422 370.433 225.424 363.53L225.424 319.486L190.253 319.486ZM141.182 341.639L137.942 341.639L137.925 368.329C137.894 373.638 137.55 379.012 137.942 384.308C148.226 384.634 163.481 385.214 173.678 384.308C174.521 384.199 175.199 384.184 175.86 383.588C176.775 381.643 176.496 346.371 176.341 341.639L141.182 341.639Z"/>
	<path fill="#8CD0EC" transform="scale(2 2)" d="M324.823 173.264C328.358 169.04 343.802 171.063 349.396 171.06L362.945 171.008C368.784 170.983 375.222 169.711 375.56 177.709C376.112 190.756 374.548 205.655 375.609 218.126L375.639 218.913C375.872 226.52 366.142 228.621 366.457 216.664L366.457 189.797C366.429 188.321 366.358 186.835 366.457 185.362C356.533 197.463 334.014 212.504 327.408 224.272C323.164 226.62 320.119 230.241 316.879 233.774C302.641 246.753 281.673 265.594 269.089 280.175C262.633 270.876 239.359 250.536 230.419 241.877C225.751 237.355 219.901 232.626 216.05 227.424C206.907 237.909 195.622 246.707 185.927 256.72C173.665 268.275 161.057 279.722 149.335 291.827C145.746 295.023 140.609 302.196 136.19 295.97C136.446 289.295 138.172 289.807 142.905 285.368L174.314 255.181C184.002 245.984 193.818 236.917 203.221 227.424C207.77 223.826 211.178 219.092 216.05 215.82C220.616 219.764 226.345 226.552 230.643 229.713C243.094 241.082 257.576 255 269.089 267.424C272.15 264.676 275.026 261.679 277.979 258.813L298.996 238.243C302.718 234.63 306.394 230.529 310.538 227.424C313.927 222.835 318.727 219.094 322.849 215.162C333.418 205.078 347.62 192.737 357.072 182.229C357.995 181.439 358.853 180.578 359.724 179.732C353.912 179.604 330.738 180.42 326.897 179.254C323.984 178.37 323.993 175.675 324.823 173.264Z"/>
	<path fill="#B16D2F" transform="scale(2 2)" d="M357.072 182.229C351.463 180.956 328.521 184.687 324.919 180.901C323.194 179.088 322.797 175.02 324.823 173.264C323.993 175.675 323.984 178.37 326.897 179.254C330.738 180.42 353.912 179.604 359.724 179.732C358.853 180.578 357.995 181.439 357.072 182.229Z"/>
	<defs>
		<linearGradient id="gradient_0" gradientUnits="userSpaceOnUse" x1="348.57227" y1="206.12357" x2="346.42917" y2="203.62811">
			<stop offset="0" stop-color="#C57E35"/>
			<stop offset="1" stop-color="#A6693E"/>
		</linearGradient>
	</defs>
	<path fill="url(#gradient_0)" transform="scale(2 2)" d="M366.457 189.797C364.627 187.957 359.126 194.896 357.762 196.167C350.695 202.75 344.918 209.024 338.269 215.56C335.244 218.534 331.403 221.011 328.703 224.272L327.408 225.259C327.347 224.945 327.397 224.592 327.408 224.272C334.014 212.504 356.533 197.463 366.457 185.362C366.358 186.835 366.429 188.321 366.457 189.797Z"/>
	<path fill="#96562A" transform="scale(2 2)" d="M316.879 233.774C320.119 230.241 323.164 226.62 327.408 224.272C327.397 224.592 327.347 224.945 327.408 225.259C326.712 226.725 318.675 232.802 316.879 234.62L316.879 233.774Z"/>
	<path fill="#B16D2F" transform="scale(2 2)" d="M185.927 256.72C195.622 246.707 206.907 237.909 216.05 227.424C219.901 232.626 225.751 237.355 230.419 241.877C239.359 250.536 262.633 270.876 269.089 280.175L269.089 280.175C259.561 274.319 251.537 265.039 243.556 257.197C234.515 248.314 225.668 239.932 216.712 230.838C207.265 237.199 197.104 249.875 186.96 257.625C185.307 257.762 184.987 259.168 183.648 259.737C184.081 258.841 185.331 257.922 186.063 257.215L185.927 256.72Z"/>
	<defs>
		<linearGradient id="gradient_1" gradientUnits="userSpaceOnUse" x1="290.4715" y1="263.56589" x2="287.33582" y2="259.80292">
			<stop offset="0" stop-color="#B26628"/>
			<stop offset="1" stop-color="#985832"/>
		</linearGradient>
	</defs>
	<path fill="url(#gradient_1)" transform="scale(2 2)" d="M269.089 280.175C281.673 265.594 302.641 246.753 316.879 233.774L316.879 234.62C305.279 246.053 294.116 257.748 282.41 269.222C280.094 271.492 272.503 282.193 269.089 280.175L269.089 280.175Z"/>
	<path fill="#FFAF02" transform="scale(2 2)" d="M335.93 242.19L368.314 242.19C370.728 242.05 373.199 241.985 375.609 242.19L375.636 362.829C375.632 367.827 376.305 379.16 374.832 383.542C370.476 384.982 349.966 384.631 343.937 384.308C338.423 384.308 336.389 383.528 336.023 377.764C335.689 372.498 335.927 367.09 335.926 361.811L335.93 242.19Z"/>
	<path fill="#96562A" transform="scale(2 2)" d="M149.335 291.827C161.057 279.722 173.665 268.275 185.927 256.72L186.063 257.215C185.331 257.922 184.081 258.841 183.648 259.737C184.987 259.168 185.307 257.762 186.96 257.625C176.74 266.253 166.952 277.042 156.74 286.397C154.878 288.103 153.216 290.275 151.255 291.827C150.328 292.137 150.311 292.183 149.335 291.827Z"/>
	<path fill="#FFAF02" transform="scale(2 2)" d="M323.207 383.542C320.405 385.296 308.469 384.327 304.815 384.319C285.917 384.28 287.205 384.676 287.191 366.875L287.187 296.975C287.19 288.328 287.6 279.587 287.192 270.958L324.823 270.958C324.574 279.574 324.814 288.26 324.816 296.884L324.824 368.356C324.815 373.237 325.782 379.159 323.207 383.542Z"/>
	<path fill="#B16D2F" transform="scale(2 2)" d="M136.19 295.97C140.609 302.196 145.746 295.023 149.335 291.827C150.311 292.183 150.328 292.137 151.255 291.827C148.986 294.923 144.736 299.622 140.752 300.22C138.034 300.629 136.121 298.475 136.19 295.97Z"/>
	<defs>
		<linearGradient id="gradient_2" gradientUnits="userSpaceOnUse" x1="261.32037" y1="294.65286" x2="250.90318" y2="385.50812">
			<stop offset="0" stop-color="#FFC403"/>
			<stop offset="1" stop-color="#F89B0C"/>
		</linearGradient>
	</defs>
	<path fill="url(#gradient_2)" transform="scale(2 2)" d="M237.083 384.308L237.083 295.97L276.017 295.97L275.965 357.64C275.926 363.324 278.016 379.618 274.267 383.542C271.122 385.786 241.973 385.075 237.083 384.308Z"/>
	<path fill="#FFAF02" transform="scale(2 2)" d="M186.96 319.486L190.253 319.486L225.424 319.486L225.424 363.53C225.422 370.433 224.9 377.432 225.424 384.308L221.793 384.308C210.198 384.314 198.547 384.045 186.96 384.308L186.96 319.486Z"/>
	<path fill="#FFAF02" transform="scale(2 2)" d="M137.942 341.639L141.182 341.639L176.341 341.639C176.496 346.371 176.775 381.643 175.86 383.588C175.199 384.184 174.521 384.199 173.678 384.308C163.481 385.214 148.226 384.634 137.942 384.308C137.55 379.012 137.894 373.638 137.925 368.329L137.942 341.639Z"/>
</svg>
