<?xml version="1.0" encoding="utf-8" ?>
<svg xmlns="http://www.w3.org/2000/svg" xmlns:xlink="http://www.w3.org/1999/xlink" width="1024" height="1024">
	<path fill="#166281" transform="scale(2 2)" d="M379.818 442.518L156.472 442.515C145.937 442.516 134.818 443.268 124.413 441.52C95.549 436.67 71.4297 411.549 69.1698 382.077C68.6272 375.002 68.8347 367.89 68.8392 360.798L68.8287 140.142C68.8084 134.602 68.6177 129.07 69.465 123.573C74.1936 92.8936 100.464 69.6812 131.207 67.3792C135.979 67.0191 141.001 67.3655 145.806 67.3699L367.731 67.3723C373.772 67.3718 379.92 67.2226 385.919 68.0487C415.467 72.1169 439.675 96.5127 443.097 126.326C443.748 131.995 443.536 137.771 443.532 143.469L443.523 361.933C443.518 382.603 442.375 399.541 428.642 416.62C416.182 432.116 399.404 440.416 379.818 442.518ZM256.021 81.0902L146.169 81.0791C138.355 81.0742 130.417 80.6869 122.74 82.4033C102.454 86.9386 86.8791 103.78 83.278 124.143C81.7201 132.952 82.4681 143.796 82.476 152.864L82.4844 370.292C82.5483 387.291 86.3836 400.979 98.8354 413.247C113.447 427.642 127.098 428.544 146.278 428.544L226.116 428.532C236.066 428.531 246.077 428.3 256.021 428.534L364.672 428.55C371.786 428.555 378.886 428.925 385.894 427.451C412.634 421.826 429.827 398.953 429.989 371.879L429.99 157.628C429.996 146.629 430.723 135.015 428.776 124.159C424.945 102.809 408.244 86.7728 387.294 82.3721C379.635 80.7634 371.789 81.0706 364.011 81.0768L256.021 81.0902Z"/>
	<path fill="#4CB6E1" transform="scale(2 2)" d="M256.021 428.534C246.077 428.3 236.066 428.531 226.116 428.532L146.278 428.544C127.098 428.544 113.447 427.642 98.8354 413.247C86.3836 400.979 82.5483 387.291 82.4844 370.292L82.476 152.864C82.4681 143.796 81.7201 132.952 83.278 124.143C86.8791 103.78 102.454 86.9386 122.74 82.4033C130.417 80.6869 138.355 81.0742 146.169 81.0791L256.021 81.0902L256.021 101.424L256.258 101.439C259.559 101.623 262.926 101.464 266.236 101.446L346.084 101.42C356.095 101.42 374.019 100.495 383.011 102.986C408.106 109.937 409.968 132.158 409.959 153.083L409.935 218.898C409.943 224.742 410.73 231.132 409.943 236.907C399.069 249.586 393.903 244.95 384.531 250.556C382.624 249.049 380.646 247.539 378.554 246.299C372.858 247.31 367.285 247.625 361.502 247.485C360.326 245.518 359.636 239.816 358.979 237.245C353.813 217.008 336.835 198.642 318.019 190.266C304.575 184.281 284.096 179.527 269.98 184.954C265.926 181.073 261.151 178.851 256.021 176.74L256.021 101.424L146.371 101.413C127.235 101.402 109.291 104.875 103.487 127.186C101.302 135.585 102.162 150.461 102.169 159.635L102.163 354.258C102.159 376.102 102.861 401.345 130.437 407.31C137.704 408.882 145.485 408.549 152.884 408.544L256.021 408.536L256.021 408.536L256.021 428.534ZM282.752 153.874C280.651 157.901 278.118 162.006 276.436 166.221C279.147 166.144 281.853 166.254 284.563 166.221L291.413 166.221C288.307 162.309 286.034 157.593 282.752 153.874ZM324.23 160.513C320.291 163.061 316.407 166.561 313.093 169.877C315.038 170.455 316.957 171.013 318.814 171.843C321.462 172.934 324.107 174.057 326.611 175.456C325.977 172.299 325.517 162.619 324.23 160.513ZM357.998 181.287C353.703 182.469 349.217 183.463 345.024 184.954C347.089 186.937 349.136 188.869 350.875 191.157C352.698 192.607 354.464 194.279 355.985 196.047C356.389 193.304 358.58 183.148 358.185 181.406L357.998 181.287ZM367.944 212.128C369.246 216.856 371.395 222.674 374.553 226.43C375.252 225.066 375.941 223.647 376.786 222.369C378.382 220.01 380.048 217.687 381.233 215.085C376.667 214.571 372.439 212.792 367.944 212.128Z"/>
	<path fill="#1E85AE" transform="scale(2 2)" d="M256.021 81.0902L364.011 81.0768C371.789 81.0706 379.635 80.7634 387.294 82.3721C408.244 86.7728 424.945 102.809 428.776 124.159C430.723 135.015 429.996 146.629 429.99 157.628L429.989 371.879C429.827 398.953 412.634 421.826 385.894 427.451C378.886 428.925 371.786 428.555 364.672 428.55L256.021 428.534L256.021 408.536L256.021 408.536L256.021 334.407C261.479 332.123 266.946 327.964 271.221 326.281C275.649 328.088 284.287 328.449 289.193 328.42C325.402 328.211 357.689 300.193 361.298 263.8C361.838 258.356 361.543 252.94 361.502 247.485C367.285 247.625 372.858 247.31 378.554 246.299C378.475 264.883 375.063 269.864 391.092 255.282C388.836 253.823 386.552 252.335 384.531 250.556C393.903 244.95 399.069 249.586 409.943 236.907C410.73 231.132 409.943 224.742 409.935 218.898L409.959 153.083C409.968 132.158 408.106 109.937 383.011 102.986C374.019 100.495 356.095 101.42 346.084 101.42L266.236 101.446C262.926 101.464 259.559 101.623 256.258 101.439L256.021 101.424L256.021 81.0902ZM374.553 284.43C372.272 288.317 369.514 293.556 367.944 297.816C370.164 297.623 372.351 297.358 374.553 297.017L382.284 295.408C380.891 293.065 376.289 286.188 374.553 284.43ZM355.985 315.178C352.369 318.665 348.83 322.337 345.024 325.614C346.971 326.153 348.915 326.718 350.875 327.207L358.927 329.424C358.461 327.023 357.137 316.322 355.985 315.178ZM326.611 336.99C322.232 338.718 317.128 339.843 313.093 342.191C314.928 343.882 316.772 345.505 318.814 346.946C320.342 348.528 322.053 350.089 323.347 351.869C324.757 347.034 325.895 342.151 326.981 337.235C326.861 337.149 326.755 337.023 326.611 336.99ZM276.436 344.276C278.777 348.273 280.356 352.645 282.752 356.63C283.91 355.027 285.045 353.398 286.3 351.869C288.048 349.605 289.793 347.35 291.413 344.992C286.421 344.522 281.451 344.261 276.436 344.276Z"/>
	<path fill="#8CD0EC" transform="scale(2 2)" d="M256.021 408.536L152.884 408.544C145.485 408.549 137.704 408.882 130.437 407.31C102.861 401.345 102.159 376.102 102.163 354.258L102.169 159.635C102.162 150.461 101.302 135.585 103.487 127.186C109.291 104.875 127.235 101.402 146.371 101.413L256.021 101.424L256.021 176.74C252.631 175.4 235.284 170.749 234.883 170.324C234.561 166.745 231.358 128.221 220.209 139.646C215.655 144.313 213.601 163.412 213.664 169.877C212.537 173.811 192.438 169.892 173.358 187.095C167.266 182.992 152.494 172.488 145.825 170.268C141.407 168.797 138.116 172.885 139.308 177.012C140.63 181.589 154.222 197.873 157.927 202.612C148.176 213.497 140.645 230.892 139.896 245.475C134.912 245.579 106.556 248.544 107.368 255.777C108.234 263.497 134.107 266.1 139.896 266.725C141.779 280.353 148.38 296.917 157.927 307.146C156.476 308.944 127.683 340.566 145.962 338.43C154.747 337.404 165.445 327.265 173.358 323.421C190.707 333.879 195.849 334.717 213.664 339.963C213.844 345.592 216.884 374.299 224.416 374.369C232.404 374.443 236.392 345.621 236.448 339.963C242.916 337.801 249.635 337.026 256.021 334.407L256.021 408.536Z"/>
	<path fill="#F88C01" transform="scale(2 2)" d="M173.358 187.095C192.438 169.892 212.537 173.811 213.664 169.877C213.601 163.412 215.655 144.313 220.209 139.646C231.358 128.221 234.561 166.745 234.883 170.324C235.284 170.749 252.631 175.4 256.021 176.74C261.151 178.851 265.926 181.073 269.98 184.954C272.72 186.187 275.016 187.975 277.346 189.843C320.792 224.685 316.303 294.351 271.221 326.281C266.946 327.964 261.479 332.123 256.021 334.407C249.635 337.026 242.916 337.801 236.448 339.963C236.392 345.621 232.404 374.443 224.416 374.369C216.884 374.299 213.844 345.592 213.664 339.963C195.849 334.717 190.707 333.879 173.358 323.421C165.445 327.265 154.747 337.404 145.962 338.43C127.683 340.566 156.476 308.944 157.927 307.146C148.38 296.917 141.779 280.353 139.896 266.725C134.107 266.1 108.234 263.497 107.368 255.777C106.556 248.544 134.912 245.579 139.896 245.475C140.645 230.892 148.176 213.497 157.927 202.612C154.222 197.873 140.63 181.589 139.308 177.012C138.116 172.885 141.407 168.797 145.825 170.268C152.494 172.488 167.266 182.992 173.358 187.095ZM255.948 191.494C226.014 176.387 189.594 184.234 168.536 210.327C147.478 236.42 147.498 273.675 168.585 299.745C189.672 325.815 226.1 333.621 256.018 318.482C279.964 306.365 295.052 281.803 295.038 254.966C295.023 228.13 279.907 203.585 255.948 191.494Z"/>
	<path fill="white" transform="scale(2 2)" d="M276.436 166.221C278.118 162.006 280.651 157.901 282.752 153.874C286.034 157.593 288.307 162.309 291.413 166.221L284.563 166.221C281.853 166.254 279.147 166.144 276.436 166.221Z"/>
	<path fill="white" transform="scale(2 2)" d="M313.093 169.877C316.407 166.561 320.291 163.061 324.23 160.513C325.517 162.619 325.977 172.299 326.611 175.456C324.107 174.057 321.462 172.934 318.814 171.843C316.957 171.013 315.038 170.455 313.093 169.877Z"/>
	<path fill="white" transform="scale(2 2)" d="M345.024 184.954C349.217 183.463 353.703 182.469 357.998 181.287L358.185 181.406C358.58 183.148 356.389 193.304 355.985 196.047C354.464 194.279 352.698 192.607 350.875 191.157C349.136 188.869 347.089 186.937 345.024 184.954Z"/>
	<path fill="#FFAF02" transform="scale(2 2)" d="M256.018 318.482C226.1 333.621 189.672 325.815 168.585 299.745C147.498 273.675 147.478 236.42 168.536 210.327C189.594 184.234 226.014 176.387 255.948 191.494L256.021 207.326C251.662 205.281 247.509 202.839 242.974 201.176C199.42 185.214 154.351 228.411 170.747 272.996C182.232 304.228 218.153 321.786 248.893 306.107C251.068 304.998 253.668 302.891 256.021 302.407L255.989 312.669C255.974 314.55 255.777 316.62 256.018 318.482Z"/>
	<path fill="#F79F53" transform="scale(2 2)" d="M255.948 191.494C279.907 203.585 295.023 228.13 295.038 254.966C295.052 281.803 279.964 306.365 256.018 318.482C255.777 316.62 255.974 314.55 255.989 312.669L256.021 302.407C256.192 299.004 256.028 295.51 256.026 292.094L256.021 207.326L255.948 191.494Z"/>
	<path fill="#FC9E02" transform="scale(2 2)" d="M256.021 302.407C253.668 302.891 251.068 304.998 248.893 306.107C218.153 321.786 182.232 304.228 170.747 272.996C154.351 228.411 199.42 185.214 242.974 201.176C247.509 202.839 251.662 205.281 256.021 207.326L256.026 292.094C256.028 295.51 256.192 299.004 256.021 302.407ZM207.923 208.1C179.178 211.131 171.257 250.873 197.914 248.728C226.78 243.665 234.393 205.348 207.923 208.1Z"/>
	<path fill="white" transform="scale(2 2)" d="M197.914 248.728C171.257 250.873 179.178 211.131 207.923 208.1C234.393 205.348 226.78 243.665 197.914 248.728Z"/>
</svg>
