<?xml version="1.0" encoding="utf-8" ?>
<svg xmlns="http://www.w3.org/2000/svg" xmlns:xlink="http://www.w3.org/1999/xlink" width="1024" height="1024">
	<path fill="#1E85AE" transform="scale(2 2)" d="M259.878 457.516C148.509 459.711 56.4445 371.214 54.238 259.846C52.0316 148.478 140.519 56.4038 251.887 54.1859C363.271 51.9676 455.361 140.47 457.568 251.855C459.775 363.24 371.263 455.321 259.878 457.516ZM380.801 121.671C334.394 78.5803 269.025 62.507 207.927 79.1636C146.828 95.8202 98.6619 142.845 80.5449 203.527C54.6738 290.18 95.8897 382.749 177.598 421.503C259.306 460.257 357.068 433.605 407.803 358.745C458.538 283.884 447.071 183.205 380.801 121.671Z"/>
	<defs>
		<linearGradient id="gradient_0" gradientUnits="userSpaceOnUse" x1="282.99023" y1="436.901" x2="228.77667" y2="74.38385">
			<stop offset="0" stop-color="#00AEF1"/>
			<stop offset="1" stop-color="#A2E2FC"/>
		</linearGradient>
	</defs>
	<path fill="url(#gradient_0)" transform="scale(2 2)" d="M80.5449 203.527C98.6619 142.845 146.828 95.8202 207.927 79.1636C269.025 62.507 334.394 78.5803 380.801 121.671C447.071 183.205 458.538 283.884 407.803 358.745C357.068 433.605 259.306 460.257 177.598 421.503C95.8897 382.749 54.6738 290.18 80.5449 203.527ZM347.469 109.986L347.507 109.639C341.626 104.178 336.129 99.0357 328.917 94.9745C317.42 88.5002 299.598 81.6455 287.012 79.5203C274.273 77.3692 258.316 75.361 245.823 77.0823C242.128 77.5914 238.492 78.5597 234.801 79.1011C220.211 81.2411 204.148 83.0808 190.914 89.8886C184.779 93.0443 175.407 97.6862 169.913 101.097C159.722 107.423 138.101 125.624 130.731 133.971C127.884 137.196 124.85 141.803 121.241 145.914C115.257 152.73 113.249 156.465 109.297 164.169C108.727 165.281 104.675 171.711 105.057 172.274C95.0958 192.373 87.8403 210.383 85.3413 233.236C83.1499 246.881 85.0846 258.43 83.9012 270.878C85.2483 273.794 85.3483 278.988 85.8603 282.264C90.5497 312.265 104.327 345.847 124.862 368.76C134.984 379.405 144.589 388.827 156.659 397.432C215.902 439.669 298.233 438.366 356.895 395.643C362.635 391.463 368.354 387.34 373.423 382.342C377.267 379.424 384.312 371.862 387.443 368.299C413.513 338.64 430.374 294.181 427.834 254.301L427.834 252.362C427.636 251.772 427.311 240.102 427.096 238.105C421.313 184.388 391.847 139.425 347.469 109.986Z"/>
	<path fill="#CCEAF6" transform="scale(2 2)" d="M347.469 109.986C317.662 86.9122 268.774 79.9698 232.679 84.5785C179.332 91.3899 131.271 125.691 105.057 172.274C104.675 171.711 108.727 165.281 109.297 164.169C113.249 156.465 115.257 152.73 121.241 145.914C124.85 141.803 127.884 137.196 130.731 133.971C138.101 125.624 159.722 107.423 169.913 101.097C175.407 97.6862 184.779 93.0443 190.914 89.8886C204.148 83.0808 220.211 81.2411 234.801 79.1011C238.492 78.5597 242.128 77.5914 245.823 77.0823C258.316 75.361 274.273 77.3692 287.012 79.5203C299.598 81.6455 317.42 88.5002 328.917 94.9745C336.129 99.0357 341.626 104.178 347.507 109.639L347.469 109.986Z"/>
	<defs>
		<linearGradient id="gradient_1" gradientUnits="userSpaceOnUse" x1="307.60468" y1="418.70908" x2="203.00696" y2="91.226875">
			<stop offset="0" stop-color="#0089CF"/>
			<stop offset="1" stop-color="#86D7F3"/>
		</linearGradient>
	</defs>
	<path fill="url(#gradient_1)" transform="scale(2 2)" d="M105.057 172.274C131.271 125.691 179.332 91.3899 232.679 84.5785C268.774 79.9698 317.662 86.9122 347.469 109.986C391.847 139.425 421.313 184.388 427.096 238.105C427.311 240.102 427.636 251.772 427.834 252.362L427.834 254.301C426.746 253.192 425.661 252.178 424.347 251.337C424.786 252.971 427.15 253.384 427.623 254.989C428.624 258.38 426.621 279.077 426.084 283.029C424.206 296.851 420.023 309.73 415.14 322.712C413.094 324.006 410.659 332.359 408.996 335.69C402.055 349.595 391.423 365.898 379.26 375.933C376.466 378.239 373.167 380.018 371.505 383.379L371.184 383.194C367.352 386.508 361.988 390.541 357.93 393.632C354.067 396.575 355.932 394.93 352.374 396.544C346.272 399.313 343.544 403.205 339.861 405.26C313.354 420.047 286.844 425.164 257.008 427.011L256.373 427.962C250.566 428.33 244.851 427.779 239.088 427.207C199.133 423.24 161.934 405.745 133.537 377.37C131.618 375.452 127.167 369.367 124.862 368.76C104.327 345.847 90.5497 312.265 85.8603 282.264C85.3483 278.988 85.2483 273.794 83.9012 270.878C85.0846 258.43 83.1499 246.881 85.3413 233.236C87.8403 210.383 95.0958 192.373 105.057 172.274ZM361.17 206.535L361.18 192.788C361.164 166.73 351.475 156.283 325.328 156.262L310.681 156.277C310.776 136.623 302.393 122.403 281.089 122.422L245.451 122.455C218.224 122.41 201.153 123.898 201.152 156.277L186.77 156.266C147.529 156.292 149.169 182.007 149.605 213.757C149.697 220.499 152.771 223.35 157.572 227.21C157.577 230.102 157.814 233.069 157.572 235.947C159.001 243.722 158.988 255.552 159.591 263.926L165.371 354.524C166.736 378.829 177.779 392.395 203.283 392.73C228.408 393.06 253.575 392.747 278.704 392.749L301.496 392.754C320.206 392.758 340.729 391.057 346.101 368.267C347.551 362.115 347.307 355.315 347.75 349.014L353.665 251.174C354.195 243.215 354.883 235.189 354.984 227.21C363.859 224.024 361.209 214.07 361.17 206.535Z"/>
	<path fill="#166281" transform="scale(2 2)" d="M310.681 156.277L325.328 156.262C351.475 156.283 361.164 166.73 361.18 192.788L361.17 206.535C361.209 214.07 363.859 224.024 354.984 227.21C354.883 235.189 354.195 243.215 353.665 251.174L347.75 349.014C347.307 355.315 347.551 362.115 346.101 368.267C340.729 391.057 320.206 392.758 301.496 392.754L278.704 392.749C253.575 392.747 228.408 393.06 203.283 392.73C177.779 392.395 166.736 378.829 165.371 354.524L159.591 263.926C158.988 255.552 159.001 243.722 157.572 235.947C157.814 233.069 157.577 230.102 157.572 227.21C152.771 223.35 149.697 220.499 149.605 213.757C149.169 182.007 147.529 156.292 186.77 156.266L201.152 156.277C201.153 123.898 218.224 122.41 245.451 122.455L281.089 122.422C302.393 122.403 310.776 136.623 310.681 156.277ZM345.673 176.189C339.616 165.331 322.814 168.544 312.262 168.547L211.168 168.546C200.886 168.544 170.934 164.968 165.724 176.189C161.785 181.168 162.41 188.361 162.413 194.302L162.435 208.262C162.394 212.809 164.098 215.464 168.943 215.706C169.905 223.932 170.219 232.231 170.704 240.497L176.586 331.467C177.11 340.715 177.965 349.904 178.041 359.169C180.824 384.437 206.269 379.403 224.713 379.406L302.993 379.409C323.451 379.406 333.444 379.965 333.802 355.994C337.043 309.537 340.616 262.072 342.709 215.706C347.399 215.433 348.451 212.475 348.258 208.262L348.274 192.404C348.283 187.727 349.217 179.947 345.673 176.189ZM244.644 135.292C228.534 135.257 214.536 133.474 214.703 153.831L214.727 156.277L267.317 156.277L297.48 156.277C297.706 134.802 288.386 135.274 269.798 135.276L244.644 135.292Z"/>
	<path fill="#8CD0EC" transform="scale(2 2)" d="M214.727 156.277L214.703 153.831C214.536 133.474 228.534 135.257 244.644 135.292L269.798 135.276C288.386 135.274 297.706 134.802 297.48 156.277L267.317 156.277L214.727 156.277Z"/>
	<path fill="#FEE2AE" transform="scale(2 2)" d="M345.673 176.189L345.406 176.589L345.503 176.749C339.654 179.471 318.217 177.718 310.76 177.796C292.107 177.99 273.469 178.646 254.81 178.36C241.081 178.15 227.396 177.319 213.639 177.403L178.07 177.903C173.797 177.93 164.835 180.132 165.724 176.189C170.934 164.968 200.886 168.544 211.168 168.546L312.262 168.547C322.814 168.544 339.616 165.331 345.673 176.189Z"/>
	<defs>
		<linearGradient id="gradient_2" gradientUnits="userSpaceOnUse" x1="255.2773" y1="207.96494" x2="255.20563" y2="177.20869">
			<stop offset="0" stop-color="#FFB53E"/>
			<stop offset="1" stop-color="#FFD78F"/>
		</linearGradient>
	</defs>
	<path fill="url(#gradient_2)" transform="scale(2 2)" d="M165.724 176.189C164.835 180.132 173.797 177.93 178.07 177.903L213.639 177.403C227.396 177.319 241.081 178.15 254.81 178.36C273.469 178.646 292.107 177.99 310.76 177.796C318.217 177.718 339.654 179.471 345.503 176.749L345.406 176.589L345.673 176.189C349.217 179.947 348.283 187.727 348.274 192.404L348.258 208.262L162.435 208.262L162.413 194.302C162.41 188.361 161.785 181.168 165.724 176.189Z"/>
	<path fill="#F06900" transform="scale(2 2)" d="M162.435 208.262L348.258 208.262C348.451 212.475 347.399 215.433 342.709 215.706C337.062 215.934 331.295 215.709 325.637 215.709L168.943 215.706C164.098 215.464 162.394 212.809 162.435 208.262Z"/>
	<defs>
		<linearGradient id="gradient_3" gradientUnits="userSpaceOnUse" x1="242.49852" y1="372.75461" x2="259.29697" y2="207.58858">
			<stop offset="0" stop-color="#F5750E"/>
			<stop offset="1" stop-color="#FFB406"/>
		</linearGradient>
	</defs>
	<path fill="url(#gradient_3)" transform="scale(2 2)" d="M168.943 215.706L325.637 215.709C331.295 215.709 337.062 215.934 342.709 215.706C340.616 262.072 337.043 309.537 333.802 355.994C330.803 357.909 332.224 364.471 321.288 367.686C313.582 369.951 294.547 368.766 286.123 368.767L210.834 368.761C198.987 368.757 191.256 369.81 181.504 361.954C180.4 361.065 179.258 359.879 178.041 359.169C177.965 349.904 177.11 340.715 176.586 331.467L170.704 240.497C170.219 232.231 169.905 223.932 168.943 215.706ZM217.062 229.373C213.028 229.357 208.994 229.331 204.96 229.373C204.716 239.662 205.424 250.065 205.806 260.35L208.18 319.854C208.538 329.72 209.733 343.627 208.8 353.306C211.151 353.41 213.448 353.466 215.8 353.306L227.018 353.306C226.816 349.041 226.996 344.747 227.012 340.477L227.023 319.285C227.026 289.324 227.547 259.325 227.018 229.373C224.834 229.057 219.081 228.309 217.062 229.373ZM306.731 229.373C304.011 229.715 301.088 229.434 298.336 229.401L285.268 229.373C285.727 242.956 285.393 256.428 285.314 270.012L285.272 320.488C285.264 326.091 284.622 348.301 285.847 353.007L286.217 353.306C291.052 352.579 301.706 353.213 303.945 352.501C305.793 337.535 305.751 318.118 306.229 302.953L307.179 262.754C307.282 258.872 308.7 230.813 307.917 229.402C307.418 229.297 307.247 229.267 306.731 229.373ZM244.644 229.373L244.642 315.159C244.637 326.529 245.674 342.519 244.644 353.306C250.229 352.948 262.769 353.395 267.175 352.57L267.317 351.812C266.4 340.742 267.306 324.791 267.311 313.095L267.317 229.373L244.644 229.373Z"/>
	<defs>
		<linearGradient id="gradient_4" gradientUnits="userSpaceOnUse" x1="217.92905" y1="352.89828" x2="215.72209" y2="229.05891">
			<stop offset="0" stop-color="#E56C09"/>
			<stop offset="1" stop-color="#FC9E0D"/>
		</linearGradient>
	</defs>
	<path fill="url(#gradient_4)" transform="scale(2 2)" d="M204.96 229.373C208.994 229.331 213.028 229.357 217.062 229.373C219.081 228.309 224.834 229.057 227.018 229.373C227.547 259.325 227.026 289.324 227.023 319.285L227.012 340.477C226.996 344.747 226.816 349.041 227.018 353.306L215.8 353.306C213.448 353.466 211.151 353.41 208.8 353.306C209.733 343.627 208.538 329.72 208.18 319.854L205.806 260.35C205.424 250.065 204.716 239.662 204.96 229.373Z"/>
	<path fill="#F88C01" transform="scale(2 2)" d="M285.268 229.373L298.336 229.401C301.088 229.434 304.011 229.715 306.731 229.373C307.247 229.267 307.418 229.297 307.917 229.402C308.7 230.813 307.282 258.872 307.179 262.754L306.229 302.953C305.751 318.118 305.793 337.535 303.945 352.501C301.706 353.213 291.052 352.579 286.217 353.306L285.847 353.007C284.622 348.301 285.264 326.091 285.272 320.488L285.314 270.012C285.393 256.428 285.727 242.956 285.268 229.373Z"/>
	<path fill="#F88C01" transform="scale(2 2)" d="M244.644 353.306C245.674 342.519 244.637 326.529 244.642 315.159L244.644 229.373L267.317 229.373L267.311 313.095C267.306 324.791 266.4 340.742 267.317 351.812L267.175 352.57C262.769 353.395 250.229 352.948 244.644 353.306Z"/>
	<path fill="#166281" transform="scale(2 2)" d="M371.505 383.379C373.167 380.018 376.466 378.239 379.26 375.933C391.423 365.898 402.055 349.595 408.996 335.69C410.659 332.359 413.094 324.006 415.14 322.712C420.023 309.73 424.206 296.851 426.084 283.029C426.621 279.077 428.624 258.38 427.623 254.989C427.15 253.384 424.786 252.971 424.347 251.337C425.661 252.178 426.746 253.192 427.834 254.301C430.374 294.181 413.513 338.64 387.443 368.299C384.312 371.862 377.267 379.424 373.423 382.342C368.354 387.34 362.635 391.463 356.895 395.643C298.233 438.366 215.902 439.669 156.659 397.432C144.589 388.827 134.984 379.405 124.862 368.76C127.167 369.367 131.618 375.452 133.537 377.37C161.934 405.745 199.133 423.24 239.088 427.207C244.851 427.779 250.566 428.33 256.373 427.962L257.008 427.011C286.844 425.164 313.354 420.047 339.861 405.26C343.544 403.205 346.272 399.313 352.374 396.544C355.932 394.93 354.067 396.575 357.93 393.632C361.988 390.541 367.352 386.508 371.184 383.194L371.505 383.379Z"/>
	<path fill="#F06900" transform="scale(2 2)" d="M178.041 359.169C179.258 359.879 180.4 361.065 181.504 361.954C191.256 369.81 198.987 368.757 210.834 368.761L286.123 368.767C294.547 368.766 313.582 369.951 321.288 367.686C332.224 364.471 330.803 357.909 333.802 355.994C333.444 379.965 323.451 379.406 302.993 379.409L224.713 379.406C206.269 379.403 180.824 384.437 178.041 359.169Z"/>
</svg>
