<?xml version="1.0" encoding="utf-8" ?>
<svg xmlns="http://www.w3.org/2000/svg" xmlns:xlink="http://www.w3.org/1999/xlink" width="1024" height="1024">
	<defs>
		<linearGradient id="gradient_0" gradientUnits="userSpaceOnUse" x1="266.5509" y1="444.58289" x2="245.41415" y2="63.543869">
			<stop offset="0" stop-color="#0B3150"/>
			<stop offset="1" stop-color="#24729F"/>
		</linearGradient>
	</defs>
	<path fill="url(#gradient_0)" transform="scale(2 2)" d="M402.062 437.866L121.869 437.876C117.306 437.879 112.676 438.013 108.141 437.456C88.2932 435.019 73.6467 418.854 71.9896 399.05C71.4538 392.647 71.7951 386.046 71.7959 379.618L71.7777 122.149C71.766 117.052 71.4386 111.718 72.045 106.662C74.4488 86.6192 90.9559 72.096 110.888 70.6225C117.15 70.3242 123.573 70.6202 129.853 70.6208L387.84 70.6145C393.149 70.6065 398.57 70.394 403.852 70.9765C422.01 72.9784 437.757 88.0728 440.055 106.318C440.667 111.177 440.345 116.36 440.345 121.265L440.345 381.634C440.344 387.952 440.718 394.537 440.118 400.814C438.19 420.984 421.816 435.55 402.062 437.866ZM432.097 199.341C432.798 182.589 432.088 165.672 432.098 148.902L432.109 127.152C432.114 105.409 430.14 83.4716 402.531 79.5672C396.086 78.6558 384.295 79.4923 377.188 79.4952L114.181 79.4009C98.8771 79.4075 84.3775 89.8073 81.0393 105.045C80.165 109.036 80.441 113.557 80.4376 117.629L80.4411 188.586C80.0983 204.836 80.4456 221.173 80.4471 237.431L80.4426 382.308C80.4302 396.236 78.5051 408.347 89.1787 419.518C96.8179 427.513 106.173 430.229 116.996 430.419C138.247 430.792 159.569 430.434 180.828 430.433L388.144 430.443C393.098 430.443 398.064 430.588 402.985 429.921C418.772 427.778 432.033 413.9 432.169 397.667L432.132 205.81C432.139 203.709 432.341 201.415 432.097 199.341Z"/>
	<defs>
		<linearGradient id="gradient_1" gradientUnits="userSpaceOnUse" x1="255.64806" y1="144.55211" x2="257.75858" y2="75.180145">
			<stop offset="0" stop-color="#579BC1"/>
			<stop offset="1" stop-color="#B2D5E1"/>
		</linearGradient>
	</defs>
	<path fill="url(#gradient_1)" transform="scale(2 2)" d="M350.851 87.455C354.19 86.3579 362.935 87.027 366.878 87.0897C361.903 86.8949 329.51 88.1821 327.289 85.7876C321.747 85.815 319.17 86.9973 312.93 86.9941L297.095 86.9932C294.408 86.9971 291.618 86.831 288.948 87.1004C294.094 87.1353 299.088 86.8145 304.229 87.455C289.598 87.6728 274.934 87.456 260.299 87.4555L141.723 87.447C134.386 87.4398 126.214 86.8895 118.981 88.2762C92.7076 93.3136 88.3238 113.101 88.3541 135.133L88.3778 170.066C88.3805 176.011 88.9672 182.461 88.081 188.331C88.6916 172.325 88.393 154.929 88.386 138.719C88.3832 132.191 87.9579 125.533 88.3946 119.032C87.2624 118.267 81.7247 117.715 80.737 118.375C80.0831 119.819 80.4503 135.485 80.4549 138.155L80.4426 175.824C80.4462 178.094 80.9361 187.202 80.4411 188.586L80.4376 117.629C80.441 113.557 80.165 109.036 81.0393 105.045C84.3775 89.8073 98.8771 79.4075 114.181 79.4009L377.188 79.4952C384.295 79.4923 396.086 78.6558 402.531 79.5672C430.14 83.4716 432.114 105.409 432.109 127.152L432.098 148.902C432.088 165.672 432.798 182.589 432.097 199.341C431.763 198.488 432.118 168.353 432.126 165.076C432.131 163.089 431.597 148.953 431.569 148.905L430.355 150.003C429.355 149.371 427.951 150.268 424.824 148.906L424.443 149.074C422.877 152.238 424.041 159.366 424.038 162.965L423.996 189.125C424.016 192.204 424.433 195.284 424.071 198.352C423.46 194.127 423.634 189.858 423.644 185.601L423.657 141.829C423.649 125.306 425.478 110.961 412.78 98.3862C400.798 86.5208 389.158 87.4425 373.74 87.4434L350.851 87.455Z"/>
	<path fill="#8CD0EC" transform="scale(2 2)" d="M304.229 87.455C299.088 86.8145 294.094 87.1353 288.948 87.1004C291.618 86.831 294.408 86.9971 297.095 86.9932L312.93 86.9941C319.17 86.9973 321.747 85.815 327.289 85.7876C329.51 88.1821 361.903 86.8949 366.878 87.0897C362.935 87.027 354.19 86.3579 350.851 87.455L304.229 87.455Z"/>
	<path fill="#1E85AE" transform="scale(2 2)" d="M304.229 87.455L350.851 87.455L373.74 87.4434C389.158 87.4425 400.798 86.5208 412.78 98.3862C425.478 110.961 423.649 125.306 423.657 141.829L423.644 185.601C423.634 189.858 423.46 194.127 424.071 198.352C424.433 195.284 424.016 192.204 423.996 189.125L424.038 162.965C424.041 159.366 422.877 152.238 424.443 149.074L424.824 148.906C427.951 150.268 429.355 149.371 430.355 150.003L431.569 148.905C431.597 148.953 432.131 163.089 432.126 165.076C432.118 168.353 431.763 198.488 432.097 199.341C432.341 201.415 432.139 203.709 432.132 205.81L432.169 397.667C432.033 413.9 418.772 427.778 402.985 429.921C398.064 430.588 393.098 430.443 388.144 430.443L180.828 430.433C159.569 430.434 138.247 430.792 116.996 430.419C106.173 430.229 96.8179 427.513 89.1787 419.518C78.5051 408.347 80.4302 396.236 80.4426 382.308L80.4471 237.431C80.4456 221.173 80.0983 204.836 80.4411 188.586C80.9361 187.202 80.4462 178.094 80.4426 175.824L80.4549 138.155C80.4503 135.485 80.0831 119.819 80.737 118.375C81.7247 117.715 87.2624 118.267 88.3946 119.032C87.9579 125.533 88.3832 132.191 88.386 138.719C88.393 154.929 88.6916 172.325 88.081 188.331C88.9672 182.461 88.3805 176.011 88.3778 170.066L88.3541 135.133C88.3238 113.101 92.7076 93.3136 118.981 88.2762C126.214 86.8895 134.386 87.4398 141.723 87.447L260.299 87.4555C274.934 87.456 289.598 87.6728 304.229 87.455ZM255.528 95.3429L139.853 95.3366C133.189 95.3366 126.08 94.9598 119.512 96.2378C97.1102 100.596 96.0182 120.249 96.0163 138.032L96.015 161.936C96.015 193.34 96.3929 224.787 96.0222 256.185L175.212 256.185L416.02 256.185L416.032 136.348C416.041 118.594 414.848 99.9498 392.346 95.9054C386.731 94.8963 380.7 95.3122 375.002 95.3213L255.528 95.3429ZM416.02 262.552L124.878 262.584C121.154 262.585 97.7735 261.601 96.2039 262.948L96.0222 263.445C96.2911 267.648 96.0348 271.97 96.0292 276.189L96.0222 381.185C91.7547 396.874 107.147 413.104 121.221 416.95C128.712 418.997 136.545 418.298 144.215 418.247L367.069 418.152C376.723 418.148 389.382 420.005 398.102 414.97C400.485 413.593 404.952 411.038 405.854 408.268L405.797 407.935L405.034 408.567L404.644 408.437C416.166 397.45 416.032 388.278 416.028 373.451L416.02 289.922C416.547 280.878 415.881 271.625 416.02 262.552Z"/>
	<defs>
		<linearGradient id="gradient_2" gradientUnits="userSpaceOnUse" x1="163.78134" y1="90.329308" x2="187.78442" y2="264.78259">
			<stop offset="0" stop-color="#ED6815"/>
			<stop offset="1" stop-color="#FDA813"/>
		</linearGradient>
	</defs>
	<path fill="url(#gradient_2)" transform="scale(2 2)" d="M96.0222 256.185C96.3929 224.787 96.015 193.34 96.015 161.936L96.0163 138.032C96.0182 120.249 97.1102 100.596 119.512 96.2378C126.08 94.9598 133.189 95.3366 139.853 95.3366L255.528 95.3429C254.695 97.8409 255.489 113.662 255.519 117.585L256.211 241.356C256.2 245.995 255.702 251.708 256.208 256.185L182.539 256.156C180.189 256.146 177.526 255.853 175.212 256.185L96.0222 256.185ZM192.859 148.402C192.141 146.151 191.396 144.573 189.816 142.759C178.737 142.37 159.074 141.774 148.123 142.761C142.772 143.244 142.843 147.634 142.716 152.081C142.565 157.335 141.872 185.688 144.403 188.335C145.384 189.362 147.044 189.516 148.375 189.65C147.815 189.802 147.238 189.591 146.717 189.863C149.339 194.793 157.709 195.863 158.651 189.172C159.044 186.375 158.814 183.37 158.809 180.544L158.789 165.052C167.948 172.884 175.954 182.181 184.573 190.604C190.776 196.667 203.115 206.87 207.909 213.596C203.924 213.582 181.713 212.914 179.933 214.432C177.076 216.868 177.857 222.704 182.642 224.466C183.424 231.737 189.123 230.01 194.712 229.853C202.717 229.628 211.118 229.485 219.123 229.938C222.427 230.125 230.539 232 230.989 226.829C231.41 221.991 230.8 215.067 230.796 209.984L230.809 194.314C230.858 187.304 233.169 183.335 225.237 183.079C225.403 181.823 225.328 180.651 225.237 179.396C224.712 178.707 224.124 178.102 223.519 177.482C213.043 175.273 214.971 182.641 214.97 189.95L214.984 205.814L174.462 165.65C171.917 163.15 169.262 160.713 166.986 157.961C174.551 156.93 188.097 159.797 194.331 156.91C200.009 154.28 197.879 149.634 192.859 148.402Z"/>
	<defs>
		<linearGradient id="gradient_3" gradientUnits="userSpaceOnUse" x1="335.19193" y1="95.408386" x2="335.8775" y2="255.83919">
			<stop offset="0" stop-color="#F47812"/>
			<stop offset="1" stop-color="#FFBE48"/>
		</linearGradient>
	</defs>
	<path fill="url(#gradient_3)" transform="scale(2 2)" d="M255.528 95.3429L375.002 95.3213C380.7 95.3122 386.731 94.8963 392.346 95.9054C414.848 99.9498 416.041 118.594 416.032 136.348L416.02 256.185L175.212 256.185C177.526 255.853 180.189 256.146 182.539 256.156L256.208 256.185C255.702 251.708 256.2 245.995 256.211 241.356L255.519 117.585C255.489 113.662 254.695 97.8409 255.528 95.3429ZM369.228 146.815C369.075 143.902 367.667 143.16 364.989 142.925C356.659 142.194 330.646 141.856 322.243 142.878C318.258 143.364 316.471 151 322.661 152.982C323.737 155.023 324.718 156.907 326.893 157.961C331.82 158.43 338.582 158.072 343.687 157.961C339.74 162.265 335.516 166.315 331.405 170.462L316.092 185.996C311.868 190.199 307.224 195.462 302.891 199.341C300.821 190.553 305.725 186.615 296.785 180.856C296.848 182.118 296.821 183.366 296.785 184.628C296.789 183.37 296.799 182.113 296.785 180.856C294.028 177.209 287.66 175.841 287.165 181.994C286.778 186.812 286.583 220.084 287.677 222.482C289.547 224.326 291.861 223.505 293.955 224.466C293.177 224.388 292.67 224.233 291.943 224.544C288.762 231.962 306.75 229.871 309.812 229.872L337.96 229.877C341.126 227.333 341.591 224.041 340.16 220.294C338.48 219.469 336.694 219.017 334.88 218.595C333.336 210.784 320.469 214.134 314.998 213.596C319.465 209.801 323.554 205.113 327.686 200.945C332.742 195.845 353.56 173.86 358.994 170.818C358.962 178.454 355.943 189.284 365.29 190.82C366.34 194.787 373.136 198.818 374.367 192.866C375.123 189.21 374.937 155.935 374.44 151.605C374.107 148.705 371.938 147.331 369.228 146.815Z"/>
	<path fill="#FFAF02" transform="scale(2 2)" d="M189.816 142.759C191.396 144.573 192.141 146.151 192.859 148.402C189.711 156.262 170.586 152.995 162.432 152.982C163.816 154.925 165.097 156.486 166.986 157.961C169.262 160.713 171.917 163.15 174.462 165.65L214.984 205.814L214.97 189.95C214.971 182.641 213.043 175.273 223.519 177.482C224.124 178.102 224.712 178.707 225.237 179.396C225.328 180.651 225.403 181.823 225.237 183.079C225.191 187.143 226.025 222.229 224.286 223.767C222.681 225.188 187.416 224.745 182.642 224.466C177.857 222.704 177.076 216.868 179.933 214.432C181.713 212.914 203.924 213.582 207.909 213.596C203.115 206.87 190.776 196.667 184.573 190.604C175.954 182.181 167.948 172.884 158.789 165.052C157.207 163.295 155.533 161.418 153.752 159.862C152.403 169.022 158.39 187.719 148.375 189.65C147.044 189.516 145.384 189.362 144.403 188.335C141.872 185.688 142.565 157.335 142.716 152.081C142.843 147.634 142.772 143.244 148.123 142.761C159.074 141.774 178.737 142.37 189.816 142.759Z"/>
	<path fill="#FFAF02" transform="scale(2 2)" d="M322.661 152.982C316.471 151 318.258 143.364 322.243 142.878C330.646 141.856 356.659 142.194 364.989 142.925C367.667 143.16 369.075 143.902 369.228 146.815L369.238 171.337C369.244 176.897 369.73 183.154 368.475 188.586C367.511 189.528 366.564 190.332 365.29 190.82C355.943 189.284 358.962 178.454 358.994 170.818L358.994 158.962C342.195 174.956 326.315 192.349 309.421 208.483C307.697 210.13 305.738 211.757 304.229 213.596C307.887 214.052 311.344 214.071 314.998 213.596C320.469 214.134 333.336 210.784 334.88 218.595C334.68 220.194 334.601 222.377 333.164 223.398C330.324 225.417 300.427 224.266 293.955 224.466C291.861 223.505 289.547 224.326 287.677 222.482C286.583 220.084 286.778 186.812 287.165 181.994C287.66 175.841 294.028 177.209 296.785 180.856C296.799 182.113 296.789 183.37 296.785 184.628L296.785 205.814C298.729 203.559 300.727 201.388 302.891 199.341C307.224 195.462 311.868 190.199 316.092 185.996L331.405 170.462C335.516 166.315 339.74 162.265 343.687 157.961C345.661 156.553 346.931 155.037 348.166 152.982L322.661 152.982Z"/>
	<path fill="#F88C01" transform="scale(2 2)" d="M369.228 146.815C371.938 147.331 374.107 148.705 374.44 151.605C374.937 155.935 375.123 189.21 374.367 192.866C373.136 198.818 366.34 194.787 365.29 190.82C366.564 190.332 367.511 189.528 368.475 188.586C369.73 183.154 369.244 176.897 369.238 171.337L369.228 146.815Z"/>
	<path fill="#F06900" transform="scale(2 2)" d="M192.859 148.402C197.879 149.634 200.009 154.28 194.331 156.91C188.097 159.797 174.551 156.93 166.986 157.961C165.097 156.486 163.816 154.925 162.432 152.982C170.586 152.995 189.711 156.262 192.859 148.402Z"/>
	<path fill="#F88C01" transform="scale(2 2)" d="M322.661 152.982L348.166 152.982C346.931 155.037 345.661 156.553 343.687 157.961C338.582 158.072 331.82 158.43 326.893 157.961C324.718 156.907 323.737 155.023 322.661 152.982Z"/>
	<path fill="#F88C01" transform="scale(2 2)" d="M358.994 170.818C353.56 173.86 332.742 195.845 327.686 200.945C323.554 205.113 319.465 209.801 314.998 213.596C311.344 214.071 307.887 214.052 304.229 213.596C305.738 211.757 307.697 210.13 309.421 208.483C326.315 192.349 342.195 174.956 358.994 158.962L358.994 170.818Z"/>
	<path fill="#F06900" transform="scale(2 2)" d="M153.752 159.862C155.533 161.418 157.207 163.295 158.789 165.052L158.809 180.544C158.814 183.37 159.044 186.375 158.651 189.172C157.709 195.863 149.339 194.793 146.717 189.863C147.238 189.591 147.815 189.802 148.375 189.65C158.39 187.719 152.403 169.022 153.752 159.862Z"/>
	<path fill="#F88C01" transform="scale(2 2)" d="M296.785 184.628C296.821 183.366 296.848 182.118 296.785 180.856C305.725 186.615 300.821 190.553 302.891 199.341C300.727 201.388 298.729 203.559 296.785 205.814L296.785 184.628Z"/>
	<path fill="#F06900" transform="scale(2 2)" d="M182.642 224.466C187.416 224.745 222.681 225.188 224.286 223.767C226.025 222.229 225.191 187.143 225.237 183.079C233.169 183.335 230.858 187.304 230.809 194.314L230.796 209.984C230.8 215.067 231.41 221.991 230.989 226.829C230.539 232 222.427 230.125 219.123 229.938C211.118 229.485 202.717 229.628 194.712 229.853C189.123 230.01 183.424 231.737 182.642 224.466Z"/>
	<path fill="#F88C01" transform="scale(2 2)" d="M334.88 218.595C336.694 219.017 338.48 219.469 340.16 220.294C341.591 224.041 341.126 227.333 337.96 229.877L309.812 229.872C306.75 229.871 288.762 231.962 291.943 224.544C292.67 224.233 293.177 224.388 293.955 224.466C300.427 224.266 330.324 225.417 333.164 223.398C334.601 222.377 334.68 220.194 334.88 218.595Z"/>
	<path fill="#4CB6E1" transform="scale(2 2)" d="M96.0222 263.445L96.2039 262.948C97.7735 261.601 121.154 262.585 124.878 262.584L416.02 262.552C415.881 271.625 416.547 280.878 416.02 289.922L416.028 373.451C416.032 388.278 416.166 397.45 404.644 408.437C393.52 414.824 394.532 415.01 380.725 414.992L142.652 414.977C128.187 414.99 117.023 416.778 105.739 404.854C96.5295 397.625 98.5706 385.679 96.0222 381.185L96.0292 276.189C96.0348 271.97 96.2911 267.648 96.0222 263.445ZM224.757 289.922C224.424 286.818 224.724 284.161 221.051 284.062C209.152 283.741 195.001 283.778 183.077 284.024C176.337 284.163 176.14 296.406 183.87 295.259C184.216 303.828 193.571 299.491 199.077 301.031C189.37 311.643 169.889 333.119 158.789 341.46C158.8 338.933 161.238 319.902 154.121 323.251L154.237 323.31L153.96 323.713C153.469 330.641 154.735 340.91 153.752 346.88L153.737 346.619C153.508 342.38 154.858 321.701 152.575 319.427C150.881 317.74 145.147 318.886 142.679 319.35C142.503 334.666 142.278 350.159 142.679 365.472C143.252 366.343 143.796 367.213 144.5 367.987C146.196 368.058 147.871 367.964 149.561 367.987C149.798 370.611 150.819 372.532 152.525 374.478C159.227 374.643 187.204 375.461 192.849 374.145C197.468 373.068 196.054 359.684 189.401 361.825C188.884 363.753 189.348 365.966 189.043 367.987C188.924 363.995 189.02 359.985 189.043 355.992C183.148 355.978 177.251 355.929 171.356 355.992C175.253 355.282 177.772 350.923 180.437 348.162C187.339 341.012 206.171 320.096 213.661 314.843C213.879 323.293 210.421 332.129 220.76 332.338L218.632 332.654C218.634 336.819 226.054 339.574 230.121 335.276C232.034 328.715 230.806 315.866 230.793 308.6C230.783 303.525 232.983 290.418 226.85 288.365C225.189 287.809 224.935 288.542 224.757 289.922ZM334.88 289.922C331.559 281.007 319.204 284.248 310.621 284.238C284.435 284.206 285.796 278.151 285.794 301.906L285.808 329.013C286.932 330.276 288.171 331.563 289.694 332.338C291.806 337.947 298.077 340.409 302.059 335.276C302.064 326.401 301.703 317.41 302.059 308.55C316.15 321.48 336.737 341.681 349.308 355.992C341.742 356.707 333.178 354.486 325.851 356.47C319.316 358.239 321.195 366.366 328.935 366.525C329.726 375.745 338.633 372.73 346.06 372.743C350.386 372.751 370.837 373.931 373.541 372.024C376.261 370.105 375.611 366.124 375.587 363.272L375.537 336.194C375.535 330.242 377.278 322.886 369.228 321.982C369.276 315.901 363.286 313.795 360.331 317.024C358.118 319.442 358.823 343.147 358.994 347.877C354.554 344.725 350.757 340.044 346.839 336.246C335.054 324.823 323.686 313.025 312.062 301.446C322.416 299.963 337.436 305.558 340.16 295.259C339.474 292.485 337.958 290.148 334.88 289.922Z"/>
	<path fill="white" transform="scale(2 2)" d="M183.87 295.259C176.14 296.406 176.337 284.163 183.077 284.024C195.001 283.778 209.152 283.741 221.051 284.062C224.724 284.161 224.424 286.818 224.757 289.922L224.768 317.289C224.773 323.302 227.185 330.292 220.76 332.338C210.421 332.129 213.879 323.293 213.661 314.843C213.565 311.082 213.578 307.34 213.661 303.579L170.544 347.783C167.864 350.503 164.924 353.105 162.432 355.992L171.356 355.992C177.251 355.929 183.148 355.978 189.043 355.992C189.02 359.985 188.924 363.995 189.043 367.987C187.526 369.034 181.924 367.997 179.887 367.991L149.561 367.987C147.871 367.964 146.196 368.058 144.5 367.987C143.796 367.213 143.252 366.343 142.679 365.472C142.278 350.159 142.503 334.666 142.679 319.35C145.147 318.886 150.881 317.74 152.575 319.427C154.858 321.701 153.508 342.38 153.737 346.619L153.752 346.88C155.95 345.548 157.612 343.731 158.789 341.46C169.889 333.119 189.37 311.643 199.077 301.031C201.169 299.252 203.025 297.34 204.814 295.259L183.87 295.259Z"/>
	<path fill="white" transform="scale(2 2)" d="M285.808 329.013L285.794 301.906C285.796 278.151 284.435 284.206 310.621 284.238C319.204 284.248 331.559 281.007 334.88 289.922C334.025 292.378 332.935 293.855 330.73 295.259L305.904 295.259C307.904 297.387 309.934 299.446 312.062 301.446C323.686 313.025 335.054 324.823 346.839 336.246C350.757 340.044 354.554 344.725 358.994 347.877C358.823 343.147 358.118 319.442 360.331 317.024C363.286 313.795 369.276 315.901 369.228 321.982L369.244 348.551C369.252 368.97 372.787 366.542 352.049 366.538L328.935 366.525C321.195 366.366 319.316 358.239 325.851 356.47C333.178 354.486 341.742 356.707 349.308 355.992C336.737 341.681 316.15 321.48 302.059 308.55C300.16 306.548 298.241 304.585 296.259 302.665C296.12 309.589 297.109 321.137 296.21 327.484C295.649 331.443 293.531 332.329 289.694 332.338C288.171 331.563 286.932 330.276 285.808 329.013Z"/>
	<path fill="#1E85AE" transform="scale(2 2)" d="M224.757 289.922C224.935 288.542 225.189 287.809 226.85 288.365C232.983 290.418 230.783 303.525 230.793 308.6C230.806 315.866 232.034 328.715 230.121 335.276C226.054 339.574 218.634 336.819 218.632 332.654L220.76 332.338C227.185 330.292 224.773 323.302 224.768 317.289L224.757 289.922Z"/>
	<path fill="#1E85AE" transform="scale(2 2)" d="M334.88 289.922C337.958 290.148 339.474 292.485 340.16 295.259C337.436 305.558 322.416 299.963 312.062 301.446C309.934 299.446 307.904 297.387 305.904 295.259L330.73 295.259C332.935 293.855 334.025 292.378 334.88 289.922Z"/>
	<path fill="#1E85AE" transform="scale(2 2)" d="M183.87 295.259L204.814 295.259C203.025 297.34 201.169 299.252 199.077 301.031C193.571 299.491 184.216 303.828 183.87 295.259Z"/>
	<path fill="#1E85AE" transform="scale(2 2)" d="M296.259 302.665C298.241 304.585 300.16 306.548 302.059 308.55C301.703 317.41 302.064 326.401 302.059 335.276C298.077 340.409 291.806 337.947 289.694 332.338C293.531 332.329 295.649 331.443 296.21 327.484C297.109 321.137 296.12 309.589 296.259 302.665Z"/>
	<path fill="#1E85AE" transform="scale(2 2)" d="M213.661 314.843C206.171 320.096 187.339 341.012 180.437 348.162C177.772 350.923 175.253 355.282 171.356 355.992L162.432 355.992C164.924 353.105 167.864 350.503 170.544 347.783L213.661 303.579C213.578 307.34 213.565 311.082 213.661 314.843Z"/>
	<path fill="#1E85AE" transform="scale(2 2)" d="M369.228 321.982C377.278 322.886 375.535 330.242 375.537 336.194L375.587 363.272C375.611 366.124 376.261 370.105 373.541 372.024C370.837 373.931 350.386 372.751 346.06 372.743C338.633 372.73 329.726 375.745 328.935 366.525L352.049 366.538C372.787 366.542 369.252 368.97 369.244 348.551L369.228 321.982Z"/>
	<path fill="#1E85AE" transform="scale(2 2)" d="M153.752 346.88C154.735 340.91 153.469 330.641 153.96 323.713L154.237 323.31L154.121 323.251C161.238 319.902 158.8 338.933 158.789 341.46C157.612 343.731 155.95 345.548 153.752 346.88Z"/>
	<path fill="#1E85AE" transform="scale(2 2)" d="M189.043 367.987C189.348 365.966 188.884 363.753 189.401 361.825C196.054 359.684 197.468 373.068 192.849 374.145C187.204 375.461 159.227 374.643 152.525 374.478C150.819 372.532 149.798 370.611 149.561 367.987L179.887 367.991C181.924 367.997 187.526 369.034 189.043 367.987Z"/>
	<defs>
		<linearGradient id="gradient_4" gradientUnits="userSpaceOnUse" x1="252.33119" y1="425.38412" x2="249.34221" y2="373.85522">
			<stop offset="0" stop-color="#0882C3"/>
			<stop offset="1" stop-color="#27A5DC"/>
		</linearGradient>
	</defs>
	<path fill="url(#gradient_4)" transform="scale(2 2)" d="M96.0222 381.185C98.5706 385.679 96.5295 397.625 105.739 404.854C117.023 416.778 128.187 414.99 142.652 414.977L380.725 414.992C394.532 415.01 393.52 414.824 404.644 408.437L405.034 408.567L405.797 407.935L405.854 408.268C404.952 411.038 400.485 413.593 398.102 414.97C389.382 420.005 376.723 418.148 367.069 418.152L144.215 418.247C136.545 418.298 128.712 418.997 121.221 416.95C107.147 413.104 91.7547 396.874 96.0222 381.185Z"/>
</svg>
