<?xml version="1.0" encoding="utf-8" ?>
<svg xmlns="http://www.w3.org/2000/svg" xmlns:xlink="http://www.w3.org/1999/xlink" width="1024" height="1024">
	<path fill="#166281" transform="scale(2 2)" d="M82.1568 251.195L82.1431 130.357C82.1409 124.041 81.665 117.26 82.9324 111.053C87.731 87.547 107.927 79.4945 129.211 79.4868L387.167 79.4467C398.762 79.3912 409.288 82.2924 417.693 90.6999C430.349 103.361 430.032 113.031 430.031 129.438L430.024 248.961L430.033 376.234C430.042 382.899 430.544 389.707 429.24 396.284C425.542 414.942 408.895 427.62 390.052 427.447L127.928 427.387C105.545 427.416 87.4902 418.9 82.8242 394.278C81.7186 388.444 82.1443 382.14 82.1452 376.219L82.1568 251.195ZM411.658 250.354L411.666 132.016C411.667 126.9 412.062 121.263 411.172 116.226C408.268 99.8105 394.7 98.1418 381.59 98.1498L127.18 98.1658C103.368 98.3188 99.7735 109.657 99.8278 130.607L99.8415 252.199C100.033 255.902 99.8514 259.708 99.8481 263.425L99.8319 374.547C99.8143 394.774 103.545 409.359 127.045 409.574L381.781 409.58C410.982 409.552 411.676 399.929 411.667 376.249L411.658 250.354Z"/>
	<path fill="#8CD0EC" transform="scale(2 2)" d="M411.658 250.354C408.279 250.811 404.92 251.069 401.512 251.195L401.46 250.744C401.101 247.33 401.471 243.528 401.498 240.079L401.523 129.641C401.532 106.589 395.27 107.839 372.96 107.84L138.847 107.838C133.544 107.83 128.027 107.53 122.752 108.056C108.184 109.507 110.005 129.266 110.009 139.423L110.023 253.179C106.628 252.75 103.256 252.431 99.8415 252.199L99.8278 130.607C99.7735 109.657 103.368 98.3188 127.18 98.1658L381.59 98.1498C394.7 98.1418 408.268 99.8105 411.172 116.226C412.062 121.263 411.667 126.9 411.666 132.016L411.658 250.354Z"/>
	<path fill="#4CB6E1" transform="scale(2 2)" d="M401.512 251.195C404.92 251.069 408.279 250.811 411.658 250.354L411.667 376.249C411.676 399.929 410.982 409.552 381.781 409.58L127.045 409.574C103.545 409.359 99.8143 394.774 99.8319 374.547L99.8481 263.425C99.8514 259.708 100.033 255.902 99.8415 252.199C103.256 252.431 106.628 252.75 110.023 253.179L110.009 139.423C110.005 129.266 108.184 109.507 122.752 108.056C128.027 107.53 133.544 107.83 138.847 107.838L372.96 107.84C395.27 107.839 401.532 106.589 401.523 129.641L401.498 240.079C401.471 243.528 401.101 247.33 401.46 250.744L401.512 251.195ZM397.622 194.544L397.587 194.059C396.497 177.822 394.665 176.752 382.87 164.958L370.38 152.495C365.743 147.909 361.356 142.887 356.505 138.551C347.99 130.941 333.841 129.2 324.291 136.07C319.49 139.524 315.014 144.937 310.75 149.111L204.767 254.608C203.118 256.287 200.375 259.659 198.67 260.822C197.185 259.428 192.056 260.018 190.059 259.841L163.392 257.521C146.264 256.073 129.172 254.292 112.014 253.179C111.24 253.211 110.7 253.088 110.077 253.568C109.553 260.714 110.023 269.537 110.024 276.865L110.028 365.066C110.019 372.8 107.867 388.296 113.197 394.528C118.835 401.119 133.448 400.469 142.078 399.818C147.346 401.366 151.017 400.219 156.279 399.818C159.171 400.546 168.657 399.856 172.267 399.83L382.992 399.862C403.351 399.949 401.539 390.96 401.513 374.213L401.51 282.642C401.512 272.164 401.655 261.671 401.512 251.195C396.833 251.583 358.625 253.913 357.57 253.179C363.601 248.135 370.131 240.575 375.778 234.891C387.176 223.419 406.185 210.419 397.622 191.35C397.668 192.425 397.712 193.469 397.622 194.544ZM130.763 134.26L130.763 151.238L284.932 151.238L284.932 134.26L130.763 134.26ZM222.673 172.198L130.763 172.198L130.763 190.261L159.375 190.261L251.501 190.261L251.501 172.198L222.673 172.198Z"/>
	<path fill="#1E85AE" transform="scale(2 2)" d="M130.763 151.238L130.763 134.26L284.932 134.26L284.932 151.238L130.763 151.238Z"/>
	<path fill="#F88C01" transform="scale(2 2)" d="M311.24 169.597L311.789 169.032L322.299 158.524C334.914 145.939 339.448 142.101 352.739 156.169C346.303 164.526 333.666 175.814 325.907 183.76L325.907 183.76C321.225 179.866 314.98 174.308 311.24 169.597Z"/>
	<path fill="#FC9E02" transform="scale(2 2)" d="M352.739 156.169C357.365 160.794 364.259 167.329 368.4 172.198C359.364 179.832 350.314 190.27 341.43 198.572C336.05 194.1 330.805 188.761 325.907 183.76C333.666 175.814 346.303 164.526 352.739 156.169Z"/>
	<path fill="#977B69" transform="scale(2 2)" d="M299.278 181.612L311.24 169.597C314.98 174.308 321.225 179.866 325.907 183.76C321.713 187.33 318.19 191.637 314.298 195.524L314.298 195.524C312.234 192.542 302.662 185.195 299.278 181.612Z"/>
	<path fill="#1E85AE" transform="scale(2 2)" d="M130.763 172.198L222.673 172.198L251.501 172.198L251.501 190.261L159.375 190.261L130.763 190.261L130.763 172.198Z"/>
	<path fill="#F06900" transform="scale(2 2)" d="M341.43 198.572C350.314 190.27 359.364 179.832 368.4 172.198C375.32 179.306 387.629 187.251 380.794 198.614C378.007 203.247 366.419 213.609 361.921 218.236L354.678 211.278C350.197 207.114 345.786 202.866 341.43 198.572Z"/>
	<path fill="#F88C01" transform="scale(2 2)" d="M169.372 312.735C170.911 309.655 188.145 293.294 191.472 289.899L274.622 206.448C282.901 198.23 290.917 189.752 299.278 181.612C302.662 185.195 312.234 192.542 314.298 195.524C304.385 202.72 294.496 215.008 285.461 223.617C249.776 257.619 213.922 293.46 179.394 328.55C176.096 325.856 173.076 322.367 169.372 320.264C169.806 317.75 170.465 315.156 169.372 312.735Z"/>
	<defs>
		<linearGradient id="gradient_0" gradientUnits="userSpaceOnUse" x1="350.2439" y1="215.25551" x2="318.44785" y2="190.8154">
			<stop offset="0" stop-color="#6E5F55"/>
			<stop offset="1" stop-color="#C1A187"/>
		</linearGradient>
	</defs>
	<path fill="url(#gradient_0)" transform="scale(2 2)" d="M325.907 183.76L325.907 183.76C330.805 188.761 336.05 194.1 341.43 198.572C345.786 202.866 350.197 207.114 354.678 211.278C350.952 210.99 349.989 217.141 347.781 219.377C346.985 220.182 343.703 222.157 343.43 222.846C339.79 219.297 336.179 215.709 332.407 212.299C326.231 206.881 320.169 201.271 314.298 195.524C318.19 191.637 321.713 187.33 325.907 183.76Z"/>
	<path fill="#1E85AE" transform="scale(2 2)" d="M397.622 194.544C397.712 193.469 397.668 192.425 397.622 191.35C406.185 210.419 387.176 223.419 375.778 234.891C370.131 240.575 363.601 248.135 357.57 253.179C358.625 253.913 396.833 251.583 401.512 251.195C401.655 261.671 401.512 272.164 401.51 282.642L401.513 374.213C401.539 390.96 403.351 399.949 382.992 399.862L172.267 399.83C168.657 399.856 159.171 400.546 156.279 399.818C161.832 396.479 202.363 390.531 210.632 388.965C229.637 385.365 224.081 387.521 237.904 373.752L328.029 283.279C337.564 273.682 346.757 263.671 356.511 254.307C354.356 253.144 349.598 255.582 346.914 254.307C354.891 244.917 366.904 233.701 375.946 224.978C385.609 215.658 395.561 208.545 397.622 194.544Z"/>
	<path fill="#FFAF02" transform="scale(2 2)" d="M314.298 195.524L314.298 195.524C320.169 201.271 326.231 206.881 332.407 212.299C327.302 219.15 320.371 224.992 314.363 231.076L222.321 324.342C214.701 331.96 207.291 339.745 199.534 347.237C197.797 345.755 196.056 343.22 194.022 342.314C192.084 341.369 181.957 330.961 179.394 328.55C213.922 293.46 249.776 257.619 285.461 223.617C294.496 215.008 304.385 202.72 314.298 195.524Z"/>
	<path fill="#5D5B5B" transform="scale(2 2)" d="M343.43 222.846C343.703 222.157 346.985 220.182 347.781 219.377C349.989 217.141 350.952 210.99 354.678 211.278L361.921 218.236C358.41 222.2 354.365 226.225 350.396 229.726L343.43 222.846Z"/>
	<defs>
		<linearGradient id="gradient_1" gradientUnits="userSpaceOnUse" x1="262.99234" y1="275.638" x2="285.04321" y2="300.0192">
			<stop offset="0" stop-color="#FE8005"/>
			<stop offset="1" stop-color="#D66208"/>
		</linearGradient>
	</defs>
	<path fill="url(#gradient_1)" transform="scale(2 2)" d="M332.407 212.299C336.179 215.709 339.79 219.297 343.43 222.846L350.396 229.726L225.26 354.41C222.694 357.052 219.894 361.475 215.987 361.901C214.775 360.64 213.5 359.557 211.604 359.922C210.29 358.756 209.523 357.181 208.048 356.136C203.253 351.652 198.575 347.045 194.022 342.314C196.056 343.22 197.797 345.755 199.534 347.237C207.291 339.745 214.701 331.96 222.321 324.342L314.363 231.076C320.371 224.992 327.302 219.15 332.407 212.299Z"/>
	<path fill="#1E85AE" transform="scale(2 2)" d="M142.078 399.818C133.448 400.469 118.835 401.119 113.197 394.528C107.867 388.296 110.019 372.8 110.028 365.066L110.024 276.865C110.023 269.537 109.553 260.714 110.077 253.568C110.7 253.088 111.24 253.211 112.014 253.179C129.172 254.292 146.264 256.073 163.392 257.521L190.059 259.841C192.056 260.018 197.185 259.428 198.67 260.822C188.425 270.823 178.345 281.009 168.287 291.198C152.898 306.787 152.996 302.438 148.287 325.152C146.794 332.354 145.141 339.512 143.509 346.683L138.743 368.058C137.55 373.444 135.067 379.49 137.093 384.939C133.654 389.418 138.89 396.816 142.078 399.818Z"/>
	<path fill="#166281" transform="scale(2 2)" d="M137.093 384.939C142.873 395.753 153.607 390.403 163.236 388.593L177.955 385.944C184.341 384.808 190.698 383.512 197.093 382.431C230.901 376.716 221.854 380.157 246.447 355.335L320.153 281.009C323.196 277.947 326.363 275.022 329.348 271.9L339.432 261.471C341.728 259.114 343.996 256.61 346.581 254.567L346.914 254.307C349.598 255.582 354.356 253.144 356.511 254.307C346.757 263.671 337.564 273.682 328.029 283.279L237.904 373.752C224.081 387.521 229.637 385.365 210.632 388.965C202.363 390.531 161.832 396.479 156.279 399.818C151.017 400.219 147.346 401.366 142.078 399.818C138.89 396.816 133.654 389.418 137.093 384.939Z"/>
	<path fill="#166281" transform="scale(2 2)" d="M154.241 373.41L163.021 333.948C164.447 327.423 164.765 317.286 169.372 312.735C170.465 315.156 169.806 317.75 169.372 320.264C167.051 331.861 165.163 343.677 162.398 355.168C166.865 358.372 170.907 362.424 174.977 366.122C186.325 364.587 198.019 362.523 209.175 359.922L211.604 359.922C213.5 359.557 214.775 360.64 215.987 361.901C211.382 363.18 206.54 363.836 201.84 364.714L169.686 370.469C164.558 371.402 159.295 372.152 154.241 373.41Z"/>
	<defs>
		<linearGradient id="gradient_2" gradientUnits="userSpaceOnUse" x1="210.47482" y1="354.22876" x2="163.90895" y2="340.87561">
			<stop offset="0" stop-color="#DBA73A"/>
			<stop offset="1" stop-color="#FDD36F"/>
		</linearGradient>
	</defs>
	<path fill="url(#gradient_2)" transform="scale(2 2)" d="M162.398 355.168C165.163 343.677 167.051 331.861 169.372 320.264C173.076 322.367 176.096 325.856 179.394 328.55C181.957 330.961 192.084 341.369 194.022 342.314C198.575 347.045 203.253 351.652 208.048 356.136C208.509 358.125 210.114 356.911 208.774 359.607L209.175 359.922C198.019 362.523 186.325 364.587 174.977 366.122C170.907 362.424 166.865 358.372 162.398 355.168Z"/>
	<path fill="#FC9E02" transform="scale(2 2)" d="M208.048 356.136C209.523 357.181 210.29 358.756 211.604 359.922L209.175 359.922L208.774 359.607C210.114 356.911 208.509 358.125 208.048 356.136Z"/>
</svg>
