<?xml version="1.0" encoding="utf-8" ?>
<svg xmlns="http://www.w3.org/2000/svg" xmlns:xlink="http://www.w3.org/1999/xlink" width="1024" height="1024">
	<path fill="#166281" transform="scale(2 2)" d="M73.3775 349.319L73.3576 105.049C73.3521 102.638 73.1065 100.001 73.3633 97.6133C74.8212 84.0521 90.6647 85.7643 100.126 85.7612L350.588 85.7693C374.56 85.7694 398.572 85.4715 422.541 85.7448C440.306 85.9473 438.992 101.224 438.996 113.432L438.999 338.743C439.005 343.715 439.673 349.17 438.993 354.081C437.205 370.231 421.58 368.53 410.102 368.527L299.166 368.516C295.946 368.301 292.68 368.495 289.452 368.511L237.745 368.564C231.916 368.558 215.235 367.786 210.817 369.275L98.4339 369.292C79.7447 369.304 73.7289 370.232 73.3775 349.319ZM82.8603 341.123C92.5714 341.605 102.437 341.078 112.161 341.09L297.8 341.143C303.972 341.116 308.732 341.045 314.998 341.148C320.255 341.235 325.383 340.591 330.58 340.542C332.975 340.52 335.413 341.142 337.865 341.148L371.778 341.12C383.875 341.127 395.813 341.198 407.886 340.538C412.494 340.286 417.322 341.078 421.877 340.515L422.268 340.515C424.508 341.476 427.61 340.812 429.974 340.515L429.983 132.382C429.984 122.966 430.453 113.261 429.631 103.883C428.684 93.0779 408.128 96.4725 400.05 96.4799L108.216 96.486C102.665 96.4852 88.9249 94.8295 84.7703 98.7881C81.3894 102.01 82.8584 120.319 82.8597 126.065L82.8603 341.123Z"/>
	<path fill="#1E85AE" transform="scale(2 2)" d="M422.268 161.34L422.268 105.025L89.7628 105.025L89.7628 167.027L89.8185 321.748C89.817 327.999 89.636 334.266 89.7628 340.515C116.42 340.846 143.128 340.516 169.79 340.515L413.69 340.489C416.302 340.48 419.316 340.15 421.877 340.515C417.322 341.078 412.494 340.286 407.886 340.538C395.813 341.198 383.875 341.127 371.778 341.12L337.865 341.148C335.413 341.142 332.975 340.52 330.58 340.542C325.383 340.591 320.255 341.235 314.998 341.148C308.732 341.045 303.972 341.116 297.8 341.143L112.161 341.09C102.437 341.078 92.5714 341.605 82.8603 341.123L82.8597 126.065C82.8584 120.319 81.3894 102.01 84.7703 98.7881C88.9249 94.8295 102.665 96.4852 108.216 96.486L400.05 96.4799C408.128 96.4725 428.684 93.0779 429.631 103.883C430.453 113.261 429.984 122.966 429.983 132.382L429.974 340.515C427.61 340.812 424.508 341.476 422.268 340.515L422.268 161.34Z"/>
	<path fill="#8CD0EC" transform="scale(2 2)" d="M374.434 146.253L138.582 146.253C138.588 152.749 138.851 159.351 138.582 165.834C137.375 167.557 138.374 174.36 137.976 176.691C137.841 177.48 132.789 187.034 132.073 187.818C131.468 186.766 131.218 185.867 130.029 186.735C125.178 190.279 108.803 184.955 100.679 190.001C97.7442 191.824 96.0902 195.189 93.6727 197.61C87.9145 203.377 91.1202 171.215 90.1094 167.139L89.7628 167.027L89.7628 105.025L422.268 105.025L422.268 161.34C418.894 171.472 424.178 194.201 421.86 203.971L421.655 204.087C420.458 203.409 420.068 203.749 418.916 204.31C417.525 204.32 416.081 203.418 414.722 203.09C406.367 201.073 384.505 199.003 378.903 196.38C378.356 195.632 378.389 195.098 377.381 195.49C374.993 188.273 378.649 169.624 376.958 163.199L376.958 301.206C376.16 301.03 374.961 300.931 374.434 300.286C374.775 299.309 374.434 274.083 374.434 270.858L374.434 146.253Z"/>
	<defs>
		<linearGradient id="gradient_0" gradientUnits="userSpaceOnUse" x1="270.3844" y1="315.5491" x2="242.64684" y2="131.15858">
			<stop offset="0" stop-color="#FC8F00"/>
			<stop offset="1" stop-color="#FFB428"/>
		</linearGradient>
	</defs>
	<path fill="url(#gradient_0)" transform="scale(2 2)" d="M138.582 146.253L374.434 146.253L374.434 270.858C374.434 274.083 374.775 299.309 374.434 300.286L138.582 300.286L138.582 165.834C138.851 159.351 138.588 152.749 138.582 146.253ZM153.712 163.199L153.712 169.869L272.489 169.869C272.388 167.626 272.348 165.443 272.489 163.199L153.712 163.199ZM352.715 163.199L274.756 163.199L274.756 169.869C276.441 169.871 278.128 169.89 279.812 169.869L356.716 169.869L356.716 163.199L352.715 163.199ZM262.969 189.615L262.969 195.603L346.181 195.624C349.261 195.649 352.684 195.981 355.724 195.603C355.765 193.608 355.841 191.608 355.724 189.615L262.969 189.615ZM236.697 191.742L153.712 191.742C153.594 194.093 153.605 196.379 153.712 198.729L166.625 198.729L249.776 198.729C249.772 196.401 249.738 194.069 249.776 191.742L236.697 191.742ZM262.969 210.524C263.032 212.442 263.176 214.4 262.969 216.31C268.418 216.446 273.875 216.31 279.327 216.308L341.778 216.317C346.425 216.31 351.08 216.449 355.724 216.31C356.302 215.421 355.732 211.804 355.724 210.524L262.969 210.524ZM153.712 212.142C153.728 214.368 153.789 216.604 153.712 218.828L249.776 218.828C249.773 216.601 249.736 214.368 249.776 212.142L153.712 212.142ZM262.969 230.731C262.932 232.725 262.934 234.713 262.969 236.707L355.724 236.707C355.945 234.737 355.701 232.713 355.724 230.731L262.969 230.731ZM153.712 232.548L153.712 239.434L242.666 239.475C244.787 239.492 247.74 239.883 249.776 239.434L249.776 232.548L153.712 232.548ZM262.969 251.877C262.951 253.843 262.948 255.807 262.969 257.773L330.962 257.837C339.212 257.861 347.476 257.678 355.724 257.773C355.686 255.805 355.681 253.845 355.724 251.877L293.722 251.874C283.517 251.873 273.157 251.499 262.969 251.877ZM153.712 253.152C153.694 255.488 153.643 257.828 153.712 260.163C163.611 260.196 249.134 260.424 249.776 260.163C249.806 257.826 249.86 255.488 249.776 253.152L186.081 253.157C175.301 253.159 164.488 253.338 153.712 253.152ZM346.962 272.975L262.969 272.975L262.969 278.754L272.489 278.754L355.724 278.754L355.724 272.975C352.788 272.821 349.899 272.813 346.962 272.975ZM153.712 274.146L153.712 281.224C162.583 281.223 249.436 281.449 249.776 281.224C249.84 278.857 249.892 276.512 249.776 274.146L153.712 274.146Z"/>
	<defs>
		<linearGradient id="gradient_1" gradientUnits="userSpaceOnUse" x1="256.52005" y1="341.24359" x2="255.27534" y2="176.11412">
			<stop offset="0" stop-color="#02AFE6"/>
			<stop offset="1" stop-color="#6FD7F4"/>
		</linearGradient>
	</defs>
	<path fill="url(#gradient_1)" transform="scale(2 2)" d="M376.958 163.199C378.649 169.624 374.993 188.273 377.381 195.49C378.389 195.098 378.356 195.632 378.903 196.38C384.505 199.003 406.367 201.073 414.722 203.09C416.081 203.418 417.525 204.32 418.916 204.31C420.068 203.749 420.458 203.409 421.655 204.087L421.86 203.971C424.178 194.201 418.894 171.472 422.268 161.34L422.268 340.515L421.877 340.515C419.316 340.15 416.302 340.48 413.69 340.489L169.79 340.515C143.128 340.516 116.42 340.846 89.7628 340.515C89.636 334.266 89.817 327.999 89.8185 321.748L89.7628 167.027L90.1094 167.139C91.1202 171.215 87.9145 203.377 93.6727 197.61C96.0902 195.189 97.7442 191.824 100.679 190.001C108.803 184.955 125.178 190.279 130.029 186.735C131.218 185.867 131.468 186.766 132.073 187.818C132.789 187.034 137.841 177.48 137.976 176.691C138.374 174.36 137.375 167.557 138.582 165.834L138.582 300.286L374.434 300.286C374.961 300.931 376.16 301.03 376.958 301.206L376.958 163.199Z"/>
	<path fill="#F06900" transform="scale(2 2)" d="M153.712 169.869L153.712 163.199L272.489 163.199C272.348 165.443 272.388 167.626 272.489 169.869L153.712 169.869Z"/>
	<path fill="#F06900" transform="scale(2 2)" d="M274.756 163.199L352.715 163.199L356.716 163.199L356.716 169.869L279.812 169.869C278.128 169.89 276.441 169.871 274.756 169.869L274.756 163.199Z"/>
	<path fill="#FFAF02" transform="scale(2 2)" d="M262.969 195.603L262.969 189.615L355.724 189.615C355.841 191.608 355.765 193.608 355.724 195.603C352.684 195.981 349.261 195.649 346.181 195.624L262.969 195.603Z"/>
	<path fill="#F06900" transform="scale(2 2)" d="M153.712 191.742L236.697 191.742L249.776 191.742C249.738 194.069 249.772 196.401 249.776 198.729L166.625 198.729L153.712 198.729C153.605 196.379 153.594 194.093 153.712 191.742Z"/>
	<path fill="#FFAF02" transform="scale(2 2)" d="M262.969 216.31C263.176 214.4 263.032 212.442 262.969 210.524L355.724 210.524C355.732 211.804 356.302 215.421 355.724 216.31C351.08 216.449 346.425 216.31 341.778 216.317L279.327 216.308C273.875 216.31 268.418 216.446 262.969 216.31Z"/>
	<path fill="#F06900" transform="scale(2 2)" d="M153.712 218.828C153.789 216.604 153.728 214.368 153.712 212.142L249.776 212.142C249.736 214.368 249.773 216.601 249.776 218.828L153.712 218.828Z"/>
	<path fill="#FFAF02" transform="scale(2 2)" d="M262.969 236.707C262.934 234.713 262.932 232.725 262.969 230.731L355.724 230.731C355.701 232.713 355.945 234.737 355.724 236.707L262.969 236.707Z"/>
	<path fill="#F06900" transform="scale(2 2)" d="M153.712 239.434L153.712 232.548L249.776 232.548L249.776 239.434C247.74 239.883 244.787 239.492 242.666 239.475L153.712 239.434Z"/>
	<path fill="#FFAF02" transform="scale(2 2)" d="M262.969 257.773C262.948 255.807 262.951 253.843 262.969 251.877C273.157 251.499 283.517 251.873 293.722 251.874L355.724 251.877C355.681 253.845 355.686 255.805 355.724 257.773C347.476 257.678 339.212 257.861 330.962 257.837L262.969 257.773Z"/>
	<path fill="#F06900" transform="scale(2 2)" d="M153.712 260.163C153.643 257.828 153.694 255.488 153.712 253.152C164.488 253.338 175.301 253.159 186.081 253.157L249.776 253.152C249.86 255.488 249.806 257.826 249.776 260.163C249.134 260.424 163.611 260.196 153.712 260.163Z"/>
	<path fill="#FFAF02" transform="scale(2 2)" d="M262.969 272.975L346.962 272.975C349.899 272.813 352.788 272.821 355.724 272.975L355.724 278.754L272.489 278.754L262.969 278.754L262.969 272.975Z"/>
	<path fill="#F06900" transform="scale(2 2)" d="M153.712 281.224L153.712 274.146L249.776 274.146C249.892 276.512 249.84 278.857 249.776 281.224C249.436 281.449 162.583 281.223 153.712 281.224Z"/>
	<defs>
		<linearGradient id="gradient_2" gradientUnits="userSpaceOnUse" x1="254.89368" y1="368.32483" x2="254.7446" y2="405.85822">
			<stop offset="0" stop-color="#043753"/>
			<stop offset="1" stop-color="#2389B4"/>
		</linearGradient>
	</defs>
	<path fill="url(#gradient_2)" transform="scale(2 2)" d="M210.817 369.275C215.235 367.786 231.916 368.558 237.745 368.564L289.452 368.511C292.68 368.495 295.946 368.301 299.166 368.516C299.997 373.543 301.231 378.766 301.58 383.841C303.069 388.576 303.745 400.379 304.581 405.955C302.222 405.672 299.562 405.922 297.175 405.929L225.285 405.963C221.6 405.961 208.381 406.39 205.423 405.646L205.097 405.077C205.714 399.619 207.393 388.996 208.706 383.841C208.86 379.656 210.206 373.578 210.817 369.275Z"/>
	<path fill="#8CD0EC" transform="scale(2 2)" d="M171.622 407.809C176.675 402.936 202.426 408.705 205.097 405.077L205.423 405.646C208.381 406.39 221.6 405.961 225.285 405.963L297.175 405.929C299.562 405.922 302.222 405.672 304.581 405.955C306.441 406.369 308.853 405.959 310.78 405.941L323.681 405.937C329.745 405.923 337.132 404.995 342.236 409.023C339.611 409.791 335.761 409.071 332.986 409.043L217.02 409.023C210.34 409.022 172.76 410.508 171.622 407.809Z"/>
	<path fill="#4CB6E1" transform="scale(2 2)" d="M169.714 417.289C169.94 414.008 168.825 410.275 171.622 407.809C172.76 410.508 210.34 409.022 217.02 409.023L332.986 409.043C335.761 409.071 339.611 409.791 342.236 409.023C344.607 412.306 344.177 418.209 343.642 422.003C343.46 420.45 343.594 418.85 343.642 417.289L188.858 417.288C182.483 417.289 176.085 417.451 169.714 417.289Z"/>
	<path fill="#166281" transform="scale(2 2)" d="M169.714 417.289C176.085 417.451 182.483 417.289 188.858 417.288L343.642 417.289C343.594 418.85 343.46 420.45 343.642 422.003L169.714 422.003C169.611 420.403 169.559 418.888 169.714 417.289Z"/>
</svg>
